<svg width="74" height="56" viewBox="0 0 74 56" fill="none" xmlns="http://www.w3.org/2000/svg">
<g clip-path="url(#clip0_0_4742)">
<path fill-rule="evenodd" clip-rule="evenodd" d="M16.3787 29.8746C16.6328 29.6221 16.8026 29.4606 16.9642 29.2916C21.9306 24.1016 27.5221 19.6912 33.6372 15.9454C36.8856 13.9559 40.2483 12.165 43.6609 10.4764C47.4237 8.61416 51.1865 6.74787 55.0026 5.00022C59.047 3.14819 63.2677 1.7738 67.6099 0.80017C68.903 0.509914 70.2123 0.29095 71.519 0.0663833C71.9008 0.000693813 72.3018 -0.00847215 72.6876 0.0266641C73.2431 0.0775861 73.6716 0.365805 73.8896 0.902014C74.1087 1.44026 73.9877 1.93981 73.6274 2.36653C73.4195 2.613 73.1654 2.82992 72.9011 3.01681C72.2439 3.48122 71.5948 3.96752 70.8959 4.36217C68.5289 5.69836 66.1857 7.08853 63.7516 8.29386C58.313 10.9876 52.7896 13.5098 47.3678 16.2362C41.5724 19.1504 35.928 22.3305 30.7751 26.3289C27.4799 28.8857 24.4369 31.7043 21.5631 34.7163C20.3386 35.9995 19.3648 37.4707 18.4351 38.9719C18.2303 39.3023 18.0961 39.6771 17.937 40.0351C17.6031 40.7867 17.1304 41.4273 16.4554 41.9065C14.5494 43.2605 12.0115 42.5751 11.0174 40.4313C10.8903 40.1563 10.7998 39.8615 10.721 39.5676C9.53268 35.1109 9.11081 30.586 9.31921 25.9725C9.45746 22.9115 9.85442 19.9021 10.4628 16.9083C10.6539 15.9699 10.781 15.0181 10.9559 14.0761C11.0108 13.7792 11.0931 13.4782 11.2212 13.2073C11.4031 12.8234 11.7376 12.6207 12.1711 12.6375C12.6067 12.6553 12.9127 12.8931 13.0683 13.2878C13.1709 13.548 13.2314 13.8301 13.2782 14.1076C14.1336 19.1998 15.0968 24.2712 16.2084 29.3135C16.2404 29.4596 16.2938 29.6007 16.3766 29.8741L16.3787 29.8746Z" fill="#AE38FB"/>
<path fill-rule="evenodd" clip-rule="evenodd" d="M19.5315 56.0063C16.2603 55.7552 12.9188 55.7537 9.67554 54.8845C8.05617 54.4506 6.47492 53.894 4.97144 53.1414C3.37697 52.344 1.96803 51.3092 0.86151 49.8855C0.319179 49.1878 0.082322 48.422 0.0238701 47.5359C-0.199772 44.1206 1.14869 41.2959 3.22093 38.731C3.84916 37.9529 4.51704 37.2069 5.16712 36.4461C5.50614 36.0489 5.78925 35.9547 6.0439 36.1523C6.30007 36.3514 6.28686 36.6238 5.97427 37.077C5.39381 37.9188 4.74474 38.7208 4.23291 39.6023C3.58994 40.7098 2.9795 41.8489 2.49562 43.0324C1.89534 44.4989 1.95837 46.0648 2.16626 47.6098C2.20692 47.9097 2.40616 48.2162 2.60388 48.4627C3.32614 49.364 4.27052 49.9787 5.30385 50.4711C7.35932 51.4498 9.54135 51.8857 11.7971 52.0323C14.4986 52.208 17.1813 52.0196 19.8695 51.7436C22.8816 51.4335 25.7615 50.631 28.5997 49.6359C37.1957 46.6208 45.0526 42.2456 52.233 36.6503C53.4478 35.7037 54.5609 34.6211 55.6807 33.5583C56.6327 32.6545 57.3768 31.5759 58.0508 30.4511C58.6998 29.3674 59.0927 28.2039 59.169 26.9364C59.203 26.3712 59.2452 25.8059 59.3032 25.2428C59.3575 24.7152 59.1761 24.2905 58.7583 23.9896C58.3898 23.7243 58.002 23.4773 57.5984 23.2716C56.1239 22.5199 54.5228 22.2047 52.9055 21.9608C51.3359 21.7245 49.7638 21.5086 48.1932 21.2815C48.0652 21.2627 47.9162 21.2612 47.8197 21.1919C47.7078 21.1114 47.5813 20.9673 47.5772 20.8467C47.5732 20.727 47.6895 20.5737 47.7958 20.4876C47.8873 20.4128 48.0372 20.4021 48.1643 20.3797C50.1557 20.0314 52.1476 19.6841 54.1401 19.3394C55.4123 19.1199 56.6998 19.0725 57.9766 19.2059C59.8475 19.4015 61.505 20.1195 62.825 21.5061C63.7455 22.4731 64.2462 23.626 64.3295 24.9662C64.5293 28.1799 63.8126 31.1339 62.0128 33.8379C60.3995 36.2613 58.3964 38.3073 56.1391 40.0998C48.4936 46.1722 40.1803 51.048 30.8402 54.0361C28.5407 54.7719 26.225 55.4767 23.8082 55.715C22.4023 55.854 20.9888 55.909 19.5305 56.0053L19.5315 56.0063Z" fill="#AE38FB"/>
</g>
<defs>
<clipPath id="clip0_0_4742">
<rect width="74" height="56" fill="white" transform="translate(0 0.00634766)"/>
</clipPath>
</defs>
</svg>
