<svg width="209" height="197" viewBox="0 0 209 197" fill="none" xmlns="http://www.w3.org/2000/svg">
<path d="M200.824 132.91L193.711 131.619C189.967 130.974 189.967 125.604 193.711 124.959C199.339 123.99 203.374 120.999 205.806 117.136C205.87 116.846 205.956 116.577 206.064 116.329C207.043 111.907 207.71 107.474 208.097 103.051C208.097 103.03 208.087 103.008 208.097 102.987C206.613 96.617 201.803 91.0218 193.668 89.6445L27.7167 61.647C24.0583 64.3477 20.5936 67.6618 17.0859 72.8697C14.0085 77.4319 11.7597 82.1771 10.1241 86.8039L148.326 110.336C150.65 110.734 150.661 114.07 148.347 114.479C127.182 118.245 127.301 148.642 148.487 152.257L185.308 158.702C191.581 151.127 196.864 142.498 200.824 132.91Z" fill="white"/>
<path d="M185.297 158.95C185.286 158.95 185.264 158.95 185.254 158.95L148.433 152.504C137.318 150.611 132.304 141.561 132.271 133.427C132.239 125.292 137.178 116.211 148.282 114.231C149.348 114.037 149.81 113.176 149.81 112.402C149.81 111.627 149.326 110.766 148.272 110.583L10.0809 87.0512C10.0055 87.0405 9.94097 86.9974 9.90869 86.9329C9.87641 86.8683 9.86565 86.793 9.88717 86.7284C11.6626 81.682 14.019 76.9691 16.8812 72.7297C20.0231 68.0706 23.3264 64.5843 27.5766 61.4532C27.6304 61.4101 27.7057 61.3994 27.7703 61.4101L193.7 89.4077C201.178 90.6773 206.655 95.7345 208.323 102.933C208.334 102.954 208.334 102.987 208.334 103.008C208.334 103.03 208.345 103.051 208.334 103.073C207.947 107.56 207.269 112.036 206.3 116.383C206.3 116.394 206.289 116.404 206.289 116.415C206.193 116.673 206.107 116.932 206.042 117.19C206.031 117.211 206.02 117.244 206.01 117.265C204.137 120.246 200.479 124.044 193.754 125.206C191.957 125.518 191.161 126.982 191.161 128.294C191.161 129.607 191.968 131.07 193.754 131.372L200.877 132.663C200.952 132.674 201.017 132.727 201.049 132.792C201.082 132.857 201.092 132.932 201.06 133.007C197.197 142.368 191.957 151.062 185.501 158.863C185.447 158.917 185.372 158.95 185.297 158.95ZM10.4575 86.6101L148.368 110.088C149.713 110.314 150.327 111.412 150.327 112.402C150.327 113.392 149.735 114.489 148.379 114.726C137.555 116.652 132.745 125.507 132.777 133.427C132.809 141.346 137.684 150.159 148.519 152.009L185.2 158.433C191.527 150.783 196.659 142.261 200.468 133.104L193.657 131.867C191.581 131.512 190.644 129.811 190.644 128.294C190.644 126.777 191.57 125.077 193.657 124.722C200.178 123.592 203.729 119.934 205.558 117.039C205.622 116.781 205.708 116.523 205.805 116.254C206.763 111.939 207.441 107.506 207.817 103.062C207.817 103.051 207.817 103.03 207.817 103.019C206.182 96.0358 200.866 91.1293 193.603 89.9026L27.7811 61.9051C23.6169 64.9932 20.3782 68.4149 17.2901 72.9987C14.5032 77.1305 12.2113 81.7035 10.4575 86.6101Z" fill="black"/>
<path d="M62.4823 187.507C70.8536 191.283 79.6337 193.995 88.4569 195.437C119.209 200.462 152.533 190.379 176.302 168.225L62.4823 187.507Z" fill="white"/>
<path d="M104.21 196.954C100.875 196.954 97.5393 196.793 94.2252 196.448C94.0853 196.438 93.9885 196.308 93.9992 196.169C94.01 196.029 94.1391 195.932 94.279 195.943C123.32 198.891 153.62 188.68 175.517 168.601L62.5262 187.754C62.3863 187.776 62.2572 187.69 62.2357 187.55C62.2142 187.41 62.3003 187.281 62.4401 187.259L176.27 167.977C176.378 167.956 176.485 168.01 176.539 168.117C176.593 168.225 176.561 168.332 176.485 168.408C156.913 186.646 130.497 196.954 104.21 196.954Z" fill="black"/>
<path d="M99.3241 128.079L97.043 126.96C96.6771 126.777 96.4404 126.411 96.4404 126.002C96.4512 125.572 96.4404 125.142 96.4081 124.722C96.3866 124.313 96.6018 123.937 96.9569 123.732L99.1734 122.505C99.6146 122.269 99.819 121.752 99.6792 121.279L99.0981 119.342C98.9582 118.869 98.4956 118.557 98.0006 118.578L95.4505 118.75C95.0416 118.772 94.6435 118.567 94.4498 118.212C94.2454 117.846 94.0194 117.481 93.7827 117.125C93.5567 116.781 93.546 116.351 93.7504 115.996L95.0524 113.822C95.3106 113.392 95.2353 112.854 94.8694 112.509L93.3953 111.121C93.0295 110.777 92.4807 110.734 92.0611 111.014L89.9414 112.413C89.597 112.639 89.1559 112.649 88.8008 112.445C88.435 112.23 88.0584 112.025 87.671 111.842C87.3052 111.659 87.0684 111.283 87.0684 110.874L87.1007 108.345C87.1115 107.85 86.7672 107.409 86.283 107.302L84.3031 106.828C83.8189 106.71 83.3132 106.947 83.0872 107.388L81.9574 109.658C81.7745 110.024 81.3979 110.261 80.989 110.25C80.5586 110.239 80.1282 110.25 79.6978 110.282C79.289 110.304 78.9016 110.099 78.7079 109.744L77.4705 107.549C77.223 107.119 76.7066 106.903 76.2331 107.043L74.2748 107.614C73.7906 107.754 73.4786 108.205 73.5108 108.7L73.683 111.218C73.7045 111.627 73.5001 112.014 73.145 112.208C72.7684 112.413 72.4026 112.639 72.0475 112.875C71.7032 113.101 71.262 113.112 70.9069 112.897L68.7119 111.606C68.2815 111.347 67.7327 111.423 67.3884 111.789L65.9896 113.252C65.6453 113.607 65.5915 114.156 65.8712 114.575L67.2916 116.674C67.5175 117.018 67.5283 117.448 67.3238 117.803C67.1086 118.169 66.9042 118.535 66.7105 118.922C66.5276 119.288 66.151 119.525 65.7314 119.514L63.1812 119.482C62.6755 119.471 62.2451 119.815 62.1268 120.3L61.6533 122.269C61.535 122.753 61.7717 123.248 62.2236 123.474L64.5047 124.593C64.8706 124.776 65.1073 125.142 65.1073 125.551C65.0965 125.981 65.1073 126.411 65.1396 126.831C65.1611 127.24 64.9459 127.616 64.5908 127.821L62.3742 129.048C61.9331 129.284 61.7286 129.801 61.8685 130.274L62.4496 132.211C62.5894 132.684 63.0521 132.996 63.5471 132.975L66.0972 132.803C66.5061 132.781 66.9042 132.986 67.0979 133.341C67.3131 133.717 67.5283 134.072 67.7758 134.438C68.0017 134.772 68.0125 135.213 67.7973 135.568L66.4953 137.742C66.2371 138.172 66.3124 138.71 66.6782 139.054L68.1524 140.442C68.5182 140.787 69.067 140.83 69.4866 140.55L71.6063 139.151C71.9506 138.925 72.3918 138.914 72.7469 139.119C73.1127 139.334 73.4893 139.539 73.8767 139.721C74.2533 139.904 74.4792 140.281 74.4685 140.69L74.4362 143.218C74.4254 143.713 74.7698 144.155 75.254 144.262L77.2338 144.736C77.718 144.854 78.2237 144.617 78.4497 144.176L79.5795 141.906C79.7624 141.54 80.139 141.303 80.5479 141.314C80.9783 141.325 81.4194 141.314 81.8391 141.282C82.248 141.26 82.6353 141.465 82.829 141.82L84.0664 144.015C84.3139 144.445 84.8304 144.66 85.3038 144.52L87.2621 143.95C87.7463 143.81 88.0584 143.358 88.0261 142.863L87.8539 140.346C87.8324 139.937 88.0368 139.549 88.4027 139.356C88.7793 139.151 89.1344 138.925 89.4894 138.689C89.8338 138.463 90.2749 138.452 90.63 138.656L92.825 139.947C93.2554 140.206 93.8042 140.13 94.1485 139.765L95.5581 138.301C95.9024 137.946 95.9562 137.397 95.6764 136.978L94.2561 134.879C94.0302 134.535 94.0194 134.105 94.2238 133.75C94.439 133.384 94.6435 133.018 94.8372 132.631C95.0201 132.265 95.3967 132.028 95.8163 132.039L98.3664 132.071C98.8722 132.082 99.3026 131.738 99.4209 131.253L99.8944 129.284C100.013 128.8 99.776 128.305 99.3241 128.079ZM80.9568 134.449C76.1255 134.557 72.112 130.758 72.0152 125.959C71.9076 121.171 75.7489 117.201 80.5802 117.093C85.4114 116.986 89.4249 120.784 89.5217 125.583C89.6293 130.371 85.7988 134.341 80.9568 134.449Z" fill="black"/>
<path d="M77.4812 145.005C77.3736 145.005 77.2767 144.994 77.1691 144.972L75.1893 144.499C74.5867 144.359 74.1671 143.821 74.1778 143.208L74.2101 140.679C74.2101 140.367 74.0379 140.077 73.7582 139.937C73.3708 139.743 72.9835 139.539 72.6069 139.323C72.3379 139.162 71.9935 139.173 71.7353 139.345L69.6156 140.744C69.0991 141.088 68.4212 141.034 67.9693 140.604L66.4844 139.216C66.0325 138.785 65.9357 138.118 66.2585 137.591L67.5604 135.418C67.7218 135.149 67.7111 134.815 67.5389 134.557C67.2914 134.202 67.0655 133.825 66.8503 133.449C66.6996 133.18 66.3983 133.029 66.0863 133.04L63.5362 133.212C62.9121 133.255 62.3526 132.867 62.1804 132.276L61.5994 130.339C61.4272 129.747 61.6747 129.123 62.2235 128.822L64.44 127.595C64.709 127.444 64.8812 127.143 64.8597 126.842C64.8274 126.411 64.8166 125.97 64.8274 125.54C64.8274 125.239 64.6552 124.948 64.3755 124.808L62.0944 123.689C61.5348 123.42 61.2443 122.807 61.3949 122.204L61.8684 120.235C62.019 119.633 62.557 119.224 63.1704 119.235L65.7205 119.267C66.0433 119.278 66.3338 119.095 66.4737 118.815C66.6673 118.428 66.8718 118.04 67.0978 117.674C67.2592 117.405 67.2484 117.072 67.0762 116.814L65.6559 114.715C65.3116 114.199 65.3654 113.532 65.7958 113.08L67.1946 111.616C67.625 111.165 68.2921 111.078 68.8301 111.391L71.0252 112.682C71.2942 112.843 71.6385 112.832 71.8967 112.66C72.2625 112.423 72.6392 112.187 73.0158 111.982C73.2848 111.832 73.4461 111.53 73.4246 111.229L73.2525 108.711C73.2094 108.098 73.5968 107.538 74.1994 107.366L76.1577 106.796C76.7495 106.624 77.3843 106.871 77.6856 107.409L78.923 109.604C79.0736 109.873 79.3749 110.046 79.687 110.024C80.1174 109.992 80.5585 109.981 80.9997 109.992C81.3009 110.002 81.6022 109.82 81.7421 109.54L82.8719 107.269C83.1517 106.721 83.765 106.43 84.3676 106.57L86.3474 107.043C86.95 107.183 87.3696 107.721 87.3588 108.335L87.3266 110.863C87.3266 111.175 87.4987 111.466 87.7785 111.595C88.1766 111.789 88.5532 111.993 88.9298 112.208C89.1988 112.37 89.5431 112.359 89.8013 112.187L91.9211 110.788C92.4375 110.444 93.1154 110.497 93.5673 110.928L95.0522 112.316C95.5041 112.746 95.601 113.413 95.2782 113.941L93.9762 116.114C93.8148 116.383 93.8256 116.717 93.9977 116.975C94.2345 117.33 94.4604 117.696 94.6756 118.072C94.8263 118.341 95.1275 118.503 95.4503 118.481L98.0005 118.309C98.6245 118.266 99.1733 118.654 99.3562 119.245L99.9373 121.182C100.12 121.774 99.862 122.398 99.3132 122.699L97.0966 123.926C96.8169 124.077 96.6555 124.378 96.677 124.679C96.7093 125.11 96.72 125.551 96.7093 125.981C96.6985 126.282 96.8814 126.573 97.1612 126.713L99.4423 127.832C100.002 128.101 100.292 128.714 100.142 129.317L99.6683 131.286C99.5284 131.888 98.9904 132.308 98.3663 132.286L95.8162 132.254C95.4934 132.254 95.2029 132.426 95.0737 132.706C94.8801 133.093 94.6756 133.481 94.4497 133.847C94.2883 134.116 94.299 134.449 94.4712 134.707L95.8915 136.806C96.2358 137.322 96.182 137.989 95.7516 138.441L94.3421 139.905C93.9117 140.356 93.2445 140.443 92.7065 140.13L90.5115 138.839C90.2425 138.678 89.8982 138.689 89.6399 138.861C89.2849 139.098 88.9083 139.323 88.5317 139.539C88.2627 139.689 88.0905 139.991 88.112 140.303L88.2842 142.82C88.3272 143.434 87.9399 143.993 87.3373 144.165L85.379 144.736C84.7872 144.908 84.1523 144.66 83.8511 144.122L82.6137 141.927C82.463 141.658 82.1617 141.486 81.8497 141.508C81.4193 141.54 80.9782 141.551 80.537 141.54C80.2357 141.54 79.9344 141.712 79.7945 141.992L78.6648 144.262C78.4388 144.725 77.9761 144.994 77.4812 145.005ZM72.1872 138.71C72.4239 138.71 72.6499 138.775 72.8544 138.893C73.2094 139.108 73.586 139.302 73.9626 139.485C74.4145 139.711 74.7051 140.174 74.7051 140.679L74.6728 143.208C74.6728 143.595 74.9203 143.918 75.2969 144.004L77.2767 144.478C77.6533 144.564 78.0407 144.391 78.2021 144.047L79.3319 141.777C79.5578 141.325 80.0205 141.045 80.5262 141.045C80.9459 141.056 81.3763 141.045 81.7959 141.013C82.3016 140.981 82.7751 141.239 83.0226 141.68L84.26 143.875C84.4536 144.209 84.841 144.37 85.2068 144.262L87.1652 143.692C87.531 143.584 87.7785 143.24 87.7462 142.864L87.574 140.346C87.5417 139.84 87.8 139.356 88.2519 139.119C88.6177 138.915 88.9836 138.699 89.3279 138.463C89.7475 138.183 90.2963 138.172 90.7375 138.43L92.9325 139.722C93.2661 139.915 93.6857 139.861 93.9547 139.582L95.3643 138.118C95.6333 137.839 95.6656 137.43 95.4503 137.107L94.03 135.009C93.7503 134.589 93.7288 134.04 93.987 133.61C94.2022 133.255 94.4066 132.889 94.5896 132.512C94.8047 132.06 95.2782 131.781 95.7732 131.781C95.7839 131.781 95.7839 131.781 95.7947 131.781L98.3448 131.813H98.3555C98.7429 131.813 99.0657 131.555 99.1518 131.189L99.6252 129.22C99.7113 128.854 99.5391 128.477 99.1948 128.305L96.9137 127.186C96.4618 126.96 96.1713 126.498 96.1713 125.992C96.182 125.572 96.1713 125.142 96.139 124.733C96.1067 124.238 96.3757 123.754 96.8169 123.506L99.0334 122.28C99.367 122.097 99.5284 121.709 99.4208 121.344L98.8397 119.407C98.7322 119.041 98.3878 118.804 98.0005 118.826L95.4503 118.998C94.9446 119.03 94.4604 118.772 94.2129 118.331C94.0085 117.965 93.7933 117.61 93.5566 117.265C93.2768 116.846 93.2553 116.297 93.5243 115.867L94.8263 113.693C95.0199 113.37 94.9662 112.951 94.6864 112.692L93.2015 111.304C92.9217 111.046 92.5021 111.003 92.1793 111.218L90.0596 112.617C89.64 112.897 89.0912 112.908 88.65 112.66C88.2949 112.456 87.9184 112.251 87.5418 112.068C87.0898 111.842 86.7993 111.38 86.7993 110.874L86.8316 108.345C86.8424 107.958 86.5841 107.635 86.2075 107.549L84.2277 107.076C83.8511 106.99 83.4637 107.162 83.3023 107.506L82.1725 109.777C81.9465 110.228 81.4946 110.508 80.9997 110.508C80.9889 110.508 80.9889 110.508 80.9782 110.508C80.5478 110.497 80.1281 110.508 79.7085 110.54C79.2027 110.573 78.7293 110.315 78.4818 109.873L77.2444 107.678C77.0507 107.345 76.6634 107.183 76.2976 107.291L74.3392 107.861C73.9734 107.969 73.7259 108.313 73.7474 108.69L73.9196 111.208C73.9519 111.713 73.6936 112.198 73.2525 112.434C72.8866 112.639 72.5208 112.865 72.1657 113.091C71.7461 113.37 71.1973 113.381 70.7669 113.123L68.5719 111.832C68.2383 111.638 67.8187 111.692 67.5497 111.972L66.1509 113.435C65.8819 113.715 65.8496 114.124 66.0648 114.446L67.4851 116.545C67.7649 116.964 67.7864 117.513 67.5282 117.943C67.313 118.298 67.1085 118.664 66.9256 119.041C66.6996 119.493 66.2262 119.773 65.7205 119.773L63.1704 119.74C62.7938 119.719 62.4494 119.988 62.3634 120.364L61.8899 122.333C61.8038 122.699 61.976 123.076 62.3203 123.248L64.6014 124.367C65.0533 124.593 65.3439 125.056 65.3439 125.561C65.3331 125.981 65.3439 126.411 65.3762 126.82C65.4084 127.315 65.1394 127.8 64.6983 128.047L62.4817 129.274C62.1481 129.457 61.9868 129.844 62.0944 130.21L62.6754 132.147C62.783 132.512 63.1273 132.749 63.5147 132.728L66.0648 132.555C66.5705 132.523 67.0547 132.781 67.3022 133.212C67.5066 133.578 67.7326 133.933 67.9693 134.288C68.2491 134.697 68.2598 135.245 68.0016 135.687L66.6996 137.86C66.5059 138.183 66.5597 138.603 66.8395 138.861L68.3244 140.249C68.6041 140.507 69.0238 140.55 69.3466 140.335L71.4663 138.936C71.6707 138.785 71.929 138.71 72.1872 138.71ZM80.763 134.707C78.428 134.707 76.233 133.836 74.5437 132.233C72.8005 130.586 71.8214 128.359 71.7676 125.981C71.7138 123.592 72.6069 121.333 74.2747 119.611C75.9425 117.89 78.1805 116.91 80.58 116.857C82.9795 116.814 85.2714 117.685 87.0038 119.331C88.7469 120.978 89.726 123.205 89.7798 125.583C89.8336 127.961 88.9406 130.231 87.2728 131.953C85.605 133.674 83.3669 134.654 80.9566 134.707C80.9028 134.697 80.8383 134.707 80.763 134.707ZM80.7845 117.341C80.7199 117.341 80.6554 117.341 80.5908 117.341C78.3204 117.384 76.2007 118.309 74.6298 119.945C73.0588 121.569 72.2195 123.7 72.2626 125.96C72.3056 128.219 73.2417 130.307 74.8772 131.867C76.5127 133.427 78.6647 134.256 80.9459 134.202C83.2162 134.159 85.3359 133.233 86.9069 131.598C88.4779 129.973 89.3172 127.843 89.2633 125.583C89.2203 123.334 88.2842 121.236 86.6487 119.676C85.0669 118.169 82.9795 117.341 80.7845 117.341Z" fill="white"/>
<path d="M124.019 143.348L122.254 142.788C121.964 142.702 121.759 142.454 121.716 142.164C121.673 141.852 121.619 141.54 121.555 141.239C121.49 140.948 121.609 140.647 121.845 140.464L123.319 139.334C123.61 139.108 123.707 138.721 123.556 138.387L122.932 137.053C122.781 136.719 122.416 136.547 122.06 136.623L120.242 137.021C119.952 137.085 119.639 136.978 119.457 136.741C119.263 136.493 119.069 136.257 118.854 136.031C118.65 135.805 118.596 135.493 118.714 135.213L119.424 133.502C119.564 133.169 119.446 132.781 119.145 132.577L117.929 131.738C117.627 131.533 117.229 131.555 116.949 131.802L115.572 133.039C115.346 133.244 115.034 133.298 114.754 133.19C114.464 133.072 114.173 132.964 113.872 132.878C113.582 132.792 113.377 132.545 113.334 132.243L113.087 130.414C113.044 130.059 112.742 129.779 112.376 129.747L110.892 129.618C110.526 129.586 110.192 129.811 110.074 130.156L109.504 131.91C109.417 132.189 109.17 132.405 108.869 132.437C108.557 132.48 108.245 132.534 107.933 132.598C107.642 132.663 107.341 132.545 107.158 132.319L106.028 130.866C105.802 130.575 105.415 130.489 105.081 130.64L103.736 131.264C103.403 131.415 103.22 131.781 103.306 132.136L103.704 133.933C103.768 134.223 103.661 134.524 103.424 134.707C103.177 134.901 102.929 135.095 102.703 135.31C102.477 135.514 102.165 135.557 101.885 135.45L100.164 134.75C99.8303 134.61 99.4322 134.729 99.2278 135.03L98.3777 136.235C98.1733 136.536 98.1948 136.935 98.4423 137.204L99.6904 138.559C99.8949 138.775 99.9487 139.097 99.8303 139.377C99.712 139.668 99.6044 139.947 99.5075 140.249C99.4214 140.539 99.1632 140.744 98.8727 140.776L97.0327 141.023C96.6669 141.077 96.3871 141.368 96.3548 141.723L96.2257 143.197C96.1934 143.563 96.4194 143.896 96.7637 144.004L98.5284 144.563C98.8189 144.65 99.0233 144.897 99.0664 145.188C99.1094 145.5 99.1632 145.812 99.2278 146.113C99.2923 146.403 99.174 146.705 98.9372 146.888L97.4631 148.017C97.1726 148.243 97.0758 148.631 97.2264 148.964L97.8505 150.299C98.0011 150.632 98.367 150.804 98.722 150.729L100.54 150.331C100.831 150.266 101.143 150.374 101.315 150.611C101.509 150.858 101.713 151.095 101.918 151.321C102.122 151.536 102.176 151.859 102.058 152.128L101.347 153.839C101.208 154.172 101.326 154.559 101.627 154.764L102.843 155.603C103.144 155.808 103.543 155.786 103.822 155.539L105.2 154.301C105.426 154.097 105.738 154.043 106.017 154.151C106.308 154.269 106.598 154.377 106.9 154.463C107.19 154.549 107.395 154.796 107.438 155.097L107.685 156.927C107.728 157.282 108.029 157.562 108.395 157.594L109.88 157.723C110.246 157.755 110.58 157.529 110.698 157.185L111.268 155.431C111.354 155.151 111.602 154.936 111.903 154.904C112.215 154.861 112.527 154.807 112.839 154.742C113.13 154.678 113.431 154.796 113.614 155.022L114.744 156.475C114.97 156.765 115.357 156.851 115.691 156.701L117.036 156.077C117.369 155.926 117.552 155.56 117.466 155.205L117.068 153.408C117.003 153.118 117.111 152.816 117.358 152.633C117.606 152.44 117.843 152.246 118.079 152.042C118.305 151.837 118.617 151.783 118.897 151.902L120.619 152.601C120.952 152.741 121.35 152.623 121.555 152.321L122.405 151.116C122.609 150.815 122.588 150.417 122.34 150.148L121.092 148.792C120.888 148.577 120.834 148.254 120.952 147.974C121.071 147.684 121.178 147.404 121.275 147.103C121.361 146.812 121.619 146.608 121.91 146.576L123.75 146.328C124.116 146.274 124.395 145.984 124.428 145.629L124.557 144.155C124.589 143.789 124.363 143.455 124.019 143.348ZM111.462 149.922C107.986 150.524 104.683 148.211 104.091 144.768C103.499 141.325 105.834 138.043 109.31 137.44C112.785 136.838 116.089 139.151 116.68 142.594C117.272 146.038 114.937 149.33 111.462 149.922Z" fill="black"/>
<path d="M109.944 157.992C109.912 157.992 109.88 157.992 109.858 157.992L108.373 157.863C107.889 157.82 107.502 157.454 107.437 156.981L107.19 155.151C107.168 154.958 107.018 154.786 106.824 154.721C106.523 154.624 106.211 154.517 105.931 154.398C105.748 154.323 105.522 154.366 105.371 154.495L103.994 155.732C103.639 156.055 103.112 156.087 102.714 155.818L101.498 154.979C101.1 154.699 100.949 154.194 101.132 153.753L101.842 152.042C101.917 151.859 101.885 151.644 101.745 151.493C101.53 151.256 101.326 151.02 101.121 150.761C101.003 150.611 100.788 150.535 100.594 150.578L98.7755 150.976C98.302 151.084 97.8286 150.847 97.6241 150.406L97.0001 149.072C96.7956 148.631 96.9247 148.125 97.3013 147.824L98.7755 146.694C98.9369 146.565 99.0122 146.371 98.9691 146.178C98.9046 145.865 98.84 145.553 98.8077 145.231C98.7862 145.037 98.6356 144.876 98.4419 144.811L96.6773 144.251C96.2146 144.112 95.9241 143.67 95.9671 143.186L96.0962 141.712C96.1393 141.228 96.5051 140.851 96.9893 140.787L98.8293 140.539C99.0337 140.507 99.2059 140.367 99.2597 140.173C99.3565 139.872 99.4641 139.571 99.5825 139.28C99.6578 139.097 99.6147 138.882 99.4856 138.732L98.2375 137.376C97.9039 137.021 97.8716 136.494 98.1514 136.095L99.0014 134.89C99.2812 134.492 99.7869 134.342 100.239 134.524L101.96 135.224C102.154 135.299 102.369 135.267 102.52 135.127C102.757 134.912 103.004 134.707 103.262 134.514C103.424 134.395 103.499 134.191 103.456 133.997L103.058 132.2C102.95 131.727 103.187 131.253 103.628 131.049L104.973 130.425C105.414 130.22 105.931 130.339 106.221 130.726L107.351 132.179C107.48 132.34 107.685 132.416 107.878 132.372C108.19 132.308 108.513 132.243 108.825 132.2C109.019 132.179 109.191 132.028 109.256 131.834L109.826 130.081C109.977 129.618 110.418 129.327 110.902 129.37L112.387 129.5C112.871 129.543 113.258 129.908 113.323 130.382L113.57 132.211C113.592 132.405 113.743 132.577 113.936 132.641C114.238 132.738 114.539 132.846 114.829 132.964C115.023 133.04 115.238 132.997 115.389 132.867L116.766 131.63C117.121 131.307 117.649 131.275 118.047 131.544L119.263 132.383C119.661 132.663 119.811 133.169 119.628 133.61L118.918 135.321C118.843 135.504 118.875 135.719 119.015 135.869C119.23 136.106 119.435 136.343 119.628 136.59C119.757 136.752 119.962 136.827 120.156 136.784L121.974 136.386C122.447 136.278 122.921 136.515 123.125 136.956L123.749 138.29C123.954 138.732 123.825 139.237 123.448 139.539L121.974 140.668C121.813 140.798 121.737 140.991 121.78 141.185C121.845 141.497 121.909 141.809 121.942 142.132C121.963 142.325 122.114 142.487 122.308 142.551L124.072 143.111C124.535 143.262 124.825 143.692 124.782 144.176L124.653 145.65C124.61 146.134 124.244 146.511 123.76 146.576L121.92 146.823C121.716 146.855 121.544 146.995 121.49 147.189C121.393 147.49 121.285 147.792 121.167 148.082C121.092 148.265 121.135 148.48 121.264 148.631L122.512 149.987C122.846 150.342 122.878 150.869 122.598 151.267L121.748 152.472C121.468 152.87 120.963 153.021 120.511 152.838L118.789 152.139C118.595 152.063 118.38 152.106 118.23 152.235C117.993 152.451 117.745 152.655 117.498 152.849C117.336 152.967 117.261 153.182 117.304 153.376L117.702 155.173C117.81 155.646 117.573 156.12 117.132 156.324L115.787 156.948C115.346 157.153 114.829 157.034 114.539 156.647L113.409 155.194C113.28 155.033 113.076 154.958 112.882 155.001C112.57 155.065 112.247 155.13 111.935 155.173C111.741 155.194 111.569 155.345 111.505 155.539L110.934 157.293C110.794 157.712 110.396 157.992 109.944 157.992ZM105.737 153.871C105.866 153.871 105.995 153.892 106.125 153.946C106.404 154.065 106.695 154.161 106.985 154.248C107.362 154.366 107.642 154.699 107.696 155.087L107.943 156.916C107.975 157.164 108.169 157.346 108.416 157.368L109.901 157.497C110.149 157.519 110.375 157.368 110.461 157.131L111.031 155.377C111.149 155.001 111.483 154.721 111.87 154.678C112.172 154.635 112.484 154.581 112.785 154.517C113.172 154.43 113.57 154.581 113.818 154.893L114.948 156.346C115.098 156.539 115.367 156.604 115.593 156.496L116.938 155.872C117.164 155.765 117.283 155.528 117.229 155.28L116.831 153.484C116.745 153.096 116.895 152.698 117.207 152.451C117.444 152.268 117.681 152.074 117.907 151.87C118.197 151.611 118.628 151.525 118.994 151.676L120.715 152.375C120.941 152.472 121.21 152.386 121.35 152.192L122.2 150.987C122.34 150.783 122.329 150.514 122.157 150.331L120.909 148.975C120.64 148.685 120.564 148.265 120.715 147.899C120.833 147.619 120.93 147.34 121.027 147.049C121.146 146.672 121.479 146.393 121.866 146.339L123.706 146.091C123.954 146.059 124.148 145.866 124.169 145.618L124.298 144.144C124.32 143.896 124.169 143.67 123.932 143.595L122.168 143.036C121.791 142.917 121.511 142.584 121.458 142.196C121.415 141.895 121.361 141.594 121.296 141.292C121.21 140.916 121.361 140.507 121.673 140.27L123.147 139.14C123.341 138.99 123.405 138.732 123.308 138.506L122.684 137.171C122.577 136.945 122.34 136.827 122.092 136.881L120.274 137.279C119.887 137.365 119.478 137.214 119.241 136.913C119.058 136.676 118.854 136.44 118.66 136.225C118.391 135.934 118.316 135.514 118.466 135.149L119.176 133.438C119.273 133.212 119.198 132.954 118.994 132.814L117.778 131.974C117.573 131.834 117.304 131.845 117.111 132.017L115.733 133.255C115.443 133.513 115.012 133.599 114.657 133.448C114.377 133.33 114.087 133.233 113.796 133.147C113.42 133.029 113.14 132.695 113.086 132.308L112.839 130.479C112.807 130.231 112.613 130.048 112.365 130.027L110.88 129.898C110.633 129.876 110.407 130.027 110.321 130.263L109.751 132.017C109.632 132.394 109.299 132.674 108.911 132.717C108.61 132.76 108.298 132.814 107.997 132.878C107.609 132.964 107.211 132.814 106.964 132.502L105.834 131.049C105.683 130.855 105.414 130.791 105.188 130.898L103.843 131.522C103.617 131.63 103.499 131.867 103.553 132.114L103.951 133.911C104.037 134.298 103.886 134.697 103.574 134.933C103.327 135.116 103.09 135.321 102.864 135.525C102.574 135.783 102.154 135.859 101.788 135.708L100.067 135.009C99.8407 134.912 99.5717 134.998 99.4318 135.192L98.5818 136.397C98.4419 136.601 98.4527 136.87 98.6248 137.053L99.873 138.409C100.142 138.699 100.217 139.119 100.067 139.485C99.9483 139.765 99.8515 140.044 99.7546 140.335C99.6363 140.711 99.3027 140.991 98.9153 141.045L97.0754 141.292C96.8279 141.325 96.6342 141.518 96.6127 141.766L96.4836 143.24C96.4621 143.488 96.6127 143.714 96.8494 143.789L98.6141 144.348C98.9907 144.467 99.2704 144.8 99.3242 145.188C99.3673 145.489 99.4211 145.79 99.4856 146.091C99.5717 146.468 99.4211 146.877 99.109 147.114L97.6349 148.243C97.4412 148.394 97.3767 148.652 97.4735 148.878L98.0976 150.213C98.2052 150.438 98.4419 150.557 98.6894 150.503L100.508 150.105C100.895 150.019 101.304 150.17 101.541 150.471C101.734 150.708 101.928 150.944 102.133 151.17C102.402 151.461 102.466 151.88 102.316 152.246L101.605 153.957C101.509 154.183 101.584 154.441 101.788 154.581L103.004 155.42C103.209 155.56 103.478 155.549 103.671 155.377L105.049 154.14C105.231 153.968 105.49 153.871 105.737 153.871ZM110.353 150.277C108.997 150.277 107.685 149.868 106.555 149.072C105.113 148.061 104.145 146.554 103.843 144.811C103.542 143.079 103.94 141.336 104.973 139.894C105.995 138.452 107.523 137.505 109.266 137.193C112.871 136.569 116.314 138.979 116.928 142.551C117.229 144.284 116.831 146.027 115.798 147.469C114.776 148.911 113.248 149.857 111.505 150.169C111.117 150.245 110.73 150.277 110.353 150.277ZM110.407 137.602C110.063 137.602 109.708 137.634 109.353 137.688C107.739 137.968 106.329 138.85 105.382 140.184C104.435 141.508 104.069 143.122 104.338 144.725C104.618 146.328 105.5 147.716 106.835 148.652C108.169 149.588 109.804 149.954 111.418 149.675C113.032 149.395 114.442 148.512 115.389 147.178C116.336 145.855 116.702 144.241 116.433 142.637C115.927 139.7 113.334 137.613 110.407 137.602Z" fill="white"/>
<path d="M73.7148 75.764L80.2354 55.2339L134.95 64.5305L73.7148 75.764Z" fill="white"/>
<path d="M86.4453 18.5637L139.072 27.6989L191.657 18.5529L138.481 9.29932L86.4453 18.5637Z" fill="white"/>
<path d="M106.879 14.7977L159.506 23.933L171.299 22.05L118.123 12.7964L106.879 14.7977Z" fill="black"/>
<path d="M139.062 105.171V27.6234L86.2305 18.5312V95.8526L139.062 105.171Z" fill="white"/>
<path d="M139.061 105.418C139.05 105.418 139.029 105.418 139.018 105.418L86.1866 96.1111C86.0683 96.0896 85.9822 95.9819 85.9822 95.8636V77.5716C85.9822 77.4317 86.0898 77.3241 86.2296 77.3241C86.3695 77.3241 86.4771 77.4317 86.4771 77.5716V95.6591L138.814 104.88V27.8389L86.4771 18.8328V52.8774C86.4771 53.0173 86.3695 53.1249 86.2296 53.1249C86.0898 53.1249 85.9822 53.0173 85.9822 52.8774V18.5315C85.9822 18.4562 86.0144 18.3916 86.0682 18.3378C86.122 18.2948 86.1974 18.2732 86.2727 18.284L139.104 27.3762C139.223 27.3977 139.309 27.5053 139.309 27.6237V105.171C139.309 105.246 139.276 105.311 139.223 105.365C139.18 105.397 139.126 105.418 139.061 105.418Z" fill="black"/>
<path d="M129.55 84.8991C129.539 84.8991 129.518 84.8991 129.507 84.8991L95.3548 78.8089C95.2365 78.7874 95.1504 78.6798 95.1504 78.5615V57.9023C95.1504 57.7624 95.258 57.6548 95.3979 57.6548C95.5378 57.6548 95.6453 57.7624 95.6453 57.9023V78.3678L129.292 84.3611V63.6051C129.292 63.4652 129.399 63.3576 129.539 63.3576C129.679 63.3576 129.787 63.4652 129.787 63.6051V84.6409C129.787 84.7162 129.755 84.7807 129.701 84.8345C129.668 84.8776 129.615 84.8991 129.55 84.8991Z" fill="black"/>
<path d="M98.9584 75.3981C98.8185 75.3981 98.7109 75.2905 98.7109 75.1507V58.4189C98.7109 58.279 98.8185 58.1714 98.9584 58.1714C99.0983 58.1714 99.2059 58.279 99.2059 58.4189V75.1507C99.2059 75.2905 99.0875 75.3981 98.9584 75.3981Z" fill="black"/>
<path d="M102.261 75.5058C102.121 75.5058 102.014 75.3982 102.014 75.2583V58.9784C102.014 58.8386 102.121 58.731 102.261 58.731C102.401 58.731 102.509 58.8386 102.509 58.9784V75.2583C102.509 75.3982 102.401 75.5058 102.261 75.5058Z" fill="black"/>
<path d="M105.759 76.4958C105.619 76.4958 105.512 76.3882 105.512 76.2484V59.495C105.512 59.3552 105.619 59.2476 105.759 59.2476C105.899 59.2476 106.007 59.3552 106.007 59.495V76.2484C106.007 76.3882 105.899 76.4958 105.759 76.4958Z" fill="black"/>
<path d="M108.029 76.8616C107.889 76.8616 107.781 76.754 107.781 76.6141V59.8608C107.781 59.7209 107.889 59.6133 108.029 59.6133C108.169 59.6133 108.276 59.7209 108.276 59.8608V76.6141C108.276 76.754 108.169 76.8616 108.029 76.8616Z" fill="black"/>
<path d="M112.56 77.2813C112.42 77.2813 112.312 77.1737 112.312 77.0338V60.6786C112.312 60.5388 112.42 60.4312 112.56 60.4312C112.7 60.4312 112.807 60.5388 112.807 60.6786V77.0338C112.818 77.1737 112.7 77.2813 112.56 77.2813Z" fill="black"/>
<path d="M117.101 78.3247C116.961 78.3247 116.854 78.2171 116.854 78.0772V61.496C116.854 61.3561 116.961 61.2485 117.101 61.2485C117.241 61.2485 117.348 61.3561 117.348 61.496V78.0772C117.348 78.2171 117.241 78.3247 117.101 78.3247Z" fill="black"/>
<path d="M121.63 78.4325C121.49 78.4325 121.383 78.3249 121.383 78.185V62.2172C121.383 62.0773 121.49 61.9697 121.63 61.9697C121.77 61.9697 121.878 62.0773 121.878 62.2172V78.185C121.888 78.3249 121.77 78.4325 121.63 78.4325Z" fill="black"/>
<path d="M126.171 79.7884C126.031 79.7884 125.924 79.6808 125.924 79.5409V63.0351C125.924 62.8952 126.031 62.7876 126.171 62.7876C126.311 62.7876 126.419 62.8952 126.419 63.0351V79.5409C126.419 79.6808 126.311 79.7884 126.171 79.7884Z" fill="black"/>
<path d="M129.549 63.7018C129.409 63.7018 129.302 63.5942 129.302 63.4543V47.7878L95.6551 41.9343V57.6332C95.6551 57.773 95.5475 57.8806 95.4076 57.8806C95.2678 57.8806 95.1602 57.773 95.1602 57.6332V41.633C95.1602 41.5577 95.1924 41.4932 95.2462 41.4394C95.3 41.3963 95.3754 41.3748 95.4507 41.3856L129.603 47.3251C129.721 47.3466 129.807 47.4542 129.807 47.5726V63.4436C129.797 63.5834 129.689 63.691 129.549 63.7018Z" fill="black"/>
<path d="M98.9584 58.6447C98.8185 58.6447 98.7109 58.5371 98.7109 58.3972V46.6903C98.7109 46.5505 98.8185 46.4429 98.9584 46.4429C99.0983 46.4429 99.2059 46.5505 99.2059 46.6903V58.3972C99.2059 58.5263 99.0875 58.6447 98.9584 58.6447Z" fill="black"/>
<path d="M101.391 58.7526V47.7344C101.391 47.2502 101.789 46.8628 102.262 46.8628C102.736 46.8628 103.134 47.2609 103.134 47.7344V59.0108L101.391 58.7526Z" fill="black"/>
<path d="M105.759 59.7424C105.619 59.7424 105.512 59.6348 105.512 59.4949V47.788C105.512 47.6481 105.619 47.5405 105.759 47.5405C105.899 47.5405 106.007 47.6481 106.007 47.788V59.4949C106.007 59.624 105.899 59.7424 105.759 59.7424Z" fill="black"/>
<path d="M108.029 60.1081C107.889 60.1081 107.781 60.0005 107.781 59.8606V48.1537C107.781 48.0138 107.889 47.9062 108.029 47.9062C108.169 47.9062 108.276 48.0138 108.276 48.1537V59.8606C108.276 59.9897 108.169 60.1081 108.029 60.1081Z" fill="black"/>
<path d="M111.688 60.528V49.5097C111.688 49.0255 112.086 48.6382 112.559 48.6382C113.032 48.6382 113.431 49.0363 113.431 49.5097V60.8293L111.688 60.528Z" fill="black"/>
<path d="M117.101 61.5715C116.961 61.5715 116.854 61.4639 116.854 61.324V49.6171C116.854 49.4772 116.961 49.3696 117.101 49.3696C117.241 49.3696 117.348 49.4772 117.348 49.6171V61.324C117.348 61.4531 117.241 61.5715 117.101 61.5715Z" fill="black"/>
<path d="M120.758 62.1308V50.6606C120.758 50.1764 121.156 49.7891 121.629 49.7891C122.103 49.7891 122.501 50.1872 122.501 50.6606V62.3029L120.758 62.1308Z" fill="black"/>
<path d="M126.171 63.2823C126.031 63.2823 125.924 63.1747 125.924 63.0349V51.0805C125.924 50.9406 126.031 50.833 126.171 50.833C126.311 50.833 126.419 50.9406 126.419 51.0805V63.0349C126.419 63.1747 126.311 63.2823 126.171 63.2823Z" fill="black"/>
<path d="M139.061 105.171V27.6235L191.44 18.5205V95.9064L139.061 105.171Z" fill="white"/>
<path d="M139.062 105.418C139.008 105.418 138.944 105.397 138.901 105.365C138.847 105.322 138.814 105.246 138.814 105.171V27.6237C138.814 27.5053 138.901 27.3977 139.019 27.3762L191.399 18.2732C191.474 18.2625 191.549 18.284 191.603 18.327C191.657 18.3701 191.689 18.4454 191.689 18.5207V95.9066C191.689 96.025 191.603 96.1326 191.485 96.1541L139.105 105.418C139.094 105.418 139.083 105.418 139.062 105.418ZM139.309 27.8389V104.87L191.183 95.6915V18.8112L139.309 27.8389Z" fill="black"/>
<path d="M171.374 22.4805V30.3568L160.475 32.2075V24.3742L171.374 22.4805Z" fill="black"/>
<path d="M139.072 27.9571C139.061 27.9571 139.04 27.9571 139.029 27.9571L86.4018 18.8111C86.2835 18.7896 86.1974 18.682 86.1974 18.5636C86.1974 18.4452 86.2835 18.3376 86.4018 18.3161L138.437 9.05176C138.469 9.05176 138.491 9.05176 138.523 9.05176L191.699 18.3054C191.818 18.3269 191.904 18.4345 191.904 18.5528C191.904 18.6712 191.818 18.7788 191.699 18.8003L139.115 27.9571C139.104 27.9463 139.083 27.9571 139.072 27.9571ZM87.8867 18.5636L139.072 27.4514L190.193 18.5528L138.469 9.55748L87.8867 18.5636Z" fill="black"/>
<path d="M73.7158 76.0116C73.6405 76.0116 73.5759 75.9793 73.5329 75.9255C73.4791 75.861 73.4576 75.7641 73.4791 75.6888L79.9996 55.1587C80.0319 55.0404 80.161 54.9651 80.2794 54.9866L134.994 64.2832C135.112 64.3047 135.198 64.4123 135.198 64.5307C135.198 64.6491 135.112 64.7567 134.994 64.7782L73.7588 76.0116C73.7481 76.0116 73.7266 76.0116 73.7158 76.0116ZM80.4085 55.5138L74.0816 75.4306L133.52 64.5307L80.4085 55.5138Z" fill="black"/>
<path d="M6.51988 176.65L5.13184 184.569L9.25291 185.053L10.9315 177.618L6.51988 176.65Z" fill="white"/>
<path d="M9.25232 185.311C9.24156 185.311 9.2308 185.311 9.22004 185.311L5.09896 184.827C5.0344 184.817 4.96984 184.784 4.9268 184.73C4.88376 184.677 4.873 184.601 4.88376 184.537L6.28256 176.607C6.29332 176.542 6.33636 176.478 6.39016 176.445C6.44396 176.413 6.51928 176.391 6.58384 176.413L10.9954 177.381C11.06 177.392 11.1138 177.435 11.1568 177.489C11.1999 177.543 11.1999 177.618 11.1891 177.683L9.51056 185.129C9.46752 185.225 9.35992 185.311 9.25232 185.311ZM5.42176 184.354L9.05864 184.784L10.6296 177.812L6.72372 176.951L5.42176 184.354Z" fill="black"/>
<path d="M9.69374 183.343C8.34874 183.881 6.81006 183.536 5.82014 182.471L5.30366 181.912C5.12074 181.718 4.8087 181.739 4.65806 181.955L1.75286 186.237C1.23638 186.936 1.3117 188.002 1.93578 188.615C2.75354 189.411 4.0017 190.487 5.51886 191.348C8.37026 192.973 10.8343 196.427 13.7503 195.588C16.6662 194.748 16.8061 194.544 17.1397 193.618C17.4732 192.693 15.7839 190.875 13.4597 188.755C12.0394 187.464 10.6621 184.655 10.221 183.569C10.1457 183.353 9.90894 183.257 9.69374 183.343Z" fill="white"/>
<path d="M12.8683 195.964C11.1252 195.964 9.53268 194.683 7.98324 193.425C7.15472 192.757 6.28316 192.058 5.40084 191.552C3.84064 190.67 2.57096 189.562 1.76396 188.787C1.0538 188.098 0.956963 186.882 1.54876 186.086L4.4432 181.814C4.56156 181.642 4.73372 181.545 4.93816 181.524C5.1426 181.513 5.33628 181.589 5.47616 181.739L5.99264 182.299C6.89648 183.289 8.34908 183.611 9.58648 183.106C9.74788 183.041 9.9308 183.041 10.0922 183.116C10.2536 183.181 10.3827 183.31 10.4473 183.472C10.8992 184.601 12.2765 187.334 13.6215 188.561C16.6128 191.294 17.6995 192.779 17.366 193.694C16.9894 194.759 16.7096 194.985 13.8152 195.824C13.5031 195.921 13.1803 195.964 12.8683 195.964ZM5.00272 182.03H4.99196C4.95968 182.03 4.90588 182.04 4.8736 182.105L1.9684 186.387C1.51648 187.001 1.58104 187.915 2.11904 188.443C2.89376 189.196 4.14192 190.272 5.64832 191.133C6.56292 191.66 7.44524 192.359 8.29528 193.048C10.1137 194.511 11.8246 195.889 13.6968 195.351C16.559 194.533 16.6235 194.361 16.914 193.543C17.2691 192.564 14.2778 189.841 13.2987 188.948C11.7708 187.56 10.372 184.601 9.99536 183.676C9.9846 183.633 9.95232 183.601 9.90928 183.59C9.86624 183.568 9.8232 183.568 9.79092 183.59C8.35984 184.171 6.69204 183.794 5.64832 182.654L5.13184 182.094C5.0888 182.03 5.035 182.03 5.00272 182.03Z" fill="black"/>
<path d="M17.172 193.898C17.172 193.898 14.794 195.641 11.566 193.844C9.41401 192.65 1.49465 185.968 1.49465 185.968L0.806006 186.904C0.461686 187.377 0.407889 188.281 0.849049 188.669C2.86117 190.433 8.75765 195.071 11.878 195.996C16.6555 197.406 17.172 193.898 17.172 193.898Z" fill="white"/>
<path d="M13.944 196.577C13.2984 196.577 12.5882 196.459 11.8027 196.233C8.42411 195.232 2.17255 190.164 0.68767 188.852C0.12815 188.357 0.181948 187.324 0.601588 186.743L1.29023 185.807C1.33327 185.753 1.39783 185.71 1.46239 185.71C1.52695 185.699 1.60227 185.721 1.65607 185.764C1.73139 185.828 9.58619 192.446 11.6951 193.608C14.751 195.308 17.0106 193.694 17.0321 193.683C17.1182 193.618 17.2258 193.618 17.3119 193.672C17.3979 193.726 17.441 193.823 17.4302 193.92C17.4195 193.973 17.2258 195.254 16.0207 196.018C15.4396 196.394 14.751 196.577 13.944 196.577ZM1.53771 186.323L1.01047 187.044C0.73071 187.421 0.687667 188.185 1.02123 188.475C3.20551 190.39 8.98363 194.867 11.9534 195.749C13.5674 196.222 14.8478 196.179 15.7409 195.609C16.2789 195.265 16.5802 194.791 16.7523 194.415C15.827 194.845 13.8794 195.394 11.4584 194.049C9.46783 192.951 2.81815 187.399 1.53771 186.323Z" fill="black"/>
<path d="M28.8354 178.264L26.8125 189.217L31.3532 191.477L33.9249 179.566L28.8354 178.264Z" fill="white"/>
<path d="M31.3537 191.724C31.3106 191.724 31.2784 191.714 31.2461 191.703L26.7054 189.443C26.6085 189.39 26.5547 189.282 26.5762 189.174L28.5991 178.231C28.6099 178.167 28.6529 178.102 28.7067 178.07C28.7605 178.038 28.8358 178.027 28.9004 178.038L33.9899 179.34C34.119 179.372 34.2051 179.501 34.1728 179.63L31.6012 191.542C31.5796 191.617 31.5366 191.681 31.4613 191.714C31.429 191.714 31.386 191.724 31.3537 191.724ZM27.0927 189.077L31.1708 191.111L33.624 179.749L29.0295 178.576L27.0927 189.077Z" fill="black"/>
<path d="M26.1346 188.454C25.9732 189.497 24.7466 191.531 24.7143 193.274C24.6928 194.372 25.4998 195.308 26.5758 195.458C29.6208 195.889 37.5079 196.319 43.4259 195.846C43.8348 195.813 44.545 195.523 44.7602 194.511C45.4703 191.111 39.5846 190.207 33.1501 187.657C32.9026 187.56 32.6121 187.614 32.4184 187.797L31.719 188.464C31.0089 189.131 29.9759 189.314 29.0828 188.916L26.9739 187.98C26.5973 187.84 26.1884 188.066 26.1346 188.454Z" fill="white"/>
<path d="M37.5407 196.308C33.1184 196.308 28.7283 196.028 26.5332 195.716C25.3174 195.544 24.435 194.5 24.4566 193.285C24.4781 192.166 24.973 190.939 25.3712 189.949C25.6186 189.336 25.8338 188.798 25.8876 188.432C25.9307 188.163 26.0813 187.937 26.318 187.818C26.5548 187.689 26.8238 187.679 27.0605 187.786L29.1694 188.722C29.9657 189.077 30.891 188.916 31.5259 188.313L32.2253 187.646C32.4943 187.388 32.8816 187.313 33.226 187.453C34.7324 188.044 36.1742 188.539 37.5622 189.024C42.0384 190.562 45.5677 191.778 44.9866 194.597C44.7714 195.652 44.0075 196.082 43.4264 196.125C41.5972 196.244 39.5636 196.308 37.5407 196.308ZM26.3826 188.496C26.318 188.927 26.0921 189.486 25.8338 190.132C25.4357 191.133 24.9838 192.262 24.9623 193.295C24.9408 194.264 25.6509 195.092 26.6086 195.221C29.7828 195.673 37.5945 196.071 43.4049 195.609C43.5556 195.598 44.298 195.49 44.5132 194.479C45.0082 192.09 41.8232 190.993 37.4224 189.486C36.0236 189.002 34.571 188.507 33.0646 187.905C32.9032 187.84 32.7202 187.872 32.5911 187.991L31.8917 188.658C31.1062 189.4 29.9764 189.594 28.9865 189.163L26.8776 188.227C26.7807 188.184 26.6731 188.184 26.5763 188.238C26.4687 188.292 26.4041 188.389 26.3826 188.496Z" fill="black"/>
<path d="M24.5749 192.822C24.5749 192.822 24.5749 192.994 24.5641 193.08C24.5426 194.178 25.3496 195.114 26.4256 195.264C29.4707 195.695 37.4869 196.706 43.3941 196.243C43.803 196.211 44.5347 195.533 44.7391 194.522C44.8037 194.21 44.7714 193.65 44.7714 193.65L44.3518 193.661C38.38 193.887 32.4082 193.672 26.4687 193.015L24.5749 192.822Z" fill="white"/>
<path d="M40.0585 196.62C34.8184 196.62 28.9865 195.889 26.3933 195.523C25.1775 195.351 24.2951 194.307 24.3167 193.091C24.3167 193.005 24.3274 192.822 24.3274 192.822C24.3274 192.758 24.3597 192.693 24.4135 192.639C24.4673 192.596 24.5319 192.575 24.6072 192.575L26.5117 192.768C32.419 193.425 38.423 193.64 44.3625 193.414L44.7822 193.403H44.7929C44.9221 193.403 45.0297 193.511 45.0404 193.64C45.0404 193.661 45.0727 194.242 44.9974 194.576C44.7714 195.652 43.986 196.459 43.4264 196.502C42.3612 196.577 41.2206 196.62 40.0585 196.62ZM24.8224 193.102C24.8009 194.06 25.511 194.888 26.4687 195.028C29.6213 195.469 37.5838 196.459 43.3834 196.007C43.6309 195.986 44.3088 195.448 44.5132 194.479C44.5455 194.329 44.5455 194.103 44.5455 193.92L44.3841 193.93C38.423 194.156 32.3974 193.941 26.4687 193.285L24.8224 193.102Z" fill="black"/>
<path d="M22.7672 115.21C22.8963 115.813 20.8519 119.987 21.1854 124.076C21.7127 130.5 22.1216 133.825 18.6784 140.205C15.3535 146.36 9.36021 152.235 5.07773 177.844C4.86253 179.124 5.84169 180.297 7.14365 180.319L10.4362 180.362C11.2432 180.373 11.9856 179.921 12.3515 179.2C14.5142 174.949 21.1962 162.371 23.8109 157.658C26.8775 152.117 35.6254 138.258 36.1418 131.608C36.626 125.346 36.1849 116.394 36.1311 115.382C36.1311 115.328 36.088 115.285 36.0342 115.285L22.7672 115.21Z" fill="black"/>
<path d="M41.2524 113.714C41.2524 113.714 49.0427 129.93 44.3728 149.448C40.9942 163.565 36.206 179.307 34.6673 183.794C34.366 184.677 33.5375 185.258 32.6122 185.258L29.0183 185.247C27.7163 185.236 26.7157 184.106 26.8771 182.815C27.8024 175.358 30.6538 151.224 30.4386 145.392C30.0943 135.772 27.2644 132.404 26.7802 125.636C26.2422 118.266 28.2974 113.854 28.2974 113.854L41.2524 113.714Z" fill="black"/>
<path d="M29.9333 148.189C29.9226 148.189 29.9226 148.189 29.9118 148.189C29.7719 148.179 29.6751 148.06 29.6859 147.92C30.353 140.7 28.9219 136.644 27.663 133.071C26.7484 130.478 25.8876 128.025 26.0059 124.786C26.0059 124.646 26.1351 124.539 26.2642 124.55C26.4041 124.56 26.5117 124.668 26.5009 124.808C26.3825 127.95 27.1895 130.242 28.1257 132.91C29.4061 136.536 30.8479 140.636 30.1701 147.974C30.1701 148.092 30.0625 148.189 29.9333 148.189Z" fill="white"/>
<path d="M80.2148 73.6011C81.6029 74.7524 80.882 75.8069 80.3978 76.205L76.309 79.5621C74.4475 80.9932 74.2861 81.5743 73.5974 82.8224L68.9276 91.3121C68.013 92.9691 66.98 94.5616 65.8395 96.068L64.6128 97.682C64.247 98.1662 63.5799 98.3276 63.0311 98.0478C62.4823 97.7681 62.2026 97.144 62.3748 96.563L62.7191 95.3686C63.1602 93.8407 63.6875 92.3343 64.3223 90.8601L68.6371 80.7242L68.8092 79.7343C69.2827 75.8822 71.9296 73.6549 71.9296 73.6549C75.9216 70.1256 80.2148 73.6011 80.2148 73.6011Z" fill="black"/>
<path d="M80.2146 73.6012C80.2146 73.6012 78.3101 72.0625 75.8675 72.0733C75.0067 72.1594 74.1567 72.4929 73.425 73.2354C73.3497 73.3107 71.8756 75.3874 71.6389 76.0868C71.1762 77.4641 72.2845 78.0881 73.4573 77.7438C76.8037 76.7431 79.6013 74.7741 80.6127 74.0101C80.5159 73.8702 80.376 73.7411 80.2146 73.6012Z" fill="white"/>
<path d="M72.834 78.088C72.3605 78.088 71.9409 77.9374 71.6504 77.6361C71.2738 77.2487 71.1877 76.6677 71.4029 76.0006C71.6504 75.2581 73.1352 73.1599 73.2428 73.0523C73.9422 72.3422 74.8138 71.9333 75.836 71.8257C75.8468 71.8257 75.8683 71.8257 75.879 71.8257C78.3861 71.8257 80.2906 73.3428 80.366 73.4074C80.5381 73.5473 80.678 73.6872 80.8071 73.8378C80.8502 73.8916 80.8717 73.9562 80.8609 74.0315C80.8502 74.1068 80.8179 74.1606 80.7641 74.2036C79.7096 74.9999 76.9012 76.969 73.5334 77.9804C73.3074 78.0557 73.0599 78.088 72.834 78.088ZM75.9113 72.3314C75.9006 72.3314 75.8898 72.3314 75.879 72.3314C74.9967 72.4282 74.2328 72.7833 73.6194 73.4074C73.4796 73.5688 72.1023 75.5379 71.8978 76.162C71.7364 76.6462 71.7795 77.0335 72.027 77.281C72.3175 77.5715 72.8555 77.6576 73.4042 77.4854C76.4816 76.5601 79.0963 74.817 80.2584 73.9562C80.1938 73.9024 80.14 73.8378 80.0647 73.784C80.0217 73.7625 78.1924 72.3314 75.9113 72.3314Z" fill="black"/>
<path d="M75.2777 75.4C76.1277 74.7604 76.6169 73.9763 76.3703 73.6486C76.1238 73.321 75.2348 73.5738 74.3848 74.2135C73.5348 74.8531 73.0456 75.6372 73.2921 75.9649C73.5387 76.2925 74.4276 76.0396 75.2777 75.4Z" fill="black"/>
<path d="M63.613 98.446C63.3871 98.446 63.1504 98.3922 62.9352 98.2846C62.2788 97.951 61.9452 97.2086 62.1497 96.4984L62.494 95.304C62.9352 93.7654 63.4732 92.2374 64.108 90.7633L68.412 80.6597L68.5842 79.702C69.0576 75.8069 71.683 73.5688 71.7906 73.4828C75.8687 69.8351 80.3341 73.3752 80.3771 73.4074C80.9797 73.9024 81.2809 74.4296 81.2809 74.9999C81.2809 75.7531 80.7322 76.2696 80.56 76.3987L76.4712 79.7558C74.868 80.9825 74.5667 81.5635 74.0502 82.5212C73.9749 82.6503 73.8996 82.8009 73.8135 82.9516L69.1437 91.4412C68.2291 93.109 67.1854 94.7122 66.034 96.2294L64.8074 97.8434C64.5384 98.2308 64.0757 98.446 63.613 98.446ZM75.9225 72.3207C74.7389 72.3207 73.4046 72.708 72.1134 73.8594C72.0812 73.8809 69.531 76.0759 69.0684 79.7774L68.8962 80.778C68.8962 80.7996 68.8854 80.8103 68.8747 80.8318L64.5599 90.9678C63.9358 92.4204 63.4086 93.9268 62.9674 95.4439L62.6231 96.6383C62.4832 97.1117 62.7092 97.6174 63.1504 97.8326C63.5915 98.0478 64.1295 97.9295 64.42 97.5314L65.6467 95.9174C66.7765 94.4217 67.8094 92.8292 68.7133 91.1937L73.3831 82.7041C73.4692 82.5534 73.5445 82.4136 73.6091 82.2844C74.1363 81.3053 74.4806 80.6489 76.1592 79.3685L80.2372 76.0114C80.4955 75.7962 80.7752 75.4196 80.7752 74.9999C80.7752 74.5803 80.5385 74.1929 80.0543 73.7948C79.9467 73.7087 78.1821 72.3207 75.9225 72.3207Z" fill="black"/>
<path d="M74.0278 84.2966C73.5328 83.5111 72.855 83.9092 72.855 83.9092C72.855 83.9092 70.5738 85.2435 69.5839 85.1251C67.8623 84.9314 67.8515 83.0807 67.8946 82.3921C67.9161 82.0477 67.6256 81.768 67.2813 81.811C66.8616 81.8648 66.1192 82.8117 65.6027 83.5111C64.602 84.8884 65.0647 86.9328 64.4514 87.9442C63.7197 89.1709 60.7177 91.99 57.8878 93.7116C54.4554 95.8098 52.1312 93.9268 49.6456 91.8931C47.9778 90.5266 46.5145 87.9012 43.5662 85.9967C41.5003 84.6732 34.6354 89.6551 36.5615 91.6134C38.7242 93.8192 47.4506 104.052 53.2072 102.739C57.8017 101.685 65.0002 93.5179 66.8939 91.6026C68.0667 90.7203 69.5193 90.7956 70.477 90.4083C71.553 89.9671 72.4783 89.7734 72.7151 87.0081C72.7796 86.5239 74.6842 85.3403 74.0278 84.2966Z" fill="white"/>
<path d="M52.1527 103.127C46.9879 103.127 40.2845 95.9604 37.3147 92.7754C36.9381 92.3773 36.6368 92.0437 36.4001 91.807C35.7222 91.1184 35.8836 90.0854 36.8628 88.891C38.4445 86.9435 42.1459 84.7915 43.7169 85.8137C45.5784 87.0188 46.8373 88.4714 47.9456 89.7626C48.6235 90.5481 49.2045 91.2152 49.8178 91.7209C52.3141 93.7653 54.4661 95.53 57.7695 93.5178C60.4702 91.8716 63.5153 89.074 64.247 87.8366C64.4837 87.4384 64.5375 86.8251 64.6021 86.1795C64.6881 85.2542 64.7957 84.2212 65.4091 83.3819C66.5281 81.854 66.9908 81.6173 67.2598 81.5742C67.4965 81.542 67.7225 81.6173 67.8946 81.7787C68.0775 81.9401 68.1636 82.1768 68.1529 82.4243C68.0883 83.468 68.2927 84.7484 69.6162 84.8883C70.3694 84.9744 72.1233 84.0598 72.7366 83.694C73.0379 83.511 73.7481 83.3819 74.243 84.1566C74.781 85.0067 73.9633 85.889 73.4253 86.4808C73.2423 86.6745 72.9949 86.9435 72.9733 87.0403C72.7366 89.7841 71.779 90.1607 70.7675 90.5696L70.5739 90.6449C70.208 90.7956 69.7884 90.8816 69.3365 90.9677C68.5617 91.1184 67.7547 91.2798 67.0553 91.7962C66.8186 92.033 66.5066 92.3665 66.13 92.7646C63.2786 95.7774 57.3606 102.051 53.261 102.987C52.9059 103.083 52.5401 103.116 52.1527 103.127ZM42.6947 86.0396C41.156 86.0396 38.5521 87.5998 37.2501 89.2031C36.7982 89.7626 36.1203 90.8063 36.7552 91.4519C36.9919 91.6886 37.3039 92.0222 37.6805 92.4311C40.8225 95.7882 48.1715 103.654 53.1642 102.513C57.1131 101.609 63.1817 95.1856 65.7749 92.4311C66.1623 92.0222 66.4851 91.6779 66.7218 91.4412C66.7325 91.4304 66.7433 91.4196 66.7433 91.4196C67.5395 90.8171 68.4434 90.6449 69.2396 90.4835C69.6593 90.3974 70.0574 90.3221 70.3802 90.193L70.5739 90.1177C71.51 89.7518 72.2524 89.4506 72.4569 87.0188C72.4784 86.7606 72.7151 86.5131 73.0379 86.158C73.6297 85.5124 74.1031 84.9314 73.8019 84.4472C73.4468 83.8876 73.0271 84.1136 72.9733 84.1459C72.7366 84.2858 70.5954 85.5124 69.5409 85.4048C68.2282 85.2649 67.5288 84.1674 67.6256 82.4135C67.6256 82.3167 67.5933 82.2306 67.5288 82.166C67.4965 82.1338 67.4104 82.08 67.2921 82.0907C67.206 82.1015 66.8294 82.2521 65.7857 83.694C65.2584 84.4256 65.1616 85.351 65.0755 86.2441C65.0002 86.9542 64.9464 87.6214 64.6451 88.1056C63.8704 89.4075 60.8038 92.2482 58.0062 93.959C54.4016 96.154 51.9053 94.0989 49.4843 92.119C48.8387 91.5918 48.2146 90.8601 47.5475 90.0962C46.4607 88.8372 45.2233 87.4062 43.4264 86.2441C43.2435 86.1042 42.9852 86.0396 42.6947 86.0396Z" fill="black"/>
<path d="M50.173 90.2897C47.4184 88.2561 44.9759 84.716 43.2866 83.0805C41.5112 81.3589 38.7028 80.2614 36.2495 79.9386C30.9448 79.2607 24.2521 79.9278 20.9058 82.1444C16.6878 84.9312 17.3012 89.4182 18.1942 91.441C18.6462 92.4848 20.3785 96.8318 20.8304 98.1015C23.6388 105.967 22.3691 112.122 21.6805 117.362C21.5836 118.083 22.0571 118.728 22.7457 118.954C26.4149 120.116 30.7619 120.913 42.5656 118.04C43.2973 117.857 43.717 117.093 43.4695 116.372C40.4136 107.495 42.2751 104.601 43.2973 99.78L44.6423 100.512C46.9665 101.373 49.1292 97.7141 50.0869 95.7988C51.3781 93.2595 51.5718 91.3334 50.173 90.2897Z" fill="white"/>
<path d="M29.4599 120.267C26.4901 120.267 24.5103 119.772 22.6811 119.191C21.8418 118.922 21.3361 118.158 21.4437 117.33C21.5082 116.835 21.5835 116.329 21.6481 115.813C22.3367 110.863 23.1222 105.246 20.5936 98.1878C20.1417 96.9074 18.4094 92.5711 17.9574 91.5489C16.9783 89.3108 16.4618 84.7701 20.755 81.9402C24.2843 79.6161 31.2245 79.0566 36.271 79.7022C39.0148 80.0573 41.7693 81.2839 43.4479 82.9086C44.0504 83.4897 44.7283 84.2859 45.5138 85.2113C46.9341 86.8898 48.5481 88.7944 50.3127 90.0963C51.7546 91.1616 51.7546 93.0661 50.3235 95.9175C49.226 98.1125 47.0202 101.653 44.5669 100.749C44.5561 100.749 44.5454 100.738 44.5346 100.738L43.4802 100.168C43.3188 100.878 43.1466 101.545 42.9744 102.201C42.0275 105.86 41.199 109.012 43.7061 116.297C43.846 116.706 43.8137 117.158 43.5985 117.534C43.3941 117.911 43.039 118.18 42.6194 118.288C36.5938 119.74 32.5049 120.267 29.4599 120.267ZM32.1606 79.9496C28.018 79.9496 23.5957 80.6813 21.0455 82.3599C17.0321 85.0068 17.5055 89.257 18.4201 91.3552C18.872 92.3774 20.6044 96.746 21.0671 98.0264C23.6279 105.203 22.8425 110.874 22.1431 115.888C22.0677 116.405 22.0032 116.899 21.9386 117.405C21.8633 117.986 22.2291 118.524 22.8317 118.718C26.4578 119.869 30.6973 120.676 42.5225 117.793C42.8023 117.728 43.039 117.545 43.1789 117.287C43.3187 117.029 43.3403 116.727 43.2542 116.448C40.6933 109.023 41.5756 105.645 42.5118 102.061C42.7054 101.319 42.9099 100.544 43.082 99.7265C43.1035 99.6512 43.1466 99.5867 43.2219 99.5544C43.2972 99.5221 43.3725 99.5221 43.4479 99.5651L44.7821 100.286C44.9758 100.361 45.1802 100.394 45.3739 100.394C47.3215 100.394 49.1507 97.1872 49.9039 95.6915C51.2058 93.0876 51.2489 91.3983 50.0438 90.4944C48.2361 89.1602 46.6005 87.2342 45.1695 85.5341C44.3947 84.6195 43.7276 83.834 43.1466 83.2637C41.5326 81.7143 38.8964 80.5307 36.2602 80.1971C34.9582 80.0357 33.5702 79.9496 32.1606 79.9496Z" fill="black"/>
<path d="M39.1977 64.8427C39.3591 64.3585 39.2838 63.842 39.0148 63.4116C38.2186 62.1527 36.2603 59.7532 32.9785 59.9899C28.3517 60.3343 26.7484 62.4863 26.0275 66.1769C25.5218 68.7701 26.5655 72.6007 28.4162 73.5691C31.0847 74.9679 33.3551 73.214 33.3551 73.214L38.9503 65.6389L39.1977 64.8427Z" fill="black"/>
<path d="M27.6953 65.0149L28.8574 62.0989C28.8574 62.0989 26.2212 59.8608 23.1546 60.2159C20.0342 60.571 16.4942 63.573 16.9246 69.0068C17.1505 71.826 14.7726 73.2463 12.5237 75.3552C12.0395 75.8072 11.5338 76.2268 11.0173 76.6464C7.31588 79.6592 7.95072 82.9195 7.95072 82.9195C8.13364 82.2632 8.57479 81.6929 9.11279 81.2194C8.38111 86.083 12.018 91.2478 16.7524 92.313C21.2286 93.3137 26.7592 90.4085 27.9751 86.9976C29.1587 83.6835 28.3517 78.8953 26.7592 75.2476C25.1452 71.5892 24.1445 66.6934 27.6953 65.0149Z" fill="black"/>
<path d="M38.9718 64.477C38.9718 64.477 39.4344 66.0802 39.1009 67.253C38.8534 68.1246 39.5098 69.2867 39.9509 69.7601C40.08 69.8892 40.037 70.1044 39.8756 70.1905L39.3161 70.4703C39.1116 70.5779 38.9718 70.7931 38.9502 71.0298C38.8964 71.8476 38.7135 73.7413 38.3477 74.204C37.7559 74.968 35.2488 74.1179 34.7108 73.9565C34.657 73.935 34.7108 79.7777 34.7108 79.7777C34.6893 80.8322 34.431 81.5423 33.7962 82.0911C32.3974 83.307 27.932 83.7481 27.5984 81.7252C27.5554 81.4455 27.2864 81.2626 27.4586 81.0258C28.1042 80.1543 28.696 79.1213 28.9112 77.6687C29.1802 75.775 28.9434 73.6552 28.9434 73.6552C28.9434 73.6552 30.0948 73.6875 31.2676 72.5362C32.2898 71.5355 32.9031 70.1798 32.6556 69.7386C32.0854 68.7272 31.7088 67.7588 32.5373 67.0056C33.3335 66.2846 34.0975 66.8657 34.4633 67.3068C34.969 67.9094 37.1641 67.5436 38.111 65.8865C39.0578 64.2295 38.9718 64.477 38.9718 64.477Z" fill="white"/>
<path d="M30.2558 83.3603C29.664 83.3603 29.0938 83.2849 28.6418 83.1235C27.9102 82.8545 27.4582 82.3919 27.3614 81.7678C27.3506 81.7032 27.3184 81.6387 27.2753 81.5633C27.2 81.4127 27.0601 81.1545 27.2646 80.8855C27.8348 80.1108 28.4589 79.1101 28.6741 77.6359C28.9431 75.796 28.7064 73.7086 28.7064 73.687C28.6956 73.6117 28.7172 73.5471 28.771 73.4933C28.8248 73.4395 28.8786 73.4073 28.9646 73.4073C28.9969 73.4073 30.0406 73.3965 31.1059 72.3528C32.1281 71.3521 32.5908 70.1255 32.4509 69.8672C31.8483 68.802 31.4179 67.7045 32.3756 66.8221C32.6984 66.5316 33.0427 66.3918 33.4193 66.4133C34.0326 66.4563 34.4953 66.9298 34.6674 67.1342C34.7535 67.2418 35.0225 67.3494 35.4852 67.3063C36.2922 67.231 37.3574 66.7253 37.9062 65.7461C38.8423 64.1214 38.8423 64.1214 39.0898 64.229C39.1651 64.2613 39.2189 64.3366 39.2297 64.4227C39.2835 64.6271 39.6924 66.1443 39.3588 67.3063C39.1436 68.038 39.7031 69.0925 40.1443 69.5767C40.2519 69.6951 40.3057 69.8565 40.2734 70.0286C40.2411 70.19 40.1443 70.3299 39.9936 70.4052L39.4234 70.685C39.2942 70.7496 39.2082 70.8787 39.1974 71.0293C39.1436 71.8471 38.9607 73.8054 38.541 74.3434C37.9815 75.0643 36.346 74.7092 34.9364 74.2788C34.9149 75.1719 34.9364 77.8942 34.958 79.7557C34.9364 80.907 34.6352 81.6817 33.9573 82.2627C33.1826 82.9514 31.6331 83.3603 30.2558 83.3603ZM29.2121 73.8807C29.2659 74.5048 29.3735 76.1618 29.1583 77.7005C28.9324 79.293 28.233 80.4013 27.6627 81.176C27.6519 81.2083 27.695 81.2836 27.7165 81.3266C27.7595 81.4235 27.8241 81.5311 27.8456 81.6817C27.9209 82.1229 28.2437 82.4457 28.8032 82.6501C30.2774 83.1773 32.7306 82.6716 33.6345 81.8969C34.194 81.4127 34.4415 80.7779 34.463 79.7664C34.4092 73.87 34.42 73.8592 34.5598 73.7516C34.6244 73.6978 34.7105 73.687 34.7858 73.7085L34.9149 73.7516C37.3359 74.5048 37.9815 74.2573 38.1537 74.0421C38.3796 73.7516 38.5948 72.5357 38.7024 71.0078C38.724 70.685 38.9069 70.3945 39.1974 70.2438L39.7677 69.9641L39.9506 69.7596L39.7677 69.9318C39.2727 69.3938 38.5841 68.1564 38.8638 67.1772C39.0575 66.4994 38.9607 65.6386 38.8638 65.0898C38.7455 65.2942 38.5733 65.5848 38.3366 65.9936C37.648 67.1988 36.389 67.726 35.5175 67.8013C34.958 67.8551 34.506 67.726 34.2801 67.457C34.151 67.3064 33.8066 66.9405 33.387 66.9082C33.1503 66.8867 32.9351 66.9836 32.7199 67.1772C32.0528 67.7798 32.2895 68.5545 32.892 69.5982C33.2579 70.2438 32.4401 71.7502 31.461 72.6971C30.5356 73.5902 29.6533 73.8162 29.2121 73.8807Z" fill="black"/>
<path d="M33.7105 70.4055C32.9573 70.4055 32.3224 69.846 31.9243 68.813C31.8705 68.6839 31.9351 68.544 32.0642 68.4902C32.1933 68.4364 32.3332 68.501 32.387 68.6301C32.6022 69.1789 33.0864 70.0719 33.9687 69.8675C34.0978 69.8352 34.2377 69.9213 34.27 70.0504C34.3023 70.1795 34.2162 70.3194 34.0871 70.3517C33.9579 70.3947 33.8288 70.4055 33.7105 70.4055Z" fill="black"/>
<path d="M208.335 96.9075L175.818 102.589L143.56 96.9398C143.517 96.929 143.517 96.8645 143.56 96.8537L176.195 91.1401L208.335 96.9075Z" fill="white"/>
<path d="M163.787 93.3994L195.411 99.1022L188.309 100.34L156.664 94.6261L163.787 93.3994Z" fill="black"/>
<path d="M175.818 150.772V102.545L208.475 96.8857V144.983L175.818 150.772Z" fill="white"/>
<path d="M188.59 105.645V100.286L195.702 99.0596V104.386L188.59 105.645Z" fill="black"/>
<path d="M175.818 151.02C175.764 151.02 175.699 150.998 175.656 150.966C175.603 150.923 175.57 150.847 175.57 150.772V102.535C175.57 102.417 175.656 102.309 175.775 102.287L208.421 96.6277C208.496 96.617 208.571 96.6385 208.625 96.6815C208.679 96.7246 208.711 96.7999 208.711 96.8752V144.972C208.711 145.091 208.625 145.198 208.507 145.22L175.861 151.009C175.85 151.02 175.839 151.03 175.818 151.02ZM176.076 102.75V150.471L208.227 144.768V97.1765L176.076 102.75Z" fill="black"/>
<path d="M175.817 150.772V102.546L143.451 96.875V145.015L175.817 150.772Z" fill="white"/>
<path d="M175.817 151.02C175.806 151.02 175.784 151.02 175.774 151.02L143.408 145.252C143.289 145.231 143.203 145.123 143.203 145.005V96.8645C143.203 96.7892 143.235 96.7246 143.289 96.6708C143.343 96.6278 143.418 96.6062 143.494 96.617L175.86 102.288C175.978 102.309 176.064 102.417 176.064 102.535V150.772C176.064 150.847 176.032 150.912 175.978 150.966C175.935 150.998 175.881 151.02 175.817 151.02ZM143.709 144.8L175.58 150.471V102.75L143.709 97.1765V144.8Z" fill="black"/>
<path d="M167.694 129.037C167.683 129.037 167.661 129.037 167.651 129.037L150.036 125.906C149.918 125.884 149.832 125.777 149.832 125.658V106.602C149.832 106.527 149.864 106.462 149.918 106.409C149.972 106.366 150.047 106.344 150.123 106.355L167.737 109.421C167.855 109.443 167.941 109.551 167.941 109.669V128.789C167.941 128.865 167.909 128.929 167.855 128.983C167.812 129.015 167.758 129.037 167.694 129.037ZM150.327 125.443L167.446 128.488V109.873L150.327 106.893V125.443Z" fill="black"/>
<path d="M152.447 123.7C152.307 123.7 152.199 123.592 152.199 123.452V109.389C152.199 109.249 152.307 109.142 152.447 109.142C152.587 109.142 152.694 109.249 152.694 109.389V123.452C152.705 123.592 152.587 123.7 152.447 123.7Z" fill="black"/>
<path d="M154.609 124.162C154.469 124.162 154.361 124.055 154.361 123.915V109.851C154.361 109.712 154.469 109.604 154.609 109.604C154.749 109.604 154.856 109.712 154.856 109.851V123.915C154.856 124.055 154.749 124.162 154.609 124.162Z" fill="black"/>
<path d="M157.019 124.119C156.879 124.119 156.771 124.012 156.771 123.872V110.809C156.771 110.669 156.879 110.562 157.019 110.562C157.159 110.562 157.266 110.669 157.266 110.809V123.872C157.266 124.012 157.159 124.119 157.019 124.119Z" fill="black"/>
<path d="M159.677 125.088C159.537 125.088 159.43 124.98 159.43 124.84V110.777C159.43 110.637 159.537 110.529 159.677 110.529C159.817 110.529 159.925 110.637 159.925 110.777V124.84C159.925 124.969 159.817 125.088 159.677 125.088Z" fill="black"/>
<path d="M162.453 125.271C162.313 125.271 162.205 125.163 162.205 125.023V111.767C162.205 111.627 162.313 111.52 162.453 111.52C162.592 111.52 162.7 111.627 162.7 111.767V125.023C162.7 125.152 162.582 125.271 162.453 125.271Z" fill="black"/>
<path d="M165.402 126.217C165.262 126.217 165.154 126.11 165.154 125.97V111.659C165.154 111.519 165.262 111.412 165.402 111.412C165.542 111.412 165.649 111.519 165.649 111.659V125.97C165.649 126.099 165.542 126.217 165.402 126.217Z" fill="black"/>
<path d="M175.817 102.836C175.807 102.836 175.785 102.836 175.774 102.836L143.516 97.1869C143.376 97.1654 143.279 97.0471 143.279 96.8964C143.279 96.7458 143.376 96.6382 143.516 96.6059L176.14 90.8923C176.172 90.8816 176.205 90.8816 176.226 90.8923L208.377 96.6597C208.496 96.6812 208.582 96.7888 208.582 96.9072C208.582 97.0255 208.496 97.1331 208.377 97.1547L175.86 102.836C175.839 102.836 175.828 102.836 175.817 102.836ZM144.775 96.8964L175.817 102.341L206.903 96.9072L176.183 91.3981L144.775 96.8964Z" fill="black"/>
<path d="M195.067 142.218L162.55 147.899L130.292 142.25C130.249 142.239 130.249 142.175 130.292 142.164L162.927 136.45L195.067 142.218Z" fill="white"/>
<path d="M150.522 138.71L182.145 144.413L175.044 145.661L143.398 139.937L150.522 138.71Z" fill="black"/>
<path d="M162.551 196.082V147.856L195.207 142.196V190.294L162.551 196.082Z" fill="white"/>
<path d="M175.323 150.966V145.596L182.435 144.37V149.696L175.323 150.966Z" fill="black"/>
<path d="M162.55 196.34C162.497 196.34 162.432 196.319 162.389 196.287C162.335 196.244 162.303 196.168 162.303 196.093V147.856C162.303 147.737 162.389 147.63 162.507 147.608L195.153 141.949C195.228 141.938 195.304 141.959 195.358 142.002C195.411 142.045 195.444 142.121 195.444 142.196V190.293C195.444 190.412 195.358 190.519 195.239 190.541L162.593 196.33C162.583 196.34 162.572 196.34 162.55 196.34ZM162.798 148.06V195.781L194.949 190.078V142.487L162.798 148.06Z" fill="black"/>
<path d="M162.55 196.082V147.856L130.184 142.186V190.326L162.55 196.082Z" fill="white"/>
<path d="M162.551 196.34C162.54 196.34 162.519 196.34 162.508 196.34L130.142 190.573C130.024 190.551 129.938 190.444 129.938 190.326V142.185C129.938 142.11 129.97 142.045 130.024 141.992C130.077 141.949 130.153 141.927 130.228 141.938L162.594 147.608C162.712 147.63 162.799 147.737 162.799 147.856V196.093C162.799 196.168 162.766 196.233 162.712 196.287C162.669 196.319 162.616 196.34 162.551 196.34ZM130.432 190.11L162.304 195.781V148.06L130.432 142.487V190.11Z" fill="black"/>
<path d="M154.297 173.432C154.286 173.432 154.265 173.432 154.254 173.432L136.64 170.301C136.522 170.28 136.436 170.172 136.436 170.054V150.998C136.436 150.922 136.468 150.858 136.522 150.804C136.575 150.761 136.651 150.74 136.726 150.75L154.34 153.817C154.459 153.838 154.545 153.946 154.545 154.064V173.174C154.545 173.249 154.512 173.314 154.459 173.368C154.416 173.411 154.351 173.422 154.297 173.432ZM136.931 169.828L154.05 172.873V154.258L136.931 151.278V169.828Z" fill="black"/>
<path d="M139.05 168.095C138.91 168.095 138.803 167.988 138.803 167.848V153.785C138.803 153.645 138.91 153.537 139.05 153.537C139.19 153.537 139.298 153.645 139.298 153.785V167.848C139.298 167.977 139.19 168.095 139.05 168.095Z" fill="black"/>
<path d="M141.212 168.548C141.072 168.548 140.965 168.44 140.965 168.3V154.237C140.965 154.097 141.072 153.989 141.212 153.989C141.352 153.989 141.46 154.097 141.46 154.237V168.3C141.46 168.44 141.341 168.548 141.212 168.548Z" fill="black"/>
<path d="M143.365 169.01C143.225 169.01 143.117 168.902 143.117 168.762V154.699C143.117 154.559 143.225 154.452 143.365 154.452C143.505 154.452 143.612 154.559 143.612 154.699V168.762C143.612 168.902 143.505 169.01 143.365 169.01Z" fill="black"/>
<path d="M145.529 169.473C145.389 169.473 145.281 169.365 145.281 169.225V155.162C145.281 155.022 145.389 154.915 145.529 154.915C145.669 154.915 145.776 155.022 145.776 155.162V169.225C145.776 169.354 145.658 169.473 145.529 169.473Z" fill="black"/>
<path d="M148.552 169.397C148.412 169.397 148.305 169.29 148.305 169.15V155.893C148.305 155.754 148.412 155.646 148.552 155.646C148.692 155.646 148.8 155.754 148.8 155.893V169.15C148.8 169.29 148.692 169.397 148.552 169.397Z" fill="black"/>
<path d="M151.996 170.85C151.856 170.85 151.748 170.743 151.748 170.603V156.539C151.748 156.4 151.856 156.292 151.996 156.292C152.135 156.292 152.243 156.4 152.243 156.539V170.603C152.254 170.743 152.135 170.85 151.996 170.85Z" fill="black"/>
<path d="M162.55 148.146C162.539 148.146 162.518 148.146 162.507 148.146L130.248 142.497C130.109 142.476 130.012 142.358 130.012 142.207C130.012 142.056 130.109 141.949 130.248 141.916L162.873 136.203C162.905 136.192 162.927 136.192 162.959 136.203L195.11 141.97C195.228 141.992 195.314 142.099 195.314 142.218C195.314 142.336 195.228 142.444 195.11 142.465L162.593 148.146C162.571 148.146 162.561 148.146 162.55 148.146ZM131.497 142.207L162.539 147.652L193.625 142.218L162.905 136.709L131.497 142.207Z" fill="black"/>
<path d="M62.8482 48.014V11.9787C62.8482 10.7736 61.9767 9.72987 60.7823 9.52543L7.85387 0.390195C6.98231 0.239555 6.08923 0.271833 5.22843 0.476273L2.34475 1.53075L1.01051 38.7604C0.945951 40.482 2.16183 41.9776 3.86191 42.2789L54.8213 51.2312C56.0587 51.4464 56.5536 51.6401 58.5335 51.0698L60.7931 50.4672C62.0412 50.1229 62.8482 49.2191 62.8482 48.014Z" fill="black"/>
<path d="M56.4245 51.6938C55.9726 51.6938 55.5852 51.6185 55.1118 51.5324C55.0042 51.5109 54.8858 51.4894 54.7675 51.4679L3.81886 42.5156C2.01118 42.1928 0.698463 40.5788 0.763023 38.7496L2.09726 1.51996C2.09726 1.41236 2.16182 1.32628 2.25866 1.294L5.14234 0.239521C5.1531 0.239521 5.16386 0.228764 5.16386 0.228764C6.0677 0.013564 6.9823 -0.0187179 7.88614 0.142682L60.8146 9.27792C62.1273 9.50388 63.0849 10.6337 63.0849 11.9787V48.0139C63.0849 49.3159 62.2457 50.3273 60.8361 50.7039L58.5765 51.3065C57.5973 51.597 56.9625 51.6938 56.4245 51.6938ZM2.59222 1.70288L1.25798 38.7711C1.20418 40.3528 2.33398 41.7624 3.89418 42.0314L54.8428 50.9837C54.9719 51.0052 55.0795 51.0267 55.1979 51.0482C56.177 51.2312 56.7258 51.328 58.4474 50.833L60.707 50.2305C61.8798 49.9077 62.59 49.0792 62.59 48.0247V11.9787C62.59 10.8919 61.8045 9.9558 60.7285 9.77288L7.80006 0.637643C6.96078 0.497763 6.1215 0.519281 5.29298 0.723721L2.59222 1.70288Z" fill="black"/>
<path d="M58.7814 48.7672V12.861C58.7814 11.699 57.9421 10.709 56.8015 10.5154L3.69016 1.36937C2.23756 1.12189 0.90332 2.24093 0.90332 3.71505V39.7503C0.90332 40.9124 1.73184 41.9023 2.8724 42.096L55.6502 51.4034C57.2857 51.6939 58.7814 50.435 58.7814 48.7672Z" fill="white"/>
<path d="M56.1124 51.6937C55.9403 51.6937 55.7681 51.683 55.6067 51.6507L2.82892 42.354C1.57 42.1281 0.655396 41.0413 0.655396 39.7609V3.71487C0.655396 2.94015 0.999717 2.19771 1.59152 1.70275C2.18332 1.20779 2.9688 0.992593 3.73276 1.12171L56.8441 10.2677C58.1138 10.4829 59.0284 11.5804 59.0284 12.8609V48.767C59.0284 49.6278 58.6518 50.4456 57.9847 51.0051C57.4574 51.457 56.8011 51.6937 56.1124 51.6937ZM3.2916 1.58439C2.79664 1.58439 2.31244 1.75655 1.91432 2.09011C1.43012 2.49899 1.16112 3.09079 1.16112 3.72563V39.7609C1.16112 40.7938 1.90356 41.6762 2.92576 41.8591L55.6928 51.1557C56.403 51.2848 57.1239 51.0912 57.6726 50.6285C58.2214 50.1658 58.5334 49.4879 58.5334 48.7778V12.8609C58.5334 11.8172 57.791 10.9348 56.758 10.7627L3.64668 1.61667C3.52832 1.59515 3.40996 1.58439 3.2916 1.58439Z" fill="black"/>
<path d="M51.83 46.9058C51.6793 46.9058 51.5179 46.895 51.3673 46.8627L7.41269 39.1155C6.14301 38.8896 5.21765 37.7921 5.21765 36.5009V9.13819C5.21765 8.35271 5.56197 7.61027 6.16453 7.10455C6.76709 6.59883 7.55257 6.38363 8.32729 6.51275L52.2819 14.077C53.5623 14.2922 54.4877 15.4005 54.4877 16.6917V44.2373C54.4877 45.0228 54.1434 45.7652 53.5408 46.2709C53.0459 46.6906 52.4433 46.9058 51.83 46.9058ZM7.86461 6.98619C7.35889 6.98619 6.87469 7.15835 6.47657 7.49191C5.99237 7.90079 5.71261 8.50335 5.71261 9.13819V36.5009C5.71261 37.5446 6.46581 38.4377 7.48801 38.6206L51.4426 46.3678C52.0667 46.4754 52.7123 46.3032 53.1965 45.8943C53.6807 45.4855 53.9712 44.8829 53.9712 44.2481V16.7025C53.9712 15.648 53.218 14.7549 52.1851 14.5828L8.23045 7.01847C8.11209 6.98619 7.98297 6.98619 7.86461 6.98619Z" fill="black"/>
<path d="M19.7541 26.9566C19.6465 26.9566 19.5389 26.9459 19.4313 26.9243L11.1676 25.4717C10.2745 25.3103 9.61816 24.5356 9.61816 23.6318V14.5611C9.61816 14.0123 9.86564 13.4851 10.2853 13.13C10.7049 12.7749 11.2644 12.6243 11.8132 12.7211L20.0769 14.1415C20.9807 14.2921 21.6371 15.0776 21.6371 15.9922V25.1059C21.6371 25.6654 21.3896 26.1819 20.97 26.537C20.6149 26.806 20.1845 26.9566 19.7541 26.9566ZM11.4796 13.1838C11.1568 13.1838 10.8448 13.2914 10.5973 13.5066C10.2853 13.7649 10.1131 14.1522 10.1131 14.5611V23.6318C10.1131 24.2989 10.5866 24.8692 11.2429 24.9875L19.5066 26.4401C19.9047 26.5155 20.3136 26.3971 20.6256 26.1389C20.9377 25.8806 21.1206 25.4933 21.1206 25.0844V15.9814C21.1206 15.3143 20.6364 14.744 19.98 14.6257L11.7164 13.2053C11.641 13.1946 11.555 13.1838 11.4796 13.1838Z" fill="black"/>
<path d="M18.6673 21.9317V18.2733C18.6673 17.5739 18.1616 16.9821 17.473 16.8638L14.2342 16.3042C13.3627 16.1536 12.5557 16.8315 12.5557 17.7138V21.3614C12.5557 22.0608 13.0506 22.6526 13.7393 22.771L16.978 23.3413C17.8603 23.5027 18.6673 22.8248 18.6673 21.9317Z" fill="black"/>
<path d="M46.7404 23.5563C46.6006 23.5563 46.4499 23.5456 46.3101 23.5241L29.0402 20.479C27.8566 20.2745 26.9958 19.2416 26.9958 18.0472C26.9958 17.3155 27.3187 16.6269 27.8782 16.1535C28.4377 15.68 29.1694 15.4863 29.8903 15.6047L47.1601 18.5745C48.3437 18.7789 49.2153 19.8011 49.2153 21.0062V21.0815C49.2153 21.8132 48.8924 22.5019 48.3329 22.9753C47.881 23.3519 47.3215 23.5563 46.7404 23.5563ZM29.4706 16.0674C29.008 16.0674 28.5561 16.2288 28.201 16.5301C27.7598 16.9067 27.5016 17.4554 27.5016 18.0365C27.5016 18.9941 28.1902 19.8119 29.1263 19.9733L46.3961 23.0183C46.9664 23.1152 47.5582 22.9645 48.0101 22.5879C48.462 22.2113 48.7095 21.6626 48.7095 21.0815V21.0062C48.7095 20.0486 48.0209 19.2308 47.074 19.0694L29.8042 16.0997C29.6966 16.0781 29.5782 16.0674 29.4706 16.0674Z" fill="black"/>
<path d="M46.7405 31.7446C46.6006 31.7446 46.4607 31.7338 46.3208 31.7123L36.4109 30.0014C35.2273 29.797 34.3557 28.7748 34.3557 27.5697C34.3557 26.838 34.6785 26.1494 35.2273 25.6759C35.776 25.2025 36.5185 25.0088 37.2286 25.1272L47.1386 26.7734C48.333 26.9671 49.2045 28.0001 49.2045 29.216V29.2805C49.2045 30.0122 48.8817 30.7008 48.3222 31.1743C47.881 31.5401 47.3215 31.7446 46.7405 31.7446ZM36.8305 25.5791C36.3678 25.5791 35.9159 25.7405 35.5608 26.0418C35.1197 26.4184 34.8614 26.9671 34.8614 27.5482C34.8614 28.5166 35.5501 29.3343 36.497 29.4957L46.4069 31.2066C46.9772 31.3034 47.569 31.1528 48.0102 30.7762C48.4513 30.3996 48.7096 29.8508 48.7096 29.2698V29.2052C48.7096 28.2368 48.0209 27.419 47.0633 27.2576L37.1533 25.6114C37.0457 25.5898 36.9381 25.5791 36.8305 25.5791Z" fill="black"/>
<path d="M46.7402 40.1163C46.6003 40.1163 46.4605 40.1056 46.3206 40.084L28.7495 37.0928C27.5551 36.8883 26.6943 35.8661 26.6943 34.6502C26.6943 33.9186 27.0171 33.2299 27.5659 32.7565C28.1254 32.283 28.8463 32.0894 29.5673 32.2077L47.1383 35.1237C48.3327 35.3174 49.2043 36.3503 49.2043 37.5662V37.6415C49.2043 38.3732 48.8815 39.0618 48.3219 39.5245C47.8808 39.9119 47.3213 40.1163 46.7402 40.1163ZM29.1584 32.6812C28.6957 32.6812 28.2438 32.8426 27.8887 33.1438C27.4475 33.5204 27.1893 34.0692 27.1893 34.6502C27.1893 35.6186 27.8779 36.4364 28.8356 36.5978L46.4067 39.5783C46.9769 39.6752 47.5687 39.5138 48.0099 39.1372C48.4511 38.7606 48.7093 38.2118 48.7093 37.6308V37.5554C48.7093 36.587 48.0099 35.7693 47.063 35.6079L29.4919 32.6919C29.3736 32.6919 29.266 32.6812 29.1584 32.6812Z" fill="black"/>
<path d="M67.5718 154.474C65.7211 154.474 64.2147 152.967 64.2147 151.116C64.2147 149.266 65.7211 147.759 67.5718 147.759C69.4226 147.759 70.929 149.266 70.929 151.116C70.929 152.967 69.4226 154.474 67.5718 154.474ZM67.5718 148.265C66.0009 148.265 64.7204 149.545 64.7204 151.116C64.7204 152.687 66.0009 153.968 67.5718 153.968C69.1428 153.968 70.4232 152.687 70.4232 151.116C70.4232 149.545 69.1536 148.265 67.5718 148.265Z" fill="black"/>
</svg>
