<svg width="191" height="196" viewBox="0 0 191 196" fill="none" xmlns="http://www.w3.org/2000/svg">
<g clip-path="url(#clip0_0_5990)">
<path d="M35.3944 5.58105V90.071H33.0398V6.45609C33.8257 6.14763 34.6128 5.85417 35.3944 5.58105Z" fill="#1E1E1E"/>
<path d="M141.87 56.8174H10.053V59.1983H141.87V56.8174Z" fill="#1E1E1E"/>
<path d="M141.87 27.0459V29.4279H10.0519V29.2137C10.2452 28.4843 10.4685 27.7614 10.7241 27.0459H141.87Z" fill="#1E1E1E"/>
<path d="M62.0994 0V89.5988H59.7469V0.235628C60.5265 0.147803 61.3102 0.0717596 62.0994 0Z" fill="#1E1E1E"/>
<path d="M88.8076 0.637246V83.4253H86.4551V0.354492C87.2389 0.440175 88.0227 0.535498 88.8076 0.637246Z" fill="#1E1E1E"/>
<path d="M115.515 6.94335V90.072H113.162V6.15186C113.948 6.4089 114.733 6.67238 115.515 6.94335Z" fill="#1E1E1E"/>
<path d="M46.4588 18.936H38.5371V26.9667H46.4588V18.936Z" fill="white"/>
<path d="M46.4589 27.2044H38.5371C38.4051 27.2044 38.2988 27.0984 38.2988 26.9667V18.936C38.2988 18.8043 38.4051 18.6982 38.5371 18.6982H46.4589C46.5909 18.6982 46.6972 18.8043 46.6972 18.936V26.9667C46.6972 27.0984 46.5909 27.2044 46.4589 27.2044ZM38.7755 26.7289H46.2205V19.1738H38.7755V26.7289Z" fill="#1E1E1E"/>
<path d="M56.8318 18.936H48.9101V26.9667H56.8318V18.936Z" fill="white"/>
<path d="M56.8319 27.2044H48.9101C48.778 27.2044 48.6718 27.0984 48.6718 26.9667V18.936C48.6718 18.8043 48.778 18.6982 48.9101 18.6982H56.8319C56.9639 18.6982 57.0702 18.8043 57.0702 18.936V26.9667C57.0702 27.0984 56.9639 27.2044 56.8319 27.2044ZM49.1485 26.7289H56.5935V19.1738H49.1485V26.7289Z" fill="#1E1E1E"/>
<path d="M57.6135 36.4346H37.486V56.84H57.6135V36.4346Z" fill="white"/>
<path d="M57.6145 57.0776H37.487C37.355 57.0776 37.2487 56.9716 37.2487 56.8399V36.4355C37.2487 36.3038 37.355 36.1978 37.487 36.1978H57.6145C57.7466 36.1978 57.8529 36.3038 57.8529 36.4355V56.8399C57.8529 56.9716 57.7466 57.0776 57.6145 57.0776ZM37.7254 56.6021H57.3762V36.6722H37.7254V56.6021Z" fill="#1E1E1E"/>
<path d="M53.5335 52.9401H41.5671C41.435 52.9401 41.3287 52.8341 41.3287 52.7023V40.5718C41.3287 40.44 41.435 40.334 41.5671 40.334H53.5335C53.6655 40.334 53.7718 40.44 53.7718 40.5718V52.7023C53.7718 52.8341 53.6655 52.9401 53.5335 52.9401ZM41.8055 52.4646H53.2951V40.8095H41.8055V52.4646Z" fill="#1E1E1E"/>
<path d="M51.8016 51.25H43.299C43.1669 51.25 43.0606 51.144 43.0606 51.0123V49.5556C43.0606 49.4239 43.1669 49.3179 43.299 49.3179H51.8016C51.9336 49.3179 52.0399 49.4239 52.0399 49.5556V51.0123C52.0399 51.144 51.9336 51.25 51.8016 51.25ZM43.5373 50.7745H51.5643V49.7923H43.5373V50.7745Z" fill="#1E1E1E"/>
<path d="M45.98 48.2062H44.5423C44.4103 48.2062 44.304 48.1002 44.304 47.9684V44.1727H43.357C43.2614 44.1727 43.1744 44.1148 43.1369 44.027C43.0993 43.9381 43.1197 43.8364 43.1862 43.7689L45.091 41.8378C45.1801 41.7468 45.3412 41.7468 45.4303 41.8378L47.335 43.7689C47.4027 43.8374 47.422 43.9392 47.3844 44.027C47.3468 44.1148 47.2609 44.1727 47.1643 44.1727H46.2173V47.9684C46.2173 48.1002 46.111 48.2062 45.9789 48.2062H45.98ZM44.7807 47.7307H45.7416V43.9349C45.7416 43.8032 45.8479 43.6971 45.98 43.6971H46.5974L45.2617 42.3433L43.926 43.6971H44.5434C44.6755 43.6971 44.7818 43.8032 44.7818 43.9349V47.7307H44.7807Z" fill="#1E1E1E"/>
<path d="M50.5572 48.2062H49.1195C48.9874 48.2062 48.8811 48.1002 48.8811 47.9684V44.1727H47.9341C47.8386 44.1727 47.7516 44.1148 47.714 44.027C47.6764 43.9381 47.6968 43.8364 47.7634 43.7689L49.6681 41.8378C49.7572 41.7468 49.9183 41.7468 50.0074 41.8378L51.9122 43.7689C51.9798 43.8374 51.9991 43.9392 51.9615 44.027C51.924 44.1148 51.8381 44.1727 51.7414 44.1727H50.7944V47.9684C50.7944 48.1002 50.6881 48.2062 50.5561 48.2062H50.5572ZM49.3578 47.7307H50.3188V43.9349C50.3188 43.8032 50.4251 43.6971 50.5572 43.6971H51.1745L49.8388 42.3433L48.5032 43.6971H49.1205C49.2526 43.6971 49.3589 43.8032 49.3589 43.9349V47.7307H49.3578Z" fill="#1E1E1E"/>
<path d="M85.783 38.7373H67.572V57.1999H85.783V38.7373Z" fill="white"/>
<path d="M85.783 57.4375H67.572C67.44 57.4375 67.3337 57.3315 67.3337 57.1997V38.7383C67.3337 38.6065 67.44 38.5005 67.572 38.5005H85.783C85.9151 38.5005 86.0214 38.6065 86.0214 38.7383V57.1997C86.0214 57.3315 85.9151 57.4375 85.783 57.4375ZM67.8104 56.962H85.5447V38.976H67.8104V56.962Z" fill="#1E1E1E"/>
<path d="M110.837 6.96045H90.7092V27.3659H110.837V6.96045Z" fill="white"/>
<path d="M110.837 27.6041H90.7091C90.5771 27.6041 90.4708 27.4981 90.4708 27.3663V6.96091C90.4708 6.82918 90.5771 6.72314 90.7091 6.72314H110.837C110.969 6.72314 111.075 6.82918 111.075 6.96091V27.3663C111.075 27.4981 110.969 27.6041 110.837 27.6041ZM90.9475 27.1286H110.598V7.19869H90.9475V27.1286Z" fill="#1E1E1E"/>
<path d="M106.717 23.4268H94.8289C94.6969 23.4268 94.5906 23.3207 94.5906 23.189V11.1377C94.5906 11.0059 94.6969 10.8999 94.8289 10.8999H106.717C106.849 10.8999 106.955 11.0059 106.955 11.1377V23.189C106.955 23.3207 106.849 23.4268 106.717 23.4268ZM95.0673 22.9512H106.479V11.3754H95.0673V22.9512Z" fill="#1E1E1E"/>
<path d="M100.041 21.7281C99.5049 21.7281 99.07 21.2889 99.07 20.7481V20.1665C99.07 20.0348 99.1763 19.9287 99.3084 19.9287C99.4404 19.9287 99.5467 20.0348 99.5467 20.1665V20.7481C99.5467 21.0265 99.769 21.2525 100.041 21.2525C100.312 21.2525 100.535 21.0255 100.535 20.7481V12.8374C100.535 12.7056 100.641 12.5996 100.773 12.5996C100.905 12.5996 101.011 12.7056 101.011 12.8374V20.7481C101.011 21.2889 100.575 21.7281 100.041 21.7281Z" fill="#1E1E1E"/>
<path d="M104.587 17.3444C104.78 17.3444 104.928 17.172 104.906 16.9781C104.7 15.2751 102.929 13.9438 100.773 13.9438C98.6169 13.9438 96.8453 15.2751 96.6402 16.9781C96.6166 17.172 96.7658 17.3444 96.9591 17.3444H104.587Z" fill="white"/>
<path d="M104.587 17.582H96.9591C96.8002 17.582 96.6488 17.5135 96.5436 17.3946C96.4362 17.2736 96.3847 17.1108 96.404 16.9501C96.6263 15.1015 98.5042 13.707 100.773 13.707C103.042 13.707 104.92 15.1015 105.142 16.9501C105.161 17.1119 105.111 17.2736 105.003 17.3946C104.897 17.5135 104.746 17.582 104.587 17.582ZM100.773 14.1815C98.7458 14.1815 97.0708 15.3961 96.8775 17.0058C96.8732 17.0422 96.8893 17.0669 96.9001 17.0787C96.9108 17.0915 96.9301 17.1065 96.9591 17.1065H104.587C104.616 17.1065 104.635 17.0915 104.646 17.0787C104.656 17.0669 104.673 17.0422 104.668 17.0058C104.475 15.3961 102.8 14.1815 100.773 14.1815Z" fill="#1E1E1E"/>
<path d="M10.7842 66.5586L177.027 94.5695C184.769 95.8772 189.346 101.192 190.757 107.234C190.755 107.254 190.757 107.275 190.762 107.297C190.402 111.492 189.765 115.702 188.831 119.9C188.736 120.139 188.653 120.394 188.588 120.667C187.43 122.502 185.896 124.128 183.978 125.412C182.059 126.696 179.763 127.637 177.082 128.098C173.523 128.712 173.527 133.81 177.084 134.421L183.859 135.647C180.091 144.751 175.063 152.938 169.083 160.132L134.037 154.013C123.922 152.295 118.851 144.18 118.851 136.063C118.851 127.945 123.86 119.932 133.899 118.147C136.11 117.753 136.098 114.584 133.885 114.208L9.72552 93.1236L10.7831 66.5586H10.7842Z" fill="white"/>
<path d="M169.083 160.369C169.069 160.369 169.056 160.368 169.042 160.366L133.996 154.247C123.37 152.441 118.612 143.813 118.612 136.062C118.612 128.31 123.326 119.785 133.857 117.912C134.867 117.732 135.316 116.907 135.313 116.169C135.309 115.432 134.854 114.613 133.845 114.442L9.68579 93.3582C9.55587 93.3368 9.4689 93.2136 9.49038 93.084C9.51293 92.9544 9.63533 92.8698 9.76524 92.8891L133.923 113.974C135.206 114.191 135.784 115.232 135.788 116.168C135.793 117.105 135.222 118.152 133.939 118.381C123.68 120.205 119.088 128.576 119.088 136.063C119.088 143.549 123.722 152.02 134.076 153.779L168.986 159.874C175.003 152.613 179.894 144.526 183.525 135.828L177.041 134.654C175.063 134.315 174.176 132.704 174.176 131.26C174.176 129.815 175.061 128.206 177.041 127.864C179.582 127.427 181.871 126.536 183.845 125.214C185.664 123.997 187.184 122.436 188.366 120.573C188.426 120.325 188.505 120.081 188.603 119.829C189.514 115.734 190.159 111.522 190.522 107.306C190.52 107.29 190.519 107.274 190.518 107.258C188.958 100.626 183.902 95.9716 176.987 94.8041L10.7445 66.7922C10.6145 66.7708 10.5276 66.6476 10.549 66.518C10.5705 66.3884 10.694 66.3017 10.8239 66.3231L177.067 94.3339C184.187 95.5367 189.393 100.338 190.989 107.179C190.996 107.206 190.997 107.234 190.994 107.261C190.999 107.285 191.001 107.29 190.999 107.315C190.634 111.568 189.983 115.818 189.064 119.949C189.062 119.961 189.058 119.974 189.053 119.985C188.955 120.234 188.878 120.474 188.82 120.72C188.814 120.746 188.804 120.77 188.79 120.793C187.57 122.727 185.995 124.347 184.11 125.608C182.081 126.966 179.729 127.883 177.121 128.331C175.415 128.625 174.652 130.013 174.652 131.258C174.652 132.504 175.416 133.892 177.124 134.185L183.901 135.411C183.972 135.424 184.033 135.468 184.067 135.531C184.101 135.595 184.106 135.67 184.078 135.736C180.399 144.623 175.416 152.882 169.264 160.282C169.219 160.337 169.151 160.368 169.08 160.368L169.083 160.369Z" fill="#1E1E1E"/>
<path d="M121.631 194.664C136.244 191.579 144.764 183.825 160.523 169.176L63.8839 191.33L121.63 194.664H121.631Z" fill="white"/>
<path d="M121.631 194.902C121.52 194.902 121.421 194.825 121.398 194.713C121.371 194.585 121.452 194.459 121.581 194.432C136.156 191.355 144.646 183.608 159.711 169.605L63.9387 191.561C63.8109 191.591 63.6831 191.511 63.6531 191.383C63.6241 191.255 63.7035 191.128 63.8324 191.098L160.472 168.943C160.577 168.919 160.685 168.969 160.736 169.063C160.786 169.159 160.767 169.275 160.687 169.348C145.151 183.791 136.594 191.747 121.681 194.896C121.665 194.899 121.648 194.901 121.632 194.901L121.631 194.902Z" fill="#1E1E1E"/>
<path d="M108.534 157.778L106.358 156.72C106.007 156.55 105.782 156.195 105.789 155.808C105.797 155.4 105.787 154.993 105.76 154.591C105.734 154.206 105.941 153.842 106.281 153.654L108.395 152.485C108.812 152.255 109.011 151.771 108.876 151.319L108.325 149.479C108.19 149.027 107.756 148.728 107.28 148.759L104.857 148.917C104.465 148.943 104.093 148.745 103.902 148.405C103.704 148.055 103.492 147.712 103.266 147.379C103.048 147.057 103.038 146.638 103.239 146.305L104.483 144.243C104.726 143.839 104.654 143.32 104.309 142.996L102.901 141.675C102.555 141.35 102.028 141.307 101.632 141.569L99.6187 142.9C99.2923 143.116 98.8703 143.128 98.5332 142.93C98.1853 142.726 97.8278 142.534 97.4595 142.357C97.1063 142.187 96.8851 141.828 96.8904 141.439L96.9248 139.042C96.9312 138.571 96.607 138.158 96.1431 138.048L94.2556 137.601C93.7917 137.49 93.3129 137.713 93.1024 138.136L92.0309 140.287C91.858 140.634 91.4994 140.857 91.1086 140.85C90.6952 140.843 90.284 140.854 89.876 140.88C89.4873 140.906 89.119 140.703 88.929 140.366L87.7479 138.277C87.5149 137.865 87.0253 137.668 86.5679 137.802L84.7061 138.347C84.2487 138.481 83.9459 138.911 83.9771 139.381L84.1371 141.775C84.1628 142.16 83.9653 142.529 83.6249 142.717C83.2663 142.914 82.9163 143.126 82.5759 143.352C82.2517 143.568 81.8297 143.573 81.4936 143.376L79.4085 142.147C78.9994 141.906 78.4744 141.977 78.1458 142.32L76.8091 143.712C76.4805 144.054 76.4354 144.575 76.7006 144.967L78.0471 146.957C78.265 147.28 78.2779 147.697 78.0771 148.031C77.8699 148.374 77.6766 148.729 77.4962 149.092C77.3234 149.441 76.9605 149.66 76.5675 149.654L74.142 149.621C73.6653 149.615 73.2476 149.936 73.136 150.394L72.6818 152.26C72.5701 152.718 72.7945 153.192 73.2229 153.401L75.3982 154.459C75.7493 154.63 75.9748 154.984 75.9673 155.37C75.9598 155.778 75.9694 156.185 75.9963 156.588C76.0221 156.973 75.8159 157.337 75.4755 157.525L73.3614 158.694C72.9448 158.924 72.7451 159.408 72.8804 159.86L73.4312 161.7C73.5665 162.152 74.0003 162.451 74.477 162.42L76.8993 162.261C77.289 162.236 77.6627 162.431 77.8527 162.768C78.0524 163.123 78.2672 163.469 78.4948 163.805C78.7117 164.125 78.7181 164.543 78.5184 164.875L77.2751 166.937C77.0303 167.341 77.1033 167.86 77.449 168.184L78.8566 169.505C79.2023 169.829 79.7295 169.873 80.1257 169.611L82.1389 168.28C82.4653 168.064 82.8873 168.051 83.2244 168.25C83.5723 168.454 83.9309 168.646 84.2981 168.823C84.6514 168.993 84.8725 169.352 84.8672 169.741L84.8328 172.137C84.8264 172.609 85.1506 173.022 85.6145 173.131L87.502 173.579C87.9659 173.689 88.4447 173.467 88.6552 173.044L89.7267 170.893C89.8996 170.546 90.2582 170.323 90.649 170.33C91.0624 170.337 91.4736 170.326 91.8816 170.3C92.2703 170.274 92.6386 170.477 92.8286 170.814L94.0097 172.903C94.2427 173.315 94.7323 173.512 95.1897 173.378L97.0515 172.833C97.5089 172.699 97.8117 172.269 97.7805 171.799L97.6206 169.404C97.5948 169.016 97.7956 168.648 98.1381 168.46C98.4924 168.264 98.8392 168.054 99.1763 167.831C99.5027 167.614 99.9258 167.605 100.263 167.804L102.348 169.033C102.758 169.274 103.282 169.203 103.611 168.86L104.947 167.468C105.276 167.126 105.321 166.605 105.056 166.213L103.709 164.223C103.492 163.9 103.479 163.482 103.679 163.149C103.887 162.806 104.08 162.451 104.26 162.088C104.433 161.739 104.796 161.52 105.189 161.526L107.615 161.559C108.091 161.565 108.509 161.244 108.621 160.786L109.075 158.92C109.186 158.461 108.962 157.988 108.534 157.78V157.778ZM91.056 163.825C86.453 163.924 82.6425 160.315 82.5448 155.766C82.4471 151.216 86.0987 147.448 90.7006 147.349C95.3035 147.251 99.1141 150.859 99.2118 155.409C99.3095 159.959 95.6578 163.727 91.056 163.825Z" fill="white"/>
<path d="M87.7447 173.842C87.6459 173.842 87.546 173.831 87.4473 173.807L85.5597 173.359C84.9831 173.222 84.5869 172.718 84.5944 172.131L84.6288 169.734C84.6331 169.438 84.4624 169.163 84.195 169.034C83.8235 168.854 83.4563 168.658 83.1042 168.451C82.8475 168.3 82.5211 168.309 82.271 168.474L80.2578 169.807C79.765 170.132 79.1218 170.078 78.6934 169.675L77.2858 168.354C76.8552 167.951 76.7672 167.316 77.0711 166.811L78.3144 164.749C78.4679 164.496 78.4615 164.176 78.2983 163.935C78.0674 163.596 77.8484 163.241 77.6455 162.881C77.5027 162.628 77.216 162.474 76.9154 162.496L74.4931 162.654C73.9026 162.693 73.3722 162.327 73.2036 161.765L72.6528 159.925C72.4842 159.362 72.7279 158.769 73.2465 158.483L75.3607 157.314C75.6216 157.17 75.7783 156.89 75.759 156.601C75.7322 156.193 75.7214 155.776 75.7289 155.363C75.7343 155.073 75.5636 154.799 75.293 154.669L73.1177 153.611C72.5851 153.351 72.3103 152.772 72.4499 152.201L72.904 150.335C73.0415 149.771 73.5429 149.381 74.127 149.381H74.1452L76.5707 149.414C76.8746 149.41 77.1516 149.249 77.2826 148.985C77.4651 148.616 77.6627 148.253 77.872 147.906C78.0234 147.655 78.0148 147.333 77.8495 147.089L76.5031 145.099C76.1724 144.611 76.2282 143.972 76.6373 143.547L77.974 142.155C78.382 141.731 79.0209 141.643 79.5298 141.942L81.6149 143.17C81.8737 143.322 82.199 143.316 82.4438 143.153C82.7874 142.925 83.146 142.707 83.5089 142.507C83.7656 142.366 83.9191 142.083 83.8987 141.788L83.7387 139.395C83.699 138.809 84.0694 138.284 84.6374 138.117L86.4992 137.572C87.0672 137.406 87.6652 137.647 87.954 138.158L89.1351 140.247C89.2811 140.506 89.5646 140.663 89.8599 140.641C90.2722 140.615 90.692 140.605 91.1118 140.611C91.1161 140.611 91.1204 140.611 91.1247 140.611C91.4156 140.611 91.6862 140.443 91.8172 140.18L92.8888 138.029C93.1507 137.504 93.7348 137.232 94.3103 137.368L96.1979 137.816C96.7745 137.953 97.1707 138.458 97.1621 139.046L97.1277 141.442C97.1234 141.738 97.2941 142.013 97.5615 142.143C97.933 142.323 98.3002 142.519 98.6524 142.726C98.909 142.877 99.2354 142.867 99.4856 142.702L101.499 141.37C101.99 141.044 102.635 141.099 103.063 141.501L104.471 142.822C104.901 143.226 104.989 143.861 104.685 144.365L103.442 146.427C103.29 146.681 103.297 147.002 103.463 147.245C103.691 147.582 103.908 147.933 104.109 148.289C104.254 148.546 104.542 148.701 104.841 148.68L107.263 148.521C107.851 148.481 108.384 148.848 108.553 149.41L109.104 151.25C109.272 151.813 109.029 152.407 108.51 152.693L106.396 153.861C106.135 154.006 105.978 154.285 105.998 154.574C106.024 154.981 106.035 155.398 106.028 155.813C106.022 156.103 106.193 156.375 106.464 156.507L108.639 157.565C109.171 157.824 109.446 158.403 109.307 158.974L108.852 160.84C108.715 161.404 108.214 161.794 107.63 161.794H107.611L105.186 161.761H105.175C104.878 161.761 104.604 161.929 104.474 162.191C104.291 162.559 104.093 162.922 103.883 163.269C103.732 163.521 103.741 163.842 103.907 164.087L105.253 166.077C105.584 166.566 105.528 167.204 105.119 167.629L103.782 169.022C103.376 169.446 102.736 169.534 102.227 169.235L100.142 168.006C99.8828 167.854 99.5564 167.863 99.3084 168.027C98.967 168.253 98.6116 168.468 98.253 168.666C97.9931 168.81 97.8374 169.092 97.8578 169.387L98.0178 171.782C98.0575 172.368 97.6871 172.892 97.1191 173.06L95.2573 173.605C94.6904 173.771 94.0913 173.53 93.8025 173.019L92.6214 170.929C92.4754 170.671 92.193 170.516 91.8967 170.535C91.4844 170.562 91.0635 170.572 90.6447 170.565C90.3505 170.567 90.0724 170.729 89.9393 170.996L88.8678 173.146C88.6509 173.581 88.2139 173.841 87.7436 173.841L87.7447 173.842ZM82.708 167.868C82.9291 167.868 83.1503 167.925 83.3468 168.041C83.6872 168.241 84.0426 168.431 84.4033 168.605C84.8371 168.815 85.113 169.261 85.1066 169.74L85.0722 172.137C85.0669 172.499 85.3128 172.812 85.6703 172.897L87.5579 173.344C87.9154 173.428 88.2804 173.261 88.4426 172.934L89.5141 170.784C89.7256 170.359 90.1626 170.088 90.6329 170.088C90.6404 170.088 90.6469 170.088 90.6544 170.088C91.0603 170.095 91.4683 170.085 91.8677 170.06C92.3444 170.029 92.8029 170.278 93.038 170.695L94.2191 172.784C94.3984 173.101 94.771 173.251 95.1242 173.147L96.986 172.602C97.3382 172.499 97.5679 172.174 97.5443 171.813L97.3843 169.418C97.3521 168.94 97.6034 168.482 98.0243 168.25C98.3711 168.058 98.7157 167.85 99.0464 167.63C99.4458 167.366 99.9719 167.353 100.386 167.596L102.472 168.825C102.788 169.011 103.187 168.957 103.44 168.693L104.777 167.301C105.029 167.037 105.063 166.644 104.859 166.343L103.513 164.353C103.245 163.956 103.23 163.434 103.476 163.024C103.679 162.688 103.871 162.336 104.048 161.98C104.259 161.551 104.708 161.272 105.193 161.285L107.619 161.318C107.983 161.32 108.304 161.08 108.39 160.727L108.844 158.861C108.93 158.508 108.759 158.151 108.431 157.99L106.255 156.932C105.819 156.72 105.543 156.276 105.552 155.802C105.559 155.4 105.55 154.998 105.523 154.603C105.492 154.132 105.744 153.676 106.166 153.443L108.28 152.275C108.601 152.098 108.752 151.732 108.648 151.384L108.098 149.544C107.994 149.196 107.662 148.969 107.297 148.993L104.874 149.152C104.395 149.186 103.931 148.935 103.696 148.52C103.501 148.176 103.291 147.837 103.07 147.51C102.801 147.114 102.788 146.591 103.036 146.18L104.28 144.118C104.468 143.807 104.413 143.415 104.146 143.166L102.739 141.845C102.472 141.595 102.071 141.56 101.764 141.764L99.7508 143.095C99.3503 143.361 98.8252 143.375 98.4129 143.132C98.0726 142.931 97.7172 142.742 97.3564 142.567C96.9226 142.357 96.6467 141.912 96.6531 141.432L96.6875 139.035C96.6929 138.673 96.447 138.36 96.0895 138.275L94.2019 137.828C93.8433 137.742 93.4793 137.911 93.3172 138.238L92.2456 140.389C92.0309 140.819 91.5778 141.085 91.1054 141.084C90.6995 141.077 90.2915 141.087 89.8921 141.113C89.4175 141.143 88.9569 140.894 88.7217 140.477L87.5407 138.388C87.3614 138.071 86.9888 137.921 86.6355 138.025L84.7738 138.57C84.4216 138.673 84.1918 138.997 84.2154 139.359L84.3754 141.753C84.4076 142.231 84.1585 142.689 83.7409 142.919C83.3898 143.113 83.0419 143.324 82.709 143.545C82.3128 143.807 81.7889 143.819 81.3744 143.575L79.2893 142.346C78.9726 142.16 78.5742 142.214 78.3208 142.478L76.9841 143.871C76.7318 144.133 76.6974 144.527 76.9014 144.828L78.2478 146.818C78.5173 147.215 78.5313 147.737 78.2843 148.146C78.0814 148.482 77.8903 148.834 77.7131 149.19C77.5005 149.619 77.0431 149.884 76.5675 149.885L74.142 149.852C73.778 149.847 73.457 150.09 73.37 150.443L72.9158 152.309C72.8299 152.662 73.0007 153.019 73.3303 153.18L75.5056 154.238C75.9415 154.45 76.2175 154.894 76.2089 155.368C76.2014 155.769 76.211 156.171 76.2379 156.567C76.269 157.038 76.0167 157.493 75.5947 157.727L73.4806 158.895C73.1596 159.072 73.0093 159.438 73.1123 159.786L73.6631 161.626C73.7673 161.974 74.0991 162.202 74.4641 162.177L76.8864 162.018C77.3674 161.986 77.8302 162.232 78.0631 162.645C78.2586 162.993 78.4722 163.336 78.6956 163.664C78.9618 164.057 78.9736 164.578 78.7256 164.99L77.4823 167.052C77.2944 167.363 77.3491 167.755 77.6154 168.004L79.023 169.325C79.2904 169.575 79.6909 169.61 79.998 169.406L82.0111 168.075C82.2216 167.936 82.4664 167.866 82.7112 167.866L82.708 167.868ZM90.8713 164.065C88.652 164.065 86.555 163.233 84.9477 161.711C83.2931 160.144 82.3558 158.035 82.3075 155.771C82.2592 153.507 83.1052 151.359 84.69 149.723C86.2748 148.087 88.4082 147.16 90.6973 147.112C95.4259 147.001 99.3513 150.729 99.4523 155.403C99.5006 157.668 98.6545 159.815 97.0697 161.452C95.485 163.087 93.3515 164.014 91.0624 164.063C90.9991 164.064 90.9346 164.065 90.8713 164.065ZM90.8852 147.585C90.8262 147.585 90.7671 147.585 90.707 147.587C88.5446 147.633 86.5293 148.509 85.0325 150.054C83.5369 151.597 82.738 153.624 82.7842 155.761C82.8304 157.898 83.7151 159.888 85.2762 161.367C86.8374 162.846 88.8914 163.634 91.0517 163.588C93.2141 163.542 95.2294 162.666 96.7262 161.122C98.2218 159.578 99.0206 157.551 98.9745 155.414C98.8811 151.061 95.2681 147.586 90.8852 147.586V147.585Z" fill="#1E1E1E"/>
<path d="M90.081 124.721L88.3975 124.193C88.1258 124.108 87.9251 123.876 87.8875 123.597C87.8488 123.301 87.7973 123.009 87.7339 122.721C87.6738 122.445 87.7823 122.162 88.0077 121.989L89.4057 120.918C89.6806 120.707 89.7729 120.337 89.6258 120.025L89.0288 118.757C88.8817 118.445 88.536 118.277 88.1967 118.351L86.4659 118.727C86.1857 118.788 85.8958 118.685 85.7208 118.461C85.5404 118.23 85.3493 118.006 85.1506 117.79C84.9584 117.581 84.9058 117.28 85.0143 117.017L85.6875 115.396C85.8195 115.078 85.7111 114.711 85.4266 114.514L84.268 113.713C83.9835 113.516 83.5981 113.542 83.3404 113.773L82.0326 114.951C81.8211 115.142 81.5172 115.197 81.2531 115.091C80.9804 114.98 80.7012 114.882 80.4167 114.793C80.1429 114.708 79.9453 114.474 79.9067 114.192L79.6705 112.459C79.6243 112.119 79.3451 111.855 78.9983 111.826L77.5886 111.707C77.2418 111.678 76.9207 111.89 76.8144 112.218L76.2754 113.886C76.1885 114.155 75.9544 114.354 75.671 114.391C75.3725 114.431 75.0761 114.482 74.7852 114.545C74.5071 114.605 74.2193 114.499 74.0454 114.277L72.9663 112.897C72.7537 112.625 72.379 112.536 72.0633 112.682L70.7803 113.276C70.4646 113.422 70.2928 113.765 70.3669 114.101L70.7416 115.811C70.8017 116.087 70.6997 116.374 70.4743 116.547C70.237 116.728 70.0083 116.919 69.7871 117.119C69.5766 117.31 69.2728 117.359 69.0087 117.253L67.3713 116.592C67.0492 116.463 66.6787 116.571 66.479 116.852L65.6662 118.001C65.4665 118.283 65.4902 118.664 65.7242 118.917L66.9117 120.208C67.1039 120.417 67.1587 120.717 67.0502 120.979C66.9386 121.25 66.8366 121.527 66.7464 121.807C66.6594 122.078 66.4221 122.274 66.1376 122.314L64.3842 122.553C64.0396 122.6 63.7733 122.876 63.7422 123.219L63.6176 124.614C63.5865 124.957 63.8002 125.274 64.1319 125.378L65.8155 125.906C66.0871 125.992 66.2879 126.223 66.3255 126.503C66.3641 126.798 66.4157 127.091 66.479 127.379C66.5392 127.654 66.4307 127.938 66.2052 128.11L64.8073 129.181C64.5324 129.392 64.4401 129.763 64.5872 130.074L65.1841 131.343C65.3312 131.654 65.677 131.822 66.0163 131.748L67.746 131.373C68.0241 131.312 68.3151 131.412 68.489 131.635C68.6715 131.868 68.8637 132.096 69.0645 132.313C69.2567 132.521 69.3061 132.822 69.1976 133.082L68.5244 134.703C68.3924 135.022 68.5008 135.388 68.7853 135.585L69.9439 136.386C70.2284 136.583 70.6138 136.557 70.8715 136.326L72.1793 135.148C72.3908 134.957 72.6947 134.903 72.9588 135.009C73.2315 135.119 73.5107 135.218 73.7952 135.306C74.069 135.391 74.2666 135.626 74.3052 135.907L74.5414 137.64C74.5876 137.981 74.8668 138.244 75.2136 138.273L76.6233 138.392C76.9701 138.421 77.2912 138.209 77.3975 137.881L77.9375 136.214C78.0245 135.945 78.2586 135.746 78.542 135.708C78.8405 135.668 79.1368 135.617 79.4278 135.554C79.7059 135.494 79.9937 135.6 80.1676 135.823L81.2467 137.202C81.4593 137.474 81.834 137.563 82.1496 137.417L83.4338 136.823C83.7494 136.677 83.9212 136.335 83.8472 135.998L83.4724 134.288C83.4112 134.012 83.5165 133.723 83.743 133.55C83.9771 133.37 84.2047 133.182 84.4237 132.983C84.6352 132.793 84.9402 132.739 85.2043 132.846L86.8417 133.507C87.1638 133.637 87.5342 133.529 87.7339 133.247L88.5467 132.098C88.7464 131.816 88.7228 131.435 88.4888 131.181L87.3012 129.891C87.1091 129.682 87.0543 129.383 87.1627 129.12C87.2744 128.849 87.3764 128.573 87.4666 128.291C87.5536 128.02 87.7908 127.824 88.0754 127.785L89.8287 127.546C90.1734 127.499 90.4397 127.222 90.4708 126.88L90.5953 125.484C90.6265 125.141 90.4128 124.824 90.081 124.72V124.721ZM78.1297 130.973C74.8206 131.542 71.6789 129.35 71.1142 126.079C70.5494 122.809 72.7741 119.695 76.0833 119.126C79.3924 118.558 82.534 120.749 83.0988 124.02C83.6636 127.292 81.4389 130.404 78.1297 130.973Z" fill="white"/>
<path d="M76.6909 138.632C76.663 138.632 76.634 138.631 76.605 138.629L75.1953 138.51C74.7346 138.471 74.3696 138.126 74.3073 137.672L74.0711 135.939C74.0453 135.75 73.91 135.59 73.7264 135.533C73.4355 135.442 73.1477 135.341 72.8718 135.229C72.6925 135.156 72.4842 135.194 72.3414 135.324L71.0336 136.502C70.6922 136.81 70.1886 136.842 69.8107 136.581L68.6521 135.78C68.2721 135.517 68.1303 135.038 68.3064 134.612L68.9796 132.991C69.0526 132.814 69.0183 132.612 68.8916 132.473C68.6865 132.251 68.4879 132.018 68.3032 131.781C68.1872 131.633 67.9897 131.563 67.7996 131.605L66.0699 131.982C65.6189 132.079 65.1669 131.859 64.9715 131.444L64.3745 130.176C64.1791 129.761 64.2983 129.274 64.6655 128.994L66.0635 127.923C66.217 127.805 66.29 127.612 66.2503 127.43C66.1859 127.137 66.1333 126.836 66.0935 126.535C66.0688 126.349 65.9335 126.192 65.7489 126.134L64.0653 125.606C63.624 125.468 63.3449 125.051 63.3857 124.594L63.5102 123.198C63.551 122.742 63.8989 122.38 64.3574 122.318L66.1107 122.079C66.304 122.053 66.4661 121.918 66.5252 121.736C66.6175 121.448 66.7216 121.163 66.8354 120.889C66.9074 120.715 66.8709 120.51 66.742 120.37L65.5545 119.08C65.2421 118.741 65.2109 118.242 65.4772 117.866L66.29 116.716C66.5552 116.342 67.0384 116.2 67.4657 116.373L69.1031 117.033C69.2835 117.105 69.4907 117.071 69.6314 116.943C69.8579 116.739 70.0941 116.542 70.3346 116.36C70.4849 116.245 70.5547 116.05 70.5139 115.864L70.1392 114.154C70.0415 113.707 70.2648 113.258 70.6847 113.063L71.9688 112.469C72.3875 112.275 72.8771 112.392 73.1595 112.754L74.2386 114.133C74.3567 114.285 74.5532 114.357 74.7389 114.316C75.0353 114.252 75.3391 114.198 75.6441 114.159C75.833 114.134 75.9941 113.999 76.0531 113.816L76.5921 112.148C76.7328 111.712 77.1515 111.433 77.6132 111.474L79.023 111.593C79.4836 111.631 79.8487 111.976 79.9109 112.43L80.1472 114.163C80.1729 114.353 80.3082 114.512 80.4918 114.569C80.7828 114.66 81.0705 114.762 81.3465 114.873C81.5247 114.945 81.7341 114.907 81.8769 114.778L83.1846 113.6C83.5261 113.291 84.0286 113.259 84.4076 113.52L85.5661 114.322C85.9462 114.584 86.0879 115.064 85.9118 115.489L85.2386 117.111C85.1656 117.287 85.201 117.491 85.3299 117.631C85.5328 117.851 85.7282 118.082 85.9129 118.318C86.031 118.468 86.2296 118.538 86.4197 118.498L88.1505 118.122C88.6014 118.022 89.0535 118.244 89.2489 118.659L89.8459 119.927C90.0413 120.343 89.9221 120.829 89.5549 121.11L88.1569 122.181C88.0034 122.299 87.9304 122.491 87.9701 122.673C88.0345 122.967 88.0871 123.268 88.1269 123.569C88.1516 123.754 88.2868 123.912 88.4715 123.969L90.1551 124.497C90.5964 124.636 90.8755 125.052 90.8347 125.51L90.7102 126.905C90.6694 127.361 90.3215 127.723 89.863 127.787L88.1097 128.025C87.9164 128.051 87.7543 128.186 87.6952 128.368C87.6029 128.656 87.4988 128.941 87.3849 129.215C87.313 129.39 87.3495 129.595 87.4783 129.735L88.6659 131.024C88.9783 131.363 89.0094 131.863 88.7432 132.239L87.9304 133.388C87.6652 133.763 87.182 133.904 86.7547 133.732L85.1173 133.071C84.9369 132.998 84.7286 133.035 84.5858 133.164C84.3614 133.367 84.1273 133.561 83.8901 133.743C83.7376 133.859 83.6657 134.054 83.7065 134.241L84.0812 135.951C84.1789 136.399 83.9556 136.848 83.5357 137.043L82.2516 137.637C81.8329 137.83 81.3432 137.714 81.0609 137.353L79.9818 135.974C79.8637 135.823 79.6661 135.749 79.4815 135.79C79.1851 135.855 78.8813 135.908 78.5763 135.948C78.3874 135.973 78.2263 136.108 78.1673 136.292L77.6283 137.959C77.4962 138.368 77.1182 138.637 76.6931 138.637L76.6909 138.632ZM72.685 134.717C72.8084 134.717 72.933 134.74 73.05 134.788C73.3141 134.894 73.5901 134.993 73.8682 135.079C74.2279 135.191 74.4931 135.503 74.5435 135.875L74.7797 137.608C74.8109 137.84 74.9988 138.016 75.2361 138.036L76.6458 138.155C76.8842 138.176 77.1 138.033 77.173 137.808L77.7131 136.141C77.829 135.784 78.1426 135.522 78.513 135.472C78.804 135.434 79.096 135.382 79.3795 135.321C79.7434 135.243 80.1267 135.382 80.3576 135.676L81.4367 137.055C81.5816 137.241 81.835 137.302 82.0508 137.201L83.3339 136.607C83.5497 136.507 83.6646 136.277 83.6141 136.049L83.2394 134.338C83.1589 133.973 83.2995 133.59 83.598 133.361C83.8256 133.187 84.05 133.002 84.2637 132.808C84.5418 132.557 84.9455 132.486 85.2934 132.627L86.9308 133.287C87.1519 133.376 87.4021 133.304 87.5385 133.11L88.3513 131.96C88.4876 131.769 88.4715 131.514 88.3126 131.341L87.1251 130.051C86.8706 129.774 86.7998 129.373 86.9426 129.028C87.051 128.767 87.1509 128.494 87.2389 128.218C87.3527 127.863 87.6684 127.6 88.042 127.549L89.7954 127.31C90.0316 127.278 90.2109 127.092 90.2324 126.858L90.3569 125.462C90.3784 125.229 90.2345 125.017 90.0091 124.946L88.3255 124.418C87.9647 124.305 87.6995 123.994 87.6512 123.627C87.6136 123.34 87.5632 123.052 87.5009 122.771C87.4214 122.41 87.5642 122.029 87.8627 121.8L89.2607 120.728C89.4486 120.585 89.5098 120.336 89.4099 120.124L88.813 118.856C88.7131 118.644 88.4812 118.53 88.2471 118.581L86.5163 118.957C86.1491 119.037 85.7626 118.899 85.5328 118.605C85.3567 118.38 85.1688 118.158 84.9756 117.948C84.7222 117.673 84.6513 117.271 84.7952 116.924L85.4684 115.303C85.5586 115.086 85.4856 114.842 85.2923 114.708L84.1338 113.907C83.9384 113.772 83.6785 113.789 83.5014 113.949L82.1936 115.127C81.9155 115.378 81.5107 115.449 81.165 115.31C80.9009 115.204 80.6249 115.106 80.3469 115.019C79.9872 114.907 79.722 114.595 79.6715 114.223L79.4353 112.49C79.4042 112.258 79.2163 112.082 78.979 112.062L77.5692 111.943C77.3319 111.923 77.115 112.065 77.042 112.29L76.503 113.957C76.3871 114.314 76.0735 114.576 75.7031 114.626C75.4121 114.664 75.1201 114.716 74.8366 114.777C74.4727 114.856 74.0893 114.716 73.8585 114.422L72.7794 113.043C72.6334 112.857 72.3811 112.796 72.1653 112.897L70.8822 113.491C70.6664 113.591 70.5515 113.821 70.602 114.049L70.9767 115.759C71.0572 116.124 70.9176 116.508 70.6213 116.734C70.3915 116.909 70.165 117.097 69.9481 117.293C69.6732 117.542 69.2695 117.612 68.9206 117.47L67.2832 116.81C67.062 116.721 66.8118 116.793 66.6755 116.987L65.8627 118.137C65.7263 118.328 65.7424 118.583 65.9013 118.756L67.0888 120.046C67.3433 120.323 67.4142 120.724 67.2714 121.069C67.1629 121.33 67.0631 121.604 66.975 121.879C66.8612 122.234 66.5455 122.497 66.1719 122.548L64.4186 122.787C64.1823 122.819 64.003 123.006 63.9816 123.239L63.857 124.635C63.8366 124.868 63.9794 125.08 64.2049 125.151L65.8895 125.679C66.2503 125.792 66.5155 126.103 66.5638 126.47C66.6014 126.757 66.6518 127.045 66.7141 127.326C66.7936 127.687 66.6508 128.068 66.3523 128.298L64.9543 129.369C64.7664 129.512 64.7052 129.761 64.8051 129.973L65.4021 131.241C65.5019 131.453 65.7349 131.566 65.9679 131.516L67.6976 131.14C68.0659 131.06 68.4514 131.197 68.679 131.488C68.8562 131.715 69.0462 131.939 69.2427 132.152C69.495 132.425 69.5648 132.826 69.4209 133.173L68.7477 134.794C68.6575 135.011 68.7305 135.255 68.9238 135.389L70.0823 136.19C70.2777 136.325 70.5376 136.308 70.7147 136.148L72.0225 134.97C72.2061 134.804 72.4455 134.717 72.686 134.717H72.685ZM77.086 131.3C74.0732 131.3 71.4051 129.154 70.8801 126.119C70.2938 122.724 72.6098 119.481 76.0435 118.891C79.4782 118.299 82.7476 120.583 83.3339 123.978C83.6184 125.623 83.2372 127.281 82.2613 128.647C81.2863 130.011 79.8326 130.92 78.1705 131.206C77.8054 131.27 77.4436 131.3 77.085 131.3H77.086ZM77.129 119.274C76.7983 119.274 76.4622 119.302 76.1251 119.36C72.9502 119.905 70.8081 122.902 71.3503 126.039C71.8926 129.176 74.9161 131.285 78.0899 130.738C79.6285 130.474 80.9717 129.633 81.8736 128.371C82.7756 127.11 83.1267 125.578 82.8647 124.059C82.3804 121.255 79.9142 119.274 77.129 119.274Z" fill="#1E1E1E"/>
<path d="M74.988 27.0746L125.081 35.7532L175.132 27.0639L124.513 18.2803L74.988 27.0746Z" fill="white"/>
<path d="M125.081 35.9912C125.067 35.9912 125.055 35.9901 125.041 35.9879L74.9473 27.3093C74.8334 27.29 74.7497 27.1904 74.7497 27.0758C74.7497 26.9602 74.8324 26.8616 74.9462 26.8413L124.472 18.047C124.498 18.0416 124.527 18.0416 124.554 18.047L175.173 26.8306C175.286 26.8498 175.37 26.9495 175.37 27.0651C175.37 27.1808 175.286 27.2793 175.173 27.2997L125.123 35.989C125.109 35.9912 125.096 35.9922 125.082 35.9922L125.081 35.9912ZM76.3645 27.0716L125.081 35.5113L173.741 27.063L124.513 18.5215L76.3635 27.0716H76.3645Z" fill="#1E1E1E"/>
<path d="M74.988 27.0746L125.081 35.7532L175.132 27.0639L124.513 18.2803L74.988 27.0746Z" fill="white"/>
<path d="M125.081 35.9912C125.067 35.9912 125.055 35.9901 125.041 35.9879L74.9473 27.3093C74.8334 27.29 74.7497 27.1904 74.7497 27.0758C74.7497 26.9602 74.8324 26.8616 74.9462 26.8413L124.472 18.047C124.498 18.0416 124.527 18.0416 124.554 18.047L175.173 26.8306C175.286 26.8498 175.37 26.9495 175.37 27.0651C175.37 27.1808 175.286 27.2793 175.173 27.2997L125.123 35.989C125.109 35.9912 125.096 35.9922 125.082 35.9922L125.081 35.9912ZM76.3645 27.0716L125.081 35.5113L173.741 27.063L124.513 18.5215L76.3635 27.0716H76.3645Z" fill="#1E1E1E"/>
<path d="M144.526 32.4141C144.512 32.4141 144.499 32.413 144.485 32.4109L95.7051 23.9593C95.5913 23.94 95.5075 23.8404 95.5075 23.7258C95.5075 23.6102 95.5902 23.5116 95.704 23.4913L106.447 21.6041C106.474 21.5988 106.502 21.5988 106.529 21.6041L155.797 30.1531C155.912 30.1735 155.995 30.2731 155.994 30.3888C155.994 30.5055 155.908 30.603 155.793 30.6223L144.563 32.412C144.55 32.4141 144.538 32.4152 144.525 32.4152L144.526 32.4141ZM97.1288 23.7237L144.528 31.9353L154.31 30.377L106.49 22.0797L97.1299 23.7237H97.1288Z" fill="#1E1E1E"/>
<path d="M125.072 109.305V35.6819L74.7819 27.0439V100.466L125.072 109.305Z" fill="white"/>
<path d="M125.072 109.541C125.058 109.541 125.044 109.54 125.031 109.538L74.7411 100.699C74.6273 100.678 74.5446 100.58 74.5446 100.465V27.0435C74.5446 26.9739 74.5758 26.9064 74.6294 26.8615C74.6831 26.8165 74.754 26.7961 74.8238 26.809L125.114 35.4458C125.228 35.4651 125.311 35.5647 125.311 35.6804V109.304C125.311 109.374 125.28 109.441 125.226 109.486C125.183 109.522 125.129 109.541 125.073 109.541H125.072ZM75.0203 100.265L124.833 109.02V35.8817L75.0203 27.3263V100.266V100.265Z" fill="#1E1E1E"/>
<path d="M116.018 90.0549C116.004 90.0549 115.99 90.0538 115.976 90.0517L83.4713 84.282C83.3575 84.2617 83.2748 84.1631 83.2748 84.0485V64.4228C83.2748 64.2911 83.3811 64.1851 83.5132 64.1851C83.6453 64.1851 83.7516 64.2911 83.7516 64.4228V83.8493L115.78 89.5344V69.8466C115.78 69.7148 115.886 69.6088 116.018 69.6088C116.15 69.6088 116.257 69.7148 116.257 69.8466V89.8182C116.257 89.8889 116.226 89.9553 116.172 90.0003C116.129 90.0367 116.074 90.056 116.019 90.056L116.018 90.0549Z" fill="#1E1E1E"/>
<path d="M116.018 69.929C115.886 69.929 115.78 69.8229 115.78 69.6912V54.8198L83.7516 49.2644V64.1721C83.7516 64.3039 83.6453 64.4099 83.5132 64.4099C83.3811 64.4099 83.2748 64.3039 83.2748 64.1721V48.9816C83.2748 48.912 83.306 48.8445 83.3597 48.7995C83.4133 48.7545 83.4842 48.7353 83.554 48.747L116.059 54.385C116.173 54.4043 116.257 54.5039 116.257 54.6195V69.6912C116.257 69.8229 116.15 69.929 116.018 69.929Z" fill="#1E1E1E"/>
<path d="M86.8953 81.0401C86.7633 81.0401 86.657 80.9341 86.657 80.8024V53.7822C86.657 53.6505 86.7633 53.5444 86.8953 53.5444C87.0274 53.5444 87.1337 53.6505 87.1337 53.7822V80.8024C87.1337 80.9341 87.0274 81.0401 86.8953 81.0401Z" fill="#1E1E1E"/>
<path d="M90.8788 54.7731C90.8788 54.3136 90.5051 53.9409 90.0445 53.9409C89.5839 53.9409 89.2103 54.3136 89.2103 54.7731V80.9065C89.2103 81.3659 89.5839 81.7386 90.0445 81.7386C90.5051 81.7386 90.8788 81.3659 90.8788 80.9065V54.7731Z" fill="#1E1E1E"/>
<path d="M93.3719 82.0821C93.2398 82.0821 93.1335 81.9761 93.1335 81.8443V54.8242C93.1335 54.6925 93.2398 54.5864 93.3719 54.5864C93.504 54.5864 93.6103 54.6925 93.6103 54.8242V81.8443C93.6103 81.9761 93.504 82.0821 93.3719 82.0821Z" fill="#1E1E1E"/>
<path d="M95.5311 82.4293C95.399 82.4293 95.2927 82.3233 95.2927 82.1915V55.1714C95.2927 55.0396 95.399 54.9336 95.5311 54.9336C95.6631 54.9336 95.7694 55.0396 95.7694 55.1714V82.1915C95.7694 82.3233 95.6631 82.4293 95.5311 82.4293Z" fill="#1E1E1E"/>
<path d="M100.683 56.4577C100.683 55.9982 100.309 55.6255 99.8484 55.6255C99.3878 55.6255 99.0142 55.9982 99.0142 56.4577V82.591C99.0142 83.0505 99.3878 83.4232 99.8484 83.4232C100.309 83.4232 100.683 83.0505 100.683 82.591V56.4577Z" fill="#1E1E1E"/>
<path d="M104.166 83.8185C104.034 83.8185 103.927 83.7124 103.927 83.5807V56.5605C103.927 56.4288 104.034 56.3228 104.166 56.3228C104.298 56.3228 104.404 56.4288 104.404 56.5605V83.5807C104.404 83.7124 104.298 83.8185 104.166 83.8185Z" fill="#1E1E1E"/>
<path d="M109.317 57.3937C109.317 56.9342 108.944 56.5615 108.483 56.5615C108.023 56.5615 107.649 56.9342 107.649 57.3937V83.5271C107.649 83.9865 108.023 84.3593 108.483 84.3593C108.944 84.3593 109.317 83.9865 109.317 83.5271V57.3937Z" fill="#1E1E1E"/>
<path d="M112.802 85.2086C112.669 85.2086 112.563 85.1026 112.563 84.9708V57.9507C112.563 57.8189 112.669 57.7129 112.802 57.7129C112.934 57.7129 113.04 57.8189 113.04 57.9507V84.9708C113.04 85.1026 112.934 85.2086 112.802 85.2086Z" fill="#1E1E1E"/>
<path d="M125.072 109.305V35.6818L174.926 27.0332V100.509L125.072 109.305Z" fill="white"/>
<path d="M125.072 109.541C125.016 109.541 124.962 109.522 124.918 109.486C124.865 109.441 124.833 109.374 124.833 109.304V35.6804C124.833 35.5648 124.917 35.4662 125.031 35.4459L174.885 26.7983C174.955 26.7865 175.025 26.8058 175.079 26.8508C175.133 26.8958 175.164 26.9622 175.164 27.0329V100.508C175.164 100.624 175.081 100.722 174.968 100.742L125.114 109.538C125.1 109.54 125.086 109.541 125.072 109.541ZM125.31 35.8807V109.021L174.687 100.309V27.3156L125.31 35.8807Z" fill="#1E1E1E"/>
<path d="M145.454 40.2654C145.398 40.2654 145.343 40.2462 145.3 40.2098C145.247 40.1648 145.215 40.0984 145.215 40.0287V32.4983C145.215 32.3826 145.299 32.2841 145.413 32.2637L155.785 30.4804C155.854 30.4687 155.926 30.4879 155.979 30.5329C156.033 30.5779 156.064 30.6443 156.064 30.715V38.2765C156.064 38.3922 155.98 38.4918 155.865 38.5111L145.493 40.2622C145.481 40.2644 145.467 40.2654 145.454 40.2654ZM145.692 32.6975V39.746L155.587 38.0752V30.9967L145.692 32.6975Z" fill="#1E1E1E"/>
<path d="M61.8127 168.677C63.4452 168.677 64.7686 167.357 64.7686 165.728C64.7686 164.1 63.4452 162.78 61.8127 162.78C60.1802 162.78 58.8568 164.1 58.8568 165.728C58.8568 167.357 60.1802 168.677 61.8127 168.677Z" fill="white"/>
<path d="M61.8127 168.915C60.0519 168.915 58.6185 167.486 58.6185 165.728C58.6185 163.971 60.0508 162.542 61.8127 162.542C63.5747 162.542 65.007 163.971 65.007 165.728C65.007 167.486 63.5747 168.915 61.8127 168.915ZM61.8127 163.018C60.3138 163.018 59.0952 164.233 59.0952 165.728C59.0952 167.224 60.3138 168.439 61.8127 168.439C63.3116 168.439 64.5302 167.224 64.5302 165.728C64.5302 164.233 63.3116 163.018 61.8127 163.018Z" fill="#1E1E1E"/>
<path d="M4.95507 113.563C13.5597 105.41 18.1079 105.041 21.796 96.9484C23.8693 92.3997 21.6113 73.1596 40.2346 72.4249C42.6365 72.3296 51.8713 72.834 53.0803 82.4798C53.5678 86.3666 53.3348 89.0699 53.076 91.2484C52.8527 93.127 52.886 95.0291 53.2124 96.8928C53.6934 99.6389 54.8573 102.723 57.5201 104.709C57.7262 104.863 57.548 105.187 57.3075 105.096C55.9245 104.572 53.9779 103.597 52.5875 101.929C52.464 101.781 52.2235 101.885 52.2471 102.077C52.2579 102.165 52.2697 102.254 52.2815 102.345C52.8173 106.423 59.4108 110.499 57.5673 118.409C55.7238 126.317 13.4373 143.24 6.43033 139.745C-0.576617 136.25 -2.97203 121.078 4.95507 113.566V113.563Z" fill="#1E1E1E"/>
<path d="M54.1787 187.853C52.2096 162.858 59.0426 151.944 62.3506 142.355C67.8426 146.515 75.9673 150.794 86.4455 151.191C98.0328 151.63 106.123 123.238 107.022 119.943C107.072 119.76 106.991 119.567 106.825 119.473L99.9139 115.536C99.7185 115.425 99.4705 115.488 99.3524 115.679C97.8557 118.102 88.6498 132.55 81.8114 132.729C74.3471 132.927 64.7579 118.16 60.1635 114.558L60.1463 114.613C59.9735 114.395 59.7974 114.198 59.6202 114.027C51.517 106.211 30.7281 106.549 30.7281 106.549C18.8594 107.951 11.0504 114.806 11.0504 114.806V114.839C10.2054 115.381 3.09757 120.407 4.34091 135.205C5.79363 152.493 8.00544 164.347 16.2042 165.047C17.3488 165.144 18.5212 165.168 19.6991 165.012L54.1787 187.852V187.853Z" fill="white"/>
<path d="M54.1776 188.091C54.0542 188.091 53.95 187.996 53.9404 187.871C52.3051 167.121 56.6675 156.184 60.171 147.397C60.884 145.61 61.5572 143.922 62.1241 142.278C62.1488 142.206 62.2068 142.15 62.2798 142.128C62.3528 142.107 62.4322 142.119 62.4934 142.167C67.4883 145.951 75.6999 150.546 86.453 150.954C97.8503 151.381 105.911 123.108 106.791 119.883C106.812 119.804 106.777 119.722 106.706 119.681L99.7947 115.744C99.7099 115.696 99.6047 115.723 99.5542 115.805C97.803 118.639 88.7206 132.786 81.8168 132.968C81.7652 132.97 81.7126 132.971 81.6611 132.971C76.3817 132.971 70.2648 125.975 65.3387 120.341C63.2869 117.994 61.5056 115.957 60.1463 114.852H60.1442C60.0722 114.852 60.0035 114.82 59.9574 114.762C59.7877 114.549 59.617 114.359 59.4517 114.2C51.5879 106.614 31.3337 106.781 30.741 106.788C19.6336 108.104 12.0232 114.297 11.2663 114.933C11.248 114.976 11.2169 115.014 11.1761 115.04C10.3708 115.558 3.34238 120.518 4.57499 135.186C6.1093 153.449 8.50687 164.152 16.2214 164.812C17.5442 164.925 18.6383 164.914 19.6647 164.777C19.7946 164.76 19.9149 164.851 19.9321 164.982C19.9493 165.111 19.858 165.231 19.727 165.248C18.6651 165.39 17.5377 165.402 16.1795 165.285C8.13 164.597 5.65513 153.742 4.09934 135.225C2.87747 120.677 9.70834 115.452 10.8379 114.692C10.8507 114.669 10.8679 114.647 10.8894 114.628C10.9678 114.559 18.8906 107.708 30.697 106.314C30.7045 106.314 30.7131 106.312 30.7217 106.311C30.9278 106.306 51.7028 106.061 59.7834 113.856C59.9273 113.995 60.0733 114.152 60.2193 114.327C60.2516 114.336 60.2816 114.35 60.3085 114.371C61.7182 115.476 63.5618 117.585 65.6973 120.026C70.559 125.586 76.5986 132.493 81.6589 132.493C81.7072 132.493 81.7556 132.493 81.8039 132.491C88.6025 132.312 98.0886 117.268 99.1473 115.553C99.3341 115.251 99.7207 115.153 100.03 115.33L106.941 119.267C107.201 119.414 107.328 119.719 107.249 120.006C106.366 123.243 98.3324 151.433 86.7064 151.433C86.6151 151.433 86.5249 151.431 86.4337 151.428C75.7429 151.022 67.5387 146.527 62.4666 142.741C61.919 144.297 61.2834 145.891 60.6134 147.572C57.1271 156.314 52.7883 167.192 54.4149 187.833C54.4257 187.964 54.3269 188.079 54.1959 188.089C54.1895 188.089 54.183 188.089 54.1766 188.089L54.1776 188.091Z" fill="#1E1E1E"/>
<path d="M20.3057 165.4C20.1855 165.4 20.0813 165.309 20.0684 165.187C20.0545 165.057 20.15 164.94 20.281 164.926C30.0764 163.915 34.3185 151.337 36.4939 116.859C36.5024 116.728 36.6152 116.631 36.7462 116.636C36.8772 116.645 36.977 116.757 36.9695 116.888C35.8228 135.072 34.0566 146.99 31.411 154.394C28.8813 161.474 25.4638 164.868 20.3304 165.398C20.3218 165.398 20.3143 165.399 20.3057 165.399V165.4Z" fill="#1E1E1E"/>
<path d="M61.9191 144.363C61.8911 144.363 61.8621 144.358 61.8342 144.347C61.7118 144.3 61.6496 144.163 61.6968 144.04C62.6084 141.659 63.5844 138.826 63.9161 135.869C64.5518 130.194 62.0135 123.154 59.1779 119.132C59.1017 119.024 59.1285 118.876 59.2359 118.801C59.3433 118.726 59.4925 118.75 59.5677 118.858C62.4548 122.954 65.0381 130.13 64.3896 135.921C64.0525 138.932 63.0636 141.8 62.1424 144.209C62.1059 144.303 62.0157 144.362 61.9201 144.362L61.9191 144.363Z" fill="#1E1E1E"/>
<path d="M16.2031 148.196C16.1774 148.196 16.1516 148.192 16.1269 148.184C16.0024 148.142 15.9358 148.006 15.9777 147.882L27.041 115.387C27.0829 115.263 27.2182 115.196 27.3438 115.238C27.4684 115.28 27.5349 115.416 27.4931 115.541L16.4297 148.035C16.3964 148.134 16.303 148.196 16.2042 148.196H16.2031Z" fill="#1E1E1E"/>
<path d="M19.0281 131.523C18.8981 131.523 18.7919 131.419 18.7897 131.289C18.6673 124.547 17.3918 119.807 15.0006 117.201C14.9115 117.104 14.919 116.953 15.0157 116.865C15.1123 116.776 15.2637 116.783 15.3528 116.88C17.8245 119.575 19.1419 124.419 19.2664 131.28C19.2686 131.412 19.1644 131.52 19.0324 131.523H19.0281Z" fill="#1E1E1E"/>
<path d="M101.294 115.873C102.248 113.804 103.1 109.812 104.07 108.44C105.041 107.07 106.18 105.88 107.994 104.744C108.924 104.162 110.825 103.045 112.282 102.656C113.739 102.267 113.101 105.073 111.795 105.575C110.489 106.078 109.483 106.997 109.841 107.244C110.089 107.415 110.782 108.162 112.117 107.843C113.611 107.485 114.6 106.082 114.563 104.549C114.557 104.285 114.53 104.015 114.474 103.753C114.13 102.153 114.883 100.49 116.391 99.8443C117.104 99.5391 117.961 99.3859 118.966 99.5519C120.559 99.8143 120.94 108.86 114.866 111.775C113.609 112.378 108.433 113.44 107.368 114.905C106.302 116.37 105.536 118.441 105.536 118.441L101.296 115.876L101.294 115.873Z" fill="white"/>
<path d="M105.533 118.677C105.49 118.677 105.447 118.666 105.409 118.643L101.169 116.077C101.066 116.015 101.025 115.884 101.077 115.775C101.479 114.901 101.873 113.649 102.255 112.438C102.791 110.73 103.299 109.117 103.875 108.303C104.984 106.736 106.214 105.576 107.866 104.543C108.859 103.921 110.745 102.819 112.219 102.425C112.738 102.286 113.139 102.479 113.289 102.94C113.569 103.8 112.911 105.4 111.879 105.797C110.798 106.213 110.092 106.853 110.011 107.075C110.037 107.094 110.067 107.118 110.099 107.144C110.414 107.396 111.001 107.864 112.057 107.611C113.405 107.289 114.356 106.004 114.322 104.555C114.315 104.285 114.286 104.031 114.237 103.803C113.86 102.055 114.725 100.298 116.292 99.6258C117.137 99.2638 118.048 99.1588 119 99.3173C119.737 99.4383 120.017 100.641 120.118 101.347C120.542 104.302 119.519 109.804 114.965 111.989C114.563 112.182 113.795 112.414 112.905 112.684C110.94 113.278 108.248 114.093 107.555 115.046C106.521 116.468 105.762 118.503 105.755 118.523C105.73 118.59 105.678 118.642 105.61 118.666C105.584 118.674 105.557 118.678 105.532 118.678L105.533 118.677ZM101.596 115.78L105.413 118.089C105.659 117.476 106.315 115.943 107.171 114.765C107.957 113.683 110.624 112.877 112.767 112.228C113.639 111.964 114.391 111.736 114.76 111.559C119.084 109.485 120.052 104.236 119.647 101.413C119.495 100.351 119.165 99.825 118.924 99.7853C118.063 99.644 117.241 99.7361 116.481 100.062C115.122 100.644 114.375 102.175 114.704 103.702C114.76 103.96 114.791 104.243 114.799 104.543C114.839 106.214 113.734 107.699 112.169 108.074C110.885 108.382 110.126 107.775 109.802 107.516C109.763 107.485 109.73 107.458 109.703 107.44C109.574 107.351 109.512 107.21 109.53 107.05C109.597 106.494 110.712 105.737 111.706 105.355C112.53 105.038 113.025 103.672 112.835 103.088C112.785 102.936 112.688 102.794 112.341 102.886C110.928 103.263 109.089 104.339 108.118 104.947C106.501 105.959 105.348 107.045 104.264 108.579C103.731 109.332 103.211 110.983 102.709 112.58C102.35 113.72 101.981 114.896 101.595 115.779L101.596 115.78Z" fill="#1E1E1E"/>
<path d="M107.329 115.797L102.119 112.881C101.888 112.752 101.596 112.839 101.476 113.074L99.7228 116.473C99.6079 116.697 99.6906 116.971 99.9118 117.093L105.147 119.983C105.378 120.11 105.669 120.021 105.788 119.787L107.516 116.414C107.63 116.191 107.547 115.918 107.329 115.796V115.797Z" fill="white"/>
<path d="M105.372 120.28C105.253 120.28 105.137 120.25 105.031 120.191L99.7958 117.301C99.4598 117.116 99.3341 116.705 99.5102 116.364L101.264 112.965C101.352 112.793 101.502 112.668 101.688 112.613C101.872 112.558 102.068 112.579 102.235 112.673L107.445 115.59C107.777 115.775 107.9 116.185 107.727 116.523L106 119.895C105.912 120.067 105.762 120.192 105.578 120.248C105.509 120.268 105.44 120.279 105.37 120.279L105.372 120.28ZM101.891 113.059C101.868 113.059 101.847 113.062 101.824 113.069C101.764 113.087 101.716 113.127 101.687 113.182L99.9333 116.582C99.8764 116.692 99.9172 116.825 100.026 116.885L105.261 119.774C105.316 119.804 105.378 119.811 105.438 119.793C105.498 119.774 105.547 119.734 105.574 119.678L107.302 116.305C107.358 116.196 107.318 116.063 107.211 116.003L102.001 113.087C101.967 113.068 101.928 113.058 101.89 113.058L101.891 113.059Z" fill="#1E1E1E"/>
<path d="M41.9558 96.9484C41.9558 96.9484 41.7604 102.342 41.9859 105.939C42.0921 107.633 43.2754 109.069 44.917 109.518L47.0763 110.108C48.1886 110.412 48.2981 111.943 47.2405 112.401C43.0671 114.209 34.6793 116.521 24.8185 112.052C23.7663 111.576 23.8908 110.049 25.0096 109.76L29.2615 108.66C30.8419 108.251 32.0134 106.926 32.2227 105.311L33.844 92.7788L41.9569 96.9484H41.9558Z" fill="white"/>
<path d="M36.4488 114.871C32.955 114.871 28.9726 114.196 24.7197 112.268C24.1453 112.008 23.8082 111.435 23.8629 110.81C23.9166 110.188 24.3429 109.686 24.9495 109.53L29.2013 108.431C30.6948 108.044 31.7879 106.808 31.9854 105.281L33.6067 92.7487C33.6164 92.6716 33.6636 92.6042 33.7323 92.5688C33.8011 92.5324 33.8837 92.5324 33.9524 92.5688L42.0653 96.7384C42.1469 96.7801 42.1974 96.8658 42.1941 96.9579C42.192 97.0115 42.002 102.382 42.2242 105.925C42.3241 107.514 43.4321 108.866 44.9804 109.29L47.1396 109.88C47.7452 110.046 48.165 110.557 48.2101 111.181C48.2541 111.806 47.9116 112.371 47.335 112.621C44.945 113.656 41.1387 114.872 36.4488 114.872V114.871ZM34.0351 93.1461L32.4579 105.342C32.2356 107.063 31.0041 108.456 29.3205 108.891L25.0687 109.99C24.5737 110.119 24.3665 110.519 24.3375 110.851C24.3085 111.188 24.4449 111.623 24.9173 111.837C34.7094 116.275 43.0477 113.96 47.145 112.184C47.6163 111.979 47.758 111.549 47.7344 111.215C47.7108 110.879 47.5089 110.473 47.0129 110.338L44.8537 109.748C43.1079 109.271 41.8602 107.747 41.7475 105.955C41.5446 102.723 41.6831 97.9936 41.7121 97.0918L34.0351 93.1472V93.1461Z" fill="#1E1E1E"/>
<path d="M47.6432 79.4124C49.3568 81.2213 50.2447 83.6547 50.2394 86.1438C50.2361 87.5576 49.4964 88.9232 49.2698 90.85C48.6857 95.8164 46.5759 99.7835 40.8134 99.3926C40.8134 99.3926 33.8945 99.0177 33.0495 91.6168C33.0495 91.6168 32.6436 87.8864 34.3347 83.9525C35.4696 81.3113 38.6842 75.9722 43.6619 77.0968C45.3734 77.4834 46.6736 78.3895 47.6432 79.4134V79.4124Z" fill="white"/>
<path d="M41.5703 99.6549C41.318 99.6549 41.0603 99.6463 40.7962 99.6281C40.7286 99.6249 33.6701 99.1557 32.8122 91.6424C32.795 91.486 32.4192 87.8038 34.1146 83.857C34.7137 82.4625 37.9928 75.5726 43.7134 76.8621C45.2681 77.2134 46.6489 78.0156 47.815 79.2473C49.5372 81.0648 50.482 83.5132 50.4756 86.1416C50.4734 86.9202 50.2587 87.6839 50.03 88.4925C49.8228 89.2251 49.6091 89.9834 49.505 90.8745C48.8199 96.7041 46.1507 99.6538 41.5693 99.6538L41.5703 99.6549ZM42.3176 77.1791C37.7523 77.1791 35.0777 82.8213 34.5526 84.0445C32.9056 87.8777 33.2814 91.5535 33.2857 91.5899C34.0974 98.6973 40.5514 99.1386 40.8252 99.1536C45.6493 99.4803 48.3346 96.7545 49.0325 90.8199C49.142 89.8913 49.3707 89.0805 49.5726 88.364C49.8013 87.5543 49.9989 86.8538 49.9999 86.1416C50.0053 83.6353 49.1066 81.3026 47.4692 79.574C46.3687 78.4119 45.0695 77.6557 43.6082 77.3258C43.1626 77.2252 42.7321 77.178 42.3176 77.178V77.1791Z" fill="#1E1E1E"/>
<path d="M37.8392 77.9382C37.8392 77.9382 38.5768 80.5204 42.629 83.8406C45.2584 85.9956 49.8378 86.4861 50.6119 88.2437C50.6119 88.2437 53.4293 77.5633 44.32 76.3455C35.2097 75.1278 37.8403 77.9382 37.8403 77.9382H37.8392Z" fill="#1E1E1E"/>
<path d="M36.7741 96.8517C34.5837 96.8517 32.5287 95.6157 31.5355 93.5561L30.3931 91.188C30.3362 91.0692 30.3856 90.9278 30.5048 90.871C30.6229 90.8143 30.7657 90.8646 30.8226 90.9824L31.965 93.3505C33.102 95.7089 35.7573 96.8913 38.2773 96.162L43.8777 94.5415C44.0044 94.504 44.1364 94.5779 44.1729 94.7032C44.2094 94.8296 44.1364 94.9613 44.0108 94.9977L38.4104 96.6182C37.866 96.7756 37.3163 96.8517 36.7741 96.8517Z" fill="#1E1E1E"/>
<path d="M30.7947 85.1078H30.7893C30.6573 85.1045 30.5531 84.9964 30.5563 84.8646C30.5628 84.568 30.7561 77.5655 34.6482 73.9475C36.2405 72.4674 38.2354 71.7765 40.5729 71.8911C40.7039 71.8976 40.8059 72.009 40.7994 72.1407C40.793 72.2714 40.6759 72.3774 40.5492 72.3667C38.3428 72.2564 36.4681 72.9065 34.9735 74.2946C31.2285 77.7733 31.0331 84.8047 31.032 84.8753C31.0288 85.0049 30.9225 85.1078 30.7936 85.1078H30.7947Z" fill="white"/>
<path d="M46.0683 94.7513C46.1742 93.9174 45.57 93.1542 44.7187 93.0466C43.8675 92.939 43.0915 93.5278 42.9856 94.3617C42.8797 95.1956 43.484 95.9588 44.3352 96.0664C45.1864 96.1739 45.9624 95.5851 46.0683 94.7513Z" fill="#1E1E1E"/>
<path d="M34.8447 88.7034C35.141 86.3643 33.6389 84.2479 31.4883 83.9758C31.2521 83.9459 30.3781 83.9234 30.1483 83.9394C28.2822 84.0647 27.3213 85.637 27.0572 87.7202C26.7726 89.9662 27.6305 92.0654 29.6437 92.4649C29.7274 92.481 30.3233 92.5292 30.4092 92.5292C32.766 92.5367 34.5473 91.0426 34.8436 88.7034H34.8447Z" fill="white"/>
<path d="M30.4286 92.7671H30.4093C30.3169 92.7671 29.7006 92.7189 29.5975 92.6974C27.608 92.3033 26.4913 90.2908 26.821 87.6903C27.1313 85.2409 28.308 83.825 30.1322 83.7018C30.3631 83.6868 31.2585 83.7071 31.5173 83.7403C32.6243 83.8796 33.6046 84.4794 34.2778 85.4272C34.9467 86.3687 35.2312 87.5425 35.0798 88.7335C34.7738 91.1487 32.9045 92.7671 30.4275 92.7671H30.4286ZM30.3846 84.172C30.2901 84.172 30.2128 84.173 30.1655 84.1763C28.0439 84.3187 27.4566 86.4768 27.2945 87.7503C27.0475 89.6953 27.6928 91.8353 29.6909 92.2315C29.7683 92.2455 30.3362 92.2915 30.4114 92.2915H30.4297C32.6909 92.2915 34.3304 90.8735 34.6096 88.6735C34.7459 87.6014 34.4904 86.5465 33.8913 85.7014C33.2964 84.8639 32.4332 84.3348 31.4604 84.2116C31.294 84.1902 30.7292 84.172 30.3867 84.172H30.3846Z" fill="#1E1E1E"/>
<path d="M33.9148 88.6295C34.1656 86.285 32.6218 84.1985 30.4667 83.9691C28.3115 83.7398 26.3612 85.4544 26.1104 87.7989C25.8597 90.1434 27.4035 92.2299 29.5586 92.4593C31.7137 92.6886 33.6641 90.974 33.9148 88.6295Z" fill="white"/>
<path d="M29.9432 92.7153C29.8069 92.7153 29.6705 92.7078 29.5331 92.6939C27.2504 92.4507 25.6087 90.2433 25.8729 87.7714C26.0006 86.5782 26.5482 85.5008 27.4158 84.7382C28.2898 83.9702 29.3817 83.6114 30.4908 83.7303C31.6 83.8481 32.5921 84.4286 33.2835 85.3626C33.9707 86.2912 34.2788 87.4597 34.1511 88.6528C33.903 90.9748 32.0584 92.7163 29.9432 92.7163V92.7153ZM30.0775 84.1834C29.2292 84.1834 28.4068 84.5004 27.7314 85.0948C26.953 85.7792 26.4623 86.7474 26.3464 87.8228C26.1101 90.0334 27.5618 92.0062 29.5836 92.2215C31.6043 92.4357 33.4414 90.8131 33.6776 88.6025C33.7925 87.5282 33.5165 86.4775 32.9002 85.6453C32.2893 84.8196 31.4153 84.3076 30.4404 84.2037C30.319 84.1909 30.1977 84.1845 30.0775 84.1845V84.1834Z" fill="#1E1E1E"/>
<path d="M40.8016 92.3749C40.2916 91.7034 36.6625 93.0764 35.1797 93.6216C33.6969 94.1667 29.8703 99.3077 29.5578 102.735C29.2454 106.162 30.2611 111.927 29.4794 113.952C29.4794 113.952 31.353 115.666 34.8672 115.199C34.8672 115.199 35.2581 111.927 35.9603 110.759C36.6635 109.591 40.9583 106.475 40.6459 104.372C40.4086 102.776 37.3851 101.584 35.9399 101.102C35.7069 101.024 35.7219 100.688 35.9613 100.635C36.7022 100.469 37.8897 100.334 39.162 100.711C41.2708 101.334 43.1444 100.321 42.2854 99.1524C41.5145 98.1039 38.4169 96.9921 36.2094 97.2256C36.1192 97.2353 36.0859 97.1132 36.1686 97.0768C37.8876 96.3217 42.1866 94.1967 40.8016 92.376V92.3749Z" fill="white"/>
<path d="M33.6614 115.517C30.8741 115.517 29.387 114.191 29.3173 114.127C29.2453 114.06 29.2206 113.957 29.2561 113.866C29.6823 112.76 29.547 110.441 29.4042 107.985C29.2958 106.127 29.1841 104.205 29.3194 102.714C29.6426 99.1641 33.5766 93.9567 35.097 93.3987L35.2816 93.3302C38.4383 92.167 40.4944 91.578 40.9916 92.2313C41.2879 92.6211 41.3792 93.0485 41.2611 93.5015C40.9089 94.8596 38.6885 96.1524 37.0017 96.9567C39.2157 97.0017 41.7603 98.0352 42.4776 99.011C42.7986 99.4469 42.8211 99.9246 42.542 100.321C41.9976 101.092 40.5159 101.357 39.0943 100.937C37.8832 100.579 36.7505 100.7 36.0139 100.865C37.7254 101.445 40.6319 102.654 40.8821 104.335C41.115 105.907 39.148 107.829 37.5675 109.372C36.9233 110.001 36.3672 110.544 36.1653 110.879C35.4964 111.991 35.1077 115.192 35.1045 115.224C35.0916 115.333 35.0068 115.417 34.8994 115.432C34.4624 115.49 34.0501 115.516 33.6636 115.516L33.6614 115.517ZM29.7585 113.872C30.2041 114.207 31.892 115.297 34.6535 114.984C34.7491 114.264 35.1249 111.683 35.7551 110.636C35.9881 110.248 36.5368 109.713 37.2326 109.034C38.6563 107.644 40.6072 105.739 40.4096 104.406C40.1895 102.922 37.1574 101.758 35.8636 101.327C35.6564 101.257 35.5243 101.064 35.535 100.846C35.5458 100.628 35.6961 100.45 35.9087 100.403C36.7011 100.227 37.9197 100.096 39.2296 100.483C40.5664 100.878 41.7882 100.565 42.1522 100.049C42.3133 99.8207 42.294 99.5658 42.0932 99.2937C41.3792 98.3223 38.3503 97.2416 36.2351 97.4633C36.0751 97.4794 35.9345 97.3819 35.8937 97.2298C35.8539 97.0788 35.9291 96.9224 36.074 96.8603C38.7765 95.6725 40.5438 94.3723 40.8004 93.3837C40.881 93.0742 40.8198 92.7925 40.6126 92.5205C40.4375 92.2902 39.3993 92.3223 35.4481 93.7779L35.2623 93.8464C33.8644 94.3605 30.0989 99.4287 29.7951 102.759C29.6619 104.215 29.7736 106.118 29.8809 107.959C30.0205 110.358 30.1537 112.628 29.7596 113.874L29.7585 113.872Z" fill="#1E1E1E"/>
<path d="M35.5533 112.867C34.6675 112.99 32.3172 113.116 29.4762 111.663C29.3033 111.574 29.0929 111.678 29.0553 111.868L28.395 115.173C28.3703 115.299 28.4283 115.426 28.541 115.488C29.3065 115.908 32.3043 117.371 35.3396 116.387C35.4481 116.352 35.5265 116.255 35.5394 116.141L35.8851 113.191C35.9076 113 35.7444 112.84 35.5533 112.866V112.867Z" fill="white"/>
<path d="M33.1612 116.959C30.9493 116.959 29.0714 116.049 28.4283 115.696C28.2243 115.584 28.118 115.355 28.1631 115.127L28.8234 111.822C28.8567 111.656 28.963 111.52 29.1155 111.446C29.2669 111.373 29.4386 111.375 29.5868 111.451C32.3677 112.875 34.6643 112.75 35.5211 112.631C35.6843 112.608 35.8475 112.661 35.9667 112.777C36.0859 112.893 36.1428 113.054 36.1235 113.219L35.7778 116.169C35.7531 116.376 35.6113 116.55 35.4148 116.614C34.6493 116.861 33.887 116.959 33.1612 116.959ZM29.3452 111.868C29.3356 111.868 29.3281 111.87 29.3216 111.873C29.3119 111.877 29.2948 111.889 29.2905 111.914L28.6312 115.219C28.6259 115.244 28.6366 115.267 28.6581 115.279C29.4709 115.725 32.3494 117.105 35.2688 116.162C35.2881 116.155 35.3032 116.136 35.3053 116.113L35.6511 113.164C35.6532 113.14 35.6435 113.125 35.635 113.117C35.6264 113.108 35.6103 113.098 35.5888 113.102C34.6858 113.228 32.2732 113.36 29.3699 111.873C29.3613 111.869 29.3538 111.868 29.3463 111.868H29.3452Z" fill="#1E1E1E"/>
<path d="M190.529 101.299L159.574 106.697L128.866 101.33C128.823 101.323 128.823 101.26 128.866 101.253L159.925 95.8281L190.529 101.299Z" fill="white"/>
<path d="M148.125 97.9688L178.226 103.388L171.468 104.566L141.351 99.1351L148.125 97.9688Z" fill="#1E1E1E"/>
<path d="M159.579 152.448V106.652L190.656 101.279V146.949L159.579 152.448Z" fill="white"/>
<path d="M171.735 109.603V104.513L178.502 103.342V108.405L171.735 109.603Z" fill="#1E1E1E"/>
<path d="M159.579 152.686C159.523 152.686 159.47 152.667 159.426 152.63C159.372 152.585 159.341 152.519 159.341 152.448V106.652C159.341 106.536 159.425 106.438 159.538 106.417L190.616 101.045C190.685 101.033 190.756 101.051 190.81 101.097C190.864 101.142 190.895 101.209 190.895 101.28V146.95C190.895 147.065 190.812 147.164 190.698 147.183L159.621 152.682C159.607 152.684 159.593 152.685 159.579 152.685V152.686ZM159.818 106.852V152.165L190.418 146.75V101.561L159.818 106.851V106.852Z" fill="#1E1E1E"/>
<path d="M165.174 135.353C165.118 135.353 165.065 135.333 165.022 135.297C164.968 135.252 164.936 135.186 164.936 135.115V113.221C164.936 113.105 165.019 113.006 165.134 112.986L185.22 109.478C185.289 109.467 185.361 109.486 185.415 109.531C185.468 109.576 185.499 109.642 185.499 109.713V131.525C185.499 131.639 185.417 131.739 185.303 131.758L165.216 135.347C165.202 135.349 165.188 135.35 165.174 135.35V135.353ZM165.413 113.421V134.831L185.023 131.327V109.997L165.413 113.421Z" fill="#1E1E1E"/>
<path d="M173.465 131.156C173.458 131.156 173.449 131.156 173.442 131.156C172.754 131.139 172.108 130.849 171.622 130.334C171.124 129.807 170.85 129.107 170.85 128.364V127.899C170.852 127.524 171.147 127.22 171.509 127.22C171.688 127.22 171.855 127.293 171.981 127.425C172.102 127.553 172.168 127.723 172.168 127.901V128.387C172.168 128.766 172.307 129.121 172.559 129.389C172.808 129.653 173.137 129.797 173.487 129.797C173.489 129.797 173.492 129.797 173.494 129.797C173.839 129.793 174.162 129.649 174.408 129.39C174.66 129.124 174.8 128.767 174.8 128.388L174.804 114.753C174.804 114.557 174.886 114.371 175.029 114.241C175.165 114.118 175.347 114.057 175.528 114.075C175.86 114.109 176.121 114.414 176.121 114.769V128.365C176.121 129.109 175.846 129.808 175.348 130.334C174.858 130.851 174.211 131.141 173.519 131.156C173.515 131.156 173.511 131.156 173.506 131.156H173.491C173.483 131.156 173.475 131.156 173.467 131.156H173.465Z" fill="#1E1E1E"/>
<path d="M181.619 121.204C182.029 121.133 182.294 120.724 182.188 120.319C181.254 116.753 178.108 115.647 174.754 116.227C171.526 116.785 169.086 119.294 168.272 122.458C168.142 122.963 168.566 123.436 169.077 123.348L181.619 121.204Z" fill="#1E1E1E"/>
<path d="M159.579 152.448V106.652L128.772 101.272V146.976L159.579 152.448Z" fill="white"/>
<path d="M159.579 152.686C159.565 152.686 159.551 152.685 159.537 152.683L128.73 147.211C128.616 147.191 128.533 147.092 128.533 146.978V101.273C128.533 101.203 128.564 101.136 128.618 101.091C128.672 101.046 128.743 101.027 128.812 101.039L159.62 106.418C159.734 106.439 159.818 106.537 159.818 106.653V152.449C159.818 152.52 159.786 152.587 159.733 152.632C159.69 152.668 159.635 152.687 159.58 152.687L159.579 152.686ZM129.01 146.778L159.341 152.166V106.853L129.01 101.557V146.778Z" fill="#1E1E1E"/>
<path d="M151.381 132.192C151.368 132.192 151.354 132.191 151.341 132.189L136.139 129.605C136.025 129.586 135.941 129.487 135.941 129.371V126.004C135.941 125.933 135.972 125.866 136.026 125.821C136.079 125.777 136.151 125.757 136.22 125.769L151.421 128.426C151.535 128.447 151.619 128.545 151.619 128.661V131.954C151.619 132.024 151.588 132.09 151.534 132.136C151.491 132.173 151.436 132.192 151.381 132.192ZM136.418 129.171L151.142 131.673V128.86L136.418 126.286V129.171Z" fill="#1E1E1E"/>
<path d="M149.027 126.544C149.014 126.544 149 126.543 148.987 126.541L145.952 126.025C145.837 126.005 145.753 125.906 145.753 125.79V118.009L144.348 117.764C144.262 117.749 144.191 117.689 144.163 117.606C144.135 117.524 144.155 117.433 144.213 117.37L147.333 113.969C147.382 113.915 147.452 113.889 147.524 113.892C147.596 113.897 147.662 113.934 147.703 113.994L150.842 118.493C150.896 118.572 150.898 118.676 150.847 118.757C150.795 118.837 150.701 118.88 150.604 118.863L149.264 118.624V126.306C149.264 126.376 149.233 126.442 149.179 126.488C149.137 126.525 149.082 126.544 149.026 126.544H149.027ZM146.23 125.59L148.79 126.025V118.34C148.79 118.269 148.821 118.203 148.875 118.158C148.928 118.113 149 118.095 149.07 118.106L150.124 118.294L147.484 114.509L144.858 117.371L146.032 117.575C146.146 117.596 146.23 117.694 146.23 117.81V125.59Z" fill="#1E1E1E"/>
<path d="M141.55 125.288C141.537 125.288 141.523 125.287 141.51 125.284L138.475 124.768C138.36 124.749 138.276 124.649 138.276 124.534V116.753L136.871 116.507C136.785 116.492 136.714 116.432 136.686 116.35C136.658 116.267 136.677 116.176 136.735 116.113L139.855 112.713C139.905 112.659 139.975 112.632 140.047 112.636C140.119 112.641 140.185 112.677 140.226 112.737L143.364 117.237C143.419 117.316 143.421 117.42 143.37 117.5C143.318 117.58 143.224 117.624 143.127 117.606L141.787 117.367V125.049C141.787 125.118 141.756 125.185 141.702 125.231C141.659 125.267 141.605 125.287 141.549 125.287L141.55 125.288ZM138.753 124.333L141.313 124.768V117.085C141.313 117.014 141.344 116.948 141.397 116.903C141.452 116.858 141.523 116.839 141.593 116.851L142.647 117.039L140.007 113.254L137.382 116.115L138.556 116.32C138.67 116.34 138.754 116.439 138.754 116.554V124.334L138.753 124.333Z" fill="#1E1E1E"/>
<path d="M153.823 135.352C153.809 135.352 153.795 135.351 153.781 135.349L133.695 131.76C133.581 131.74 133.498 131.641 133.498 131.527V109.715C133.498 109.645 133.529 109.578 133.583 109.533C133.637 109.488 133.707 109.469 133.777 109.48L153.864 112.988C153.978 113.008 154.062 113.107 154.062 113.223V135.117C154.062 135.188 154.03 135.254 153.976 135.299C153.933 135.335 153.878 135.355 153.823 135.355V135.352ZM133.975 131.326L153.585 134.831V113.421L133.975 109.997V131.326Z" fill="#1E1E1E"/>
<path d="M159.574 106.935C159.56 106.935 159.546 106.934 159.533 106.932L128.825 101.565C128.692 101.542 128.596 101.426 128.596 101.291C128.596 101.157 128.692 101.042 128.825 101.018L159.883 95.5935C159.911 95.5893 159.939 95.5893 159.966 95.5935L190.57 101.064C190.684 101.085 190.767 101.183 190.767 101.299C190.767 101.415 190.683 101.513 190.569 101.532L159.614 106.93C159.6 106.933 159.587 106.934 159.573 106.934L159.574 106.935ZM130.027 101.291L159.574 106.455L189.163 101.295L159.925 96.068L130.027 101.29V101.291Z" fill="#1E1E1E"/>
<path d="M177.028 144.612L146.072 150.01L115.364 144.644C115.321 144.636 115.321 144.574 115.364 144.566L146.423 139.142L177.028 144.612Z" fill="white"/>
<path d="M134.624 141.284L164.726 146.702L157.967 147.881L127.849 142.449L134.624 141.284Z" fill="#1E1E1E"/>
<path d="M146.079 195.762V149.966L177.156 144.593V190.264L146.079 195.762Z" fill="white"/>
<path d="M158.233 152.916V147.827L165 146.657V151.719L158.233 152.916Z" fill="#1E1E1E"/>
<path d="M146.079 196C146.023 196 145.969 195.981 145.925 195.944C145.871 195.899 145.84 195.833 145.84 195.762V149.966C145.84 149.85 145.924 149.752 146.038 149.731L177.115 144.359C177.185 144.347 177.256 144.366 177.309 144.411C177.363 144.456 177.394 144.523 177.394 144.593V190.264C177.394 190.379 177.311 190.478 177.198 190.497L146.121 195.996C146.107 195.998 146.093 195.999 146.079 195.999V196ZM146.317 150.166V195.478L176.917 190.064V144.876L146.317 150.166Z" fill="#1E1E1E"/>
<path d="M151.674 178.667C151.618 178.667 151.564 178.647 151.521 178.611C151.468 178.566 151.435 178.499 151.435 178.429V156.535C151.435 156.419 151.518 156.32 151.633 156.3L171.72 152.793C171.789 152.782 171.86 152.801 171.914 152.846C171.968 152.891 171.999 152.957 171.999 153.028V174.84C171.999 174.954 171.916 175.054 171.802 175.073L151.716 178.662C151.702 178.664 151.688 178.665 151.674 178.665V178.667ZM151.912 156.735V178.145L171.522 174.642V153.312L151.912 156.736V156.735Z" fill="#1E1E1E"/>
<path d="M159.965 174.47C159.957 174.47 159.949 174.47 159.941 174.47C159.253 174.453 158.608 174.162 158.121 173.647C157.623 173.12 157.349 172.421 157.349 171.678V171.213C157.351 170.838 157.647 170.534 158.008 170.534C158.188 170.534 158.354 170.607 158.48 170.738C158.601 170.867 158.668 171.036 158.668 171.215V171.7C158.668 172.079 158.806 172.435 159.059 172.703C159.308 172.966 159.636 173.111 159.986 173.111C159.988 173.111 159.992 173.111 159.994 173.111C160.338 173.106 160.662 172.963 160.907 172.704C161.16 172.437 161.299 172.08 161.299 171.701L161.304 158.067C161.304 157.871 161.385 157.685 161.528 157.555C161.664 157.432 161.846 157.371 162.027 157.389C162.359 157.422 162.62 157.727 162.62 158.083V171.679C162.62 172.422 162.345 173.121 161.847 173.647C161.357 174.165 160.71 174.455 160.018 174.47C160.014 174.47 160.01 174.47 160.006 174.47H159.991C159.982 174.47 159.974 174.47 159.966 174.47H159.965Z" fill="#1E1E1E"/>
<path d="M168.117 164.519C168.528 164.448 168.793 164.039 168.686 163.634C167.752 160.068 164.606 158.962 161.252 159.542C158.025 160.1 155.584 162.609 154.77 165.773C154.64 166.277 155.064 166.751 155.576 166.663L168.117 164.519Z" fill="#1E1E1E"/>
<path d="M146.079 195.762V149.966L115.271 144.587V190.29L146.079 195.762Z" fill="white"/>
<path d="M146.079 196C146.065 196 146.051 195.999 146.037 195.997L115.229 190.525C115.115 190.505 115.033 190.406 115.033 190.291V144.587C115.033 144.517 115.064 144.45 115.117 144.405C115.171 144.36 115.242 144.341 115.312 144.353L146.119 149.732C146.233 149.753 146.317 149.851 146.317 149.967V195.763C146.317 195.834 146.286 195.901 146.232 195.945C146.189 195.982 146.134 196.001 146.08 196.001L146.079 196ZM115.509 190.092L145.84 195.48V150.167L115.509 144.871V190.092Z" fill="#1E1E1E"/>
<path d="M137.879 175.507C137.866 175.507 137.852 175.506 137.839 175.503L122.638 172.92C122.523 172.901 122.439 172.801 122.439 172.685V169.317C122.439 169.246 122.47 169.18 122.524 169.135C122.578 169.09 122.649 169.071 122.718 169.082L137.92 171.74C138.033 171.76 138.117 171.859 138.117 171.974V175.269C138.117 175.338 138.086 175.405 138.032 175.451C137.989 175.487 137.935 175.507 137.879 175.507ZM122.916 172.485L137.64 174.987V172.175L122.916 169.601V172.485Z" fill="#1E1E1E"/>
<path d="M135.525 169.858C135.512 169.858 135.498 169.857 135.486 169.855L132.45 169.339C132.335 169.319 132.252 169.22 132.252 169.104V161.323L130.846 161.078C130.76 161.063 130.689 161.003 130.661 160.92C130.633 160.838 130.653 160.747 130.711 160.683L133.831 157.283C133.88 157.229 133.951 157.203 134.022 157.206C134.094 157.211 134.161 157.248 134.201 157.308L137.34 161.807C137.395 161.886 137.397 161.99 137.345 162.07C137.294 162.152 137.198 162.194 137.103 162.177L135.763 161.938V169.62C135.763 169.69 135.731 169.756 135.678 169.802C135.635 169.839 135.58 169.858 135.524 169.858H135.525ZM132.728 168.904L135.288 169.339V161.654C135.288 161.583 135.319 161.517 135.373 161.472C135.426 161.427 135.498 161.408 135.568 161.42L136.623 161.608L133.982 157.823L131.357 160.685L132.532 160.889C132.646 160.909 132.729 161.008 132.729 161.124V168.904H132.728Z" fill="#1E1E1E"/>
<path d="M128.049 168.602C128.036 168.602 128.022 168.601 128.009 168.598L124.974 168.082C124.859 168.063 124.775 167.963 124.775 167.848V160.067L123.37 159.821C123.284 159.806 123.213 159.746 123.185 159.664C123.157 159.581 123.177 159.49 123.235 159.427L126.355 156.027C126.404 155.973 126.475 155.946 126.546 155.949C126.618 155.955 126.684 155.991 126.725 156.051L129.864 160.551C129.918 160.63 129.921 160.734 129.869 160.814C129.817 160.894 129.722 160.937 129.626 160.92L128.286 160.681V168.364C128.286 168.433 128.255 168.5 128.202 168.546C128.159 168.582 128.104 168.602 128.048 168.602H128.049ZM125.252 167.647L127.812 168.082V160.397C127.812 160.327 127.843 160.26 127.897 160.215C127.95 160.17 128.022 160.151 128.092 160.164L129.146 160.351L126.506 156.566L123.881 159.428L125.056 159.633C125.169 159.653 125.253 159.752 125.253 159.867V167.647H125.252Z" fill="#1E1E1E"/>
<path d="M140.321 178.666C140.308 178.666 140.294 178.665 140.28 178.663L120.193 175.074C120.079 175.054 119.996 174.955 119.996 174.841V153.029C119.996 152.959 120.028 152.892 120.081 152.847C120.135 152.802 120.206 152.783 120.276 152.794L140.362 156.301C140.476 156.321 140.56 156.42 140.56 156.536V178.43C140.56 178.5 140.529 178.567 140.474 178.612C140.431 178.648 140.376 178.667 140.321 178.667V178.666ZM120.473 174.64L140.083 178.144V156.734L120.473 153.31V174.639V174.64Z" fill="#1E1E1E"/>
<path d="M146.072 150.248C146.058 150.248 146.044 150.247 146.031 150.245L115.324 144.878C115.191 144.856 115.094 144.74 115.094 144.605C115.094 144.47 115.191 144.355 115.324 144.332L146.381 138.907C146.409 138.903 146.437 138.903 146.464 138.907L177.069 144.378C177.183 144.398 177.265 144.497 177.265 144.612C177.265 144.728 177.181 144.827 177.068 144.846L146.112 150.244C146.098 150.246 146.085 150.247 146.071 150.247L146.072 150.248ZM116.525 144.605L146.072 149.768L175.661 144.608L146.423 139.381L116.525 144.604V144.605Z" fill="#1E1E1E"/>
</g>
<defs>
<clipPath id="clip0_0_5990">
<rect width="191" height="196" fill="white"/>
</clipPath>
</defs>
</svg>
