<svg width="222" height="55" viewBox="0 0 222 55" fill="none" xmlns="http://www.w3.org/2000/svg">
<path d="M67.3 22V7.622H80.482V10.56H70.55V13.55H79.338V16.488H70.55V22H67.3ZM82.5059 7.622H85.7559V14.98C85.7559 17.996 87.1253 19.504 89.8639 19.504C92.6026 19.504 93.9719 17.996 93.9719 14.98V7.622H97.2219V14.954C97.2219 17.3113 96.5633 19.14 95.2459 20.44C93.9286 21.7227 92.1346 22.364 89.8639 22.364C87.5933 22.364 85.7993 21.7227 84.4819 20.44C83.1646 19.14 82.5059 17.3113 82.5059 14.954V7.622ZM99.6984 7.622H102.948V19.062H112.854V22H99.6984V7.622Z" fill="#35BAEC"/>
<path d="M114.857 22V7.622H128.039V10.56H118.107V13.55H126.895V16.488H118.107V22H114.857ZM130.193 7.622H133.443V22H130.193V7.622ZM136.032 7.622H139.282V19.062H149.188V22H136.032V7.622ZM151.191 7.622H155.533L160.577 18.048H160.707L165.959 7.622H170.119V22H166.921V11.938H166.765L161.903 22H159.173L154.493 11.938H154.337V22H151.191V7.622ZM172.722 7.622H185.774V10.56H175.972V13.212H184.786V16.15H175.972V19.01H186.138V22H172.722V7.622ZM188.566 7.622H191.634L200.24 17.294V7.622H203.464V22H200.37L191.764 12.302V22H188.566V7.622ZM205.54 7.622H220.49V10.534H214.64V22H211.39V10.534H205.54V7.622ZM66.78 33.622H70.498L75.1 41.292H75.308L79.754 33.622H83.472L76.712 44.412V48H73.514V44.412L66.78 33.622ZM85.4259 33.622H88.6759V40.98C88.6759 43.996 90.0452 45.504 92.7839 45.504C95.5225 45.504 96.8919 43.996 96.8919 40.98V33.622H100.142V40.954C100.142 43.3113 99.4832 45.14 98.1659 46.44C96.8485 47.7227 95.0545 48.364 92.7839 48.364C90.5132 48.364 88.7192 47.7227 87.4019 46.44C86.0845 45.14 85.4259 43.3113 85.4259 40.954V33.622ZM111.094 39.654H117.88V48H115.852L115.41 46.882C113.989 47.87 112.316 48.364 110.392 48.364C108.07 48.364 106.146 47.6793 104.62 46.31C103.112 44.9407 102.358 43.112 102.358 40.824C102.358 38.536 103.112 36.7073 104.62 35.338C106.146 33.9687 108.07 33.284 110.392 33.284C113.582 33.284 115.991 34.4973 117.62 36.924L115.046 38.38C114.457 37.6173 113.807 37.0713 113.096 36.742C112.403 36.4127 111.484 36.248 110.34 36.248C108.884 36.248 107.723 36.664 106.856 37.496C106.007 38.3107 105.582 39.42 105.582 40.824C105.582 42.228 106.007 43.346 106.856 44.178C107.723 44.9927 108.884 45.4 110.34 45.4C112.178 45.4 113.651 44.9667 114.76 44.1V42.462L111.094 42.332V39.654ZM121.01 44.438C121.461 43.9873 122.007 43.762 122.648 43.762C123.29 43.762 123.836 43.9873 124.286 44.438C124.737 44.8713 124.962 45.4087 124.962 46.05C124.962 46.674 124.737 47.2027 124.286 47.636C123.836 48.052 123.29 48.26 122.648 48.26C122.007 48.26 121.461 48.052 121.01 47.636C120.577 47.2027 120.36 46.674 120.36 46.05C120.36 45.4087 120.577 44.8713 121.01 44.438ZM126.885 39.152H132.037C133.05 39.152 133.898 39.4667 134.581 40.096C135.263 40.7147 135.605 41.52 135.605 42.512C135.605 43.2267 135.429 43.8453 135.077 44.368C134.725 44.88 134.25 45.264 133.653 45.52L135.061 48H133.685L132.485 45.856H128.133V48H126.885V39.152ZM128.133 40.304V44.704H132.021C132.725 44.704 133.29 44.512 133.717 44.128C134.143 43.7333 134.357 43.1947 134.357 42.512C134.357 41.84 134.138 41.3067 133.701 40.912C133.274 40.5067 132.714 40.304 132.021 40.304H128.133ZM137.023 39.152H138.271V43.696C138.271 44.752 138.538 45.584 139.071 46.192C139.605 46.7893 140.41 47.088 141.487 47.088C142.554 47.088 143.354 46.7893 143.887 46.192C144.421 45.584 144.687 44.752 144.687 43.696V39.152H145.951V43.68C145.951 45.12 145.551 46.24 144.751 47.04C143.951 47.8293 142.863 48.224 141.487 48.224C140.101 48.224 139.007 47.8293 138.207 47.04C137.418 46.2507 137.023 45.1307 137.023 43.68V39.152Z" fill="white"/>
<g clip-path="url(#clip0_0_6188)">
<path fill-rule="evenodd" clip-rule="evenodd" d="M42.8745 44.6873L48.9993 41.2495L49 13.7492L24.5 0L18.3752 3.43712L42.8752 17.1863L42.8745 37.8117V44.6873Z" fill="#35BAEC"/>
<path fill-rule="evenodd" clip-rule="evenodd" d="M39.8131 18.9057L39.8124 32.6569L33.6862 36.0946L33.6876 22.3435L21.4359 15.4686L27.5614 12.0308L39.8131 18.9057Z" fill="#35BAEC"/>
<mask id="mask0_0_6188" style="mask-type:luminance" maskUnits="userSpaceOnUse" x="0" y="5" width="40" height="50">
<path d="M0 41.2508L24.5 54.9999L39.8124 46.4054V42.9676L24.4993 51.5621L24.5 34.3759L30.6241 30.9387L30.6248 24.0625L24.4986 20.6247L18.3731 24.0625L3.06345 15.4687L18.3759 6.87484L15.3138 5.15527L0 13.7504V27.4996V41.2508Z" fill="white"/>
</mask>
<g mask="url(#mask0_0_6188)">
<path d="M39.8124 5.15527H0V54.9999H39.8124V5.15527Z" fill="url(#paint0_linear_0_6188)"/>
</g>
</g>
<defs>
<linearGradient id="paint0_linear_0_6188" x1="19.368" y1="4.985" x2="19.368" y2="54.8318" gradientUnits="userSpaceOnUse">
<stop stop-color="#F3F3F3"/>
<stop offset="0.5" stop-color="white"/>
<stop offset="1" stop-color="#F3F3F3"/>
</linearGradient>
<clipPath id="clip0_0_6188">
<rect width="49" height="55" fill="white"/>
</clipPath>
</defs>
</svg>
