<svg width="42" height="42" viewBox="0 0 42 42" fill="none" xmlns="http://www.w3.org/2000/svg">
<g clip-path="url(#clip0_0_1069)">
<path fill-rule="evenodd" clip-rule="evenodd" d="M21 0C9.40242 0 0 9.40242 0 21C0 32.5976 9.40242 42 21 42C32.5976 42 42 32.5976 42 21C42 9.40242 32.5976 0 21 0ZM30.7338 14.2816C30.418 17.6023 29.0505 25.6602 28.3549 29.3795C28.0604 30.9537 27.4805 31.4811 26.9194 31.5328C25.7004 31.6452 24.7743 30.7264 23.593 29.9521C21.7448 28.7405 20.7006 27.9866 18.9066 26.8045C16.8328 25.4379 18.1773 24.6873 19.3586 23.4601C19.6678 23.1386 25.0409 18.2511 25.145 17.8082C25.1582 17.7524 25.1705 17.5457 25.0474 17.4366C24.9244 17.3275 24.7431 17.3652 24.6127 17.3947C24.4273 17.4366 21.4741 19.3881 15.7549 23.2493C14.9166 23.8252 14.1578 24.1049 13.4769 24.0909C12.7271 24.0745 11.285 23.6668 10.2129 23.3182C8.89793 22.8908 7.85285 22.6644 7.94391 21.9384C7.99066 21.5603 8.51156 21.1739 9.50578 20.7785C15.6278 18.1109 19.7097 16.3529 21.7522 15.5031C27.5846 13.0775 28.7963 12.6558 29.5861 12.6418C30.5756 12.6244 30.8144 13.4411 30.7338 14.2816Z" fill="white"/>
</g>
<defs>
<clipPath id="clip0_0_1069">
<rect width="42" height="42" fill="white"/>
</clipPath>
</defs>
</svg>
