<svg width="42" height="42" viewBox="0 0 42 42" fill="none" xmlns="http://www.w3.org/2000/svg">
<g clip-path="url(#clip0_0_1072)">
<path d="M21 0C9.40201 0 0 9.40201 0 21C0 32.598 9.40201 42 21 42C32.598 42 42 32.598 42 21C42 9.40201 32.598 0 21 0ZM33.3237 28.6733L29.7012 28.723C29.7012 28.723 28.922 28.8777 27.8996 28.1704C26.5429 27.2391 25.2664 24.8214 24.2717 25.1308C23.2769 25.4403 23.2935 27.6177 23.2935 27.6177C23.2967 27.8731 23.2183 28.1229 23.0697 28.3306C22.8606 28.5098 22.6027 28.6223 22.3292 28.6539H20.7238C20.7238 28.6539 17.1317 28.8667 13.9955 25.5896C10.5471 22.0306 7.51037 14.921 7.51037 14.921C7.51037 14.921 7.33154 14.5086 7.52694 14.2302C7.69584 13.9895 8.1124 13.9637 8.32273 13.9539C9.22942 13.9115 11.9535 13.9291 11.9535 13.9291C12.1814 13.9234 12.3345 13.9354 12.6167 14.0589C12.8591 14.1788 13.0431 14.3573 13.161 14.6447C13.5801 15.6883 14.0666 16.7036 14.6172 17.6842C16.2364 20.4833 16.9908 21.0939 17.5407 20.7955C18.3392 20.3589 18.0933 16.8414 18.0933 16.8414C18.0933 16.8414 18.0933 15.5621 17.6899 14.9956C17.3862 14.6409 16.9579 14.4163 16.4935 14.3684C16.2752 14.338 16.6344 13.8324 17.0986 13.6058C17.7949 13.2631 19.0273 13.2631 20.4807 13.2631C21.1203 13.239 21.7601 13.3042 22.3817 13.4566C23.7191 13.7799 23.2659 15.0233 23.2659 18.013C23.2659 18.9691 23.0919 20.3175 23.7827 20.7761C24.0811 20.9668 24.805 20.8038 26.6232 17.7201C27.2032 16.6996 27.7065 15.6375 28.1291 14.5424C28.2105 14.3683 28.3339 14.2174 28.4883 14.1031C28.6515 14.0218 28.8351 13.9901 29.0161 14.0118L33.0945 13.9842C33.0945 13.9842 34.3186 13.8378 34.5175 14.3931C34.7164 14.9486 34.0588 16.3273 32.3927 18.5378C29.6572 22.1852 29.3532 21.8536 31.6245 23.9508C33.7936 25.9652 34.244 26.9461 34.3186 27.0677C35.2192 28.5545 33.3237 28.6733 33.3237 28.6733Z" fill="white"/>
</g>
<defs>
<clipPath id="clip0_0_1072">
<rect width="42" height="42" fill="white"/>
</clipPath>
</defs>
</svg>
