<svg width="32" height="32" viewBox="0 0 32 32" fill="none" xmlns="http://www.w3.org/2000/svg">
<g clip-path="url(#clip0_3_1506)">
<path d="M16 0C7.21191 0 0 7.21191 0 16C0 18.9004 0.781982 21.7239 2.26489 24.1941L0 32L7.80591 29.7351C10.2761 31.218 13.0996 32 16 32C24.7881 32 32 24.7881 32 16C32 7.21191 24.7881 0 16 0ZM26.0034 22.7605L25.259 23.5049C24.2058 24.5581 21.7837 24.4746 20.2273 24.1741C15.0522 23.1746 9.0188 17.3264 7.85522 12.262C7.27905 9.75317 7.59717 7.57202 8.4292 6.73975L9.17358 5.99536C9.58447 5.58472 10.252 5.58521 10.6624 5.99536L13.6404 8.97363C13.8391 9.17236 13.948 9.43579 13.948 9.71777C13.948 9.99976 13.8391 10.2634 13.6404 10.4614L12.8962 11.2065C12.0759 12.0288 12.0759 13.3645 12.8962 14.1848L17.814 19.0378C18.6367 19.8606 19.9683 19.8616 20.7922 19.0378L21.5366 18.2937C21.9209 17.9072 22.6387 17.906 23.0261 18.2937L26.0034 21.271C26.4077 21.6736 26.4231 22.3406 26.0034 22.7605Z" fill="#92A0AD"/>
</g>
<defs>
<clipPath id="clip0_3_1506">
<rect width="32" height="32" fill="white"/>
</clipPath>
</defs>
</svg>
