<svg width="43" height="42" viewBox="0 0 43 42" fill="none" xmlns="http://www.w3.org/2000/svg">
<path fill-rule="evenodd" clip-rule="evenodd" d="M9.33854 4.27805C12.7714 1.64484 17.0468 0.266238 21.3516 0.0401181C21.1941 3.93157 21.2527 7.89962 20.1756 11.6744C19.3732 14.6285 17.296 17.2508 14.4823 18.5346C10.2471 20.3545 5.5247 20.2195 1.00012 20.4019C1.00012 14.1289 4.30105 7.99809 9.33854 4.27805ZM22.6339 0C26.444 0.317298 30.2616 1.31296 33.4562 3.47569C39.1495 7.11549 42.8791 13.6511 42.9853 20.4019C38.8015 20.256 34.4967 20.3143 30.4887 18.9467C27.5944 17.9291 25.1618 15.6497 24.1506 12.743C22.6705 8.67645 22.7071 4.26711 22.6339 0ZM31.2471 22.8381C35.0719 21.7914 39.0653 21.7586 43 21.6674C42.8644 26.9812 40.5857 32.2148 36.7462 35.9166C33.0459 39.6367 27.8692 41.7848 22.6302 41.9964C22.7328 37.6527 22.6595 33.1521 24.2495 29.0309C25.3816 25.9856 28.144 23.7171 31.2471 22.8381ZM1.00012 21.6747C5.75551 21.8425 10.8333 21.6237 15.171 23.8922C18.1386 25.4021 19.8861 28.5422 20.509 31.7042C21.2197 35.0887 21.2417 38.5608 21.3296 42C15.7133 41.7848 10.2068 39.3121 6.42962 35.1507C3.11403 31.4891 0.981799 26.6384 1.00012 21.6747Z" fill="white"/>
</svg>
