<svg width="47" height="43" viewBox="0 0 47 43" fill="none" xmlns="http://www.w3.org/2000/svg">
<g clip-path="url(#clip0_0_4780)">
<path fill-rule="evenodd" clip-rule="evenodd" d="M16.7643 37.4365C18.3255 37.9085 19.9821 38.1628 21.7005 38.1628C31.0119 38.1628 38.5625 30.7015 38.5625 21.4994C38.5625 19.8057 38.3053 18.1678 37.8268 16.6231L37.8624 16.5875L37.9794 16.4722L38.0956 16.3568L38.2121 16.2415L38.3291 16.1266L38.4453 16.011L38.5623 15.8959L38.6786 15.7806L38.7948 15.6653L38.912 15.5504L39.0283 15.435L39.1452 15.3197L39.2617 15.2044L39.378 15.0895L39.4949 14.9739L39.6112 14.859L39.7281 14.7437L39.8444 14.6283L39.9606 14.513L40.0776 14.3981L40.1939 14.2828L40.3101 14.1674L40.4271 14.0521L40.5436 13.9368L40.6598 13.8214L40.7768 13.7065L40.893 13.5912L41.01 13.4759L41.1262 13.3605L41.2425 13.2456L41.3597 13.1303L41.476 13.015L41.5929 12.9001L41.6285 12.8643C42.8036 15.5071 43.4557 18.4283 43.4557 21.4996C43.4557 33.3718 33.7124 42.9993 21.6992 42.9993C18.5913 42.9993 15.6358 42.3536 12.9609 41.1928L16.763 37.4361L16.7643 37.4365Z" fill="#343434"/>
<path fill-rule="evenodd" clip-rule="evenodd" d="M8.57901 4.351L4.17463 -0.000488281H22.7056V0.023175C27.2454 0.227617 31.4224 1.80773 34.8213 4.351L31.3197 7.81116C28.8421 6.10591 25.8745 5.03958 22.6553 4.86242H15.6341L16.7794 5.99549C14.9675 6.27476 12.7407 7.14603 10.9682 8.64407C7.53271 11.4453 5.33419 15.4958 4.91135 19.9291H0C0.464039 13.5722 3.7285 7.98064 8.57901 4.351Z" fill="#343434"/>
<mask id="mask0_0_4780" style="mask-type:luminance" maskUnits="userSpaceOnUse" x="0" y="3" width="48" height="37">
<path d="M10.8209 32.2502L10.8908 32.1812L11.0957 31.9787L11.3503 31.7269L11.3807 31.6962L11.6769 31.4043L11.8128 31.27L11.9828 31.102L12.2782 30.8102L12.2976 30.791L12.622 30.4704L12.7457 30.3484L13.2149 29.8848L13.2971 29.8029L18.7877 24.3772L18.8852 24.2813L29.4908 13.801L29.6073 13.6861L29.648 13.6458L29.7242 13.5708L32.9886 10.3445L33.0519 10.2818L33.1056 10.2291L33.2221 10.1138L33.3383 9.99846L33.394 9.94388L33.4555 9.88334L33.5718 9.76801L33.6887 9.6531L33.7269 9.61473L33.8052 9.53777L33.9221 9.42244L34.0384 9.30711L34.0513 9.29432L34.1547 9.1922L34.2716 9.07687L34.3665 8.98264L34.3877 8.96154L34.6211 8.73087L34.6716 8.68078L34.7374 8.61597L34.8543 8.50064L34.9673 8.3885L34.9706 8.3853L35.0869 8.26997L35.204 8.15507L35.2525 8.10646L35.3205 8.03974L35.4368 7.9244L35.528 7.83508L35.5539 7.80929L36.3702 7.00282C37.0586 6.32212 37.747 5.64228 38.4348 4.96223H38.4309C40.6901 2.85407 41.1271 3.3753 47.0002 3.3753C46.3125 4.05514 45.6241 4.73519 44.935 5.41588C42.4476 7.87409 39.9602 10.3321 37.4724 12.7907C31.0768 19.1114 17.2171 32.8064 10.8211 39.1277V39.1271L10.1935 39.7475C4.4609 36.2099 0.514521 30.1093 0 23.0693H4.91135C5.28759 27.0439 7.07687 30.6126 9.7774 33.2812L10.8207 32.2502H10.8209Z" fill="white"/>
</mask>
<g mask="url(#mask0_0_4780)">
<path d="M47 2.85425H0V39.7476H47V2.85425Z" fill="url(#paint0_linear_0_4780)"/>
</g>
<mask id="mask1_0_4780" style="mask-type:luminance" maskUnits="userSpaceOnUse" x="0" y="3" width="44" height="34">
<path d="M10.8209 32.2502L10.8908 32.1812L11.0957 31.9786L11.3503 31.7269L11.3807 31.6962L11.6769 31.4043L11.8128 31.27L11.9828 31.102L12.2782 30.8102L12.2976 30.791L12.622 30.4704L12.7457 30.3484L13.2149 29.8847L13.2971 29.8029L18.7877 24.3772L18.8852 24.2812L29.4908 13.801L29.6073 13.6861L29.648 13.6458L29.7242 13.5707L32.9886 10.3444L33.0519 10.2818L33.1056 10.2291L33.2221 10.1138L33.3383 9.99843L33.394 9.94386L33.4555 9.88331L33.5718 9.76798L33.6887 9.65308L33.7269 9.6147L33.8052 9.53775L33.9221 9.42241L34.0384 9.30708L34.0513 9.29429L34.1547 9.19218L34.2716 9.07684L34.3665 8.98262L34.3877 8.96151L34.6211 8.73085L34.6716 8.68075L34.7374 8.61594L34.8543 8.50061L34.9673 8.38848L34.9706 8.38528L35.0869 8.26995L35.204 8.15504L35.2525 8.10644L35.3205 8.03971L35.4368 7.92438L35.528 7.83506L35.5539 7.80926L36.3702 7.00279C37.0586 6.3221 37.747 5.64226 38.4348 4.96221H38.4309C40.1613 3.34671 40.8234 3.27529 43.6784 3.33029L37.4724 9.46313C31.0768 15.7838 17.2171 29.4791 10.8211 35.7997L10.1935 36.4201C5.38618 33.453 1.83545 28.6833 0.510853 23.0691H4.91157C5.2878 27.0437 7.07709 30.6123 9.77762 33.281L10.8209 32.25V32.2502Z" fill="white"/>
</mask>
<g mask="url(#mask1_0_4780)">
<path d="M43.6784 3.27527H0.510635V36.42H43.6784V3.27527Z" fill="url(#paint1_linear_0_4780)"/>
</g>
</g>
<defs>
<linearGradient id="paint0_linear_0_4780" x1="-2.88671" y1="55.2381" x2="48.3651" y2="-12.2652" gradientUnits="userSpaceOnUse">
<stop stop-color="#AE38FB"/>
<stop offset="1" stop-color="#35BAEC"/>
</linearGradient>
<linearGradient id="paint1_linear_0_4780" x1="2.22592" y1="43.6333" x2="29.5366" y2="10.1516" gradientUnits="userSpaceOnUse">
<stop stop-color="#35BAEC"/>
<stop offset="1" stop-color="#AE38FB"/>
</linearGradient>
<clipPath id="clip0_0_4780">
<rect width="47" height="43" fill="white" transform="translate(0 -0.000488281)"/>
</clipPath>
</defs>
</svg>
