<svg width="138" height="138" viewBox="0 0 138 138" fill="none" xmlns="http://www.w3.org/2000/svg">
<path d="M23.4247 72.3456C23.3608 73.1179 22.1801 73.0212 22.244 72.2489C22.2928 71.6343 22.3544 71.5302 21.7836 71.0809C18.5851 68.3219 17.4523 63.7537 18.6346 59.7592C18.841 58.9526 18.8387 58.8222 18.3032 57.9306C16.1053 54.3176 16.0824 49.8079 18.5186 46.3018C18.8061 45.8069 18.9453 45.8039 18.7213 45.2182C17.2682 41.0834 18.4198 36.4562 21.7422 33.555C22.3295 33.0656 22.2613 32.9625 22.2621 32.45C21.9389 28.0229 24.3811 23.819 28.4279 21.9301C28.914 21.6949 28.9339 21.662 28.9907 21.2564C29.7993 16.8413 33.1891 13.3201 37.6582 12.5214C38.2633 12.4315 38.2623 12.3831 38.4328 11.9544C40.3589 7.99178 44.5109 5.51045 48.9431 5.80124C49.7551 5.85896 49.5627 5.90165 50.0015 5.46242C52.9087 2.16646 57.3995 0.727024 61.6277 2.16858C62.4886 2.47547 62.3433 2.4731 63.0937 1.97791C64.8021 0.850387 66.9255 0.160645 68.9782 0.160645C71.1453 0.160645 73.5675 0.864145 75.275 2.2199C75.6353 2.50595 75.4673 2.48487 75.9287 2.30556C78.0326 1.48796 80.3543 1.34617 82.5408 1.92872C84.7793 2.52491 86.7185 3.78167 88.1355 5.60774C88.3703 5.91021 88.2822 5.83374 88.6786 5.78769C90.9388 5.52505 93.2013 5.99198 95.1803 7.12831C97.1561 8.26262 98.7064 9.95487 99.6046 12.0444C99.8045 12.5096 99.6377 12.3595 100.155 12.4385C102.404 12.7826 104.474 13.8354 106.02 15.362C107.659 16.9836 108.756 19.1315 109.052 21.4984C109.084 21.753 109.044 21.686 109.267 21.7757C111.455 22.6546 113.226 24.2172 114.406 26.2506C115.555 28.23 116.04 30.4699 115.755 32.7416C115.7 33.1748 115.644 33.0297 115.984 33.2947C117.788 34.6987 119.04 36.62 119.633 38.8218C120.224 41.016 120.115 43.2852 119.263 45.397C119.074 45.8652 119.045 45.6801 119.339 46.0864C120.646 47.8902 121.411 50.0814 121.411 52.3112C121.411 54.5535 120.724 56.726 119.375 58.5285C119.067 58.9402 119.106 58.9004 119.245 59.247C120.054 61.3317 120.199 63.6372 119.616 65.7982C118.999 68.0874 117.761 69.9122 115.893 71.3803C115.639 71.5798 115.665 71.5945 115.692 71.8163C115.713 71.9894 115.741 72.217 115.759 72.5297C115.795 73.302 114.615 73.3572 114.578 72.5849C114.561 72.2201 114.525 71.9739 114.5 71.803C114.4 71.1142 114.535 70.9511 115.073 70.5289C116.796 69.1746 117.902 67.6107 118.472 65.4943C118.99 63.5732 118.862 61.524 118.143 59.6706C117.777 58.7278 117.656 58.825 118.325 57.9622C119.592 56.3247 120.225 54.3729 120.225 52.3112C120.225 50.334 119.539 48.3719 118.381 46.7725C117.732 45.8762 117.712 46.0831 118.166 44.9594C118.924 43.0812 119.015 41.0765 118.49 39.1256C117.952 37.1289 116.812 35.399 115.156 34.1447C114.368 33.5484 114.443 33.6248 114.57 32.6843C114.848 30.6341 114.42 28.6235 113.383 26.8354C112.318 25.0006 110.714 23.6009 108.727 22.8285C107.961 22.5305 107.978 22.4964 107.886 21.7092C107.635 19.5819 106.657 17.6501 105.186 16.1955C103.741 14.7652 101.819 13.7964 99.6447 13.557C98.9589 13.4818 98.8947 13.488 98.6417 12.8063L98.6409 12.8065C97.8707 10.8217 96.4409 9.20733 94.5922 8.14605C92.6901 7.05382 90.4697 6.65969 88.3051 7.03041C87.8423 7.10949 87.7071 7.03246 87.4696 6.69237L87.4712 6.69127C86.204 4.88433 84.3711 3.63507 82.2352 3.06621C80.2256 2.53078 78.0894 2.68428 76.1698 3.47768C75.3452 3.81788 75.4846 3.88901 74.7483 3.31184V3.30954C73.0959 2.01201 71.0801 1.33963 68.9781 1.33963C67.0739 1.33963 65.1236 2.03245 63.5534 3.08372C62.229 3.97053 62.6058 3.74757 61.2433 3.28305C57.4743 1.99807 53.4785 3.30198 50.8904 6.23612C49.9375 7.31615 50.1537 7.05952 48.8689 6.97559C44.9116 6.71596 41.2169 8.9286 39.4977 12.4656C38.9352 13.6226 39.1365 13.4509 37.8665 13.6774C33.8878 14.3885 30.8722 17.5355 30.1528 21.4637C29.9215 22.7271 30.0473 22.4721 28.9278 22.9939C25.324 24.6761 23.155 28.4266 23.4427 32.3672C23.5537 33.8899 23.5833 33.5101 22.52 34.4393C19.5577 37.026 18.5422 41.1469 19.8371 44.8314C20.3218 46.2112 20.2787 45.8356 19.4908 46.9696C17.316 50.0996 17.3577 54.1017 19.3171 57.3228C20.1869 58.7604 20.0963 58.5382 19.7689 60.0909C18.7175 63.6432 19.7081 67.735 22.5568 70.1921C23.7466 71.2185 23.5564 70.8064 23.4247 72.3456L23.4247 72.3456ZM31.9939 116.901L30.8603 118.736L30.4945 118.999L28.3868 119.505L29.7922 121.145L29.9335 121.571L29.7656 123.722L31.7693 122.899H32.2184L34.2222 123.722L34.0543 121.571L34.1955 121.145L35.601 119.505L33.4933 118.999L33.1275 118.736L31.9939 116.901H31.9939ZM29.9776 117.914L31.9939 114.65L34.0102 117.914L37.7484 118.811L35.2537 121.723L35.5516 125.54L31.9939 124.079L28.4363 125.54L28.7341 121.723L26.2394 118.811L29.9776 117.914ZM48.6284 119.733L46.9042 122.524L46.5384 122.787L43.3338 123.556L45.4711 126.05L45.6123 126.476L45.3571 129.746L48.4039 128.495H48.853L51.8997 129.746L51.6445 126.476L51.7857 126.05L53.923 123.556L50.7184 122.787L50.3526 122.524L48.6284 119.733H48.6284ZM46.0215 121.702L48.6284 117.482L51.2354 121.702L56.0704 122.862L52.8439 126.628L53.2291 131.564L48.6285 129.674L44.0279 131.564L44.413 126.628L41.1865 122.862L46.0215 121.702H46.0215ZM106.607 115.467L108.118 117.914L111.857 118.811L109.362 121.723L109.66 125.54L106.102 124.079L102.545 125.54L102.842 121.723L100.348 118.811L104.086 117.914L106.102 114.65L106.607 115.467ZM107.236 118.736L106.102 116.901L104.969 118.736L104.603 118.999L102.495 119.505L103.901 121.145L104.042 121.571L103.874 123.722L105.878 122.899H106.327L108.33 123.722L108.163 121.571L108.304 121.145L109.709 119.505L107.602 118.999L107.236 118.736H107.236ZM89.9723 118.299L92.0746 121.702L96.9096 122.862L93.6831 126.628L94.0682 131.564L89.4676 129.674L84.867 131.564L85.2522 126.628L82.0257 122.862L86.8607 121.702L89.4676 117.482L89.9723 118.299V118.299ZM91.1919 122.524L89.4676 119.733L87.7434 122.524L87.3776 122.787L84.173 123.556L86.3103 126.05L86.4515 126.476L86.1963 129.746L89.243 128.495H89.6921L92.7389 129.746L92.4837 126.476L92.6249 126.05L94.7622 123.556L91.5576 122.787L91.1918 122.524H91.1919ZM72.3831 124.441L78.5876 125.93L74.4474 130.762L74.9415 137.094L69.0387 134.67L63.136 137.094L63.6301 130.762L59.4899 125.93L65.6944 124.441L69.0388 119.026L72.3831 124.441ZM71.5004 125.263L69.0387 121.278L66.5771 125.263L66.2113 125.525L61.6373 126.623L64.6883 130.184L64.8295 130.61L64.4653 135.277L68.8142 133.491H69.2633L73.6122 135.277L73.248 130.61L73.3892 130.184L76.4401 126.623L71.8661 125.525L71.5003 125.263H71.5004ZM122.707 85.6904L134.215 88.7089C136.779 89.3816 137.394 90.1289 135.994 92.5115L132.338 98.733C130.932 101.127 130.797 100.227 132.142 102.712L137.334 112.301C138.631 114.748 137.674 116.341 134.97 115.155C127.525 111.888 119.411 109.363 111.321 108.358C110.548 108.264 110.691 107.094 111.465 107.188C119.654 108.206 127.91 110.77 135.447 114.077C137.371 114.922 136.557 113.443 136.341 112.953L131.1 103.269C129.521 100.353 129.698 100.892 131.315 98.139L134.958 91.9391C135.808 90.4922 135.931 90.3756 133.914 89.8465L122.707 86.907V102.62C122.707 103.036 122.287 103.316 121.904 103.172C109.094 99.1683 89.0728 97.1665 69.0391 97.1665C49.0053 97.1665 28.9846 99.1683 16.1739 103.172C15.7906 103.316 15.3712 103.036 15.3712 102.62V86.405L2.35561 90.0678C0.914327 90.4735 1.39766 90.5836 2.06647 91.6656L6.52651 97.8113C8.25263 100.19 8.67153 101.126 7.07734 103.842L1.78146 112.866C1.7811 112.865 0.656304 114.973 2.63156 114.077C10.1678 110.77 18.4245 108.206 26.6133 107.188C27.3868 107.094 27.5303 108.264 26.7568 108.358C18.6673 109.363 10.5528 111.888 3.10845 115.155C0.634861 116.266 -0.565289 114.851 0.758148 112.271L6.02807 103.292C7.41466 100.929 6.99623 100.465 5.53439 98.451L1.08975 92.3266C-0.363806 90.5237 -0.385924 89.6165 1.94742 88.9599L15.3712 85.1822V79.9543C31.4303 74.9264 52.2599 73.7528 69.0391 73.7528C85.8183 73.7528 106.648 74.9264 122.707 79.9543V85.6905V85.6904ZM16.5565 101.823C29.5056 97.933 49.278 95.9875 69.039 95.9875C88.8001 95.9875 108.572 97.933 121.522 101.823V80.819C108.697 76.8943 88.8748 74.9317 69.039 74.9317C49.2032 74.9317 29.381 76.8943 16.5565 80.819V101.823ZM30.8339 71.3487C31.009 71.694 30.4812 71.9588 30.3061 71.6135C27.2608 65.5976 25.6992 58.9882 25.6992 52.2546C25.6992 28.448 45.1031 9.14901 69.0391 9.14901C81.0071 9.14901 91.8421 13.9737 99.685 21.7743C107.528 29.5749 112.379 40.3513 112.379 52.2546C112.379 55.7607 111.957 59.1719 111.161 62.4403C110.341 65.806 109.125 69.0166 107.563 72.0202C107.489 72.1645 107.31 72.2212 107.165 72.1468C107.02 72.0725 106.963 71.8951 107.038 71.7508C108.578 68.7868 109.778 65.6201 110.587 62.3022C111.371 59.0835 111.786 55.7188 111.786 52.2546C111.786 40.514 107.002 29.8849 99.266 22.1911C91.5303 14.4973 80.8435 9.73852 69.0391 9.73852C45.4302 9.73852 26.2919 28.7734 26.2919 52.2547C26.2919 58.8961 27.8303 65.4151 30.834 71.3488L30.8339 71.3487ZM86.9809 98.5288C87.4858 97.9419 88.3841 98.7064 87.8792 99.2932C84.8999 102.758 80.0357 103.913 75.7909 102.196C75.5101 102.082 75.6131 102.064 75.3712 102.245C71.6286 105.032 66.3837 105.028 62.6268 102.267C62.2941 102.023 62.4379 102.07 62.0372 102.222C57.8139 103.83 53.1182 102.525 50.0777 99.2668C49.5479 98.7004 50.4137 97.8991 50.9436 98.4655C53.6581 101.374 57.8407 102.559 61.6159 101.122C62.596 100.749 62.4406 100.669 63.3306 101.323C66.6696 103.777 71.336 103.783 74.6628 101.305C75.4285 100.735 75.3561 100.749 76.2354 101.105C80.0102 102.632 84.3308 101.61 86.9809 98.5288Z" fill="#323232"/>
</svg>
