<svg width="96" height="138" viewBox="0 0 96 138" fill="none" xmlns="http://www.w3.org/2000/svg">
<path d="M84.7563 75.7779V77.8611C86.6798 77.2121 88.8973 77.7147 90.5211 78.8764C92.5465 80.3254 93.4993 82.6304 92.9116 85.0839C92.3918 87.2535 90.7518 89.0192 88.9946 90.3095C87.4757 91.4249 86.1299 92.451 84.7563 93.7436V98.2719C84.7563 102.427 81.3442 105.828 77.1762 105.828H72.1578C66.236 111.274 60.5576 117.322 54.0084 121.999C49.9934 124.867 44.8543 126.684 40.5361 129.188C36.6013 131.47 33.6685 133.734 30.5328 137.033C30.0337 137.555 29.2361 136.797 29.7353 136.275C32.9559 132.887 35.9849 130.559 40.0258 128.216C37.9088 128.682 35.972 128.934 34.6635 128.993C33.9388 129.029 33.8846 127.93 34.6095 127.895C36.1056 127.827 38.4475 127.5 40.9196 126.879C45.0003 125.854 49.9961 123.514 53.3666 121.107C59.5234 116.709 65.006 111.005 70.5432 105.828L41.6658 105.828C37.4965 105.828 34.0851 102.429 34.0851 98.2727V58.004C32.6571 61.7347 31.6365 65.7734 31.2909 69.7524C31.2287 70.4716 30.1316 70.3774 30.1938 69.6581C30.5687 65.341 31.6268 61.5096 33.1466 57.4789C34.0674 55.037 34.9731 52.7296 35.4938 49.6521C36.0517 46.3545 36.263 42.5227 35.6931 39.2463C35.1297 36.0078 33.6746 32.6015 30.0814 31.9976C25.973 31.307 25.4347 42.6191 24.8357 45.8597C23.9714 50.5353 21.3153 54.9361 18.8289 58.9307C11.2614 71.0883 10.3087 81.4066 9.91692 95.3047C9.88178 96.5505 9.84476 97.8003 9.84174 99.0459C9.83854 100.354 9.87438 101.671 9.99788 102.941C10.0679 103.66 8.97095 103.766 8.90097 103.047C8.80534 102.063 8.76783 101.064 8.75404 100.071C8.73998 99.0505 8.8196 99.1687 8.32884 99.995C6.61126 102.887 4.1265 105.626 1.80866 107.968C1.30112 108.48 0.518021 107.71 1.02557 107.198C3.21994 104.98 6.1551 101.788 7.81788 98.674C8.47614 97.4412 8.77263 96.8284 8.81075 95.4566C9.20493 81.2802 10.1723 70.7552 17.8922 58.353C20.2956 54.4916 22.9163 50.1822 23.7516 45.6641C24.505 41.5884 24.7959 29.9969 30.2642 30.9161C31.7549 31.1667 33.0423 31.8381 34.0851 32.9389V29.7556C33.729 29.6762 33.4731 29.359 33.4731 28.994V24.8969C33.4731 24.5328 33.7315 24.2151 34.0851 24.1354V22.7661C33.729 22.6866 33.4731 22.3694 33.4731 22.0044V11.3914C33.4731 11.1774 33.5611 10.9827 33.7028 10.8414L33.7044 10.8398C33.8074 10.7372 33.9387 10.6629 34.0851 10.6299V7.90998C34.0851 3.7565 37.4977 0.353516 41.6652 0.353516H77.1756C81.3438 0.353516 84.7564 3.75416 84.7565 7.9092C84.7564 14.031 84.7565 26.9409 84.7565 32.8777C88.432 31.8402 92.3921 32.7765 93.1842 37.3146C94.0557 42.3079 88.4434 44.6503 84.7565 46.2461V47.464C86.6231 47.1157 88.2709 47.1672 89.6484 47.4596C92.5722 48.08 94.9672 49.9814 95.1425 53.1207C95.2719 55.4385 93.9702 57.4638 91.845 58.3879C90.8721 58.811 89.6927 59.0251 88.3194 58.9424C86.8017 59.5082 85.8573 60.1372 84.7565 61.3183V62.1189C88.4129 61.7917 91.6989 62.95 93.3908 66.3912C94.6463 68.9449 93.0792 72.0412 91.3278 73.949C90.0379 75.3539 88.772 76.1804 87.1369 76.2154C86.379 76.2316 85.479 76.0658 84.7565 75.7779L84.7563 75.7779ZM45.9597 99.7093C46.113 99.8626 46.3471 99.6299 46.1938 99.4767L41.0221 94.3216C40.8688 94.1684 40.6348 94.401 40.7881 94.5543L45.9598 99.7093H45.9597ZM43.3745 100.023C43.5281 100.175 43.7608 99.942 43.6073 99.7896L40.8972 97.0883C40.7437 96.9358 40.5109 97.1689 40.6644 97.3212L43.3745 100.023L43.3745 100.023ZM75.34 3.84788C76.3416 3.84788 77.158 4.6609 77.158 5.65931C77.158 6.65771 76.3424 7.47144 75.3407 7.47148C74.3391 7.47148 73.5227 6.65853 73.5227 5.66012C73.5227 4.66094 74.3373 3.84788 75.3399 3.84788H75.34ZM75.3407 4.9472C74.945 4.94723 74.6256 5.26465 74.6256 5.65927C74.6256 6.05488 74.9429 6.37216 75.34 6.37216C75.7369 6.37212 76.0551 6.05588 76.0551 5.66009C76.0551 5.26447 75.7378 4.94723 75.3408 4.94723L75.3407 4.9472ZM52.8129 6.20932C52.0876 6.20985 52.0868 5.11053 52.8122 5.11H53.4393C54.1646 5.10947 54.1655 6.20879 53.4401 6.20932H52.8129ZM56.0552 6.20932C55.3299 6.20985 55.3291 5.11053 56.0545 5.11H62.7861C63.5114 5.10947 63.5123 6.20882 62.7869 6.20932H56.0552ZM16.2277 118.129C15.9557 117.892 16.3181 117.479 16.5901 117.716C18.4431 119.339 19.2129 119.925 20.4813 122.153C20.6597 122.467 20.1808 122.738 20.0024 122.424C18.772 120.26 18.0205 119.699 16.2277 118.129H16.2277ZM16.5062 114.349C16.3989 114.004 16.9246 113.842 17.0319 114.186C17.6269 116.083 19.4137 117.015 20.7728 118.384C22.0742 119.694 22.4416 121.275 23.7886 122.624C24.0434 122.879 23.6539 123.265 23.399 123.01C22.026 121.636 21.655 120.052 20.3806 118.769C18.9187 117.297 17.1644 116.447 16.5062 114.349V114.349ZM83.6535 78.3909V75.1812C82.6333 74.4634 81.8982 73.414 81.5455 72.2204C80.7864 69.6517 81.8254 67.6206 83.6535 65.8295C83.6535 54.7975 83.6535 43.7654 83.6535 32.7334C83.6535 26.084 83.6535 19.4347 83.6535 12.7853V7.90998C83.6535 4.3599 80.7381 1.45283 77.1763 1.45283H41.6658C38.103 1.45283 35.1879 4.35713 35.1879 7.9092V34.4171C35.9651 35.733 36.4757 37.3264 36.7771 39.0593C37.3702 42.4688 37.1543 46.4328 36.5788 49.8343C36.2198 51.9566 35.7198 53.8667 35.1879 55.2929V98.272C35.1879 101.823 38.1025 104.729 41.6651 104.729H77.1755C80.7381 104.729 83.6535 101.824 83.6535 98.2728V88.0526C82.0578 86.9094 81.2703 84.9589 81.3098 83.0326C81.3466 81.2349 82.1056 79.3976 83.6535 78.3909H83.6535ZM84.7563 88.6624V92.2488C85.8946 91.2233 87.1069 90.331 88.3414 89.4246C89.879 88.2955 91.3828 86.7362 91.839 84.8318C92.3243 82.8061 91.5444 80.9626 89.877 79.7696C86.7521 77.534 82.4986 78.7225 82.4098 83.0549C82.3594 85.5145 83.8164 87.5715 86.2851 87.9593C86.9993 88.0701 86.8303 89.1525 86.1161 89.0417C85.6488 88.9683 85.1931 88.8436 84.7563 88.6624V88.6624ZM84.7563 64.7969C84.7913 64.7674 84.8223 64.7421 84.8488 64.7218C85.4236 64.2813 86.0954 65.1524 85.5206 65.5929C83.5153 67.138 81.8294 69.2995 82.6013 71.9117C83.1936 73.916 85.0496 75.1802 87.1381 75.1151C88.4626 75.0739 89.4472 74.3735 90.5168 73.2085C91.9365 71.6621 93.4334 68.977 92.3995 66.874C90.8956 63.815 87.9808 62.9079 84.7563 63.2208V64.7969V64.7969ZM84.7563 59.7716C85.2866 59.2951 85.851 58.8944 86.4803 58.5588C86.1437 58.1678 86.4899 57.5603 87.0056 57.6626C88.8082 58.0254 90.2799 57.8682 91.4041 57.3794C93.107 56.6389 94.1466 55.0433 94.0427 53.1829C93.8954 50.5453 91.8484 49.051 89.4195 48.5356C88.119 48.2595 86.548 48.2208 84.7563 48.5817V59.7716ZM84.7563 45.0478C88.0687 43.6159 92.7933 41.4715 92.1012 37.5059C91.4568 33.8145 87.9166 33.0757 84.7563 34.0743V45.0479V45.0478Z" fill="#323232"/>
</svg>
