<svg width="152" height="90" viewBox="0 0 152 90" fill="none" xmlns="http://www.w3.org/2000/svg">
<path d="M149.08 88.4678C146.726 83.2984 143.418 78.7156 139.371 74.9632C136.241 72.8407 133.066 70.83 129.848 68.893C128.568 68.6925 127.296 68.3778 126.072 67.9132C124.623 67.3954 124.816 65.0746 126.129 64.78C126.367 64.6428 126.634 64.6225 126.932 64.7189C127.043 64.7646 127.154 64.8104 127.303 64.8586C128.694 65.1047 130.091 65.2747 131.454 65.366C131.646 65.3406 131.835 65.3533 131.984 65.4015C133.158 65.4801 134.337 65.4826 135.519 65.4469C106.622 34.5511 67.7493 13.4318 26.5232 4.74165C17.8942 2.93967 9.17893 1.85877 0.425766 0.775365C0.160661 0.757616 0.186161 0.376762 0.453816 0.35642C24.7335 0.22219 49.3393 7.14919 71.393 16.9659C93.6663 26.9121 113.995 40.8982 131.413 58.0179C133.626 60.1937 135.794 62.4812 137.923 64.7662C140.162 62.5824 142.403 60.3605 144.641 58.1766C145.253 57.5672 146.268 57.7499 146.8 58.3211C147.841 57.5492 149.507 58.2346 149.445 59.7225C149.424 60.601 149.363 61.5151 149.342 62.3936C149.885 62.8125 150.14 63.5565 149.563 64.2066C149.442 64.3132 149.356 64.4605 149.235 64.5671C149.06 68.8786 148.846 73.2255 148.671 77.537C149.546 78.6668 150.422 79.7966 151.259 80.9239C151.958 81.8506 150.871 83.3081 149.859 82.5135C149.786 82.4703 149.716 82.3891 149.642 82.3459C150.182 83.9506 150.837 85.5248 151.609 87.0685C152.365 88.8407 149.923 90.0927 149.08 88.4678ZM140.996 68.3004C141.208 68.5441 141.455 68.8285 141.667 69.0722C142.079 68.6024 142.491 68.1326 142.903 67.6629C142.906 67.6248 142.908 67.5867 142.911 67.5486C142.757 67.5766 142.603 67.6045 142.486 67.635C141.976 67.8686 141.469 68.0642 140.996 68.3004ZM144.049 75.5442C144.054 75.468 144.057 75.4299 144.062 75.3537C144.029 75.275 143.996 75.1963 143.964 75.1176C143.33 74.3483 142.695 73.6171 142.061 72.8478C141.816 73.0992 141.538 73.2719 141.228 73.3659C141.515 73.6147 141.801 73.9015 142.088 74.1504C142.742 74.615 143.396 75.0796 144.049 75.5442Z" fill="#92A0AD"/>
</svg>
