<svg width="62" height="67" viewBox="0 0 62 67" fill="none" xmlns="http://www.w3.org/2000/svg">
<path d="M61.72 56.0911C56.6267 45.1043 48.9034 35.0295 40.5955 26.1571C45.5635 19.2333 50.4898 12.3095 55.3743 5.34419C57.2112 2.73221 52.9112 0.286073 51.0743 2.85659C50.9073 3.06389 50.7403 3.27119 50.615 3.51995C50.3228 3.27119 49.9053 3.18826 49.6131 3.5614C44.8956 9.36579 40.2615 15.2116 35.6275 21.0989C27.1527 12.9313 17.5507 5.92462 7.23895 0.244606C5.2768 -0.833352 3.60688 2.02739 5.48553 3.18826C15.2128 9.28287 23.9381 17.6163 31.7032 26.0741C31.1605 26.779 30.576 27.5252 30.0333 28.2301C20.5148 18.943 10.9963 9.65602 1.39424 0.410456C0.642779 -0.335823 -0.484422 0.78359 0.225293 1.57133C9.53508 11.273 18.8449 20.8917 28.2381 30.5104C20.7653 40.0876 13.3759 49.7478 5.94476 59.3665C4.81757 60.8176 6.27875 62.5589 7.82342 62.6833C7.73992 62.8491 7.61467 62.9735 7.53118 63.1393C7.53118 63.1393 7.53118 63.1393 7.57293 63.1393C5.98651 65.9171 9.95256 68.6535 12.1652 65.7928C19.5963 56.0497 26.4847 45.892 33.5819 35.9416C40.7625 43.3215 47.9849 50.7014 55.2073 58.0398C55.9588 58.786 56.9607 58.7031 57.6287 58.1641C57.6704 58.2471 57.7122 58.33 57.7539 58.4129C57.7539 58.4129 57.7957 58.4129 57.7957 58.3714C59.2568 60.7347 63.0559 58.9519 61.72 56.0911ZM35.377 33.454C35.7945 32.8321 36.2537 32.2517 36.6712 31.6298C40.0528 35.6099 43.1839 39.7559 46.1897 44.0263C42.5577 40.5022 38.9674 36.9781 35.377 33.454Z" fill="#5C5C5C"/>
</svg>
