<svg width="21" height="21" viewBox="0 0 21 21" fill="none" xmlns="http://www.w3.org/2000/svg">
<path fill-rule="evenodd" clip-rule="evenodd" d="M5.25 3.9375C5.25 4.66238 4.66238 5.25 3.9375 5.25C3.21262 5.25 2.625 4.66238 2.625 3.9375C2.625 3.21262 3.21262 2.625 3.9375 2.625C4.66238 2.625 5.25 3.21262 5.25 3.9375ZM5.25 10.5C5.25 11.2248 4.66238 11.8125 3.9375 11.8125C3.21262 11.8125 2.625 11.2248 2.625 10.5C2.625 9.77515 3.21262 9.1875 3.9375 9.1875C4.66238 9.1875 5.25 9.77515 5.25 10.5ZM3.9375 18.375C4.66238 18.375 5.25 17.7873 5.25 17.0625C5.25 16.3377 4.66238 15.75 3.9375 15.75C3.21262 15.75 2.625 16.3377 2.625 17.0625C2.625 17.7873 3.21262 18.375 3.9375 18.375ZM11.8125 10.5C11.8125 11.2248 11.2248 11.8125 10.5 11.8125C9.77515 11.8125 9.1875 11.2248 9.1875 10.5C9.1875 9.77515 9.77515 9.1875 10.5 9.1875C11.2248 9.1875 11.8125 9.77515 11.8125 10.5ZM10.5 5.25C11.2248 5.25 11.8125 4.66238 11.8125 3.9375C11.8125 3.21262 11.2248 2.625 10.5 2.625C9.77515 2.625 9.1875 3.21262 9.1875 3.9375C9.1875 4.66238 9.77515 5.25 10.5 5.25ZM11.8125 17.0625C11.8125 17.7873 11.2248 18.375 10.5 18.375C9.77515 18.375 9.1875 17.7873 9.1875 17.0625C9.1875 16.3377 9.77515 15.75 10.5 15.75C11.2248 15.75 11.8125 16.3377 11.8125 17.0625ZM17.0625 11.8125C17.7873 11.8125 18.375 11.2248 18.375 10.5C18.375 9.77515 17.7873 9.1875 17.0625 9.1875C16.3377 9.1875 15.75 9.77515 15.75 10.5C15.75 11.2248 16.3377 11.8125 17.0625 11.8125ZM18.375 3.9375C18.375 4.66238 17.7873 5.25 17.0625 5.25C16.3377 5.25 15.75 4.66238 15.75 3.9375C15.75 3.21262 16.3377 2.625 17.0625 2.625C17.7873 2.625 18.375 3.21262 18.375 3.9375ZM17.0625 18.375C17.7873 18.375 18.375 17.7873 18.375 17.0625C18.375 16.3377 17.7873 15.75 17.0625 15.75C16.3377 15.75 15.75 16.3377 15.75 17.0625C15.75 17.7873 16.3377 18.375 17.0625 18.375Z" fill="white"/>
</svg>
