<svg width="24" height="28" viewBox="0 0 24 28" fill="none" xmlns="http://www.w3.org/2000/svg">
<g clip-path="url(#clip0_4_2289)">
<path d="M21.5 8.74939L21.5 8.46219L21.2519 8.31748L9.99237 1.74981L11.9999 0.578841L23.4999 7.28676L23.4996 20.7126L21.4997 21.8793V19.2496L21.5 8.74939Z" stroke="#35BAEC"/>
<path d="M17.0003 17.5052L17.0008 11.3752L17.0009 11.0879L16.7528 10.9432L11.4924 7.87512L13.5003 6.70384L19.0011 9.91215L19.0008 16.3383L17.0003 17.5052Z" stroke="#35BAEC"/>
<path d="M8.00834 3.50029L1.24853 7.44356L0.508226 7.87541L1.24849 8.30732L8.74709 12.6824L8.99904 12.8293L9.251 12.6824L11.9993 11.0792L14.4999 12.5377L14.4996 15.4639L11.7481 17.069L11.5 17.2137L11.5 17.5009L11.4997 26.2503L11.4996 27.1209L12.2516 26.6822L19 22.7455V23.3379L12 27.4216L0.5 20.7137V14.0003V7.28789L7.50057 3.2039L8.00834 3.50029Z" stroke="white"/>
</g>
<defs>
<clipPath id="clip0_4_2289">
<rect width="24" height="28" fill="white"/>
</clipPath>
</defs>
</svg>
