<svg width="22" height="22" viewBox="0 0 22 22" fill="none" xmlns="http://www.w3.org/2000/svg">
<g clip-path="url(#clip0_4_2260)">
<path d="M14.4719 22.0003C13.6897 22.0003 12.8341 21.8787 11.9786 21.6356C9.53414 20.955 7.04081 19.3262 4.91414 17.0898C2.66525 14.9749 1.07636 12.471 0.367476 10.0157C-0.365857 7.41464 0.000809235 5.12956 1.39414 3.57376C1.61414 3.33066 3.32525 1.38591 5.45192 2.06657C6.55192 2.4069 7.18748 3.50083 7.38303 5.29972C7.5297 6.58812 7.38303 7.92514 7.33414 8.31409C7.28525 8.67873 7.06525 9.55387 5.91636 9.86989C6.38081 10.7693 7.35859 11.9605 8.70303 13.2732L8.72748 13.2975C10.0475 14.6102 11.2453 15.5826 12.1253 16.0445C12.3697 15.2423 12.9075 14.7075 13.6897 14.6102C14.0564 14.5616 15.4008 14.4401 16.6964 14.5616C18.5053 14.7561 19.5808 15.4124 19.9475 16.5064C20.6319 18.6213 18.7008 20.3472 18.4319 20.566C17.4053 21.5141 16.0364 22.0003 14.4719 22.0003ZM4.57192 2.79585C4.10748 2.79585 3.61859 2.94171 3.1297 3.25773C2.54303 3.62237 2.12748 4.08425 2.07859 4.15718C0.880809 5.46989 0.563031 7.48757 1.22303 9.79696C1.85859 12.082 3.39859 14.4644 5.52525 16.482C5.52525 16.482 5.52525 16.482 5.5497 16.5064C7.55414 18.6456 9.9497 20.1528 12.223 20.8091C13.0053 21.0279 13.763 21.1494 14.4719 21.1494C15.8164 21.1494 16.9897 20.7362 17.8453 19.9583C17.9186 19.9097 19.6053 18.4511 19.0919 16.8224C18.8719 16.0931 18.0164 15.6555 16.5986 15.4854C15.4008 15.3638 14.1541 15.4854 13.7875 15.534C13.1275 15.6069 12.9319 16.2389 12.883 16.7494C12.883 16.8953 12.8097 17.0168 12.6875 17.0898C12.5653 17.1627 12.443 17.187 12.2964 17.1384C11.563 16.871 10.2186 16.1174 8.06748 13.9296C5.91636 11.7417 5.15859 10.4047 4.8897 9.67541C4.84081 9.55387 4.86525 9.40801 4.93859 9.28646C5.01192 9.16492 5.13414 9.09199 5.28081 9.09199C5.40303 9.09199 5.50081 9.06768 5.59859 9.04337C6.13636 8.92182 6.4297 8.63011 6.47859 8.19254C6.52748 7.8279 6.6497 6.58812 6.52748 5.37265C6.38081 3.9384 5.94081 3.11188 5.20748 2.86878C4.98748 2.82016 4.76748 2.79585 4.57192 2.79585Z" fill="#786583"/>
<path d="M19.4577 14.5613C19.3599 14.5613 19.2377 14.5127 19.1644 14.4398C18.9933 14.2696 18.9688 14.0022 19.1399 13.832C20.4355 12.3978 21.1444 10.5503 21.1444 8.62983C21.1444 4.35138 17.6488 0.850829 13.371 0.850829C11.4399 0.850829 9.60659 1.5558 8.18881 2.8442C8.0177 3.01436 7.72437 2.99006 7.5777 2.81989C7.40659 2.64972 7.43103 2.35801 7.60215 2.21215C9.16659 0.777901 11.2199 0 13.3466 0C18.1133 0 21.9999 3.8895 21.9999 8.65414C21.9999 10.7934 21.2177 12.8354 19.7755 14.4398C19.7021 14.5127 19.5799 14.5613 19.4577 14.5613Z" fill="#786583"/>
<path d="M13.3462 2.6009C13.1018 2.6009 12.9062 2.40642 12.9062 2.16333V1.75007C12.9062 1.50698 13.1018 1.3125 13.3462 1.3125C13.5907 1.3125 13.7863 1.50698 13.7863 1.75007V2.13902C13.7863 2.40642 13.5907 2.6009 13.3462 2.6009Z" fill="#786583"/>
<path d="M8.7746 4.49725C8.65238 4.49725 8.5546 4.44863 8.45682 4.3757L8.16349 4.08399C7.99238 3.91383 7.99238 3.64642 8.16349 3.47626C8.3346 3.30609 8.60349 3.30609 8.7746 3.47626L9.06793 3.76797C9.23904 3.93814 9.23904 4.20554 9.06793 4.3757C8.9946 4.44863 8.87238 4.49725 8.7746 4.49725Z" fill="#786583"/>
<path d="M18.2101 13.9533C18.0879 13.9533 17.9901 13.9047 17.8924 13.8318L17.599 13.54C17.4279 13.3699 17.4279 13.1025 17.599 12.9323C17.7701 12.7621 18.039 12.7621 18.2101 12.9323L18.5035 13.224C18.6746 13.3942 18.6746 13.6616 18.5035 13.8318C18.4546 13.9047 18.3324 13.9533 18.2101 13.9533Z" fill="#786583"/>
<path d="M20.2393 9.09194H19.8482C19.6038 9.09194 19.4082 8.89746 19.4082 8.65437C19.4082 8.41127 19.6038 8.2168 19.8482 8.2168H20.2393C20.4838 8.2168 20.6793 8.41127 20.6793 8.65437C20.6793 8.89746 20.4838 9.09194 20.2393 9.09194Z" fill="#786583"/>
<path d="M17.9422 4.49725C17.82 4.49725 17.7222 4.44863 17.6244 4.3757C17.4533 4.20554 17.4533 3.93814 17.6244 3.76797L17.9178 3.47626C18.0889 3.30609 18.3578 3.30609 18.5289 3.47626C18.7 3.64642 18.7 3.91383 18.5289 4.08399L18.26 4.3757C18.1622 4.44863 18.04 4.49725 17.9422 4.49725Z" fill="#786583"/>
<path d="M17.9418 9.0913H13.3462C13.1018 9.0913 12.9062 8.89683 12.9062 8.65373V5.10456C12.9062 4.86147 13.1018 4.66699 13.3462 4.66699C13.5907 4.66699 13.7863 4.86147 13.7863 5.10456V8.21616H17.9418C18.1863 8.21616 18.3818 8.41064 18.3818 8.65373C18.3818 8.89683 18.1863 9.0913 17.9418 9.0913Z" fill="#786583"/>
</g>
<defs>
<clipPath id="clip0_4_2260">
<rect width="22" height="22" fill="white"/>
</clipPath>
</defs>
</svg>
