<svg width="42" height="42" viewBox="0 0 42 42" fill="none" xmlns="http://www.w3.org/2000/svg">
<g clip-path="url(#clip0_0_1063)">
<path d="M25.1447 22.1713C25.0071 22.0265 24.8344 21.9199 24.6433 21.8618C24.4523 21.8037 24.2494 21.7962 24.0546 21.8399C23.8597 21.8836 23.6795 21.9771 23.5316 22.1112C23.3836 22.2453 23.273 22.4155 23.2105 22.6051C23.1117 22.8728 22.9192 23.0956 22.6687 23.2322C22.4183 23.3689 22.1268 23.4102 21.8482 23.3484C20.6076 23.0389 18.9359 21.4142 18.6264 20.1293C18.5508 19.8499 18.5858 19.552 18.7243 19.2978C18.8627 19.0435 19.0939 18.8525 19.3697 18.7643C19.5559 18.7017 19.7229 18.5925 19.855 18.4471C19.9871 18.3018 20.0799 18.125 20.1245 17.9337C20.169 17.7424 20.164 17.5429 20.1097 17.3541C20.0555 17.1653 19.9539 16.9935 19.8145 16.855L18.0793 15.1197C17.8513 14.9102 17.553 14.7939 17.2434 14.7939C16.9338 14.7939 16.6355 14.9102 16.4076 15.1197L15.2305 16.3024C14.0534 17.5403 15.3548 20.8229 18.2699 23.7353C21.1851 26.6476 24.4622 28.0071 25.7001 26.7747L26.8772 25.5976C27.0828 25.3705 27.1967 25.0751 27.1967 24.7687C27.1967 24.4623 27.0828 24.1669 26.8772 23.9397L25.1447 22.1713Z" fill="white"/>
<path d="M21 0C16.8466 0 12.7865 1.23163 9.33303 3.53914C5.8796 5.84665 3.18798 9.1264 1.59854 12.9636C0.00909892 16.8009 -0.406771 21.0233 0.403519 25.0969C1.21381 29.1705 3.21386 32.9123 6.15077 35.8492C9.08767 38.7861 12.8295 40.7862 16.9031 41.5965C20.9767 42.4068 25.1991 41.9909 29.0364 40.4015C32.8736 38.812 36.1534 36.1204 38.4609 32.667C40.7684 29.2135 42 25.1534 42 21C42 15.4305 39.7875 10.089 35.8493 6.15076C31.911 2.21249 26.5696 0 21 0ZM21 32.0526C18.8379 32.0567 16.7229 31.4212 14.9211 30.2262L10.6741 31.5857L12.0557 27.4796C10.8622 25.8304 10.1474 23.8836 9.99014 21.8539C9.83286 19.8243 10.2392 17.7906 11.1643 15.9772C12.0894 14.1638 13.4974 12.6412 15.233 11.5772C16.9686 10.5132 18.9643 9.94916 21 9.94737C23.9314 9.94737 26.7426 11.1118 28.8154 13.1846C30.8882 15.2574 32.0526 18.0687 32.0526 21C32.0526 23.9313 30.8882 26.7426 28.8154 28.8154C26.7426 30.8882 23.9314 32.0526 21 32.0526Z" fill="white"/>
</g>
<defs>
<clipPath id="clip0_0_1063">
<rect width="42" height="42" fill="white"/>
</clipPath>
</defs>
</svg>
