<svg width="42" height="42" viewBox="0 0 42 42" fill="none" xmlns="http://www.w3.org/2000/svg">
<g clip-path="url(#clip0_0_1055)">
<path d="M18.375 25.1503L24.1997 21.7709L18.375 18.375V25.1503Z" fill="white"/>
<path d="M21 0C16.8466 0 12.7865 1.23163 9.33303 3.53914C5.8796 5.84665 3.18798 9.1264 1.59854 12.9636C0.00909892 16.8009 -0.406771 21.0233 0.403519 25.0969C1.21381 29.1705 3.21386 32.9123 6.15077 35.8492C9.08767 38.7861 12.8295 40.7862 16.9031 41.5965C20.9767 42.4068 25.1991 41.9909 29.0364 40.4015C32.8736 38.812 36.1534 36.1204 38.4609 32.667C40.7684 29.2135 42 25.1534 42 21C42 15.4305 39.7875 10.089 35.8493 6.15076C31.911 2.21249 26.5696 0 21 0ZM32.0526 24.7164C32.053 25.2657 31.9451 25.8096 31.7352 26.3172C31.5253 26.8247 31.2174 27.2859 30.8291 27.6744C30.4409 28.0629 29.9799 28.3711 29.4725 28.5814C28.9651 28.7916 28.4212 28.8999 27.872 28.8999H14.128C13.5788 28.8999 13.0349 28.7916 12.5275 28.5814C12.0201 28.3711 11.5591 28.0629 11.1709 27.6744C10.7826 27.2859 10.4748 26.8247 10.2648 26.3172C10.0549 25.8096 9.94702 25.2657 9.94738 24.7164V17.2836C9.94702 16.7343 10.0549 16.1904 10.2648 15.6828C10.4748 15.1753 10.7826 14.7141 11.1709 14.3256C11.5591 13.9371 12.0201 13.6289 12.5275 13.4186C13.0349 13.2084 13.5788 13.1001 14.128 13.1001H27.872C28.4212 13.1001 28.9651 13.2084 29.4725 13.4186C29.9799 13.6289 30.4409 13.9371 30.8291 14.3256C31.2174 14.7141 31.5253 15.1753 31.7352 15.6828C31.9451 16.1904 32.053 16.7343 32.0526 17.2836V24.7164Z" fill="white"/>
</g>
<defs>
<clipPath id="clip0_0_1055">
<rect width="42" height="42" fill="white"/>
</clipPath>
</defs>
</svg>
