<svg width="503" height="212" viewBox="0 0 503 212" fill="none" xmlns="http://www.w3.org/2000/svg">
<path d="M502.607 3.66644C502.699 3.0548 502.278 2.48445 501.666 2.39252L491.699 0.894548C491.087 0.802625 490.517 1.22394 490.425 1.83558C490.333 2.44723 490.755 3.01758 491.366 3.1095L500.226 4.44104L498.895 13.3009C498.803 13.9125 499.224 14.4828 499.836 14.5748C500.447 14.6667 501.018 14.2454 501.109 13.6337L502.607 3.66644ZM1.04831 211.405C79.9825 196.233 180.351 162.876 273.41 124.135C366.458 85.3974 452.306 41.2313 502.165 4.4008L500.835 2.5992C451.194 39.2687 365.542 83.3526 272.549 122.067C179.568 160.776 79.3544 194.073 0.62552 209.205L1.04831 211.405Z" fill="url(#paint0_linear_0_4399)"/>
<defs>
<linearGradient id="paint0_linear_0_4399" x1="473.441" y1="15.9998" x2="-13.7219" y2="210.865" gradientUnits="userSpaceOnUse">
<stop stop-color="white"/>
<stop offset="1" stop-color="#35BAEC" stop-opacity="0"/>
</linearGradient>
</defs>
</svg>
