<svg width="168" height="165" viewBox="0 0 168 165" fill="none" xmlns="http://www.w3.org/2000/svg">
<g filter="url(#filter0_d_0_4096)">
<path d="M138.505 16.8357L47.1934 2.37345C38.9172 1.06263 31.1454 6.70918 29.8346 14.9854L16.3731 99.9776C15.0623 108.254 20.7088 116.026 28.985 117.336L120.296 131.799C128.572 133.11 136.344 127.463 137.655 119.187L151.116 34.1946C152.427 25.9184 146.781 18.1465 138.505 16.8357Z" fill="white"/>
<path d="M66.1647 21.1014L48.2852 18.2695L45.4533 36.1491L63.3329 38.9809L66.1647 21.1014Z" fill="#1A1A1A"/>
<path d="M66.1486 21.0988L68.7052 21.5037L68.3002 24.0603L70.8568 24.4652L70.4518 27.0217L67.8953 26.6168L67.4904 29.1733L70.0469 29.5782L69.642 32.1347L67.0855 31.7298L66.6806 34.2863L69.2371 34.6913L68.8347 37.2317L66.2782 36.8268L65.4684 41.9398L73.138 43.1546L72.3281 48.2676L69.7716 47.8627L70.1765 45.3062L67.62 44.9013L67.2151 47.4578L59.5616 46.2456L59.9665 43.6891L62.507 44.0914L62.9119 41.5349L57.8149 40.7276L57.41 43.2841L54.8535 42.8792L54.4486 45.4358L57.0051 45.8407L56.6002 48.3972L51.4871 47.5874L52.297 42.4743L49.7404 42.0694L48.9306 47.1824L43.8337 46.3752L44.2386 43.8187L46.779 44.221L47.1839 41.6645L44.6435 41.2621L45.4533 36.1491L63.3168 38.9784L66.1486 21.0988Z" fill="white"/>
<path d="M68.7051 21.5049L76.3747 22.7196L75.9698 25.2761L73.4133 24.8712L73.0084 27.4277L75.5649 27.8327L75.9698 25.2761L78.5263 25.6811L78.9312 23.1245L81.4717 23.5269L81.0668 26.0834L83.6233 26.4883L84.0282 23.9318L91.6977 25.1466L91.2928 27.7031L86.1798 26.8932L85.7749 29.4498L88.3314 29.8547L87.5216 34.9677L77.3116 33.3506L77.7165 30.7941L82.8134 31.6014L83.2184 29.0449L78.1214 28.2376L77.7165 30.7941L75.16 30.3892L74.755 32.9457L69.642 32.1359L70.0469 29.5794L67.4904 29.1744L67.8953 26.6179L70.4518 27.0228L70.8567 24.4663L68.3002 24.0614L68.7051 21.5049Z" fill="#1A1A1A"/>
<path d="M78.9315 23.1246L76.375 22.7197L75.9701 25.2762L78.5266 25.6812L78.9315 23.1246Z" fill="white"/>
<path d="M84.0283 23.9323L81.4717 23.5273L81.0668 26.0839L83.6233 26.4888L84.0283 23.9323Z" fill="white"/>
<path d="M91.6982 25.147L94.2547 25.5519L93.4449 30.665L96.0014 31.0699L95.5965 33.6264L90.4834 32.8166L89.6736 37.9296L84.5606 37.1198L84.1582 39.6602L81.6017 39.2553L82.004 36.7149L76.9071 35.9076L77.312 33.3511L87.522 34.9682L88.3318 29.8551L85.7753 29.4502L86.1802 26.8937L91.2932 27.7035L91.6982 25.147Z" fill="white"/>
<path d="M94.2543 25.5507L104.464 27.1678L104.059 29.7243L101.503 29.3194L101.098 31.8759L98.5414 31.471L98.1365 34.0275L100.693 34.4324L101.098 31.8759L103.654 32.2808L102.845 37.3939L100.288 36.9889L99.8832 39.5455L102.44 39.9504L102.845 37.3939L105.401 37.7988L104.189 45.4523L101.632 45.0473L102.037 42.4908L99.4808 42.0859L99.0759 44.6424L96.5194 44.2375L97.7316 36.584L95.1911 36.1817L93.9789 43.8351L96.5194 44.2375L96.1145 46.794L91.0175 45.9868L91.8273 40.8737L89.2708 40.4688L88.8659 43.0253L86.3094 42.6204L86.7143 40.0639L84.1578 39.659L84.5602 37.1185L89.6732 37.9284L90.483 32.8153L95.5961 33.6251L96.001 31.0686L93.4444 30.6637L94.2543 25.5507Z" fill="#1A1A1A"/>
<path d="M104.464 27.1674L114.674 28.7845L111.842 46.6641L129.722 49.4959L129.317 52.0525L126.761 51.6475L126.356 54.2041L128.912 54.609L128.102 59.722L125.546 59.3171L125.951 56.7606L123.394 56.3557L124.204 51.2426L121.664 50.8403L120.854 55.9533L123.394 56.3557L122.989 58.9122L117.892 58.1049L119.107 50.4354L116.551 50.0304L116.146 52.587L113.589 52.182L113.994 49.6255L111.438 49.2206L111.033 51.7771L113.589 52.182L112.779 57.2951L117.892 58.1049L117.49 60.6454L109.82 59.4306L109.011 64.5437L106.454 64.1387L107.264 59.0257L102.167 58.2184L101.357 63.3315L106.454 64.1387L106.049 66.6953L108.606 67.1002L108.201 69.6567L110.757 70.0616L110.352 72.6181L107.796 72.2132L107.393 74.7537L104.837 74.3487L104.027 79.4618L101.487 79.0594L101.082 81.6159L103.622 82.0183L103.217 84.5748L98.1203 83.7675L99.3351 76.098L101.892 76.5029L102.699 71.4059L100.142 71.001L99.3351 76.098L96.7786 75.6931L95.9687 80.8061L93.4122 80.4012L93.8171 77.8447L88.7202 77.0374L88.3153 79.5939L85.7587 79.189L86.5686 74.076L89.1251 74.4809L89.53 71.9244L94.627 72.7316L95.0293 70.1912L89.9324 69.3839L89.53 71.9244L86.9735 71.5194L86.5686 74.076L81.4555 73.2661L81.8604 70.7096L84.417 71.1145L84.8193 68.5741L87.3758 68.979L87.7808 66.4225L85.2242 66.0176L84.8193 68.5741L82.2628 68.1692L82.6677 65.6127L80.1112 65.2077L80.5161 62.6512L77.9596 62.2463L78.3645 59.6898L68.1545 58.0727L67.3447 63.1857L64.7882 62.7808L64.3832 65.3373L59.2702 64.5275L59.6751 61.971L57.1347 61.5686L56.7298 64.1251L59.2702 64.5275L58.8678 67.068L53.7709 66.2607L53.366 68.8172L58.4629 69.6245L58.058 72.181L47.848 70.5639L47.4431 73.1204L44.8866 72.7155L44.4817 75.272L47.0382 75.6769L47.4431 73.1204L49.9996 73.5253L49.5947 76.0818L52.1512 76.4867L51.7463 79.0433L56.8433 79.8506L56.4409 82.391L48.7874 81.1788L49.1898 78.6384L44.0768 77.8285L43.6744 80.369L41.1179 79.9641L42.735 69.7541L45.2915 70.159L45.6964 67.6025L50.8095 68.4123L51.2144 65.8558L46.1013 65.0459L46.5037 62.5055L43.9472 62.1006L43.5448 64.641L41.0044 64.2387L42.2166 56.5852L47.3135 57.3924L46.9086 59.949L52.0216 60.7588L51.6167 63.3153L54.1732 63.7202L54.9831 58.6072L52.4266 58.2023L52.8315 55.6458L45.1619 54.431L45.5668 51.8745L48.1233 52.2794L48.5283 49.7229L53.6413 50.5327L53.2364 53.0892L55.7929 53.4942L55.388 56.0507L57.9445 56.4556L57.5396 59.0121L65.1931 60.2243L65.598 57.6678L63.0415 57.2629L63.4464 54.7063L66.0029 55.1113L66.4078 52.5547L58.7543 51.3425L59.1567 48.8021L66.8102 50.0143L67.2151 47.4578L69.7716 47.8627L69.3667 50.4192L71.9232 50.8241L71.1159 55.9211L73.6725 56.326L74.0774 53.7695L79.1743 54.5768L79.5767 52.0363L77.0202 51.6314L77.83 46.5184L82.943 47.3282L82.1332 52.4412L87.2463 53.251L86.8439 55.7915L81.7309 54.9817L81.3259 57.5382L83.8825 57.9431L83.0726 63.0561L90.7422 64.2709L91.1471 61.7144L93.6875 62.1167L92.8777 67.2298L95.4342 67.6347L96.2441 62.5216L93.6875 62.1167L94.0925 59.5602L91.552 59.1578L91.9569 56.6013L97.0539 57.4086L96.649 59.9651L99.2055 60.37L100.013 55.2731L102.569 55.678L102.974 53.1215L105.531 53.5264L105.936 50.9699L108.476 51.3722L109.691 43.7027L107.15 43.3003L105.936 50.9699L103.379 50.5649L103.784 48.0084L101.228 47.6035L100.823 50.16L98.2661 49.7551L98.671 47.1986L96.1145 46.7937L96.5194 44.2372L99.0759 44.6421L99.4808 42.0856L102.037 42.4905L101.632 45.047L104.189 45.4519L105.401 37.7984L102.845 37.3935L103.654 32.2805L101.098 31.8756L101.503 29.319L104.059 29.724L104.464 27.1674Z" fill="white"/>
<path d="M132.553 31.618L114.674 28.7861L111.842 46.6657L129.722 49.4975L132.553 31.618Z" fill="#1A1A1A"/>
<path d="M63.1872 23.2515L50.4207 21.2295L48.3986 33.996L61.1652 36.018L63.1872 23.2515Z" fill="white"/>
<path d="M75.9698 25.275L73.4133 24.8701L73.0084 27.4266L75.5649 27.8316L75.9698 25.275Z" fill="white"/>
<path d="M109.173 30.5338L111.713 30.9362L110.903 36.0492L105.806 35.2419L106.211 32.6854L108.768 33.0903L109.173 30.5338Z" fill="#1A1A1A"/>
<path d="M129.593 33.7681L116.826 31.7461L114.804 44.5126L127.571 46.5346L129.593 33.7681Z" fill="white"/>
<path d="M60.2419 25.4042L52.5723 24.1895L51.3576 31.859L59.0271 33.0738L60.2419 25.4042Z" fill="#1A1A1A"/>
<path d="M83.2341 29.0471L78.1211 28.2373L77.7162 30.7938L82.8292 31.6037L83.2341 29.0471Z" fill="white"/>
<path d="M101.098 31.8756L98.541 31.4707L98.1361 34.0272L100.693 34.4321L101.098 31.8756Z" fill="white"/>
<path d="M126.631 35.9202L118.977 34.708L117.763 42.3776L125.416 43.5898L126.631 35.9202Z" fill="#1A1A1A"/>
<path d="M77.7166 30.7936L75.16 30.3887L74.7551 32.9452L77.3116 33.3501L77.7166 30.7936Z" fill="white"/>
<path d="M69.6425 32.1354L67.0859 31.7305L66.681 34.287L69.2375 34.6919L69.6425 32.1354Z" fill="#1A1A1A"/>
<path d="M74.7546 32.9456L69.6416 32.1357L69.2367 34.6923L74.3497 35.5021L74.7546 32.9456Z" fill="white"/>
<path d="M74.7555 32.9452L77.312 33.3501L76.9071 35.9066L82.0041 36.7139L81.6017 39.2544L79.0452 38.8494L78.6403 41.406L76.0998 41.0036L76.5047 38.4471L73.9482 38.0422L73.5433 40.5987L76.0998 41.0036L75.6949 43.5601L80.7919 44.3674L81.6017 39.2544L84.1582 39.6593L82.9435 47.3288L77.8304 46.519L77.0206 51.632L79.5771 52.037L79.1748 54.5774L74.0778 53.7701L73.6729 56.3266L71.1164 55.9217L71.9237 50.8248L69.3671 50.4199L69.772 47.8633L72.3286 48.2682L73.1384 43.1552L65.4688 41.9405L66.2787 36.8274L68.8352 37.2323L68.4303 39.7889L70.9868 40.1938L71.3917 37.6373L68.8352 37.2323L69.2375 34.6919L74.3506 35.5017L74.7555 32.9452Z" fill="#1A1A1A"/>
<path d="M97.7479 36.5866L95.1914 36.1816L93.9792 43.8351L96.5357 44.24L97.7479 36.5866Z" fill="white"/>
<path d="M102.845 37.3942L100.288 36.9893L99.8832 39.5458L102.44 39.9507L102.845 37.3942Z" fill="white"/>
<path d="M110.515 38.608L107.958 38.2031L107.553 40.7596L110.11 41.1646L110.515 38.608Z" fill="#1A1A1A"/>
<path d="M71.3915 37.6373L68.835 37.2324L68.43 39.7889L70.9866 40.1939L71.3915 37.6373Z" fill="white"/>
<path d="M76.5048 38.4479L73.9482 38.043L73.5433 40.5995L76.0998 41.0044L76.5048 38.4479Z" fill="white"/>
<path d="M79.0444 38.8496L81.6009 39.2545L80.791 44.3676L75.6941 43.5603L76.099 41.0038L78.6394 41.4062L79.0444 38.8496Z" fill="white"/>
<path d="M84.1582 39.6602L86.7147 40.0651L86.3098 42.6216L88.8663 43.0265L89.2712 40.47L91.8278 40.8749L91.0179 45.9879L88.4614 45.583L87.6516 50.6961L85.0951 50.2911L85.5 47.7346L82.9435 47.3297L84.1582 39.6602Z" fill="white"/>
<path d="M109.707 43.7057L107.15 43.3008L105.936 50.9703L108.492 51.3753L109.707 43.7057Z" fill="#1A1A1A"/>
<path d="M57.8153 40.7281L62.9123 41.5354L62.5074 44.0919L59.967 43.6895L59.562 46.246L67.2155 47.4582L66.8106 50.0147L59.1571 48.8025L58.7548 51.343L66.4082 52.5552L66.0033 55.1117L63.4468 54.7068L63.0419 57.2633L65.5984 57.6682L65.1935 60.2247L57.54 59.0125L57.9449 56.456L60.4854 56.8584L60.8903 54.3019L58.3499 53.8995L57.9449 56.456L55.3884 56.0511L55.7933 53.4946L53.2368 53.0897L53.6417 50.5332L48.5287 49.7233L48.1238 52.2799L45.5673 51.8749L45.1623 54.4315L52.8319 55.6462L52.427 58.2027L54.9835 58.6076L54.1737 63.7207L51.6172 63.3158L52.0221 60.7592L46.909 59.9494L47.3139 57.3929L42.217 56.5856L43.8341 46.3756L48.9311 47.1829L49.7409 42.0699L52.2974 42.4748L51.4876 47.5878L56.6006 48.3976L57.0055 45.8411L54.449 45.4362L54.8539 42.8797L57.4104 43.2846L57.8153 40.7281Z" fill="#1A1A1A"/>
<path d="M88.461 45.582L91.0175 45.9869L90.6126 48.5435L93.1691 48.9484L92.7642 51.5049L95.3047 51.9073L94.8997 54.4638L100.013 55.2736L99.2055 60.3706L96.649 59.9657L97.0539 57.4091L91.9569 56.6019L91.552 59.1584L88.9955 58.7535L89.4004 56.1969L86.8439 55.792L87.2463 53.2516L89.8028 53.6565L90.2077 51.1L87.6512 50.6951L88.461 45.582Z" fill="#1A1A1A"/>
<path d="M91.0175 45.9873L96.1145 46.7946L95.3047 51.9076L92.7642 51.5053L93.1691 48.9487L90.6126 48.5438L91.0175 45.9873Z" fill="white"/>
<path d="M96.1143 46.7949L98.6708 47.1998L98.2659 49.7564L100.822 50.1613L101.227 47.6047L103.784 48.0097L103.379 50.5662L105.935 50.9711L105.531 53.5276L102.974 53.1227L102.569 55.6792L100.013 55.2743L100.417 52.7178L95.3044 51.908L96.1143 46.7949Z" fill="#1A1A1A"/>
<path d="M113.994 49.6256L111.438 49.2207L111.033 51.7772L113.589 52.1821L113.994 49.6256Z" fill="#1A1A1A"/>
<path d="M116.551 50.0309L119.107 50.4358L117.892 58.1054L112.779 57.2955L113.589 52.1825L116.146 52.5874L116.551 50.0309Z" fill="#1A1A1A"/>
<path d="M124.221 51.2457L121.664 50.8408L120.854 55.9539L123.411 56.3588L124.221 51.2457Z" fill="#1A1A1A"/>
<path d="M129.317 52.0533L126.761 51.6484L126.356 54.205L128.912 54.6099L129.317 52.0533Z" fill="#1A1A1A"/>
<path d="M47.2 41.6676L44.6435 41.2627L44.2386 43.8192L46.7951 44.2241L47.2 41.6676Z" fill="#1A1A1A"/>
<path d="M70.1765 45.3063L67.62 44.9014L67.2151 47.4579L69.7716 47.8628L70.1765 45.3063Z" fill="#1A1A1A"/>
<path d="M82.9434 47.3291L85.4999 47.734L85.095 50.2905L87.6515 50.6954L87.2466 53.252L82.1335 52.4421L82.9434 47.3291Z" fill="#1A1A1A"/>
<path d="M90.2076 51.1012L87.6511 50.6963L87.2462 53.2528L89.8027 53.6577L90.2076 51.1012Z" fill="white"/>
<path d="M100.418 52.7171L95.3047 51.9072L94.8998 54.4637L100.013 55.2736L100.418 52.7171Z" fill="white"/>
<path d="M110.628 54.3346L108.071 53.9297L107.666 56.4862L110.223 56.8911L110.628 54.3346Z" fill="#1A1A1A"/>
<path d="M123.394 56.3566L125.951 56.7615L125.546 59.3181L128.102 59.723L127.7 62.2634L120.046 61.0512L119.642 63.6077L124.739 64.415L123.929 69.528L121.372 69.1231L120.967 71.6797L118.427 71.2773L118.832 68.7208L113.719 67.9109L113.314 70.4675L115.87 70.8724L115.465 73.4289L110.352 72.6191L110.757 70.0626L108.201 69.6576L108.606 67.1011L106.049 66.6962L106.454 64.1397L109.011 64.5446L109.82 59.4316L117.49 60.6463L117.892 58.1059L122.989 58.9131L123.394 56.3566Z" fill="#1A1A1A"/>
<path d="M81.7305 54.9814L86.8435 55.7913L86.4386 58.3478L88.9951 58.7527L88.5902 61.3092L91.1467 61.7141L90.7418 64.2707L83.0722 63.0559L83.8821 57.9429L81.3256 57.538L81.7305 54.9814Z" fill="#1A1A1A"/>
<path d="M89.4004 56.1979L86.8439 55.793L86.439 58.3495L88.9955 58.7544L89.4004 56.1979Z" fill="white"/>
<path d="M107.28 59.0286L102.167 58.2188L101.357 63.3318L106.47 64.1416L107.28 59.0286Z" fill="#1A1A1A"/>
<path d="M120.047 61.0518L127.7 62.2639L126.486 69.9335L123.929 69.5286L124.739 64.4156L119.642 63.6083L120.047 61.0518Z" fill="white"/>
<path d="M60.9059 54.3043L58.3494 53.8994L57.9445 56.4559L60.501 56.8608L60.9059 54.3043Z" fill="white"/>
<path d="M91.5516 59.1598L88.9951 58.7549L88.5902 61.3114L91.1467 61.7163L91.5516 59.1598Z" fill="white"/>
<path d="M94.1083 59.5631L91.5518 59.1582L91.1468 61.7147L93.7034 62.1196L94.1083 59.5631Z" fill="#1A1A1A"/>
<path d="M68.1542 58.0739L78.3642 59.691L77.9593 62.2475L80.5158 62.6524L80.1109 65.2089L72.4574 63.9967L72.0525 66.5532L69.496 66.1483L69.0936 68.6888L71.6501 69.0937L71.2452 71.6502L63.5756 70.4355L63.9806 67.8789L66.5371 68.2839L66.9394 65.7434L64.3829 65.3385L64.7878 62.782L67.3444 63.1869L68.1542 58.0739Z" fill="#1A1A1A"/>
<path d="M96.2441 62.5221L93.6876 62.1172L92.8777 67.2302L95.4343 67.6351L96.2441 62.5221Z" fill="#1A1A1A"/>
<path d="M113.719 67.9111L118.832 68.721L118.427 71.2775L120.967 71.6798L120.562 74.2364L115.465 73.4291L115.87 70.8726L113.314 70.4677L113.719 67.9111Z" fill="white"/>
<path d="M123.929 69.528L121.372 69.123L120.967 71.6796L123.524 72.0845L123.929 69.528Z" fill="white"/>
<path d="M123.929 69.528L126.485 69.9329L124.868 80.1429L122.312 79.738L123.119 74.641L120.562 74.2361L120.967 71.6796L123.524 72.0845L123.929 69.528Z" fill="#1A1A1A"/>
<path d="M59.6912 61.9752L57.1347 61.5703L56.7298 64.1268L59.2863 64.5317L59.6912 61.9752Z" fill="#1A1A1A"/>
<path d="M72.4577 63.9964L80.1112 65.2086L79.3039 70.3056L76.7474 69.9007L77.1498 67.3602L74.5933 66.9553L73.3811 74.6088L78.4941 75.4186L78.899 72.8621L81.4555 73.267L80.6457 78.3801L70.4357 76.763L70.8406 74.2064L68.2841 73.8015L67.8792 76.3581L65.3227 75.9531L64.5128 81.0662L61.9563 80.6613L61.149 85.7582L58.5925 85.3533L58.1876 87.9098L63.3006 88.7197L63.7056 86.1631L66.2621 86.568L66.667 84.0115L69.2235 84.4164L70.0308 79.3195L72.5712 79.7219L72.1663 82.2784L74.7228 82.6833L75.1278 80.1268L80.2408 80.9366L79.8359 83.4931L77.2794 83.0882L76.877 85.6286L74.3205 85.2237L73.9156 87.7802L71.359 87.3753L70.5492 92.4884L68.0088 92.086L68.4137 89.5295L65.8572 89.1246L65.0473 94.2376L62.4908 93.8327L62.0859 96.3892L59.5294 95.9843L59.127 98.5247L61.6835 98.9297L61.2786 101.486L63.8351 101.891L63.4302 104.448L58.3172 103.638L57.9123 106.194L52.7992 105.384L55.6311 87.5049L37.7676 84.6756L38.1725 82.1191L43.2695 82.9264L43.6744 80.3699L46.2309 80.7748L45.826 83.3313L56.036 84.9484L56.4409 82.3919L58.9974 82.7968L59.3998 80.2564L56.8433 79.8514L57.2482 77.2949L52.1512 76.4876L52.5561 73.9311L60.2096 75.1433L60.6145 72.5868L63.1711 72.9917L63.576 70.4352L71.2455 71.6499L71.6504 69.0934L69.0939 68.6885L69.4963 66.148L72.0528 66.553L72.4577 63.9964Z" fill="white"/>
<path d="M80.1113 65.2083L82.6678 65.6132L82.2629 68.1697L84.8194 68.5746L84.417 71.1151L81.8605 70.7101L81.4556 73.2667L78.8991 72.8617L78.4942 75.4183L73.3811 74.6084L74.5933 66.955L77.1498 67.3599L76.7475 69.9003L79.304 70.3052L80.1113 65.2083Z" fill="#1A1A1A"/>
<path d="M87.7811 66.4225L85.2246 66.0176L84.8197 68.5741L87.3762 68.979L87.7811 66.4225Z" fill="#1A1A1A"/>
<path d="M46.5037 62.5055L43.9471 62.1006L43.5422 64.6571L46.0988 65.062L46.5037 62.5055Z" fill="#1A1A1A"/>
<path d="M64.3835 65.3381L59.2705 64.5283L58.8656 67.0848L63.9786 67.8947L64.3835 65.3381Z" fill="#1A1A1A"/>
<path d="M66.9393 65.7428L64.3828 65.3379L63.9779 67.8944L66.5344 68.2993L66.9393 65.7428Z" fill="white"/>
<path d="M95.0457 70.1946L89.9326 69.3848L89.5277 71.9413L94.6407 72.7511L95.0457 70.1946Z" fill="#1A1A1A"/>
<path d="M102.699 71.4069L100.142 71.002L99.3325 76.115L101.889 76.5199L102.699 71.4069Z" fill="#1A1A1A"/>
<path d="M107.796 72.2145L110.352 72.6194L109.95 75.1598L115.063 75.9697L114.658 78.5262L112.102 78.1213L111.697 80.6778L109.14 80.2729L109.545 77.7164L106.989 77.3114L106.584 79.868L104.027 79.4631L104.837 74.35L107.393 74.7549L107.796 72.2145Z" fill="#1A1A1A"/>
<path d="M115.465 73.429L110.352 72.6191L109.947 75.1757L115.06 75.9855L115.465 73.429Z" fill="white"/>
<path d="M120.579 74.2376L115.466 73.4277L115.061 75.9843L120.174 76.7941L120.579 74.2376Z" fill="#1A1A1A"/>
<path d="M120.563 74.235L123.119 74.6399L122.312 79.7369L124.869 80.1418L123.249 90.3679L120.692 89.963L121.907 82.2934L119.351 81.8885L119.756 79.332L114.659 78.5247L115.063 75.9682L120.16 76.7755L120.563 74.235Z" fill="white"/>
<path d="M41.0039 64.2393L43.5443 64.6416L43.1394 67.1981L45.696 67.6031L45.291 70.1596L42.7345 69.7547L41.1174 79.9647L43.6739 80.3696L43.269 82.9261L38.1721 82.1188L41.0039 64.2393Z" fill="#1A1A1A"/>
<path d="M46.1013 65.0465L43.5448 64.6416L43.1399 67.1981L45.6964 67.603L46.1013 65.0465Z" fill="white"/>
<path d="M51.2146 65.8567L46.1016 65.0469L45.6966 67.6034L50.8097 68.4132L51.2146 65.8567Z" fill="#1A1A1A"/>
<path d="M58.8835 67.0715L53.7705 66.2617L53.3656 68.8182L58.4786 69.6281L58.8835 67.0715Z" fill="#1A1A1A"/>
<path d="M63.9812 67.8792L58.8682 67.0693L58.4633 69.6259L63.5763 70.4357L63.9812 67.8792Z" fill="white"/>
<path d="M89.53 71.9254L86.9735 71.5205L86.5686 74.077L89.1251 74.4819L89.53 71.9254Z" fill="#1A1A1A"/>
<path d="M58.4629 69.6259L63.576 70.4357L63.1711 72.9922L60.6145 72.5873L60.2096 75.1438L52.5561 73.9317L52.1512 76.4882L49.5947 76.0833L49.9996 73.5267L47.4431 73.1218L47.848 70.5653L58.058 72.1824L58.4629 69.6259Z" fill="#1A1A1A"/>
<path d="M86.5681 74.0774L81.4551 73.2676L80.6453 78.3806L85.7583 79.1904L86.5681 74.0774Z" fill="#1A1A1A"/>
<path d="M96.7791 75.6936L99.3356 76.0985L98.1208 83.7681L95.5643 83.3632L95.1594 85.9197L90.0464 85.1099L90.4513 82.5533L93.0078 82.9583L93.4127 80.4017L95.9692 80.8067L96.7791 75.6936Z" fill="#1A1A1A"/>
<path d="M106.988 77.3112L109.545 77.7161L109.14 80.2726L111.696 80.6775L111.291 83.234L103.622 82.0193L104.027 79.4628L106.583 79.8677L106.988 77.3112Z" fill="white"/>
<path d="M114.658 78.526L112.102 78.1211L111.697 80.6776L114.253 81.0825L114.658 78.526Z" fill="white"/>
<path d="M119.771 79.3362L114.658 78.5264L114.253 81.0829L119.366 81.8927L119.771 79.3362Z" fill="#1A1A1A"/>
<path d="M68.2838 73.8017L70.8403 74.2066L70.4354 76.7631L80.6454 78.3802L80.2405 80.9367L75.1275 80.1269L74.7226 82.6834L72.166 82.2785L72.571 79.722L70.0305 79.3196L69.2232 84.4166L66.6667 84.0117L66.2618 86.5682L63.7053 86.1633L63.3004 88.7198L58.1873 87.91L58.5922 85.3534L61.1488 85.7583L61.956 80.6614L64.5126 81.0663L65.3224 75.9533L67.8789 76.3582L68.2838 73.8017Z" fill="#1A1A1A"/>
<path d="M88.7206 77.0377L93.8175 77.845L93.4126 80.4015L90.8561 79.9966L90.4512 82.5531L85.3542 81.7459L85.7591 79.1893L88.3157 79.5942L88.7206 77.0377Z" fill="#1A1A1A"/>
<path d="M104.043 79.4655L101.486 79.0605L101.081 81.6171L103.638 82.022L104.043 79.4655Z" fill="#1A1A1A"/>
<path d="M111.697 80.6769L114.254 81.0818L113.849 83.6384L118.946 84.4456L119.351 81.8891L121.907 82.294L120.692 89.9636L123.249 90.3685L122.846 92.9089L115.193 91.6968L115.595 89.1563L118.136 89.5587L118.541 87.0022L110.887 85.79L110.482 88.3465L107.926 87.9416L107.523 90.482L115.193 91.6968L114.383 96.8098L111.827 96.4049L111.422 98.9614L113.978 99.3663L114.383 96.8098L119.48 97.6171L119.075 100.174L116.519 99.7687L116.114 102.325L111.017 101.518L108.995 114.284L106.438 113.88L106.843 111.323L101.73 110.513L102.135 107.957L107.248 108.766L107.653 106.21L105.097 105.805L105.499 103.265L102.942 102.86L102.135 107.957L94.4816 106.744L94.8865 104.188L97.443 104.593L98.2503 99.4959L95.6938 99.091L96.5036 93.978L93.9471 93.573L94.352 91.0165L99.465 91.8263L99.87 89.2698L102.41 89.6722L102.813 87.1318L105.369 87.5367L105.774 84.9801L103.218 84.5752L103.623 82.0187L111.292 83.2335L111.697 80.6769Z" fill="#1A1A1A"/>
<path d="M119.366 81.8928L114.253 81.083L113.848 83.6395L118.961 84.4494L119.366 81.8928Z" fill="white"/>
<path d="M47.4431 73.1207L44.8866 72.7158L44.4817 75.2723L47.0382 75.6773L47.4431 73.1207Z" fill="#1A1A1A"/>
<path d="M80.6457 78.3799L85.7587 79.1897L85.3538 81.7462L90.4508 82.5535L90.0459 85.11L87.5054 84.7077L87.1031 87.2481L84.5465 86.8432L84.9489 84.3027L82.3924 83.8978L82.7973 81.3413L80.2408 80.9364L80.6457 78.3799Z" fill="white"/>
<path d="M93.412 80.402L90.8555 79.9971L90.4506 82.5536L93.0071 82.9585L93.412 80.402Z" fill="white"/>
<path d="M57.2643 77.2981L52.1512 76.4883L51.7463 79.0448L56.8594 79.8546L57.2643 77.2981Z" fill="#1A1A1A"/>
<path d="M82.7977 81.3414L80.2412 80.9365L79.8363 83.493L82.3928 83.898L82.7977 81.3414Z" fill="#1A1A1A"/>
<path d="M98.12 83.7692L95.5635 83.3643L95.1586 85.9208L97.7151 86.3257L98.12 83.7692Z" fill="white"/>
<path d="M98.12 83.7692L103.217 84.5764L102.812 87.133L100.272 86.7306L99.8692 89.271L94.7562 88.4612L95.1586 85.9208L97.7151 86.3257L98.12 83.7692Z" fill="#1A1A1A"/>
<path d="M105.774 84.9801L103.218 84.5752L102.813 87.1317L105.369 87.5366L105.774 84.9801Z" fill="white"/>
<path d="M110.887 85.7907L118.54 87.0028L118.135 89.5594L115.595 89.157L115.192 91.6974L107.523 90.4827L107.925 87.9423L110.482 88.3472L110.887 85.7907Z" fill="white"/>
<path d="M44.0771 77.8301L49.1902 78.6399L48.7878 81.1803L56.4413 82.3925L56.0364 84.9491L45.8264 83.3319L46.2313 80.7754L43.6748 80.3705L44.0771 77.8301Z" fill="#1A1A1A"/>
<path d="M59.4003 80.2555L56.8438 79.8506L56.4388 82.4071L58.9954 82.812L59.4003 80.2555Z" fill="#1A1A1A"/>
<path d="M79.8359 83.4918L77.2794 83.0869L76.8744 85.6434L79.431 86.0483L79.8359 83.4918Z" fill="#1A1A1A"/>
<path d="M79.8359 83.4918L82.3924 83.8967L81.5851 88.9937L91.7951 90.6108L92.2 88.0543L89.6435 87.6494L90.0459 85.1089L95.1589 85.9188L94.7565 88.4592L99.8696 89.269L99.4647 91.8255L94.3516 91.0157L93.9467 93.5722L91.3902 93.1673L90.9853 95.7238L93.5418 96.1288L93.9467 93.5722L96.5032 93.9771L95.6934 99.0902L98.2499 99.4951L97.4427 104.592L94.8861 104.187L95.2885 101.647L92.732 101.242L93.1369 98.6853L88.0239 97.8754L88.8337 92.7624L83.7367 91.9551L83.3318 94.5116L80.7753 94.1067L80.3704 96.6633L77.8139 96.2583L78.2188 93.7018L75.6623 93.2969L76.877 85.6274L79.4335 86.0323L79.8359 83.4918Z" fill="white"/>
<path d="M82.3924 83.8984L84.9489 84.3034L84.5465 86.8438L87.1031 87.2487L87.5054 84.7083L90.0459 85.1106L89.6435 87.6511L92.2 88.056L91.7951 90.6125L81.5851 88.9954L82.3924 83.8984Z" fill="#1A1A1A"/>
<path d="M102.829 87.1344L100.272 86.7295L99.8675 89.286L102.424 89.6909L102.829 87.1344Z" fill="white"/>
<path d="M74.3202 85.2233L76.8767 85.6282L75.662 93.2977L78.2185 93.7027L77.8136 96.2592L75.2571 95.8543L74.8521 98.4108L77.4087 98.8157L77.8136 96.2592L80.3701 96.6641L80.775 94.1076L83.3315 94.5125L82.5217 99.6255L79.9652 99.2206L79.5628 101.761L82.1193 102.166L81.7144 104.722L84.2709 105.127L83.866 107.684L81.3095 107.279L80.9046 109.836L78.3481 109.431L79.1579 104.318L76.6014 103.913L76.1965 106.469L73.64 106.064L74.4498 100.951L71.8933 100.546L73.1055 92.8928L70.5489 92.4879L71.3588 87.3749L73.9153 87.7798L74.3202 85.2233Z" fill="#1A1A1A"/>
<path d="M115.192 91.6973L122.846 92.9095L122.441 95.466L119.884 95.0611L119.48 97.6176L114.383 96.8103L115.192 91.6973Z" fill="white"/>
<path d="M109.675 93.4433L102.005 92.2285L100.79 99.8981L108.46 101.113L109.675 93.4433Z" fill="white"/>
<path d="M122.441 95.4664L119.885 95.0615L119.48 97.618L122.036 98.023L122.441 95.4664Z" fill="#1A1A1A"/>
<path d="M55.6471 87.5076L37.7676 84.6758L34.9357 102.555L52.8153 105.387L55.6471 87.5076Z" fill="#1A1A1A"/>
<path d="M65.8574 89.124L68.4139 89.5289L68.009 92.0855L70.5495 92.4878L70.1446 95.0443L65.0476 94.2371L65.8574 89.124Z" fill="#1A1A1A"/>
<path d="M83.7363 91.957L88.8333 92.7643L88.0235 97.8774L93.1365 98.6872L92.7316 101.244L95.2881 101.649L94.8857 104.189L89.7727 103.379L88.9629 108.492L86.4064 108.087L87.6186 100.434L85.0781 100.032L85.8879 94.9185L83.3314 94.5136L83.7363 91.957Z" fill="#1A1A1A"/>
<path d="M93.9471 93.5729L91.3906 93.168L90.9857 95.7245L93.5422 96.1294L93.9471 93.5729Z" fill="#1A1A1A"/>
<path d="M106.713 95.5953L104.156 95.1904L103.751 97.7469L106.308 98.1519L106.713 95.5953Z" fill="#1A1A1A"/>
<path d="M114.383 96.8092L111.826 96.4043L111.421 98.9608L113.978 99.3657L114.383 96.8092Z" fill="white"/>
<path d="M122.036 98.0231L119.479 97.6182L119.075 100.175L121.631 100.58L122.036 98.0231Z" fill="white"/>
<path d="M52.6697 89.6558L39.9031 87.6338L37.8811 100.4L50.6476 102.422L52.6697 89.6558Z" fill="white"/>
<path d="M60.3387 90.8717L57.7822 90.4668L57.3773 93.0233L59.9338 93.4282L60.3387 90.8717Z" fill="#1A1A1A"/>
<path d="M70.5492 92.4889L73.1058 92.8938L71.8936 100.547L69.337 100.142L68.9321 102.699L66.3917 102.297L66.7966 99.74L64.2401 99.3351L65.0474 94.2382L70.1443 95.0454L70.5492 92.4889Z" fill="white"/>
<path d="M83.3318 94.5123L85.8883 94.9172L85.0785 100.03L87.6189 100.433L86.4067 108.086L83.8663 107.684L84.2712 105.127L81.7147 104.722L82.1196 102.166L79.5631 101.761L79.9654 99.2205L82.522 99.6254L83.3318 94.5123Z" fill="white"/>
<path d="M116.518 99.7682L119.074 100.173L118.669 102.73L121.226 103.135L120.419 108.232L117.862 107.827L118.265 105.286L113.168 104.479L111.55 114.689L108.994 114.284L111.016 101.517L116.113 102.325L116.518 99.7682Z" fill="white"/>
<path d="M121.632 100.579L119.075 100.174L118.67 102.73L121.227 103.135L121.632 100.579Z" fill="#1A1A1A"/>
<path d="M49.7243 91.8104L42.0547 90.5957L40.84 98.2653L48.5096 99.48L49.7243 91.8104Z" fill="#1A1A1A"/>
<path d="M62.4911 93.8317L65.0476 94.2366L64.2403 99.3335L66.7969 99.7385L66.3919 102.295L68.9324 102.697L69.3373 100.141L71.8938 100.546L71.084 105.659L68.5275 105.254L68.1226 107.81L65.5821 107.408L65.987 104.851L63.4305 104.447L63.8354 101.89L61.2789 101.485L61.6838 98.9286L59.1273 98.5237L59.5297 95.9833L62.0862 96.3882L62.4911 93.8317Z" fill="#1A1A1A"/>
<path d="M77.8143 96.2594L75.2578 95.8545L74.8529 98.411L77.4094 98.8159L77.8143 96.2594Z" fill="white"/>
<path d="M102.942 102.86L105.499 103.265L105.097 105.806L107.653 106.211L107.248 108.767L102.135 107.957L102.942 102.86Z" fill="white"/>
<path d="M113.168 104.479L118.265 105.287L117.863 107.827L120.419 108.232L120.014 110.789L114.901 109.979L114.496 112.535L117.053 112.94L116.648 115.497L111.551 114.689L113.168 104.479Z" fill="#1A1A1A"/>
<path d="M71.8936 100.547L74.4501 100.952L73.6403 106.065L76.1968 106.47L76.6017 103.914L79.1582 104.319L78.3484 109.432L68.1223 107.812L68.5272 105.256L71.0837 105.661L71.8936 100.547Z" fill="white"/>
<path d="M89.7734 103.379L94.8865 104.189L94.4816 106.745L102.135 107.957L101.73 110.514L106.843 111.324L106.438 113.88L98.7687 112.666L99.1736 110.109L88.9636 108.492L89.7734 103.379Z" fill="white"/>
<path d="M114.901 109.979L120.014 110.789L119.205 115.902L116.648 115.497L117.053 112.941L114.496 112.536L114.901 109.979Z" fill="white"/>
<path d="M63.4303 104.448L58.3173 103.638L57.9123 106.194L63.0254 107.004L63.4303 104.448Z" fill="#1A1A1A"/>
<path d="M65.9872 104.852L63.4307 104.447L63.0258 107.004L65.5823 107.409L65.9872 104.852Z" fill="white"/>
<path d="M83.8663 107.683L81.3098 107.278L80.9049 109.835L83.4614 110.24L83.8663 107.683Z" fill="white"/>
<path d="M86.4229 108.089L83.8663 107.685L83.4614 110.241L86.0179 110.646L86.4229 108.089Z" fill="#1A1A1A"/>
<path d="M88.9637 108.491L86.4072 108.086L86.0023 110.642L88.5588 111.047L88.9637 108.491Z" fill="white"/>
<path d="M99.1729 110.109L88.9629 108.492L88.558 111.049L98.768 112.666L99.1729 110.109Z" fill="#1A1A1A"/>
</g>
<defs>
<filter id="filter0_d_0_4096" x="0.184082" y="2.18457" width="167.121" height="162.803" filterUnits="userSpaceOnUse" color-interpolation-filters="sRGB">
<feFlood flood-opacity="0" result="BackgroundImageFix"/>
<feColorMatrix in="SourceAlpha" type="matrix" values="0 0 0 0 0 0 0 0 0 0 0 0 0 0 0 0 0 0 127 0" result="hardAlpha"/>
<feOffset dy="17"/>
<feGaussianBlur stdDeviation="8"/>
<feComposite in2="hardAlpha" operator="out"/>
<feColorMatrix type="matrix" values="0 0 0 0 0.571632 0 0 0 0 0.62755 0 0 0 0 0.679167 0 0 0 0.3 0"/>
<feBlend mode="normal" in2="BackgroundImageFix" result="effect1_dropShadow_0_4096"/>
<feBlend mode="normal" in="SourceGraphic" in2="effect1_dropShadow_0_4096" result="shape"/>
</filter>
</defs>
</svg>
