<svg width="28" height="28" viewBox="0 0 28 28" fill="none" xmlns="http://www.w3.org/2000/svg">
<g clip-path="url(#clip0_4_2285)">
<path fill-rule="evenodd" clip-rule="evenodd" d="M2.1808 13.0729C2.08238 13.0729 1.96756 13.0401 1.86914 12.9581L0.540493 11.6131C0.14682 11.2194 0.753733 10.5961 1.16381 11.0062L2.1808 12.0231L4.93651 9.28384C5.33018 8.89016 5.9371 9.49708 5.54342 9.90715L2.49246 12.9417C2.41044 13.0401 2.29562 13.0729 2.1808 13.0729ZM26.0964 24.391H7.64301C6.59322 24.391 5.74026 23.5545 5.74026 22.5047C5.74026 21.4549 6.59322 20.6183 7.64301 20.6183H26.0964C27.1462 20.6183 27.9828 21.4549 27.9828 22.5047C27.9828 23.5381 27.1462 24.391 26.0964 24.391ZM7.64301 21.4713C6.28156 21.4713 6.28156 23.5217 7.64301 23.5217H26.0964C27.4415 23.5217 27.4415 21.4713 26.0964 21.4713H7.64301ZM21.2411 18.6992H2.77131C1.73792 18.6992 0.884957 17.8626 0.884957 16.8128C0.884957 15.763 1.72151 14.9101 2.77131 14.9101H21.2411C22.2745 14.9101 23.1275 15.763 23.1275 16.8128C23.1275 17.8626 22.2909 18.6992 21.2411 18.6992ZM2.77131 15.7958C1.42626 15.7958 1.42626 17.8462 2.77131 17.8462H21.2411C22.5862 17.8462 22.5862 15.7958 21.2411 15.7958H2.77131ZM26.0964 13.0073H7.64301C6.59322 13.0073 5.74026 12.1708 5.74026 11.121C5.74026 10.0712 6.59322 9.23463 7.64301 9.23463H26.0964C27.1462 9.23463 27.9828 10.0712 27.9828 11.121C27.9828 12.1544 27.1462 13.0073 26.0964 13.0073ZM7.64301 10.0876C6.28156 10.0876 6.28156 12.138 7.64301 12.138H26.0964C27.4415 12.138 27.4415 10.0876 26.0964 10.0876H7.64301ZM21.2411 7.31547H2.77131C1.73792 7.31547 0.884957 6.47892 0.884957 5.42912C0.884957 4.37933 1.72151 3.52637 2.77131 3.52637H21.2411C22.2745 3.52637 23.1275 4.37933 23.1275 5.42912C23.1275 6.47892 22.2909 7.31547 21.2411 7.31547ZM2.77131 4.41213C1.42626 4.41213 1.42626 6.46251 2.77131 6.46251H21.2411C22.5862 6.46251 22.5862 4.41213 21.2411 4.41213H2.77131ZM1.77072 24.4567C1.6559 24.4567 1.54108 24.4238 1.45906 24.3418L0.130417 22.9968C-0.279659 22.6031 0.343656 21.9798 0.737329 22.3899L1.77072 23.4233L4.51003 20.6676C4.92011 20.2739 5.52702 20.8808 5.11694 21.2909L2.08238 24.3254C2.00036 24.4238 1.88554 24.4567 1.77072 24.4567Z" fill="#786583"/>
</g>
<defs>
<clipPath id="clip0_4_2285">
<rect width="28" height="28" fill="white"/>
</clipPath>
</defs>
</svg>
