<svg width="194" height="61" viewBox="0 0 194 61" fill="none" xmlns="http://www.w3.org/2000/svg">
<path d="M194 60.0752L193.036 54.3827L188.588 58.0634L194 60.0752ZM1.20334 21.56C1.51044 21.4233 1.81724 21.2873 2.12375 21.152L1.7199 20.2372C1.41245 20.3729 1.1047 20.5093 0.796663 20.6464L1.20334 21.56ZM3.95925 20.3485C4.56991 20.0835 5.17938 19.8212 5.78768 19.5618L5.39536 18.6419C4.7851 18.9022 4.17369 19.1653 3.56112 19.4312L3.95925 20.3485ZM7.60906 18.7918C8.22151 18.5352 8.83276 18.2815 9.44283 18.0306L9.0625 17.1058C8.45039 17.3575 7.83711 17.6121 7.22265 17.8695L7.60906 18.7918ZM11.2991 17.2746C11.9167 17.0255 12.533 16.7794 13.1481 16.5363L12.7804 15.6063C12.1632 15.8503 11.5447 16.0973 10.9251 16.3472L11.2991 17.2746ZM14.9897 15.8157C15.6089 15.5759 16.2269 15.3391 16.8436 15.1054L16.4892 14.1703C15.8702 14.4049 15.25 14.6425 14.6286 14.8832L14.9897 15.8157ZM18.7197 14.4022C19.3438 14.1709 19.9666 13.9428 20.5881 13.7177L20.2477 12.7775C19.6238 13.0034 18.9986 13.2324 18.3722 13.4645L18.7197 14.4022ZM22.449 13.052C23.0763 12.8302 23.7024 12.6117 24.3271 12.3964L24.0013 11.451C23.374 11.6672 22.7455 11.8865 22.1158 12.1091L22.449 13.052ZM26.2216 11.7519C26.8518 11.5404 27.4807 11.3321 28.1083 11.1272L27.7978 10.1766C27.1676 10.3824 26.5361 10.5915 25.9034 10.8039L26.2216 11.7519ZM29.9871 10.5221C30.6236 10.3201 31.2588 10.1214 31.8926 9.92621L31.5983 8.97051C30.9617 9.16659 30.3238 9.36609 29.6845 9.569L29.9871 10.5221ZM33.804 9.34663C34.4397 9.15691 35.0741 8.97064 35.7072 8.78784L35.4298 7.8271C34.7938 8.01072 34.1566 8.19782 33.518 8.38839L33.804 9.34663ZM37.6032 8.24961C38.2494 8.06932 38.8943 7.89267 39.5377 7.71966L39.2781 6.75396C38.6316 6.92778 37.9837 7.10526 37.3344 7.2864L37.6032 8.24961ZM41.4639 7.21157C42.1046 7.04585 42.7439 6.88377 43.3818 6.72534L43.1407 5.75483C42.4997 5.91404 41.8573 6.07691 41.2135 6.24343L41.4639 7.21157ZM45.3104 6.25646C45.9609 6.10173 46.61 5.95083 47.2577 5.80375L47.0363 4.82858C46.3853 4.97642 45.7328 5.12809 45.079 5.2836L45.3104 6.25646ZM49.1964 5.37401C49.8412 5.2346 50.4846 5.09901 51.1266 4.96725L50.9255 3.98767C50.2801 4.12014 49.6333 4.25645 48.9851 4.3966L49.1964 5.37401ZM53.0879 4.57577C53.7419 4.44895 54.3943 4.32615 55.0453 4.20737L54.8658 3.22361C54.2111 3.34306 53.5551 3.46655 52.8976 3.59406L53.0879 4.57577ZM56.9938 3.86305C57.6483 3.7512 58.3013 3.64343 58.9528 3.53977L58.7957 2.55219C58.1403 2.65646 57.4836 2.76485 56.8253 2.87734L56.9938 3.86305ZM60.9261 3.23766C61.5823 3.14115 62.2371 3.04884 62.8903 2.96073L62.7566 1.9697C62.0994 2.05835 61.4407 2.15122 60.7806 2.2483L60.9261 3.23766ZM64.849 2.70856C65.5126 2.62723 66.1746 2.55027 66.8351 2.47769L66.7258 1.48367C66.0612 1.55671 65.395 1.63415 64.7274 1.71599L64.849 2.70856ZM68.8119 2.27306C69.4693 2.20922 70.1252 2.14976 70.7795 2.09468L70.6956 1.0982C70.037 1.15365 69.3769 1.21349 68.7152 1.27774L68.8119 2.27306ZM72.7669 1.94052C73.4304 1.89345 74.0924 1.85093 74.7527 1.81296L74.6953 0.814609C74.0305 0.85284 73.3641 0.895645 72.6962 0.943021L72.7669 1.94052ZM76.7292 1.71268C77.3926 1.68353 78.0544 1.65902 78.7146 1.63914L78.6845 0.639591C78.0196 0.659611 77.3533 0.684297 76.6853 0.713644L76.7292 1.71268ZM80.7054 1.59316C81.3674 1.58254 82.0279 1.57662 82.6867 1.57541L82.6849 0.57541C82.0213 0.57663 81.3561 0.582589 80.6893 0.593287L80.7054 1.59316ZM84.6693 1.58603C85.3346 1.59441 85.9984 1.60763 86.6606 1.6257L86.6879 0.626074C86.0208 0.607867 85.3521 0.594547 84.6819 0.58611L84.6693 1.58603ZM88.6425 1.69447C89.3034 1.72232 89.9627 1.75505 90.6204 1.79266L90.6775 0.794287C90.0148 0.756392 89.3504 0.723415 88.6846 0.695355L88.6425 1.69447ZM92.6076 1.92147C93.2684 1.96939 93.9276 2.02228 94.5853 2.08014L94.6729 1.08399C94.0102 1.02568 93.3458 0.972376 92.6799 0.924093L92.6076 1.92147ZM96.556 2.26893C97.2169 2.33743 97.8763 2.41101 98.534 2.48966L98.6527 1.49674C97.9898 1.41746 97.3252 1.3433 96.6591 1.27426L96.556 2.26893ZM100.503 2.74087C101.158 2.82973 101.811 2.92367 102.463 3.0227L102.613 2.03404C101.956 1.93421 101.297 1.83952 100.637 1.74995L100.503 2.74087ZM104.426 3.33725C105.079 3.44726 105.731 3.56243 106.381 3.68276L106.563 2.69947C105.908 2.57815 105.251 2.46205 104.593 2.35114L104.426 3.33725ZM108.326 4.05925C108.976 4.19048 109.624 4.32692 110.271 4.46857L110.485 3.49173C109.833 3.34891 109.179 3.21135 108.524 3.07905L108.326 4.05925ZM112.206 4.90915C112.849 5.06123 113.491 5.21852 114.132 5.38103L114.378 4.41173C113.732 4.24788 113.085 4.08928 112.436 3.93595L112.206 4.90915ZM116.052 5.88498C116.691 6.0582 117.328 6.23667 117.963 6.42037L118.241 5.45969C117.6 5.27447 116.958 5.09452 116.314 4.91986L116.052 5.88498ZM119.866 6.9872C120.497 7.18114 121.128 7.38032 121.757 7.58472L122.066 6.63369C121.432 6.42759 120.796 6.22677 120.159 6.03122L119.866 6.9872ZM123.639 8.21359C124.265 8.42845 124.89 8.64854 125.513 8.87387L125.853 7.93346C125.225 7.70628 124.595 7.48438 123.964 7.26775L123.639 8.21359ZM127.371 9.56293C127.989 9.79773 128.605 10.0377 129.22 10.2829L129.591 9.35402C128.971 9.10684 128.349 8.86488 127.726 8.62817L127.371 9.56293ZM131.061 11.0341C131.67 11.2882 132.277 11.5475 132.883 11.8119L133.283 10.8953C132.673 10.6288 132.06 10.3675 131.447 10.1113L131.061 11.0341ZM134.696 12.6197C135.298 12.8941 135.9 13.1736 136.5 13.4583L136.929 12.5548C136.324 12.2679 135.718 11.9861 135.11 11.7095L134.696 12.6197ZM138.283 14.3212C138.875 14.6133 139.466 14.9105 140.055 15.2127L140.511 14.3229C139.917 14.0183 139.322 13.7189 138.726 13.4245L138.283 14.3212ZM141.819 16.1345C142.401 16.4443 142.982 16.759 143.562 17.0787L144.045 16.2031C143.461 15.881 142.876 15.5639 142.289 15.2518L141.819 16.1345ZM145.29 18.0491C145.865 18.3775 146.439 18.7108 147.012 19.0491L147.521 18.1881C146.944 17.8474 146.366 17.5116 145.786 17.1807L145.29 18.0491ZM148.713 20.0706C149.275 20.4137 149.836 20.7617 150.396 21.1145L150.929 20.2684C150.365 19.9131 149.8 19.5627 149.234 19.217L148.713 20.0706ZM152.073 22.1874C152.627 22.5476 153.181 22.9125 153.733 23.2822L154.289 22.4513C153.733 22.079 153.176 21.7115 152.618 21.3488L152.073 22.1874ZM155.369 24.3941C155.914 24.7694 156.457 25.1493 156.999 25.534L157.578 24.7183C157.032 24.3311 156.485 23.9486 155.937 23.5708L155.369 24.3941ZM158.619 26.6987C159.149 27.0855 159.679 27.4769 160.207 27.8727L160.807 27.0723C160.275 26.6739 159.742 26.2801 159.208 25.8907L158.619 26.6987ZM161.79 29.0737C162.316 29.4785 162.842 29.8879 163.367 30.3017L163.986 29.5166C163.458 29.1002 162.929 28.6883 162.399 28.2809L161.79 29.0737ZM164.911 31.5355C165.423 31.9499 165.935 32.3687 166.445 32.7917L167.083 32.0218C166.57 31.5962 166.055 31.1749 165.54 30.758L164.911 31.5355ZM167.974 34.074C168.478 34.5013 168.98 34.9328 169.482 35.3685L170.138 34.6136C169.633 34.1753 169.128 33.7413 168.621 33.3116L167.974 34.074ZM170.968 36.6742C171.463 37.1135 171.956 37.5571 172.449 38.0048L173.122 37.2646C172.626 36.8144 172.13 36.3684 171.632 35.9266L170.968 36.6742ZM173.923 39.3585C174.403 39.8044 174.883 40.2542 175.361 40.708L176.049 39.9824C175.568 39.5262 175.086 39.0739 174.604 38.6257L173.923 39.3585ZM176.795 42.0815C177.272 42.5433 177.748 43.0091 178.224 43.4789L178.927 42.7675C178.449 42.2953 177.97 41.8272 177.49 41.363L176.795 42.0815ZM179.63 44.8817C180.093 45.3482 180.555 45.8185 181.016 46.2926L181.733 45.5951C181.269 45.1187 180.805 44.6461 180.339 44.1773L179.63 44.8817ZM182.399 47.7265C182.859 48.2082 183.318 48.6938 183.777 49.1832L184.506 48.4993C184.046 48.0077 183.584 47.5199 183.122 47.0358L182.399 47.7265ZM185.119 50.6281C185.565 51.113 186.01 51.6014 186.455 52.0935L187.197 51.4229C186.75 50.9286 186.303 50.4379 185.854 49.9509L185.119 50.6281ZM187.788 53.5807C188.229 54.0766 188.668 54.5761 189.108 55.0792L189.861 54.4215C189.42 53.9163 188.978 53.4146 188.536 52.9165L187.788 53.5807ZM190.4 56.5716C190.83 57.0725 191.259 57.5769 191.688 58.0847L192.452 57.4395C192.022 56.9296 191.59 56.4231 191.159 55.9201L190.4 56.5716Z" fill="#35BAEC"/>
</svg>
