<svg width="373" height="362" viewBox="0 0 373 362" fill="none" xmlns="http://www.w3.org/2000/svg">
<g clip-path="url(#clip0_0_4509)">
<path d="M102.324 -0.00261884L99.4405 0.797424L194.816 345.382L197.699 344.582L102.324 -0.00261884Z" fill="#92A0AD" fill-opacity="0.28"/>
<path d="M16.7312 148.471L15.9814 150.105L349.564 303.61L350.353 301.995L16.7312 148.471Z" fill="#92A0AD" fill-opacity="0.28"/>
<path d="M327.767 215.401L20.0107 274.574L20.5747 277.515L328.331 218.342L327.767 215.401Z" fill="#92A0AD" fill-opacity="0.28"/>
<path d="M104.142 11.9147L103.248 13.4733L372.101 168.018L372.995 166.46L104.142 11.9147Z" fill="#92A0AD" fill-opacity="0.28"/>
<path d="M121.275 2.27214L23.9592 179.003L25.5309 179.87L122.846 3.13982L121.275 2.27214Z" fill="#92A0AD" fill-opacity="0.28"/>
<path d="M359.972 232.926C237.61 177.56 4.90732 72.4355 0 70.8531L0.261269 70.0385L0.72417 67.9485C4.36064 68.7575 324.688 213.674 361.202 230.196L359.971 232.925L359.972 232.926Z" fill="#92A0AD" fill-opacity="0.28"/>
<path d="M191.905 16.3353L158.015 126.57L160.303 127.276L194.193 17.0405L191.905 16.3353Z" fill="#92A0AD" fill-opacity="0.28"/>
<path d="M69.0439 98.331L68.2021 101.206L366.15 188.669L366.991 185.794L69.0439 98.331Z" fill="#92A0AD" fill-opacity="0.28"/>
<path d="M184.231 45.3271L183.936 46.4885L340.105 86.3755L340.401 85.2142L184.231 45.3271Z" fill="#92A0AD" fill-opacity="0.28"/>
<path d="M328.296 29.7271L237.421 339.489L239.718 340.164L330.593 30.4027L328.296 29.7271Z" fill="#92A0AD" fill-opacity="0.28"/>
<path d="M271.586 67.4275L143.326 158.727L144.713 160.681L272.973 69.3812L271.586 67.4275Z" fill="#92A0AD" fill-opacity="0.28"/>
<path d="M189.183 321.531L160.106 304.002L85.5879 281.585L85.9329 280.438L160.595 302.899L160.659 302.937L189.8 320.505L189.183 321.531Z" fill="#92A0AD" fill-opacity="0.28"/>
<path d="M58.7046 269.032L57.6396 268.487L78.7343 227.115L60.5392 170.065L61.6794 169.701L80.0236 227.222L79.9114 227.441L58.7046 269.032Z" fill="#92A0AD" fill-opacity="0.28"/>
<path d="M268.271 20.4625L252.084 63.196L253.202 63.6206L269.388 20.8871L268.271 20.4625Z" fill="#92A0AD" fill-opacity="0.28"/>
<path d="M180.383 224.652L179.225 224.353L185.687 199.105L193.241 124.202L194.432 124.323L186.857 199.36L180.383 224.652Z" fill="#92A0AD" fill-opacity="0.28"/>
<path d="M49.3628 164.446L48.2538 163.997L57.8867 140.175L78.588 146.155L91.1275 107.152L92.2663 107.52L79.3718 147.628L58.591 141.627L49.3628 164.446Z" fill="#92A0AD" fill-opacity="0.28"/>
<path d="M58.9987 117.01L58.6426 118.154L85.5315 126.545L85.8877 125.401L58.9987 117.01Z" fill="#92A0AD" fill-opacity="0.28"/>
<path d="M70.7643 121.29L63.4121 142.371L64.5422 142.766L71.8943 121.686L70.7643 121.29Z" fill="#92A0AD" fill-opacity="0.28"/>
<path d="M12.2329 100.425L11.705 101.499L55.7529 123.201L56.2807 122.127L12.2329 100.425Z" fill="#92A0AD" fill-opacity="0.28"/>
<path d="M54.0374 93.1935L42.4912 116.001L43.5589 116.543L55.1051 93.7354L54.0374 93.1935Z" fill="#92A0AD" fill-opacity="0.28"/>
<path d="M81.3809 76.1002L80.9766 77.8511L123.249 87.6385L123.653 85.8876L81.3809 76.1002Z" fill="#92A0AD" fill-opacity="0.28"/>
<path d="M162.016 117.047L147.665 107.595L167.933 49.7471L169.062 50.1424L149.103 107.109L162.674 116.048L162.016 117.047Z" fill="#92A0AD" fill-opacity="0.28"/>
<path d="M221.712 168.873L200.535 234.133L201.674 234.503L222.851 169.244L221.712 168.873Z" fill="#92A0AD" fill-opacity="0.28"/>
<path d="M216.817 185.877L216.438 187.014L242.559 195.724L242.937 194.587L216.817 185.877Z" fill="#92A0AD" fill-opacity="0.28"/>
<path d="M240.654 200.541L240.297 201.684L275.831 212.813L276.188 211.671L240.654 200.541Z" fill="#92A0AD" fill-opacity="0.28"/>
<path d="M189.627 167.582L189.215 168.708L218.839 179.574L219.251 178.449L189.627 167.582Z" fill="#92A0AD" fill-opacity="0.28"/>
<path d="M186.433 198.619L186.107 199.772L210.102 206.571L210.428 205.417L186.433 198.619Z" fill="#92A0AD" fill-opacity="0.28"/>
<path d="M229.304 190.675L221.13 215.323L222.266 215.701L230.44 191.053L229.304 190.675Z" fill="#92A0AD" fill-opacity="0.28"/>
<path d="M233.695 220.336L208.473 211.517L208.868 210.386L232.995 218.824L247.712 180.569L257.969 155.287L259.077 155.739L248.825 181.009L233.695 220.336Z" fill="#92A0AD" fill-opacity="0.28"/>
<path d="M240.566 150.301L239.456 149.857L250.029 123.283L275.939 111.315L276.44 112.402L250.965 124.17L240.566 150.301Z" fill="#92A0AD" fill-opacity="0.28"/>
<path d="M219.912 144.19L218.771 143.832L224.18 126.562L246.408 133.905L246.035 135.042L224.96 128.08L219.912 144.19Z" fill="#92A0AD" fill-opacity="0.28"/>
<path d="M235.754 131.03L230.511 147.282L231.65 147.651L236.893 131.398L235.754 131.03Z" fill="#92A0AD" fill-opacity="0.28"/>
<path d="M249.035 127.378L248.655 128.515L295.918 144.367L296.298 143.231L249.035 127.378Z" fill="#92A0AD" fill-opacity="0.28"/>
<path d="M308.111 102.719L284.821 94.5338L292.766 73.5914L299.15 51.9053L321.291 57.8952L320.979 59.0525L299.968 53.3669L293.898 73.9738L286.376 93.8101L308.507 101.587L308.111 102.719Z" fill="#92A0AD" fill-opacity="0.28"/>
<path d="M290.089 82.2036L289.787 83.3619L312.15 89.207L312.452 88.0487L290.089 82.2036Z" fill="#92A0AD" fill-opacity="0.28"/>
<path d="M249.37 302.78L228.595 295.429L243.183 253.729L244.314 254.126L230.118 294.697L249.769 301.649L249.37 302.78Z" fill="#92A0AD" fill-opacity="0.28"/>
<path d="M217.613 339.974L197.021 267.402L175.526 271.655L175.293 270.48L197.872 266.013L218.765 339.649L217.613 339.974Z" fill="#92A0AD" fill-opacity="0.28"/>
<path d="M204.144 290.149L181.874 293.832L182.069 295.015L204.339 291.331L204.144 290.149Z" fill="#92A0AD" fill-opacity="0.28"/>
<path d="M200.791 278.238L178.692 282.459L178.916 283.635L201.015 279.414L200.791 278.238Z" fill="#92A0AD" fill-opacity="0.28"/>
<path d="M266.227 245.395L265.888 246.544L348.035 270.846L348.374 269.696L266.227 245.395Z" fill="#92A0AD" fill-opacity="0.28"/>
<path d="M300.45 256.112L291.808 276.078L292.907 276.554L301.548 256.588L300.45 256.112Z" fill="#92A0AD" fill-opacity="0.28"/>
<path d="M313.007 259.809L303.845 281.601L304.947 282.065L314.109 260.274L313.007 259.809Z" fill="#92A0AD" fill-opacity="0.28"/>
<path d="M150.428 183.102L122.491 197.509L123.313 199.107L151.25 184.7L150.428 183.102Z" fill="#92A0AD" fill-opacity="0.28"/>
<path d="M157.374 150.155L156.456 150.924L187.04 187.497L187.957 186.727L157.374 150.155Z" fill="#92A0AD" fill-opacity="0.28"/>
<path d="M177.693 148.515L165.036 160.308L166.259 161.624L178.916 149.831L177.693 148.515Z" fill="#92A0AD" fill-opacity="0.28"/>
<path d="M174.33 77.2227L161.265 70.4878L136.078 62.4692L119.262 71.4433L118.698 70.3869L135.959 61.1754L161.769 69.3988L174.878 76.1578L174.33 77.2227Z" fill="#92A0AD" fill-opacity="0.28"/>
<path d="M156.397 84.4352L142.145 78.987L144.087 64.4993L145.273 64.6586L143.457 78.2065L156.824 83.3162L156.397 84.4352Z" fill="#92A0AD" fill-opacity="0.28"/>
<path d="M109.592 140.809L83.3389 133.405L83.6626 132.252L108.996 139.396L118.362 122.109L119.414 122.68L109.592 140.809Z" fill="#92A0AD" fill-opacity="0.28"/>
<path d="M71.5274 202.529L20.168 216.607L20.484 217.763L71.8435 203.685L71.5274 202.529Z" fill="#92A0AD" fill-opacity="0.28"/>
<path d="M70.7028 243.835L49.6309 224.609L51.5009 208.403L52.6894 208.541L50.8903 224.137L71.5093 242.949L70.7028 243.835Z" fill="#92A0AD" fill-opacity="0.28"/>
<path d="M89.3977 182.468L67.9334 191.489L68.3967 192.594L89.861 183.573L89.3977 182.468Z" fill="#92A0AD" fill-opacity="0.28"/>
<path d="M63.796 178.248L28.5546 188.246L28.881 189.399L64.1224 179.401L63.796 178.248Z" fill="#92A0AD" fill-opacity="0.28"/>
<path d="M49.6763 182.852L48.54 183.229L56.5048 207.3L57.6411 206.923L49.6763 182.852Z" fill="#92A0AD" fill-opacity="0.28"/>
<path d="M78.5696 178.183L77.7773 177.286L97.9276 159.447L116.936 161.473L116.81 162.664L98.3252 160.695L78.5696 178.183Z" fill="#92A0AD" fill-opacity="0.28"/>
<path d="M69.1885 346.736L68.0312 346.432L116.333 161.771L116.434 161.662L139.544 136.532L125.263 181.521L112.972 179.351L69.1885 346.737V346.736ZM113.276 178.187L124.44 180.157L136.768 141.318L117.415 162.364L113.276 178.187Z" fill="#92A0AD" fill-opacity="0.28"/>
<path d="M126.745 255.775L125.562 255.592L129.754 228.455L100.909 223.285L101.119 222.107L131.116 227.481L126.745 255.775Z" fill="#92A0AD" fill-opacity="0.28"/>
<path d="M127.785 271.642L103.708 260.198L119.258 196.765L120.42 197.051L105.104 259.534L128.299 270.56L127.785 271.642Z" fill="#92A0AD" fill-opacity="0.28"/>
<path d="M128.596 239.994L128.394 241.175L168.666 248.097L168.869 246.916L128.596 239.994Z" fill="#92A0AD" fill-opacity="0.28"/>
<path d="M135.274 295.885L122.698 329.421L123.819 329.843L136.395 296.306L135.274 295.885Z" fill="#92A0AD" fill-opacity="0.28"/>
<path d="M153.621 301.323L127.492 361.492L128.59 361.97L154.719 301.801L153.621 301.323Z" fill="#92A0AD" fill-opacity="0.28"/>
<path d="M119.879 291.211L94.79 347.954L95.8845 348.44L120.974 291.696L119.879 291.211Z" fill="#92A0AD" fill-opacity="0.28"/>
<path d="M158.712 321.641L158.567 321.594L81.7285 296.279L82.1034 295.142L158.799 320.408L182.34 316.181L182.55 317.36L158.712 321.641Z" fill="#92A0AD" fill-opacity="0.28"/>
<path d="M111.345 289L110.491 288.161L127.736 270.557L127.904 270.517L172.325 260.032L172.599 261.198L128.347 271.645L111.345 289Z" fill="#92A0AD" fill-opacity="0.28"/>
<path d="M148.371 299.855L147.229 299.497L153.767 278.606L153.342 265.007L154.538 264.968L154.969 278.772L154.938 278.869L148.371 299.855Z" fill="#92A0AD" fill-opacity="0.28"/>
<path d="M73.8078 238.081L73.2686 239.149L93.856 249.566L94.3952 248.498L73.8078 238.081Z" fill="#92A0AD" fill-opacity="0.28"/>
<path d="M126.18 97.5285L107.476 110.584L108.502 112.058L127.206 99.0028L126.18 97.5285Z" fill="#92A0AD" fill-opacity="0.28"/>
<path d="M153.4 93.1349L152.937 94.2398L167.284 100.279L167.748 99.1739L153.4 93.1349Z" fill="#92A0AD" fill-opacity="0.28"/>
<path d="M37.4804 50.4703L37.1221 51.6138L86.7016 67.19L87.0599 66.0464L37.4804 50.4703Z" fill="#92A0AD" fill-opacity="0.28"/>
<path d="M70.807 38.8936L70.3986 40.0202L96.4165 49.4763L96.8249 48.3497L70.807 38.8936Z" fill="#92A0AD" fill-opacity="0.28"/>
<path d="M76.4326 63.223L59.4678 95.6187L60.5279 96.1752L77.4927 63.7796L76.4326 63.223Z" fill="#92A0AD" fill-opacity="0.28"/>
<path d="M44.5277 68.4649L44.0262 69.5532L76.933 84.7568L77.4345 83.6685L44.5277 68.4649Z" fill="#92A0AD" fill-opacity="0.28"/>
<path d="M164.462 61.2992L134.854 47.7513L140.398 33.8878L141.51 34.3328L136.388 47.1371L164.959 60.2101L164.462 61.2992Z" fill="#92A0AD" fill-opacity="0.28"/>
<path d="M232.606 58.2428L224.419 82.2263L225.552 82.6139L233.739 58.6305L232.606 58.2428Z" fill="#92A0AD" fill-opacity="0.28"/>
<path d="M250.113 124.186L234.857 111.322L229.014 99.102L230.093 98.5845L235.824 110.571L250.882 123.269L250.113 124.186Z" fill="#92A0AD" fill-opacity="0.28"/>
<path d="M279.131 80.0135L258.471 78.8377L258.539 77.6406L278.505 78.7765L283.497 71.0948L284.5 71.7488L279.131 80.0135Z" fill="#92A0AD" fill-opacity="0.28"/>
<path d="M298.677 98.7102L289.522 119.592L290.617 120.073L299.772 99.1914L298.677 98.7102Z" fill="#92A0AD" fill-opacity="0.28"/>
<path d="M305.787 110.799L305.46 111.952L336.309 120.722L336.636 119.569L305.787 110.799Z" fill="#92A0AD" fill-opacity="0.28"/>
<path d="M325.504 117.026L320.171 137.323L321.329 137.628L326.662 117.331L325.504 117.026Z" fill="#92A0AD" fill-opacity="0.28"/>
<path d="M330.528 143.261L321.622 174.036L322.77 174.369L331.677 143.594L330.528 143.261Z" fill="#92A0AD" fill-opacity="0.28"/>
<path d="M293.646 152.127L293.344 153.285L325.839 161.778L326.141 160.62L293.646 152.127Z" fill="#92A0AD" fill-opacity="0.28"/>
<path d="M306.466 220.668L292.136 253.636L293.232 254.114L307.562 221.146L306.466 220.668Z" fill="#92A0AD" fill-opacity="0.28"/>
<path d="M319.208 213.391L315.508 190.674L285.696 178.888L286.355 177.216L317.115 189.376L320.98 213.103L319.208 213.391Z" fill="#92A0AD" fill-opacity="0.28"/>
<path d="M259.515 206.985L248.592 231.781L249.687 232.265L260.61 207.468L259.515 206.985Z" fill="#92A0AD" fill-opacity="0.28"/>
<path d="M195.278 93.8757L172.174 84.3115L172.86 82.6509L195.627 92.0743L207.998 91.9492L208.015 93.7463L195.278 93.8757Z" fill="#92A0AD" fill-opacity="0.28"/>
<path d="M211.401 111.472L202.407 69.6643L214.818 53.5118L215.766 54.2411L203.694 69.9544L212.57 111.219L211.401 111.472Z" fill="#92A0AD" fill-opacity="0.28"/>
<path d="M200.46 49.8342L190.586 62.543L191.531 63.2789L201.405 50.5702L200.46 49.8342Z" fill="#92A0AD" fill-opacity="0.28"/>
<path d="M78.3732 309.024L49.29 298.287L47.5137 270.733L48.7078 270.656L50.4331 297.432L78.7879 307.899L78.3732 309.024Z" fill="#92A0AD" fill-opacity="0.28"/>
<path d="M74.6505 265.284L62.6516 302.592L63.791 302.959L75.7899 265.651L74.6505 265.284Z" fill="#92A0AD" fill-opacity="0.28"/>
<path d="M48.8543 279.754L48.6104 280.927L68.9578 285.169L69.2018 283.995L48.8543 279.754Z" fill="#92A0AD" fill-opacity="0.28"/>
<path d="M234.465 280.475L221.057 275.88L228.689 247.109L229.845 247.417L222.499 275.108L234.853 279.341L234.465 280.475Z" fill="#92A0AD" fill-opacity="0.28"/>
<path d="M246.186 312.594L211.429 315.358L211.571 317.151L246.328 314.387L246.186 312.594Z" fill="#92A0AD" fill-opacity="0.28"/>
<path d="M254.147 286.62L253.788 287.764L297.777 301.609L298.136 300.465L254.147 286.62Z" fill="#92A0AD" fill-opacity="0.28"/>
<path d="M276.689 269.221L271.121 292.659L272.286 292.937L277.854 269.499L276.689 269.221Z" fill="#92A0AD" fill-opacity="0.28"/>
<path d="M259.802 44.5118L259.412 45.6451L297.701 58.8459L298.091 57.7127L259.802 44.5118Z" fill="#92A0AD" fill-opacity="0.28"/>
<path d="M275.09 36.8598L263.956 66.2393L265.074 66.664L276.208 37.2845L275.09 36.8598Z" fill="#92A0AD" fill-opacity="0.28"/>
<path d="M163.542 226.608L129.342 233.73L129.586 234.904L163.786 227.781L163.542 226.608Z" fill="#92A0AD" fill-opacity="0.28"/>
<path d="M143.45 207.41L142.273 207.632L146.64 230.748L147.816 230.526L143.45 207.41Z" fill="#92A0AD" fill-opacity="0.28"/>
<path d="M105.343 204.703L75.9943 216.737L76.4474 217.845L105.796 205.811L105.343 204.703Z" fill="#92A0AD" fill-opacity="0.28"/>
<path d="M81.0999 186.627L79.9814 187.054L89.4321 211.861L90.5505 211.433L81.0999 186.627Z" fill="#92A0AD" fill-opacity="0.28"/>
<path d="M243.712 323.17L243.468 321.997L271.617 316.105L280.919 295.612L282.008 296.107L272.456 317.155L243.712 323.17Z" fill="#92A0AD" fill-opacity="0.28"/>
<path d="M261.959 103.889L261.152 103.003L270.356 94.6022L278.285 79.1221L279.349 79.6681L271.322 95.3415L261.959 103.889Z" fill="#92A0AD" fill-opacity="0.28"/>
<path d="M292.995 95.9675C293.906 92.1036 291.516 88.232 287.657 87.3201C283.798 86.4081 279.931 88.8011 279.02 92.665C278.109 96.5289 280.499 100.4 284.358 101.312C288.217 102.224 292.084 99.8314 292.995 95.9675Z" fill="url(#paint0_linear_0_4509)"/>
<path d="M286.019 104.61C280.353 104.61 275.744 99.9948 275.744 94.3234C275.744 88.6521 280.353 84.037 286.019 84.037C291.684 84.037 296.292 88.6521 296.292 94.3234C296.292 99.9948 291.684 104.61 286.019 104.61ZM286.019 84.7806C280.762 84.7806 276.487 89.0615 276.487 94.3234C276.487 99.5854 280.762 103.866 286.019 103.866C291.275 103.866 295.549 99.5854 295.549 94.3234C295.549 89.0615 291.274 84.7806 286.019 84.7806Z" fill="url(#paint1_linear_0_4509)"/>
<path d="M85.9547 288.625C89.9197 288.625 93.1339 285.406 93.1339 281.436C93.1339 277.466 89.9197 274.248 85.9547 274.248C81.9897 274.248 78.7755 277.466 78.7755 281.436C78.7755 285.406 81.9897 288.625 85.9547 288.625Z" fill="url(#paint2_linear_0_4509)"/>
<path d="M85.9547 291.724C80.2891 291.724 75.6814 287.109 75.6814 281.436C75.6814 275.763 80.2906 271.15 85.9547 271.15C91.6188 271.15 96.228 275.763 96.228 281.436C96.228 287.109 91.6188 291.724 85.9547 291.724ZM85.9547 271.893C80.6995 271.893 76.4241 276.174 76.4241 281.436C76.4241 286.698 80.6995 290.981 85.9547 290.981C91.2099 290.981 95.4853 286.7 95.4853 281.436C95.4853 276.173 91.2099 271.893 85.9547 271.893Z" fill="url(#paint3_linear_0_4509)"/>
<path d="M88.119 281.969L83.791 280.904L88.775 260.602L165.983 245.751L142.261 158.23L271.837 66.0132L296.285 72.2576L288.933 91.8551L284.761 90.2854L290.365 75.3499L272.735 70.8486L147.376 160.065L171.542 249.226L92.42 264.443L88.119 281.969Z" fill="url(#paint4_linear_0_4509)"/>
</g>
<defs>
<linearGradient id="paint0_linear_0_4509" x1="301.269" y1="77.204" x2="103.342" y2="298.659" gradientUnits="userSpaceOnUse">
<stop stop-color="#FC5C7D"/>
<stop offset="1" stop-color="#5004E0"/>
</linearGradient>
<linearGradient id="paint1_linear_0_4509" x1="301.284" y1="77.1984" x2="103.358" y2="298.653" gradientUnits="userSpaceOnUse">
<stop stop-color="#FC5C7D"/>
<stop offset="1" stop-color="#5004E0"/>
</linearGradient>
<linearGradient id="paint2_linear_0_4509" x1="282.777" y1="60.6561" x2="84.85" y2="282.109" gradientUnits="userSpaceOnUse">
<stop stop-color="#FC5C7D"/>
<stop offset="1" stop-color="#5004E0"/>
</linearGradient>
<linearGradient id="paint3_linear_0_4509" x1="282.777" y1="60.6562" x2="84.8502" y2="282.109" gradientUnits="userSpaceOnUse">
<stop stop-color="#FC5C7D"/>
<stop offset="1" stop-color="#5004E0"/>
</linearGradient>
<linearGradient id="paint4_linear_0_4509" x1="283.706" y1="61.4878" x2="85.674" y2="283.06" gradientUnits="userSpaceOnUse">
<stop stop-color="#FC5C7D"/>
<stop offset="1" stop-color="#5004E0"/>
</linearGradient>
<clipPath id="clip0_0_4509">
<rect width="373" height="362" fill="white"/>
</clipPath>
</defs>
</svg>
