<svg width="151" height="85" viewBox="0 0 151 85" fill="none" xmlns="http://www.w3.org/2000/svg">
<g filter="url(#filter0_d_0_4689)">
<mask id="path-1-outside-1_0_4689" maskUnits="userSpaceOnUse" x="13" y="13" width="125" height="59" fill="black">
<rect fill="white" x="13" y="13" width="125" height="59"/>
<path d="M22.83 55.6867V59.0433C22.83 59.7189 23.0622 60.2889 23.5267 60.7533C24.0333 61.2178 24.6033 61.45 25.2367 61.45H27.8333C28.5089 61.45 29.0789 61.2178 29.5433 60.7533C30.0078 60.2889 30.24 59.7189 30.24 59.0433V49.29C30.24 48.6144 30.0078 48.0444 29.5433 47.58C29.0789 47.1156 28.5089 46.8833 27.8333 46.8833H22.83V38.3333H27.8333C28.5089 38.3333 29.0789 38.1011 29.5433 37.6367C30.0078 37.1722 30.24 36.6022 30.24 35.9267V26.3C30.24 25.6244 30.0078 25.0544 29.5433 24.59C29.0789 24.1256 28.5089 23.8933 27.8333 23.8933H25.2367C24.6033 23.8933 24.0333 24.1256 23.5267 24.59C23.0622 25.0544 22.83 25.6244 22.83 26.3V29.6567L14.2167 32.5067V23.5767C14.2167 21.0856 14.9556 19.1011 16.4333 17.6233C17.9533 16.1033 19.9589 15.3433 22.45 15.3433H30.62C33.1111 15.3433 35.0956 16.1033 36.5733 17.6233C38.0933 19.1011 38.8533 21.0856 38.8533 23.5767V37.1933C38.8533 37.8267 38.6844 38.4811 38.3467 39.1567C38.0511 39.79 37.65 40.36 37.1433 40.8667C36.6367 41.3733 36.0456 41.7956 35.37 42.1333C34.7367 42.4289 34.0822 42.5767 33.4067 42.5767C34.0822 42.5767 34.7367 42.7456 35.37 43.0833C36.0456 43.3789 36.6367 43.8011 37.1433 44.35C37.65 44.8567 38.0511 45.4478 38.3467 46.1233C38.6844 46.7567 38.8533 47.39 38.8533 48.0233V61.7667C38.8533 64.2578 38.0933 66.2633 36.5733 67.7833C35.0956 69.2611 33.1111 70 30.62 70H22.45C19.9589 70 17.9533 69.2611 16.4333 67.7833C14.9556 66.2633 14.2167 64.2578 14.2167 61.7667V52.8367L22.83 55.6867ZM53.4784 24.4633C53.4784 21.5922 54.3439 19.2911 56.0751 17.56C57.8062 15.8289 60.1073 14.9633 62.9784 14.9633H68.5517C71.4228 14.9633 73.7239 15.8289 75.4551 17.56C77.1862 19.2911 78.0517 21.5922 78.0517 24.4633V60.8167C78.0517 63.6878 77.1862 65.9889 75.4551 67.72C73.7239 69.4511 71.4228 70.3167 68.5517 70.3167H62.9784C60.1073 70.3167 57.8062 69.4511 56.0751 67.72C54.3439 65.9889 53.4784 63.6878 53.4784 60.8167V24.4633ZM64.4984 61.64H67.0317C67.7073 61.64 68.2773 61.4078 68.7417 60.9433C69.2062 60.4789 69.4384 59.9089 69.4384 59.2333V26.0467C69.4384 25.3711 69.2062 24.8011 68.7417 24.3367C68.2773 23.8722 67.7073 23.64 67.0317 23.64H64.4984C63.8228 23.64 63.2528 23.8722 62.7884 24.3367C62.3239 24.8011 62.0917 25.3711 62.0917 26.0467V59.2333C62.0917 59.9089 62.3239 60.4789 62.7884 60.9433C63.2528 61.4078 63.8228 61.64 64.4984 61.64ZM82.7206 24.4633C82.7206 21.5922 83.5861 19.2911 85.3172 17.56C87.0484 15.8289 89.3495 14.9633 92.2206 14.9633H97.7939C100.665 14.9633 102.966 15.8289 104.697 17.56C106.428 19.2911 107.294 21.5922 107.294 24.4633V60.8167C107.294 63.6878 106.428 65.9889 104.697 67.72C102.966 69.4511 100.665 70.3167 97.7939 70.3167H92.2206C89.3495 70.3167 87.0484 69.4511 85.3172 67.72C83.5861 65.9889 82.7206 63.6878 82.7206 60.8167V24.4633ZM93.7406 61.64H96.2739C96.9495 61.64 97.5195 61.4078 97.9839 60.9433C98.4484 60.4789 98.6806 59.9089 98.6806 59.2333V26.0467C98.6806 25.3711 98.4484 24.8011 97.9839 24.3367C97.5195 23.8722 96.9495 23.64 96.2739 23.64H93.7406C93.065 23.64 92.495 23.8722 92.0306 24.3367C91.5661 24.8011 91.3339 25.3711 91.3339 26.0467V59.2333C91.3339 59.9089 91.5661 60.4789 92.0306 60.9433C92.495 61.4078 93.065 61.64 93.7406 61.64ZM111.963 24.4633C111.963 21.5922 112.828 19.2911 114.559 17.56C116.291 15.8289 118.592 14.9633 121.463 14.9633H127.036C129.907 14.9633 132.208 15.8289 133.939 17.56C135.671 19.2911 136.536 21.5922 136.536 24.4633V60.8167C136.536 63.6878 135.671 65.9889 133.939 67.72C132.208 69.4511 129.907 70.3167 127.036 70.3167H121.463C118.592 70.3167 116.291 69.4511 114.559 67.72C112.828 65.9889 111.963 63.6878 111.963 60.8167V24.4633ZM122.983 61.64H125.516C126.192 61.64 126.762 61.4078 127.226 60.9433C127.691 60.4789 127.923 59.9089 127.923 59.2333V26.0467C127.923 25.3711 127.691 24.8011 127.226 24.3367C126.762 23.8722 126.192 23.64 125.516 23.64H122.983C122.307 23.64 121.737 23.8722 121.273 24.3367C120.808 24.8011 120.576 25.3711 120.576 26.0467V59.2333C120.576 59.9089 120.808 60.4789 121.273 60.9433C121.737 61.4078 122.307 61.64 122.983 61.64Z"/>
</mask>
<path d="M22.83 55.6867H23.83V54.9642L23.1441 54.7373L22.83 55.6867ZM23.5267 60.7533L22.8196 61.4604L22.8349 61.4758L22.8509 61.4905L23.5267 60.7533ZM29.5433 60.7533L28.8362 60.0462L29.5433 60.7533ZM29.5433 47.58L30.2504 46.8729V46.8729L29.5433 47.58ZM22.83 46.8833H21.83V47.8833H22.83V46.8833ZM22.83 38.3333V37.3333H21.83V38.3333H22.83ZM29.5433 37.6367L28.8362 36.9296L29.5433 37.6367ZM29.5433 24.59L28.8362 25.2971V25.2971L29.5433 24.59ZM23.5267 24.59L22.8509 23.8528L22.8349 23.8675L22.8196 23.8829L23.5267 24.59ZM22.83 29.6567L23.1441 30.606L23.83 30.3791V29.6567H22.83ZM14.2167 32.5067H13.2167V33.8909L14.5308 33.456L14.2167 32.5067ZM16.4333 17.6233L17.1404 18.3304L17.1404 18.3304L16.4333 17.6233ZM36.5733 17.6233L35.8563 18.3204L35.8662 18.3305L35.8763 18.3403L36.5733 17.6233ZM38.3467 39.1567L37.4522 38.7095L37.4462 38.7215L37.4405 38.7338L38.3467 39.1567ZM37.1433 40.8667L36.4362 40.1596L36.4362 40.1596L37.1433 40.8667ZM35.37 42.1333L35.7929 43.0395L35.8051 43.0338L35.8172 43.0278L35.37 42.1333ZM35.37 43.0833L34.8994 43.9657L34.9336 43.9839L34.9692 43.9995L35.37 43.0833ZM37.1433 44.35L36.4085 45.0283L36.4221 45.043L36.4362 45.0571L37.1433 44.35ZM38.3467 46.1233L37.4305 46.5242L37.4461 46.5597L37.4643 46.5939L38.3467 46.1233ZM36.5733 67.7833L37.2804 68.4904L36.5733 67.7833ZM16.4333 67.7833L15.7163 68.4804L15.7262 68.4905L15.7363 68.5003L16.4333 67.7833ZM14.2167 52.8367L14.5308 51.8873L13.2167 51.4525V52.8367H14.2167ZM21.83 55.6867V59.0433H23.83V55.6867H21.83ZM21.83 59.0433C21.83 59.9756 22.1617 60.8026 22.8196 61.4604L24.2338 60.0462C23.9628 59.7752 23.83 59.4621 23.83 59.0433H21.83ZM22.8509 61.4905C23.5249 62.1083 24.3309 62.45 25.2367 62.45V60.45C24.8758 60.45 24.5417 60.3272 24.2024 60.0162L22.8509 61.4905ZM25.2367 62.45H27.8333V60.45H25.2367V62.45ZM27.8333 62.45C28.7656 62.45 29.5926 62.1183 30.2504 61.4604L28.8362 60.0462C28.5652 60.3172 28.2521 60.45 27.8333 60.45V62.45ZM30.2504 61.4604C30.9083 60.8026 31.24 59.9756 31.24 59.0433H29.24C29.24 59.4621 29.1072 59.7752 28.8362 60.0462L30.2504 61.4604ZM31.24 59.0433V49.29H29.24V59.0433H31.24ZM31.24 49.29C31.24 48.3577 30.9083 47.5308 30.2504 46.8729L28.8362 48.2871C29.1072 48.5581 29.24 48.8712 29.24 49.29H31.24ZM30.2504 46.8729C29.5926 46.215 28.7656 45.8833 27.8333 45.8833V47.8833C28.2521 47.8833 28.5652 48.0161 28.8362 48.2871L30.2504 46.8729ZM27.8333 45.8833H22.83V47.8833H27.8333V45.8833ZM23.83 46.8833V38.3333H21.83V46.8833H23.83ZM22.83 39.3333H27.8333V37.3333H22.83V39.3333ZM27.8333 39.3333C28.7656 39.3333 29.5926 39.0017 30.2504 38.3438L28.8362 36.9296C28.5652 37.2006 28.2521 37.3333 27.8333 37.3333V39.3333ZM30.2504 38.3438C30.9083 37.6859 31.24 36.859 31.24 35.9267H29.24C29.24 36.3455 29.1072 36.6586 28.8362 36.9296L30.2504 38.3438ZM31.24 35.9267V26.3H29.24V35.9267H31.24ZM31.24 26.3C31.24 25.3677 30.9083 24.5408 30.2504 23.8829L28.8362 25.2971C29.1072 25.5681 29.24 25.8812 29.24 26.3H31.24ZM30.2504 23.8829C29.5926 23.225 28.7656 22.8933 27.8333 22.8933V24.8933C28.2521 24.8933 28.5652 25.0261 28.8362 25.2971L30.2504 23.8829ZM27.8333 22.8933H25.2367V24.8933H27.8333V22.8933ZM25.2367 22.8933C24.3309 22.8933 23.5249 23.235 22.8509 23.8528L24.2024 25.3272C24.5417 25.0161 24.8758 24.8933 25.2367 24.8933V22.8933ZM22.8196 23.8829C22.1617 24.5408 21.83 25.3677 21.83 26.3H23.83C23.83 25.8812 23.9628 25.5681 24.2338 25.2971L22.8196 23.8829ZM21.83 26.3V29.6567H23.83V26.3H21.83ZM22.5159 28.7073L13.9025 31.5573L14.5308 33.456L23.1441 30.606L22.5159 28.7073ZM15.2167 32.5067V23.5767H13.2167V32.5067H15.2167ZM15.2167 23.5767C15.2167 21.2962 15.8856 19.5853 17.1404 18.3304L15.7262 16.9162C14.0255 18.6169 13.2167 20.875 13.2167 23.5767H15.2167ZM17.1404 18.3304C18.443 17.0279 20.1785 16.3433 22.45 16.3433V14.3433C19.7393 14.3433 17.4637 15.1787 15.7262 16.9162L17.1404 18.3304ZM22.45 16.3433H30.62V14.3433H22.45V16.3433ZM30.62 16.3433C32.8922 16.3433 34.5998 17.0279 35.8563 18.3204L37.2903 16.9263C35.5914 15.1787 33.33 14.3433 30.62 14.3433V16.3433ZM35.8763 18.3403C37.1687 19.5969 37.8533 21.3045 37.8533 23.5767H39.8533C39.8533 20.8666 39.0179 18.6053 37.2704 16.9063L35.8763 18.3403ZM37.8533 23.5767V37.1933H39.8533V23.5767H37.8533ZM37.8533 37.1933C37.8533 37.6443 37.7338 38.1462 37.4522 38.7095L39.2411 39.6039C39.635 38.816 39.8533 38.0091 39.8533 37.1933H37.8533ZM37.4405 38.7338C37.1955 39.2588 36.8626 39.7332 36.4362 40.1596L37.8504 41.5738C38.4374 40.9868 38.9068 40.3212 39.2528 39.5796L37.4405 38.7338ZM36.4362 40.1596C36.0096 40.5862 35.5074 40.9466 34.9228 41.2389L35.8172 43.0278C36.5837 42.6445 37.2637 42.1605 37.8504 41.5738L36.4362 40.1596ZM34.9471 41.2271C34.4415 41.4631 33.931 41.5767 33.4067 41.5767V43.5767C34.2334 43.5767 35.0318 43.3947 35.7929 43.0395L34.9471 41.2271ZM33.4067 43.5767C33.9078 43.5767 34.4016 43.7002 34.8994 43.9657L35.8406 42.201C35.0718 41.7909 34.2566 41.5767 33.4067 41.5767V43.5767ZM34.9692 43.9995C35.5165 44.2389 35.9943 44.5795 36.4085 45.0283L37.8781 43.6717C37.279 43.0227 36.5746 42.5188 35.7708 42.1672L34.9692 43.9995ZM36.4362 45.0571C36.8521 45.473 37.1835 45.9594 37.4305 46.5242L39.2628 45.7225C38.9188 44.9361 38.4479 44.2403 37.8504 43.6429L36.4362 45.0571ZM37.4643 46.5939C37.7353 47.102 37.8533 47.5749 37.8533 48.0233H39.8533C39.8533 47.2051 39.6336 46.4114 39.229 45.6527L37.4643 46.5939ZM37.8533 48.0233V61.7667H39.8533V48.0233H37.8533ZM37.8533 61.7667C37.8533 64.0382 37.1687 65.7737 35.8662 67.0762L37.2804 68.4904C39.0179 66.753 39.8533 64.4774 39.8533 61.7667H37.8533ZM35.8662 67.0762C34.6114 68.3311 32.9005 69 30.62 69V71C33.3217 71 35.5798 70.1911 37.2804 68.4904L35.8662 67.0762ZM30.62 69H22.45V71H30.62V69ZM22.45 69C20.1703 69 18.4314 68.3312 17.1304 67.0663L15.7363 68.5003C17.4753 70.191 19.7474 71 22.45 71V69ZM17.1503 67.0863C15.8855 65.7853 15.2167 64.0463 15.2167 61.7667H13.2167C13.2167 64.4692 14.0256 66.7414 15.7163 68.4804L17.1503 67.0863ZM15.2167 61.7667V52.8367H13.2167V61.7667H15.2167ZM13.9025 53.786L22.5159 56.636L23.1441 54.7373L14.5308 51.8873L13.9025 53.786ZM56.0751 17.56L56.7822 18.2671L56.0751 17.56ZM75.4551 17.56L74.7479 18.2671V18.2671L75.4551 17.56ZM75.4551 67.72L74.7479 67.0129L75.4551 67.72ZM56.0751 67.72L55.3679 68.4271L56.0751 67.72ZM68.7417 60.9433L68.0346 60.2362H68.0346L68.7417 60.9433ZM62.7884 60.9433L63.4955 60.2362L62.7884 60.9433ZM54.4784 24.4633C54.4784 21.808 55.2708 19.7784 56.7822 18.2671L55.3679 16.8529C53.417 18.8038 52.4784 21.3764 52.4784 24.4633H54.4784ZM56.7822 18.2671C58.2935 16.7558 60.3231 15.9633 62.9784 15.9633V13.9633C59.8915 13.9633 57.3188 14.902 55.3679 16.8529L56.7822 18.2671ZM62.9784 15.9633H68.5517V13.9633H62.9784V15.9633ZM68.5517 15.9633C71.207 15.9633 73.2366 16.7558 74.7479 18.2671L76.1622 16.8529C74.2113 14.902 71.6387 13.9633 68.5517 13.9633V15.9633ZM74.7479 18.2671C76.2593 19.7784 77.0517 21.808 77.0517 24.4633H79.0517C79.0517 21.3764 78.1131 18.8038 76.1622 16.8529L74.7479 18.2671ZM77.0517 24.4633V60.8167H79.0517V24.4633H77.0517ZM77.0517 60.8167C77.0517 63.472 76.2593 65.5016 74.7479 67.0129L76.1622 68.4271C78.1131 66.4762 79.0517 63.9036 79.0517 60.8167H77.0517ZM74.7479 67.0129C73.2366 68.5242 71.207 69.3167 68.5517 69.3167V71.3167C71.6387 71.3167 74.2113 70.378 76.1622 68.4271L74.7479 67.0129ZM68.5517 69.3167H62.9784V71.3167H68.5517V69.3167ZM62.9784 69.3167C60.3231 69.3167 58.2935 68.5242 56.7822 67.0129L55.3679 68.4271C57.3189 70.378 59.8915 71.3167 62.9784 71.3167V69.3167ZM56.7822 67.0129C55.2708 65.5016 54.4784 63.472 54.4784 60.8167H52.4784C52.4784 63.9036 53.417 66.4762 55.3679 68.4271L56.7822 67.0129ZM54.4784 60.8167V24.4633H52.4784V60.8167H54.4784ZM64.4984 62.64H67.0317V60.64H64.4984V62.64ZM67.0317 62.64C67.964 62.64 68.7909 62.3083 69.4488 61.6504L68.0346 60.2362C67.7636 60.5072 67.4505 60.64 67.0317 60.64V62.64ZM69.4488 61.6504C70.1067 60.9926 70.4384 60.1656 70.4384 59.2333H68.4384C68.4384 59.6521 68.3056 59.9652 68.0346 60.2362L69.4488 61.6504ZM70.4384 59.2333V26.0467H68.4384V59.2333H70.4384ZM70.4384 26.0467C70.4384 25.1144 70.1067 24.2874 69.4488 23.6296L68.0346 25.0438C68.3056 25.3148 68.4384 25.6279 68.4384 26.0467H70.4384ZM69.4488 23.6296C68.7909 22.9717 67.964 22.64 67.0317 22.64V24.64C67.4505 24.64 67.7636 24.7728 68.0346 25.0438L69.4488 23.6296ZM67.0317 22.64H64.4984V24.64H67.0317V22.64ZM64.4984 22.64C63.5661 22.64 62.7392 22.9717 62.0813 23.6296L63.4955 25.0438C63.7665 24.7728 64.0796 24.64 64.4984 24.64V22.64ZM62.0813 23.6296C61.4234 24.2874 61.0917 25.1144 61.0917 26.0467H63.0917C63.0917 25.6279 63.2245 25.3148 63.4955 25.0438L62.0813 23.6296ZM61.0917 26.0467V59.2333H63.0917V26.0467H61.0917ZM61.0917 59.2333C61.0917 60.1656 61.4234 60.9926 62.0813 61.6504L63.4955 60.2362C63.2245 59.9652 63.0917 59.6521 63.0917 59.2333H61.0917ZM62.0813 61.6504C62.7392 62.3083 63.5661 62.64 64.4984 62.64V60.64C64.0796 60.64 63.7665 60.5072 63.4955 60.2362L62.0813 61.6504ZM85.3172 17.56L86.0243 18.2671L85.3172 17.56ZM104.697 17.56L103.99 18.2671V18.2671L104.697 17.56ZM104.697 67.72L103.99 67.0129L104.697 67.72ZM85.3172 67.72L84.6101 68.4271L85.3172 67.72ZM97.9839 60.9433L97.2768 60.2362L97.9839 60.9433ZM92.0306 60.9433L92.7377 60.2362L92.0306 60.9433ZM83.7206 24.4633C83.7206 21.808 84.513 19.7784 86.0243 18.2671L84.6101 16.8529C82.6592 18.8038 81.7206 21.3764 81.7206 24.4633H83.7206ZM86.0243 18.2671C87.5357 16.7558 89.5653 15.9633 92.2206 15.9633V13.9633C89.1336 13.9633 86.561 14.902 84.6101 16.8529L86.0243 18.2671ZM92.2206 15.9633H97.7939V13.9633H92.2206V15.9633ZM97.7939 15.9633C100.449 15.9633 102.479 16.7558 103.99 18.2671L105.404 16.8529C103.453 14.902 100.881 13.9633 97.7939 13.9633V15.9633ZM103.99 18.2671C105.501 19.7784 106.294 21.808 106.294 24.4633H108.294C108.294 21.3764 107.355 18.8038 105.404 16.8529L103.99 18.2671ZM106.294 24.4633V60.8167H108.294V24.4633H106.294ZM106.294 60.8167C106.294 63.472 105.501 65.5016 103.99 67.0129L105.404 68.4271C107.355 66.4762 108.294 63.9036 108.294 60.8167H106.294ZM103.99 67.0129C102.479 68.5242 100.449 69.3167 97.7939 69.3167V71.3167C100.881 71.3167 103.453 70.378 105.404 68.4271L103.99 67.0129ZM97.7939 69.3167H92.2206V71.3167H97.7939V69.3167ZM92.2206 69.3167C89.5653 69.3167 87.5357 68.5242 86.0243 67.0129L84.6101 68.4271C86.561 70.378 89.1336 71.3167 92.2206 71.3167V69.3167ZM86.0243 67.0129C84.513 65.5016 83.7206 63.472 83.7206 60.8167H81.7206C81.7206 63.9036 82.6592 66.4762 84.6101 68.4271L86.0243 67.0129ZM83.7206 60.8167V24.4633H81.7206V60.8167H83.7206ZM93.7406 62.64H96.2739V60.64H93.7406V62.64ZM96.2739 62.64C97.2062 62.64 98.0331 62.3083 98.691 61.6504L97.2768 60.2362C97.0058 60.5072 96.6927 60.64 96.2739 60.64V62.64ZM98.691 61.6504C99.3489 60.9926 99.6806 60.1656 99.6806 59.2333H97.6806C97.6806 59.6521 97.5478 59.9652 97.2768 60.2362L98.691 61.6504ZM99.6806 59.2333V26.0467H97.6806V59.2333H99.6806ZM99.6806 26.0467C99.6806 25.1144 99.3489 24.2874 98.691 23.6296L97.2768 25.0438C97.5478 25.3148 97.6806 25.6279 97.6806 26.0467H99.6806ZM98.691 23.6296C98.0331 22.9717 97.2062 22.64 96.2739 22.64V24.64C96.6927 24.64 97.0058 24.7728 97.2768 25.0438L98.691 23.6296ZM96.2739 22.64H93.7406V24.64H96.2739V22.64ZM93.7406 22.64C92.8083 22.64 91.9813 22.9717 91.3235 23.6296L92.7377 25.0438C93.0087 24.7728 93.3218 24.64 93.7406 24.64V22.64ZM91.3235 23.6296C90.6656 24.2874 90.3339 25.1144 90.3339 26.0467H92.3339C92.3339 25.6279 92.4667 25.3148 92.7377 25.0438L91.3235 23.6296ZM90.3339 26.0467V59.2333H92.3339V26.0467H90.3339ZM90.3339 59.2333C90.3339 60.1656 90.6656 60.9926 91.3235 61.6504L92.7377 60.2362C92.4667 59.9652 92.3339 59.6521 92.3339 59.2333H90.3339ZM91.3235 61.6504C91.9813 62.3083 92.8083 62.64 93.7406 62.64V60.64C93.3218 60.64 93.0087 60.5072 92.7377 60.2362L91.3235 61.6504ZM114.559 17.56L115.267 18.2671L114.559 17.56ZM133.939 17.56L133.232 18.2671V18.2671L133.939 17.56ZM133.939 67.72L133.232 67.0129L133.939 67.72ZM114.559 67.72L113.852 68.4271L114.559 67.72ZM127.226 60.9433L126.519 60.2362L127.226 60.9433ZM121.273 60.9433L121.98 60.2362L121.273 60.9433ZM112.963 24.4633C112.963 21.808 113.755 19.7784 115.267 18.2671L113.852 16.8529C111.901 18.8038 110.963 21.3764 110.963 24.4633H112.963ZM115.267 18.2671C116.778 16.7558 118.807 15.9633 121.463 15.9633V13.9633C118.376 13.9633 115.803 14.902 113.852 16.8529L115.267 18.2671ZM121.463 15.9633H127.036V13.9633H121.463V15.9633ZM127.036 15.9633C129.691 15.9633 131.721 16.7558 133.232 18.2671L134.647 16.8529C132.696 14.902 130.123 13.9633 127.036 13.9633V15.9633ZM133.232 18.2671C134.744 19.7784 135.536 21.808 135.536 24.4633H137.536C137.536 21.3764 136.597 18.8038 134.647 16.8529L133.232 18.2671ZM135.536 24.4633V60.8167H137.536V24.4633H135.536ZM135.536 60.8167C135.536 63.472 134.744 65.5016 133.232 67.0129L134.647 68.4271C136.597 66.4762 137.536 63.9036 137.536 60.8167H135.536ZM133.232 67.0129C131.721 68.5242 129.691 69.3167 127.036 69.3167V71.3167C130.123 71.3167 132.696 70.378 134.647 68.4271L133.232 67.0129ZM127.036 69.3167H121.463V71.3167H127.036V69.3167ZM121.463 69.3167C118.807 69.3167 116.778 68.5242 115.267 67.0129L113.852 68.4271C115.803 70.378 118.376 71.3167 121.463 71.3167V69.3167ZM115.267 67.0129C113.755 65.5016 112.963 63.472 112.963 60.8167H110.963C110.963 63.9036 111.901 66.4762 113.852 68.4271L115.267 67.0129ZM112.963 60.8167V24.4633H110.963V60.8167H112.963ZM122.983 62.64H125.516V60.64H122.983V62.64ZM125.516 62.64C126.448 62.64 127.275 62.3083 127.933 61.6504L126.519 60.2362C126.248 60.5072 125.935 60.64 125.516 60.64V62.64ZM127.933 61.6504C128.591 60.9926 128.923 60.1656 128.923 59.2333H126.923C126.923 59.6521 126.79 59.9652 126.519 60.2362L127.933 61.6504ZM128.923 59.2333V26.0467H126.923V59.2333H128.923ZM128.923 26.0467C128.923 25.1144 128.591 24.2874 127.933 23.6296L126.519 25.0438C126.79 25.3148 126.923 25.6279 126.923 26.0467H128.923ZM127.933 23.6296C127.275 22.9717 126.448 22.64 125.516 22.64V24.64C125.935 24.64 126.248 24.7728 126.519 25.0438L127.933 23.6296ZM125.516 22.64H122.983V24.64H125.516V22.64ZM122.983 22.64C122.05 22.64 121.224 22.9717 120.566 23.6296L121.98 25.0438C122.251 24.7728 122.564 24.64 122.983 24.64V22.64ZM120.566 23.6296C119.908 24.2874 119.576 25.1144 119.576 26.0467H121.576C121.576 25.6279 121.709 25.3148 121.98 25.0438L120.566 23.6296ZM119.576 26.0467V59.2333H121.576V26.0467H119.576ZM119.576 59.2333C119.576 60.1656 119.908 60.9926 120.566 61.6504L121.98 60.2362C121.709 59.9652 121.576 59.6521 121.576 59.2333H119.576ZM120.566 61.6504C121.224 62.3083 122.05 62.64 122.983 62.64V60.64C122.564 60.64 122.251 60.5072 121.98 60.2362L120.566 61.6504Z" fill="url(#paint0_linear_0_4689)" mask="url(#path-1-outside-1_0_4689)"/>
</g>
<defs>
<filter id="filter0_d_0_4689" x="0.21666" y="0.963332" width="150.319" height="83.3533" filterUnits="userSpaceOnUse" color-interpolation-filters="sRGB">
<feFlood flood-opacity="0" result="BackgroundImageFix"/>
<feColorMatrix in="SourceAlpha" type="matrix" values="0 0 0 0 0 0 0 0 0 0 0 0 0 0 0 0 0 0 127 0" result="hardAlpha"/>
<feOffset/>
<feGaussianBlur stdDeviation="7"/>
<feColorMatrix type="matrix" values="0 0 0 0 0.605128 0 0 0 0 0 0 0 0 0 1 0 0 0 1 0"/>
<feBlend mode="normal" in2="BackgroundImageFix" result="effect1_dropShadow_0_4689"/>
<feBlend mode="normal" in="SourceGraphic" in2="effect1_dropShadow_0_4689" result="shape"/>
</filter>
<linearGradient id="paint0_linear_0_4689" x1="75.5" y1="3" x2="75.5" y2="86" gradientUnits="userSpaceOnUse">
<stop stop-color="#AEAEAE"/>
<stop offset="1" stop-color="#AE38FB" stop-opacity="0"/>
</linearGradient>
</defs>
</svg>
