<svg width="169" height="85" viewBox="0 0 169 85" fill="none" xmlns="http://www.w3.org/2000/svg">
<g filter="url(#filter0_d_0_4693)">
<mask id="path-1-outside-1_0_4693" maskUnits="userSpaceOnUse" x="13" y="13" width="143" height="59" fill="black">
<rect fill="white" x="13" y="13" width="143" height="59"/>
<path d="M14.2167 15.28H27.2633V70H18.65V23.8933C17.2989 23.8933 16.2222 23.4922 15.42 22.69C14.6178 21.8878 14.2167 20.8111 14.2167 19.46V15.28ZM31.7323 49.7333C31.7323 47.2422 32.4712 45.11 33.949 43.3367C35.4267 41.5211 37.3901 40.3811 39.839 39.9167L45.349 38.9033C46.109 38.7767 46.7001 38.4389 47.1223 37.89C47.5867 37.2989 47.819 36.6233 47.819 35.8633V26.4267C47.819 25.6667 47.5867 25.0544 47.1223 24.59C46.6578 24.1256 46.0456 23.8933 45.2856 23.8933H42.879C42.119 23.8933 41.5067 24.1256 41.0423 24.59C40.5778 25.0544 40.3456 25.6667 40.3456 26.4267V29.72L31.7323 32.57V23.5767C31.7323 21.0856 32.4712 19.1011 33.949 17.6233C35.469 16.1033 37.4745 15.3433 39.9656 15.3433H48.1356C50.6267 15.3433 52.6112 16.1033 54.089 17.6233C55.609 19.1011 56.369 21.0856 56.369 23.5767V37.1933C56.369 39.6844 55.6301 41.8167 54.1523 43.59C52.6745 45.3633 50.7112 46.4822 48.2623 46.9467L42.7523 48.0233C41.9923 48.1922 41.3801 48.5511 40.9156 49.1C40.4934 49.6067 40.2823 50.24 40.2823 51V61.45H56.369V70H31.7323V49.7333ZM70.994 24.4633C70.994 21.5922 71.8596 19.2911 73.5907 17.56C75.3218 15.8289 77.6229 14.9633 80.494 14.9633H86.0673C88.9385 14.9633 91.2396 15.8289 92.9707 17.56C94.7018 19.2911 95.5673 21.5922 95.5673 24.4633V60.8167C95.5673 63.6878 94.7018 65.9889 92.9707 67.72C91.2396 69.4511 88.9385 70.3167 86.0673 70.3167H80.494C77.6229 70.3167 75.3218 69.4511 73.5907 67.72C71.8596 65.9889 70.994 63.6878 70.994 60.8167V24.4633ZM82.014 61.64H84.5473C85.2229 61.64 85.7929 61.4078 86.2573 60.9433C86.7218 60.4789 86.954 59.9089 86.954 59.2333V26.0467C86.954 25.3711 86.7218 24.8011 86.2573 24.3367C85.7929 23.8722 85.2229 23.64 84.5473 23.64H82.014C81.3385 23.64 80.7685 23.8722 80.304 24.3367C79.8396 24.8011 79.6073 25.3711 79.6073 26.0467V59.2333C79.6073 59.9089 79.8396 60.4789 80.304 60.9433C80.7685 61.4078 81.3385 61.64 82.014 61.64ZM100.236 24.4633C100.236 21.5922 101.102 19.2911 102.833 17.56C104.564 15.8289 106.865 14.9633 109.736 14.9633H115.31C118.181 14.9633 120.482 15.8289 122.213 17.56C123.944 19.2911 124.81 21.5922 124.81 24.4633V60.8167C124.81 63.6878 123.944 65.9889 122.213 67.72C120.482 69.4511 118.181 70.3167 115.31 70.3167H109.736C106.865 70.3167 104.564 69.4511 102.833 67.72C101.102 65.9889 100.236 63.6878 100.236 60.8167V24.4633ZM111.256 61.64H113.79C114.465 61.64 115.035 61.4078 115.5 60.9433C115.964 60.4789 116.196 59.9089 116.196 59.2333V26.0467C116.196 25.3711 115.964 24.8011 115.5 24.3367C115.035 23.8722 114.465 23.64 113.79 23.64H111.256C110.581 23.64 110.011 23.8722 109.546 24.3367C109.082 24.8011 108.85 25.3711 108.85 26.0467V59.2333C108.85 59.9089 109.082 60.4789 109.546 60.9433C110.011 61.4078 110.581 61.64 111.256 61.64ZM129.478 24.4633C129.478 21.5922 130.344 19.2911 132.075 17.56C133.806 15.8289 136.107 14.9633 138.978 14.9633H144.552C147.423 14.9633 149.724 15.8289 151.455 17.56C153.186 19.2911 154.052 21.5922 154.052 24.4633V60.8167C154.052 63.6878 153.186 65.9889 151.455 67.72C149.724 69.4511 147.423 70.3167 144.552 70.3167H138.978C136.107 70.3167 133.806 69.4511 132.075 67.72C130.344 65.9889 129.478 63.6878 129.478 60.8167V24.4633ZM140.498 61.64H143.032C143.707 61.64 144.277 61.4078 144.742 60.9433C145.206 60.4789 145.438 59.9089 145.438 59.2333V26.0467C145.438 25.3711 145.206 24.8011 144.742 24.3367C144.277 23.8722 143.707 23.64 143.032 23.64H140.498C139.823 23.64 139.253 23.8722 138.788 24.3367C138.324 24.8011 138.092 25.3711 138.092 26.0467V59.2333C138.092 59.9089 138.324 60.4789 138.788 60.9433C139.253 61.4078 139.823 61.64 140.498 61.64Z"/>
</mask>
<path d="M14.2167 15.28V14.28H13.2167V15.28H14.2167ZM27.2633 15.28H28.2633V14.28H27.2633V15.28ZM27.2633 70V71H28.2633V70H27.2633ZM18.65 70H17.65V71H18.65V70ZM18.65 23.8933H19.65V22.8933H18.65V23.8933ZM15.42 22.69L16.1271 21.9829L15.42 22.69ZM14.2167 16.28H27.2633V14.28H14.2167V16.28ZM26.2633 15.28V70H28.2633V15.28H26.2633ZM27.2633 69H18.65V71H27.2633V69ZM19.65 70V23.8933H17.65V70H19.65ZM18.65 22.8933C17.5098 22.8933 16.7066 22.5624 16.1271 21.9829L14.7129 23.3971C15.7379 24.4221 17.088 24.8933 18.65 24.8933V22.8933ZM16.1271 21.9829C15.5476 21.4034 15.2167 20.6002 15.2167 19.46H13.2167C13.2167 21.022 13.6879 22.3721 14.7129 23.3971L16.1271 21.9829ZM15.2167 19.46V15.28H13.2167V19.46H15.2167ZM33.949 43.3367L34.7172 43.9769L34.7245 43.9679L33.949 43.3367ZM39.839 39.9167L39.6581 38.9331L39.6526 38.9342L39.839 39.9167ZM45.349 38.9033L45.1846 37.9169L45.1763 37.9183L45.1681 37.9198L45.349 38.9033ZM47.1223 37.89L46.3359 37.2721L46.3297 37.2803L47.1223 37.89ZM47.1223 24.59L46.4152 25.2971V25.2971L47.1223 24.59ZM40.3456 29.72L40.6598 30.6694L41.3456 30.4424V29.72H40.3456ZM31.7323 32.57H30.7323V33.9542L32.0464 33.5194L31.7323 32.57ZM33.949 17.6233L34.6561 18.3304V18.3304L33.949 17.6233ZM54.089 17.6233L53.372 18.3204L53.3818 18.3305L53.3919 18.3403L54.089 17.6233ZM54.1523 43.59L54.9205 44.2302V44.2302L54.1523 43.59ZM48.2623 46.9467L48.076 45.9642L48.0705 45.9652L48.2623 46.9467ZM42.7523 48.0233L42.5605 47.0419L42.5479 47.0444L42.5354 47.0471L42.7523 48.0233ZM40.9156 49.1L40.1522 48.454L40.1474 48.4598L40.9156 49.1ZM40.2823 61.45H39.2823V62.45H40.2823V61.45ZM56.369 61.45H57.369V60.45H56.369V61.45ZM56.369 70V71H57.369V70H56.369ZM31.7323 70H30.7323V71H31.7323V70ZM32.7323 49.7333C32.7323 47.4562 33.4014 45.5557 34.7172 43.9768L33.1807 42.6965C31.5409 44.6643 30.7323 47.0282 30.7323 49.7333H32.7323ZM34.7245 43.9679C36.0433 42.3477 37.7919 41.3227 40.0253 40.8992L39.6526 38.9342C36.9883 39.4395 34.8101 40.6945 33.1734 42.7054L34.7245 43.9679ZM40.0198 40.9002L45.5298 39.8868L45.1681 37.9198L39.6581 38.9332L40.0198 40.9002ZM45.5134 39.8897C46.4924 39.7265 47.3206 39.2723 47.9149 38.4997L46.3297 37.2803C46.0795 37.6055 45.7255 37.8268 45.1846 37.9169L45.5134 39.8897ZM47.9086 38.5078C48.5131 37.7384 48.819 36.8447 48.819 35.8633H46.819C46.819 36.4019 46.6603 36.8593 46.336 37.2722L47.9086 38.5078ZM48.819 35.8633V26.4267H46.819V35.8633H48.819ZM48.819 26.4267C48.819 25.4465 48.511 24.5645 47.8294 23.8829L46.4152 25.2971C46.6624 25.5444 46.819 25.8868 46.819 26.4267H48.819ZM47.8294 23.8829C47.1478 23.2013 46.2657 22.8933 45.2856 22.8933V24.8933C45.8255 24.8933 46.1679 25.0498 46.4152 25.2971L47.8294 23.8829ZM45.2856 22.8933H42.879V24.8933H45.2856V22.8933ZM42.879 22.8933C41.8988 22.8933 41.0168 23.2013 40.3352 23.8829L41.7494 25.2971C41.9967 25.0498 42.3391 24.8933 42.879 24.8933V22.8933ZM40.3352 23.8829C39.6536 24.5645 39.3456 25.4465 39.3456 26.4267H41.3456C41.3456 25.8868 41.5021 25.5444 41.7494 25.2971L40.3352 23.8829ZM39.3456 26.4267V29.72H41.3456V26.4267H39.3456ZM40.0315 28.7706L31.4182 31.6206L32.0464 33.5194L40.6598 30.6694L40.0315 28.7706ZM32.7323 32.57V23.5767H30.7323V32.57H32.7323ZM32.7323 23.5767C32.7323 21.2962 33.4012 19.5853 34.6561 18.3304L33.2419 16.9162C31.5412 18.6169 30.7323 20.875 30.7323 23.5767H32.7323ZM34.6561 18.3304C35.9586 17.0279 37.6941 16.3433 39.9656 16.3433V14.3433C37.2549 14.3433 34.9793 15.1787 33.2419 16.9162L34.6561 18.3304ZM39.9656 16.3433H48.1356V14.3433H39.9656V16.3433ZM48.1356 16.3433C50.4078 16.3433 52.1154 17.0279 53.372 18.3204L54.806 16.9263C53.107 15.1787 50.8457 14.3433 48.1356 14.3433V16.3433ZM53.3919 18.3403C54.6844 19.5969 55.369 21.3045 55.369 23.5767H57.369C57.369 20.8666 56.5336 18.6053 54.786 16.9063L53.3919 18.3403ZM55.369 23.5767V37.1933H57.369V23.5767H55.369ZM55.369 37.1933C55.369 39.4704 54.6998 41.3709 53.3841 42.9498L54.9205 44.2302C56.5603 42.2624 57.369 39.8985 57.369 37.1933H55.369ZM53.3841 42.9498C52.0669 44.5304 50.3166 45.5392 48.076 45.9642L48.4486 47.9292C51.1058 47.4252 53.2821 46.1963 54.9205 44.2302L53.3841 42.9498ZM48.0705 45.9652L42.5605 47.0419L42.9441 49.0048L48.4541 47.9281L48.0705 45.9652ZM42.5354 47.0471C41.5808 47.2593 40.7698 47.7242 40.1522 48.4541L41.679 49.7459C41.9904 49.378 42.4038 49.1252 42.9692 48.9995L42.5354 47.0471ZM40.1474 48.4598C39.553 49.1731 39.2823 50.0437 39.2823 51H41.2823C41.2823 50.4363 41.4338 50.0402 41.6838 49.7402L40.1474 48.4598ZM39.2823 51V61.45H41.2823V51H39.2823ZM40.2823 62.45H56.369V60.45H40.2823V62.45ZM55.369 61.45V70H57.369V61.45H55.369ZM56.369 69H31.7323V71H56.369V69ZM32.7323 70V49.7333H30.7323V70H32.7323ZM73.5907 17.56L74.2978 18.2671L73.5907 17.56ZM92.9707 17.56L92.2636 18.2671V18.2671L92.9707 17.56ZM92.9707 67.72L92.2636 67.0129L92.9707 67.72ZM73.5907 67.72L72.8836 68.4271L73.5907 67.72ZM86.2573 60.9433L85.5502 60.2362L86.2573 60.9433ZM80.304 60.9433L81.0111 60.2362L80.304 60.9433ZM71.994 24.4633C71.994 21.808 72.7865 19.7784 74.2978 18.2671L72.8836 16.8529C70.9327 18.8038 69.994 21.3764 69.994 24.4633H71.994ZM74.2978 18.2671C75.8091 16.7558 77.8387 15.9633 80.494 15.9633V13.9633C77.4071 13.9633 74.8345 14.902 72.8836 16.8529L74.2978 18.2671ZM80.494 15.9633H86.0673V13.9633H80.494V15.9633ZM86.0673 15.9633C88.7226 15.9633 90.7523 16.7558 92.2636 18.2671L93.6778 16.8529C91.7269 14.902 89.1543 13.9633 86.0673 13.9633V15.9633ZM92.2636 18.2671C93.7749 19.7784 94.5673 21.808 94.5673 24.4633H96.5673C96.5673 21.3764 95.6287 18.8038 93.6778 16.8529L92.2636 18.2671ZM94.5673 24.4633V60.8167H96.5673V24.4633H94.5673ZM94.5673 60.8167C94.5673 63.472 93.7749 65.5016 92.2636 67.0129L93.6778 68.4271C95.6287 66.4762 96.5673 63.9036 96.5673 60.8167H94.5673ZM92.2636 67.0129C90.7523 68.5242 88.7226 69.3167 86.0673 69.3167V71.3167C89.1543 71.3167 91.7269 70.378 93.6778 68.4271L92.2636 67.0129ZM86.0673 69.3167H80.494V71.3167H86.0673V69.3167ZM80.494 69.3167C77.8387 69.3167 75.8091 68.5242 74.2978 67.0129L72.8836 68.4271C74.8345 70.378 77.4071 71.3167 80.494 71.3167V69.3167ZM74.2978 67.0129C72.7865 65.5016 71.994 63.472 71.994 60.8167H69.994C69.994 63.9036 70.9327 66.4762 72.8836 68.4271L74.2978 67.0129ZM71.994 60.8167V24.4633H69.994V60.8167H71.994ZM82.014 62.64H84.5473V60.64H82.014V62.64ZM84.5473 62.64C85.4797 62.64 86.3066 62.3083 86.9645 61.6504L85.5502 60.2362C85.2792 60.5072 84.9661 60.64 84.5473 60.64V62.64ZM86.9644 61.6504C87.6223 60.9926 87.954 60.1656 87.954 59.2333H85.954C85.954 59.6521 85.8212 59.9652 85.5502 60.2362L86.9644 61.6504ZM87.954 59.2333V26.0467H85.954V59.2333H87.954ZM87.954 26.0467C87.954 25.1144 87.6223 24.2874 86.9644 23.6296L85.5502 25.0438C85.8212 25.3148 85.954 25.6279 85.954 26.0467H87.954ZM86.9644 23.6296C86.3066 22.9717 85.4797 22.64 84.5473 22.64V24.64C84.9661 24.64 85.2792 24.7728 85.5502 25.0438L86.9644 23.6296ZM84.5473 22.64H82.014V24.64H84.5473V22.64ZM82.014 22.64C81.0817 22.64 80.2548 22.9717 79.5969 23.6296L81.0111 25.0438C81.2821 24.7728 81.5952 24.64 82.014 24.64V22.64ZM79.5969 23.6296C78.939 24.2874 78.6073 25.1144 78.6073 26.0467H80.6073C80.6073 25.6279 80.7401 25.3148 81.0111 25.0438L79.5969 23.6296ZM78.6073 26.0467V59.2333H80.6073V26.0467H78.6073ZM78.6073 59.2333C78.6073 60.1656 78.939 60.9926 79.5969 61.6504L81.0111 60.2362C80.7401 59.9652 80.6073 59.6521 80.6073 59.2333H78.6073ZM79.5969 61.6504C80.2548 62.3083 81.0817 62.64 82.014 62.64V60.64C81.5952 60.64 81.2821 60.5072 81.0111 60.2362L79.5969 61.6504ZM102.833 17.56L103.54 18.2671L102.833 17.56ZM122.213 17.56L121.506 18.2671V18.2671L122.213 17.56ZM122.213 67.72L121.506 67.0129L122.213 67.72ZM102.833 67.72L102.126 68.4271L102.833 67.72ZM115.5 60.9433L114.792 60.2362L115.5 60.9433ZM109.546 60.9433L110.253 60.2362L109.546 60.9433ZM101.236 24.4633C101.236 21.808 102.029 19.7784 103.54 18.2671L102.126 16.8529C100.175 18.8038 99.2362 21.3764 99.2362 24.4633H101.236ZM103.54 18.2671C105.051 16.7558 107.081 15.9633 109.736 15.9633V13.9633C106.649 13.9633 104.077 14.902 102.126 16.8529L103.54 18.2671ZM109.736 15.9633H115.31V13.9633H109.736V15.9633ZM115.31 15.9633C117.965 15.9633 119.994 16.7558 121.506 18.2671L122.92 16.8529C120.969 14.902 118.396 13.9633 115.31 13.9633V15.9633ZM121.506 18.2671C123.017 19.7784 123.81 21.808 123.81 24.4633H125.81C125.81 21.3764 124.871 18.8038 122.92 16.8529L121.506 18.2671ZM123.81 24.4633V60.8167H125.81V24.4633H123.81ZM123.81 60.8167C123.81 63.472 123.017 65.5016 121.506 67.0129L122.92 68.4271C124.871 66.4762 125.81 63.9036 125.81 60.8167H123.81ZM121.506 67.0129C119.994 68.5242 117.965 69.3167 115.31 69.3167V71.3167C118.396 71.3167 120.969 70.378 122.92 68.4271L121.506 67.0129ZM115.31 69.3167H109.736V71.3167H115.31V69.3167ZM109.736 69.3167C107.081 69.3167 105.051 68.5242 103.54 67.0129L102.126 68.4271C104.077 70.378 106.649 71.3167 109.736 71.3167V69.3167ZM103.54 67.0129C102.029 65.5016 101.236 63.472 101.236 60.8167H99.2362C99.2362 63.9036 100.175 66.4762 102.126 68.4271L103.54 67.0129ZM101.236 60.8167V24.4633H99.2362V60.8167H101.236ZM111.256 62.64H113.79V60.64H111.256V62.64ZM113.79 62.64C114.722 62.64 115.549 62.3083 116.207 61.6504L114.792 60.2362C114.521 60.5072 114.208 60.64 113.79 60.64V62.64ZM116.207 61.6504C116.865 60.9926 117.196 60.1656 117.196 59.2333H115.196C115.196 59.6521 115.063 59.9652 114.792 60.2362L116.207 61.6504ZM117.196 59.2333V26.0467H115.196V59.2333H117.196ZM117.196 26.0467C117.196 25.1144 116.865 24.2874 116.207 23.6296L114.792 25.0438C115.063 25.3148 115.196 25.6279 115.196 26.0467H117.196ZM116.207 23.6296C115.549 22.9717 114.722 22.64 113.79 22.64V24.64C114.208 24.64 114.521 24.7728 114.792 25.0438L116.207 23.6296ZM113.79 22.64H111.256V24.64H113.79V22.64ZM111.256 22.64C110.324 22.64 109.497 22.9717 108.839 23.6296L110.253 25.0438C110.524 24.7728 110.837 24.64 111.256 24.64V22.64ZM108.839 23.6296C108.181 24.2874 107.85 25.1144 107.85 26.0467H109.85C109.85 25.6279 109.982 25.3148 110.253 25.0438L108.839 23.6296ZM107.85 26.0467V59.2333H109.85V26.0467H107.85ZM107.85 59.2333C107.85 60.1656 108.181 60.9926 108.839 61.6504L110.253 60.2362C109.982 59.9652 109.85 59.6521 109.85 59.2333H107.85ZM108.839 61.6504C109.497 62.3083 110.324 62.64 111.256 62.64V60.64C110.837 60.64 110.524 60.5072 110.253 60.2362L108.839 61.6504ZM132.075 17.56L132.782 18.2671L132.075 17.56ZM151.455 17.56L150.748 18.2671V18.2671L151.455 17.56ZM151.455 67.72L150.748 67.0129L151.455 67.72ZM132.075 67.72L131.368 68.4271L132.075 67.72ZM144.742 60.9433L144.035 60.2362L144.742 60.9433ZM138.788 60.9433L139.495 60.2362L138.788 60.9433ZM130.478 24.4633C130.478 21.808 131.271 19.7784 132.782 18.2671L131.368 16.8529C129.417 18.8038 128.478 21.3764 128.478 24.4633H130.478ZM132.782 18.2671C134.293 16.7558 136.323 15.9633 138.978 15.9633V13.9633C135.891 13.9633 133.319 14.902 131.368 16.8529L132.782 18.2671ZM138.978 15.9633H144.552V13.9633H138.978V15.9633ZM144.552 15.9633C147.207 15.9633 149.237 16.7558 150.748 18.2671L152.162 16.8529C150.211 14.902 147.639 13.9633 144.552 13.9633V15.9633ZM150.748 18.2671C152.259 19.7784 153.052 21.808 153.052 24.4633H155.052C155.052 21.3764 154.113 18.8038 152.162 16.8529L150.748 18.2671ZM153.052 24.4633V60.8167H155.052V24.4633H153.052ZM153.052 60.8167C153.052 63.472 152.259 65.5016 150.748 67.0129L152.162 68.4271C154.113 66.4762 155.052 63.9036 155.052 60.8167H153.052ZM150.748 67.0129C149.237 68.5242 147.207 69.3167 144.552 69.3167V71.3167C147.639 71.3167 150.211 70.378 152.162 68.4271L150.748 67.0129ZM144.552 69.3167H138.978V71.3167H144.552V69.3167ZM138.978 69.3167C136.323 69.3167 134.293 68.5242 132.782 67.0129L131.368 68.4271C133.319 70.378 135.891 71.3167 138.978 71.3167V69.3167ZM132.782 67.0129C131.271 65.5016 130.478 63.472 130.478 60.8167H128.478C128.478 63.9036 129.417 66.4762 131.368 68.4271L132.782 67.0129ZM130.478 60.8167V24.4633H128.478V60.8167H130.478ZM140.498 62.64H143.032V60.64H140.498V62.64ZM143.032 62.64C143.964 62.64 144.791 62.3083 145.449 61.6504L144.035 60.2362C143.764 60.5072 143.451 60.64 143.032 60.64V62.64ZM145.449 61.6504C146.107 60.9926 146.438 60.1656 146.438 59.2333H144.438C144.438 59.6521 144.306 59.9652 144.035 60.2362L145.449 61.6504ZM146.438 59.2333V26.0467H144.438V59.2333H146.438ZM146.438 26.0467C146.438 25.1144 146.107 24.2874 145.449 23.6296L144.035 25.0438C144.306 25.3148 144.438 25.6279 144.438 26.0467H146.438ZM145.449 23.6296C144.791 22.9717 143.964 22.64 143.032 22.64V24.64C143.451 24.64 143.764 24.7728 144.035 25.0438L145.449 23.6296ZM143.032 22.64H140.498V24.64H143.032V22.64ZM140.498 22.64C139.566 22.64 138.739 22.9717 138.081 23.6296L139.495 25.0438C139.767 24.7728 140.08 24.64 140.498 24.64V22.64ZM138.081 23.6296C137.423 24.2874 137.092 25.1144 137.092 26.0467H139.092C139.092 25.6279 139.224 25.3148 139.495 25.0438L138.081 23.6296ZM137.092 26.0467V59.2333H139.092V26.0467H137.092ZM137.092 59.2333C137.092 60.1656 137.423 60.9926 138.081 61.6504L139.495 60.2362C139.224 59.9652 139.092 59.6521 139.092 59.2333H137.092ZM138.081 61.6504C138.739 62.3083 139.566 62.64 140.498 62.64V60.64C140.08 60.64 139.767 60.5072 139.495 60.2362L138.081 61.6504Z" fill="url(#paint0_linear_0_4693)" mask="url(#path-1-outside-1_0_4693)"/>
</g>
<defs>
<filter id="filter0_d_0_4693" x="0.216667" y="0.963332" width="167.835" height="83.3533" filterUnits="userSpaceOnUse" color-interpolation-filters="sRGB">
<feFlood flood-opacity="0" result="BackgroundImageFix"/>
<feColorMatrix in="SourceAlpha" type="matrix" values="0 0 0 0 0 0 0 0 0 0 0 0 0 0 0 0 0 0 127 0" result="hardAlpha"/>
<feOffset/>
<feGaussianBlur stdDeviation="7"/>
<feColorMatrix type="matrix" values="0 0 0 0 0.605128 0 0 0 0 0 0 0 0 0 1 0 0 0 1 0"/>
<feBlend mode="normal" in2="BackgroundImageFix" result="effect1_dropShadow_0_4693"/>
<feBlend mode="normal" in="SourceGraphic" in2="effect1_dropShadow_0_4693" result="shape"/>
</filter>
<linearGradient id="paint0_linear_0_4693" x1="84.5" y1="3" x2="84.5" y2="86" gradientUnits="userSpaceOnUse">
<stop stop-color="#AEAEAE"/>
<stop offset="1" stop-color="#AE38FB" stop-opacity="0"/>
</linearGradient>
</defs>
</svg>
