<svg width="152" height="137" viewBox="0 0 152 137" fill="none" xmlns="http://www.w3.org/2000/svg">
<path d="M58.5863 66.0544L31.5011 62.9412L74.5387 132.592L58.5863 66.0544ZM93.4158 100.007C93.2581 100.259 92.9241 100.34 92.6666 100.185C92.4092 100.03 92.328 99.7016 92.4857 99.4471L102.313 83.7049C102.47 83.4528 102.804 83.3718 103.062 83.5268C103.319 83.6818 103.401 84.0102 103.243 84.2646L93.4158 100.007ZM105.029 81.4035C104.871 81.6556 104.537 81.7365 104.28 81.5816C104.022 81.4266 103.941 81.0982 104.099 80.8437L106.557 76.9047C106.715 76.6526 107.049 76.5716 107.306 76.7266C107.564 76.8816 107.645 77.21 107.487 77.4644L105.029 81.4035ZM142.194 53.185C142.284 53.0762 142.396 52.9953 142.518 52.9444C143.404 51.8781 147.589 46.4541 149.572 43.97L150.17 43.2183L133.837 33.846L142.164 53.2011L142.182 53.1942L142.194 53.185ZM143.615 53.9135C143.585 54.013 143.537 54.1078 143.467 54.1934L76.4614 136.127C76.1785 136.474 75.6636 136.527 75.311 136.249C75.2484 136.198 75.1928 136.14 75.1487 136.078L8.69043 54.3877C8.67187 54.3692 8.65332 54.3484 8.63708 54.3276L0.213254 43.8035C0.129758 43.6994 0.0694552 43.5814 0.0346652 43.4565C-0.000124845 43.3339 -0.00940219 43.2067 0.00683316 43.0795L1.17346 33.8668C1.18506 33.7766 1.20825 33.6911 1.24768 33.6032C1.28479 33.5199 1.33349 33.4412 1.3938 33.3672L14.7346 17.4562C14.774 17.4099 14.8112 17.3706 14.8529 17.3359C14.897 17.2989 14.9434 17.2665 14.9897 17.2387L33.1525 6.64985L33.1548 6.65217C33.2058 6.6221 33.2406 6.60359 33.2638 6.59434C33.3009 6.57815 33.3403 6.56427 33.3821 6.55271H33.3844L53.4467 0.95064C53.4722 0.943701 53.5093 0.936762 53.5603 0.92751C53.5974 0.920571 53.6345 0.918258 53.674 0.915945L75.9628 0H76.0393L98.2423 0.913632C98.4116 0.920571 98.4974 0.936762 98.6552 0.980709L118.615 6.55502H118.618C118.659 6.56659 118.697 6.58046 118.736 6.59666C118.759 6.60591 118.794 6.62441 118.845 6.65448L118.847 6.65217L137.01 17.241C137.059 17.2688 137.103 17.3012 137.147 17.3382C137.189 17.3729 137.228 17.4122 137.265 17.4585L150.606 33.3695C150.669 33.4436 150.717 33.5222 150.752 33.6055C150.789 33.6934 150.815 33.7813 150.826 33.8692L151.993 43.0818C152.009 43.209 152 43.3362 151.965 43.4588C151.93 43.5837 151.87 43.7017 151.787 43.8058C151.652 43.9723 151.32 44.391 150.859 44.9692C149.017 47.2753 145.172 52.0978 143.615 53.9135ZM82.4615 126.222L140.102 55.7431L122.22 62.7631C122.171 62.7816 122.134 62.7954 122.101 62.8024C122.083 62.807 122.064 62.8116 122.046 62.8139L82.4615 126.222ZM11.8517 55.7038L69.6611 126.764L30.0863 62.7145L11.8517 55.7038ZM93.432 66.2534L77.2222 132.567L120.661 62.9851L93.432 66.2534ZM75.8746 133.494L92.3025 66.2881C81.4457 66.221 70.5703 66.0961 59.7158 66.0915L75.8746 133.494ZM91.1451 42.1543H60.5577L59.5465 64.4885L92.4231 64.6828L91.1451 42.1543ZM60.3235 41.0788H91.3516L101.949 22.0544H49.7821L60.3235 41.0788ZM132.923 34.4659L122.737 60.8294L141.155 53.599L132.923 34.4659ZM119.917 61.4493L92.2631 42.6007L93.5086 64.6181L119.917 61.4493ZM103.581 21.2101L132.508 32.0257L135.695 18.3467L135.614 18.2981L107.868 10.5958L103.581 21.2101ZM130.903 32.5716L103.122 22.1862L92.6898 40.9122L130.903 32.5716ZM132.17 33.3927L93.156 41.9068L121.433 61.181L132.17 33.3927ZM135.345 33.469L150.202 41.9947L149.242 34.4173L135.345 33.469ZM136.616 19.2094L133.57 32.2732L148.419 33.2863L136.616 19.2094ZM106.898 10.1032L98.1426 2.51885L75.9999 1.60753L53.8224 2.51885L53.4814 2.61368L44.8373 10.1032L49.2324 20.9812H102.503L106.898 10.1032ZM100.566 3.1873L107.814 9.46708L107.823 9.46939L131.965 16.1701L118.087 8.07928L100.566 3.1873ZM48.1516 21.2078L43.8655 10.5958L16.6249 18.1593L16.0775 18.4785L19.3014 31.8615L48.1516 21.2078ZM20.2755 16.029L43.9142 9.46708L43.9211 9.46477L51.0438 3.2937L33.9132 8.07697L20.2755 16.029ZM58.4564 64.4192L59.4468 42.5891L32.394 61.4215L58.4564 64.4192ZM29.3418 60.6999L18.877 34.1953L10.1493 53.3214L29.3418 60.6999ZM48.6108 22.1816L20.8809 32.4212L58.976 40.8891L48.6108 22.1816ZM58.5608 41.8952L19.6725 33.2516L30.7172 61.2295H30.7195L30.7775 61.2365L58.5608 41.8952ZM1.76953 42.2029L16.4834 33.3857L2.75989 34.3965L1.76953 42.2029ZM9.30505 52.5558L17.8541 33.8183L1.94116 43.357L9.30505 52.5558ZM3.60412 33.2562L18.2531 32.176L15.1846 19.4453L3.60412 33.2562Z" fill="#323232"/>
</svg>
