<svg width="146" height="80" viewBox="0 0 146 80" fill="none" xmlns="http://www.w3.org/2000/svg">
<path d="M145.123 0.075164L145.883 5.79843L140.547 3.5949L145.123 0.075164ZM0.288929 75.6034C0.622374 75.6596 0.955238 75.7152 1.28752 75.7699L1.1249 76.7566C0.791345 76.7016 0.457215 76.6459 0.12251 76.5894L0.288929 75.6034ZM3.27427 76.0894C3.9342 76.1929 4.59182 76.2934 5.24713 76.3908L5.10007 77.3799C4.44212 77.2821 3.78188 77.1813 3.11936 77.0774L3.27427 76.0894ZM7.21079 76.6746C7.87989 76.7686 8.54655 76.8593 9.21078 76.9468L9.08015 77.9383C8.41309 77.8504 7.74363 77.7593 7.07176 77.6649L7.21079 76.6746ZM11.1962 77.1998C11.8556 77.2809 12.5126 77.3587 13.1671 77.4334L13.0538 78.427C12.3963 78.352 11.7364 78.2737 11.0742 78.1923L11.1962 77.1998ZM15.1652 77.6521C15.833 77.7221 16.4983 77.7887 17.1611 77.8519L17.0662 78.8474C16.4003 78.7839 15.7319 78.717 15.061 78.6467L15.1652 77.6521ZM19.1417 78.0312C19.8091 78.0884 20.4738 78.1421 21.1359 78.1923L21.0604 79.1894C20.3949 79.139 19.7269 79.085 19.0563 79.0276L19.1417 78.0312ZM23.1397 78.3339C23.8049 78.3774 24.4675 78.4174 25.1275 78.4538L25.0725 79.4523C24.409 79.4157 23.743 79.3755 23.0743 79.3317L23.1397 78.3339ZM27.12 78.553C27.7923 78.5828 28.4619 78.6088 29.1286 78.631L29.0953 79.6305C28.4248 79.6082 27.7516 79.582 27.0757 79.552L27.12 78.553ZM31.1206 78.6862C31.7875 78.7009 32.4516 78.7117 33.1128 78.7186L33.1024 79.7185C32.4372 79.7116 31.7693 79.7007 31.0986 79.686L31.1206 78.6862ZM35.1228 78.7275C35.7899 78.7265 36.4541 78.7214 37.1155 78.7123L37.1293 79.7122C36.4638 79.7214 35.7955 79.7265 35.1244 79.7275L35.1228 78.7275ZM39.1078 78.6723C39.78 78.6546 40.4491 78.6326 41.1152 78.6064L41.1545 79.6056C40.484 79.632 39.8106 79.6542 39.1342 79.672L39.1078 78.6723ZM43.1045 78.5149C43.7714 78.4798 44.4354 78.4403 45.0962 78.3965L45.1624 79.3943C44.497 79.4385 43.8285 79.4782 43.1571 79.5135L43.1045 78.5149ZM47.0964 78.2498C47.76 78.1964 48.4205 78.1386 49.0779 78.0762L49.1723 79.0718C48.5101 79.1346 47.8449 79.1928 47.1766 79.2466L47.0964 78.2498ZM51.0669 77.8728C51.7328 77.7998 52.3955 77.722 53.0549 77.6395L53.179 78.6318C52.5145 78.7149 51.8469 78.7933 51.176 78.8669L51.0669 77.8728ZM55.0236 77.378C55.6878 77.2845 56.3487 77.1862 57.0062 77.083L57.1613 78.0709C56.4984 78.1749 55.8324 78.274 55.163 78.3682L55.0236 77.378ZM58.9766 76.7574C59.6312 76.6437 60.2825 76.5251 60.9305 76.4016L61.1178 77.3839C60.4644 77.5085 59.8077 77.628 59.1477 77.7426L58.9766 76.7574ZM62.898 76.0092C63.5504 75.8732 64.1994 75.7322 64.8449 75.586L65.0658 76.5613C64.4146 76.7087 63.7599 76.851 63.1019 76.9881L62.898 76.0092ZM66.7852 75.1286C67.4349 74.9694 68.081 74.8049 68.7236 74.6351L68.9792 75.6019C68.3306 75.7733 67.6787 75.9393 67.0233 76.0999L66.7852 75.1286ZM70.6412 74.1096C71.2843 73.927 71.9238 73.739 72.5598 73.5455L72.8509 74.5022C72.2089 74.6975 71.5633 74.8873 70.9143 75.0716L70.6412 74.1096ZM74.4628 72.9468C75.0952 72.7412 75.724 72.5301 76.3493 72.3134L76.6767 73.2583C76.0453 73.4771 75.4104 73.6902 74.772 73.8978L74.4628 72.9468ZM78.2323 71.6404C78.8563 71.4104 79.4768 71.1747 80.0937 70.9334L80.458 71.8647C79.8349 72.1084 79.2083 72.3464 78.5781 72.5787L78.2323 71.6404ZM81.9447 70.188C82.56 69.933 83.1718 69.6722 83.78 69.4056L84.1814 70.3214C83.5671 70.5907 82.9491 70.8542 82.3275 71.1118L81.9447 70.188ZM85.595 68.5878C86.1998 68.3079 86.8009 68.0222 87.3984 67.7305L87.837 68.6292C87.2333 68.9239 86.626 69.2126 86.015 69.4954L85.595 68.5878ZM89.1802 66.838C89.7717 66.534 90.3596 66.2241 90.944 65.9083L91.4194 66.788C90.829 67.1071 90.235 67.4202 89.6373 67.7274L89.1802 66.838ZM92.6884 64.9418C93.2664 64.6137 93.8407 64.2797 94.4116 63.9397L94.9233 64.7989C94.3465 65.1424 93.7661 65.48 93.1821 65.8115L92.6884 64.9418ZM96.1136 62.9018C96.6774 62.5499 97.2377 62.192 97.7944 61.8281L98.3415 62.6652C97.7789 63.0329 97.2128 63.3945 96.6431 63.7501L96.1136 62.9018ZM99.4514 60.7205C99.9996 60.3458 100.544 59.9652 101.085 59.5786L101.667 60.3923C101.12 60.7829 100.57 61.1675 100.016 61.5461L99.4514 60.7205ZM102.698 58.4013C103.229 58.0052 103.757 57.6031 104.282 57.1952L104.896 57.9845C104.366 58.3966 103.833 58.8027 103.296 59.2029L102.698 58.4013ZM105.845 55.9536C106.36 55.5358 106.872 55.1121 107.38 54.6826L108.026 55.4466C107.512 55.8804 106.995 56.3083 106.475 56.7303L105.845 55.9536ZM108.89 53.3819C109.39 52.9424 109.887 52.4972 110.38 52.0461L111.055 52.7842C110.557 53.2396 110.055 53.6892 109.55 54.133L108.89 53.3819ZM111.834 50.691C112.315 50.2337 112.793 49.7707 113.269 49.302L113.971 50.0138C113.491 50.4869 113.009 50.9544 112.523 51.416L111.834 50.691ZM114.677 47.8865C115.139 47.4131 115.598 46.9342 116.054 46.4497L116.782 47.1351C116.322 47.624 115.859 48.1074 115.392 48.5851L114.677 47.8865ZM117.413 44.9793C117.858 44.4898 118.299 43.9949 118.738 43.4945L119.49 44.1537C119.048 44.6584 118.602 45.1577 118.154 45.6515L117.413 44.9793ZM120.04 41.9829C120.47 41.4746 120.898 40.9608 121.322 40.4417L122.096 41.0747C121.668 41.5982 121.237 42.1163 120.803 42.629L120.04 41.9829ZM122.566 38.8943C122.978 38.3733 123.388 37.847 123.794 37.3155L124.588 37.923C124.179 38.4587 123.766 38.9893 123.351 39.5146L122.566 38.8943ZM124.996 35.7179C125.389 35.1869 125.779 34.6509 126.167 34.1098L126.98 34.6923C126.589 35.2375 126.196 35.7776 125.8 36.3127L124.996 35.7179ZM127.322 32.4714C127.699 31.9277 128.074 31.3789 128.447 30.8253L129.276 31.3833C128.901 31.941 128.524 32.4937 128.144 33.0416L127.322 32.4714ZM129.547 29.164C129.911 28.6053 130.273 28.0418 130.632 27.4734L131.477 28.0078C131.115 28.5801 130.751 29.1475 130.384 29.7101L129.547 29.164ZM131.683 25.7852C132.03 25.2207 132.374 24.6515 132.715 24.0777L133.574 24.5893C133.231 25.1668 132.884 25.7398 132.536 26.3081L131.683 25.7852ZM133.733 22.3422C134.063 21.7716 134.391 21.1965 134.716 20.6169L135.588 21.1064C135.261 21.6896 134.931 22.2684 134.599 22.8426L133.733 22.3422ZM135.683 18.87C136.003 18.2832 136.321 17.692 136.637 17.0964L137.52 17.5647C137.203 18.1639 136.883 18.7586 136.561 19.3489L135.683 18.87ZM137.556 15.3375C137.86 14.7484 138.161 14.155 138.461 13.5574L139.355 14.0056C139.054 14.6065 138.75 15.2032 138.445 15.7956L137.556 15.3375ZM139.354 11.7519C139.643 11.1593 139.93 10.5626 140.215 9.96178L141.118 10.3905C140.832 10.9945 140.543 11.5944 140.252 12.1902L139.354 11.7519ZM141.061 8.15439C141.341 7.54788 141.619 6.93733 141.896 6.32272L142.808 6.73283C142.53 7.35049 142.25 7.96413 141.969 8.57374L141.061 8.15439ZM142.703 4.50245C142.969 3.89643 143.232 3.28658 143.494 2.67288L144.414 3.0653C144.151 3.68189 143.886 4.29466 143.619 4.90361L142.703 4.50245Z" fill="#35BAEC"/>
</svg>
