<svg width="174" height="174" viewBox="0 0 174 174" fill="none" xmlns="http://www.w3.org/2000/svg">
<g filter="url(#filter0_d_0_4230)">
<path d="M110.915 4.75294L26.8038 33.7148C19.1802 36.3398 15.128 44.6479 17.753 52.2715L44.7106 130.562C47.3356 138.186 55.6438 142.238 63.2674 139.613L147.379 110.651C155.002 108.026 159.054 99.7178 156.429 92.0942L129.472 13.8037C126.847 6.18008 118.539 2.12792 110.915 4.75294Z" fill="white"/>
<path d="M41.8945 52.9551L40.8281 53.3223L59.1007 106.39L60.1671 106.023L41.8945 52.9551Z" fill="#1A1A1A"/>
<path d="M44.0124 52.2256L42.946 52.5928L61.2186 105.66L62.285 105.293L44.0124 52.2256Z" fill="#1A1A1A"/>
<path d="M49.3147 50.3996L47.1967 51.1289L65.4693 104.196L67.5873 103.467L49.3147 50.3996Z" fill="#1A1A1A"/>
<path d="M51.4475 49.665L50.3811 50.0322L68.6537 103.1L69.7201 102.733L51.4475 49.665Z" fill="#1A1A1A"/>
<path d="M55.6834 48.2073L53.5654 48.9365L71.838 102.004L73.956 101.275L55.6834 48.2073Z" fill="#1A1A1A"/>
<path d="M58.8678 47.1104L57.8014 47.4775L76.074 100.545L77.1404 100.178L58.8678 47.1104Z" fill="#1A1A1A"/>
<path d="M62.052 46.0137L60.9856 46.3809L79.2582 99.4484L80.3246 99.0812L62.052 46.0137Z" fill="#1A1A1A"/>
<path d="M66.2879 44.5559L64.1699 45.2852L82.4425 98.3527L84.5605 97.6234L66.2879 44.5559Z" fill="#1A1A1A"/>
<path d="M71.605 42.7248L67.3543 44.1885L85.6269 97.256L89.8777 95.7924L71.605 42.7248Z" fill="#1A1A1A"/>
<path d="M73.723 41.9953L72.6714 42.3574L90.944 95.4249L91.9956 95.0629L73.723 41.9953Z" fill="#1A1A1A"/>
<path d="M75.8558 41.2607L74.7894 41.6279L93.062 94.6955L94.1284 94.3283L75.8558 41.2607Z" fill="#1A1A1A"/>
<path d="M77.9589 40.5364L76.9073 40.8984L95.18 93.966L96.2315 93.6039L77.9589 40.5364Z" fill="#1A1A1A"/>
<path d="M80.1065 39.7969L79.0402 40.1641L97.3128 93.2316L98.3792 92.8644L80.1065 39.7969Z" fill="#1A1A1A"/>
<path d="M84.3424 38.3391L81.1581 39.4355L99.4307 92.5031L102.615 91.4066L84.3424 38.3391Z" fill="#1A1A1A"/>
<path d="M87.5268 37.2422L86.4604 37.6094L104.733 90.6769L105.799 90.3097L87.5268 37.2422Z" fill="#1A1A1A"/>
<path d="M92.8291 35.4162L89.6448 36.5127L107.917 89.5802L111.102 88.4838L92.8291 35.4162Z" fill="#1A1A1A"/>
<path d="M94.9619 34.6826L93.8955 35.0498L112.168 88.1173L113.235 87.7501L94.9619 34.6826Z" fill="#1A1A1A"/>
<path d="M97.0796 33.9531L96.0132 34.3203L114.286 87.3878L115.352 87.0206L97.0796 33.9531Z" fill="#1A1A1A"/>
<path d="M102.397 32.1221L101.331 32.4893L119.603 85.5568L120.67 85.1896L102.397 32.1221Z" fill="#1A1A1A"/>
<path d="M107.699 30.2961L104.515 31.3926L122.788 84.4601L125.972 83.3636L107.699 30.2961Z" fill="#1A1A1A"/>
<path d="M109.817 29.5674L108.751 29.9346L127.024 83.0021L128.09 82.6349L109.817 29.5674Z" fill="#1A1A1A"/>
<path d="M111.95 28.833L110.884 29.2002L129.156 82.2677L130.223 81.9005L111.95 28.833Z" fill="#1A1A1A"/>
<path d="M60.167 106.022L59.1006 106.39L60.9263 111.692L61.9927 111.325L60.167 106.022Z" fill="#1A1A1A"/>
<path d="M62.285 105.293L61.2186 105.66L63.0444 110.962L64.1107 110.595L62.285 105.293Z" fill="#1A1A1A"/>
<path d="M94.1285 94.3291L93.0621 94.6963L94.8879 99.9986L95.9543 99.6314L94.1285 94.3291Z" fill="#1A1A1A"/>
<path d="M96.2316 93.6047L95.1801 93.9668L97.0058 99.2691L98.0574 98.907L96.2316 93.6047Z" fill="#1A1A1A"/>
<path d="M128.09 82.6348L127.023 83.002L128.849 88.3043L129.916 87.9371L128.09 82.6348Z" fill="#1A1A1A"/>
<path d="M130.223 81.9004L129.156 82.2676L130.982 87.5699L132.048 87.2027L130.223 81.9004Z" fill="#1A1A1A"/>
<path d="M72.9131 107.051C73.4078 108.488 73.5579 109.646 73.3435 110.515C73.1292 111.384 72.5555 111.979 71.6224 112.3C70.6893 112.621 69.9101 112.475 69.2011 111.908C68.4772 111.345 67.8879 110.355 67.4034 108.948C66.9189 107.541 66.7535 106.339 66.973 105.485C67.1776 104.636 67.7513 104.041 68.6844 103.719C69.6175 103.398 70.3967 103.544 71.1205 104.107C71.8494 104.684 72.4337 105.659 72.9131 107.051ZM68.3513 108.622C68.7695 109.836 69.2185 110.659 69.6937 111.125C70.1638 111.576 70.7198 111.7 71.3419 111.485C71.9639 111.271 72.3262 110.832 72.4286 110.167C72.5162 109.507 72.3634 108.582 71.9504 107.383C71.5373 106.183 71.1031 105.355 70.6131 104.894C70.1379 104.428 69.5869 104.32 68.9501 104.539C68.3132 104.758 67.9658 105.193 67.868 105.823C67.7752 106.468 67.9331 107.407 68.3513 108.622Z" fill="#1A1A1A"/>
<path d="M79.0168 109.621L78.0985 109.937L76.0535 103.998C75.8852 103.509 75.722 103.035 75.6135 102.576C75.5649 102.675 75.4918 102.8 75.4336 102.919C75.3605 103.044 75.0436 103.567 74.4682 104.494L73.7403 104.016L75.3606 101.553L76.1604 101.277L79.0316 109.616L79.0168 109.621Z" fill="#1A1A1A"/>
<path d="M87.6662 106.642L82.1862 108.529L81.9057 107.715L83.3378 104.753C83.7697 103.842 84.0508 103.215 84.1562 102.848C84.2616 102.48 84.3327 102.157 84.3395 101.84C84.3462 101.523 84.3086 101.221 84.1964 100.896C84.0434 100.451 83.7877 100.142 83.4344 99.9817C83.0811 99.8217 82.6501 99.821 82.1762 99.9842C81.8355 100.101 81.5153 100.278 81.2599 100.499C80.9896 100.724 80.7204 101.049 80.4373 101.478L79.7093 100.999C80.2602 100.097 80.9774 99.4858 81.8809 99.1747C82.6659 98.9044 83.3445 98.9027 83.9265 99.1496C84.5086 99.3965 84.9143 99.8532 85.1489 100.534C85.3325 101.068 85.3629 101.637 85.2452 102.257C85.1274 102.878 84.8038 103.718 84.2595 104.784L83.0548 107.203L83.0701 107.247L87.3505 105.774L87.6514 106.647L87.6662 106.642Z" fill="#1A1A1A"/>
<path d="M91.8422 98.0813C92.0258 98.6145 92.0256 99.095 91.8466 99.5376C91.6677 99.9803 91.3147 100.35 90.8075 100.658L90.8228 100.702C91.5199 100.561 92.0949 100.595 92.5232 100.829C92.9663 101.057 93.2873 101.46 93.476 102.008C93.7514 102.808 93.6791 103.512 93.279 104.13C92.8789 104.749 92.1653 105.226 91.1433 105.578C90.699 105.731 90.2889 105.839 89.8931 105.893C89.4974 105.946 89.1062 105.965 88.7044 105.904L88.3933 105.001C88.8099 105.056 89.2409 105.057 89.6913 105.018C90.1218 104.969 90.537 104.876 90.8925 104.753C92.3291 104.259 92.8611 103.446 92.4735 102.32C92.1267 101.313 91.1535 101.085 89.5687 101.631L88.7541 101.911L88.4737 101.097L89.3031 100.811C89.9547 100.587 90.4221 100.26 90.6955 99.8512C90.9837 99.4372 91.0237 98.9761 90.8452 98.4577C90.7075 98.0578 90.4621 97.7779 90.0991 97.6378C89.736 97.4977 89.3153 97.5266 88.8413 97.6898C88.471 97.8173 88.1457 97.979 87.8555 98.1949C87.5654 98.4108 87.2563 98.716 86.9334 99.1254L86.2402 98.6517C86.489 98.2678 86.8175 97.9228 87.2058 97.6069C87.594 97.291 88.0424 97.0537 88.5312 96.8854C89.3458 96.6049 90.0342 96.5833 90.6208 96.7955C91.1926 97.0127 91.5882 97.4398 91.8126 98.0915L91.8422 98.0813Z" fill="#1A1A1A"/>
<path d="M109.077 97.1334L107.832 97.5618L108.49 99.4724L107.587 99.7835L106.929 97.8729L102.871 99.2702L102.585 98.4408L104.597 91.4362L105.604 91.0894L107.532 96.6879L108.776 96.2596L109.072 97.1186L109.077 97.1334ZM106.633 97.0138L105.68 94.2442C105.491 93.6962 105.297 93.0839 105.106 92.3872L105.062 92.4025C105.012 92.834 104.936 93.1914 104.855 93.4845L103.523 98.0848L106.633 97.0138Z" fill="#1A1A1A"/>
<path d="M111.406 92.7852C112.28 92.4843 113.053 92.4668 113.704 92.7229C114.356 92.979 114.817 93.4996 115.077 94.2549C115.373 95.114 115.326 95.8922 114.946 96.5696C114.566 97.2471 113.898 97.759 112.935 98.0904C111.972 98.4219 111.225 98.5135 110.634 98.3856L110.318 97.4673C110.646 97.5532 111.018 97.5743 111.448 97.5255C111.879 97.4767 112.284 97.4033 112.669 97.2707C113.336 97.0413 113.798 96.6998 114.061 96.2613C114.324 95.8228 114.344 95.3025 114.14 94.71C113.737 93.54 112.827 93.2071 111.406 93.6967C111.05 93.8191 110.582 94.0466 110.01 94.3594L109.414 94.2167L108.384 90.2143L112.531 88.7864L112.832 89.6602L109.5 90.8077L110.154 93.3821C110.553 93.1453 110.982 92.9479 111.412 92.8L111.406 92.7852Z" fill="#1A1A1A"/>
<path d="M116.094 92.8778C115.528 91.2338 115.42 89.9122 115.777 88.8783C116.133 87.8444 116.943 87.1182 118.188 86.6898C118.617 86.5419 118.973 86.469 119.245 86.4416L119.526 87.2562C119.199 87.2693 118.853 87.3223 118.468 87.4549C117.579 87.7608 116.994 88.2768 116.709 88.988C116.429 89.714 116.478 90.6746 116.842 91.8748L116.916 91.8493C117.106 91.0548 117.66 90.4994 118.564 90.1884C119.304 89.9334 119.973 89.9515 120.576 90.2577C121.158 90.5541 121.595 91.0997 121.86 91.8699C122.161 92.7437 122.153 93.4918 121.853 94.1585C121.552 94.8253 120.997 95.2816 120.197 95.557C119.338 95.8528 118.545 95.7615 117.802 95.2883C117.074 94.81 116.511 93.9933 116.113 92.838L116.094 92.8778ZM119.882 94.7873C120.416 94.6037 120.784 94.2781 120.968 93.8502C121.147 93.4076 121.127 92.8678 120.902 92.2161C120.714 91.6681 120.432 91.2845 120.039 91.0556C119.645 90.8266 119.179 90.8213 118.631 91.01C118.291 91.1273 118.005 91.3085 117.77 91.5387C117.539 91.7837 117.369 92.0578 117.287 92.3509C117.196 92.6639 117.209 92.9411 117.301 93.2077C117.438 93.6076 117.635 93.9376 117.9 94.2272C118.166 94.5169 118.48 94.707 118.827 94.8026C119.175 94.8983 119.522 94.8949 119.892 94.7674L119.882 94.7873Z" fill="#1A1A1A"/>
<path d="M124.751 88.1905C125.625 87.8896 126.398 87.8721 127.049 88.1282C127.7 88.3843 128.161 88.9049 128.421 89.6602C128.717 90.5193 128.685 91.2923 128.306 91.9698C127.926 92.6473 127.257 93.1591 126.28 93.4957C125.302 93.8323 124.57 93.9188 123.979 93.7909L123.663 92.8726C123.991 92.9585 124.362 92.9796 124.793 92.9308C125.223 92.882 125.629 92.8086 126.014 92.676C126.68 92.4465 127.143 92.1051 127.406 91.6666C127.669 91.2281 127.689 90.7077 127.485 90.1153C127.082 88.9452 126.172 88.6124 124.75 89.102C124.395 89.2244 123.926 89.4519 123.355 89.7647L122.759 89.6219L121.729 85.6196L125.876 84.1916L126.177 85.0655L122.844 86.2129L123.499 88.7874C123.912 88.5455 124.327 88.3532 124.756 88.2053L124.751 88.1905Z" fill="#1A1A1A"/>
</g>
<defs>
<filter id="filter0_d_0_4230" x="0.953674" y="3.95361" width="172.275" height="169.458" filterUnits="userSpaceOnUse" color-interpolation-filters="sRGB">
<feFlood flood-opacity="0" result="BackgroundImageFix"/>
<feColorMatrix in="SourceAlpha" type="matrix" values="0 0 0 0 0 0 0 0 0 0 0 0 0 0 0 0 0 0 127 0" result="hardAlpha"/>
<feOffset dy="17"/>
<feGaussianBlur stdDeviation="8"/>
<feComposite in2="hardAlpha" operator="out"/>
<feColorMatrix type="matrix" values="0 0 0 0 0.571632 0 0 0 0 0.62755 0 0 0 0 0.679167 0 0 0 0.3 0"/>
<feBlend mode="normal" in2="BackgroundImageFix" result="effect1_dropShadow_0_4230"/>
<feBlend mode="normal" in="SourceGraphic" in2="effect1_dropShadow_0_4230" result="shape"/>
</filter>
</defs>
</svg>
