<svg width="103" height="104" viewBox="0 0 103 104" fill="none" xmlns="http://www.w3.org/2000/svg">
<g filter="url(#filter0_d_0_6118)">
<path d="M63.368 2.3964L20.9601 16.9986C17.1164 18.3221 15.0733 22.511 16.3968 26.3547L29.9885 65.8279C31.312 69.6716 35.5009 71.7147 39.3447 70.3911L81.7525 55.7889C85.5963 54.4654 87.6393 50.2766 86.3158 46.4328L72.7241 6.95969C71.4006 3.11595 67.2117 1.0729 63.368 2.3964Z" fill="white"/>
<path d="M28.5686 26.6991L28.0309 26.8843L37.2438 53.6403L37.7814 53.4552L28.5686 26.6991Z" fill="#1A1A1A"/>
<path d="M29.6365 26.3315L29.0988 26.5166L38.3116 53.2726L38.8493 53.0875L29.6365 26.3315Z" fill="#1A1A1A"/>
<path d="M32.3099 25.4111L31.242 25.7788L40.4548 52.5348L41.5227 52.1671L32.3099 25.4111Z" fill="#1A1A1A"/>
<path d="M33.3852 25.0405L32.8475 25.2256L42.0604 51.9816L42.598 51.7965L33.3852 25.0405Z" fill="#1A1A1A"/>
<path d="M35.5209 24.3056L34.4531 24.6733L43.6659 51.4294L44.7337 51.0617L35.5209 24.3056Z" fill="#1A1A1A"/>
<path d="M37.1264 23.7524L36.5887 23.9375L45.8016 50.6935L46.3392 50.5084L37.1264 23.7524Z" fill="#1A1A1A"/>
<path d="M38.7319 23.1996L38.1942 23.3848L47.407 50.1408L47.9447 49.9556L38.7319 23.1996Z" fill="#1A1A1A"/>
<path d="M40.8675 22.4648L39.7997 22.8325L49.0125 49.5885L50.0804 49.2208L40.8675 22.4648Z" fill="#1A1A1A"/>
<path d="M43.5484 21.5413L41.4052 22.2793L50.618 49.0353L52.7612 48.2974L43.5484 21.5413Z" fill="#1A1A1A"/>
<path d="M44.6163 21.1734L44.0861 21.356L53.2989 48.112L53.8291 47.9294L44.6163 21.1734Z" fill="#1A1A1A"/>
<path d="M45.6916 20.8032L45.1539 20.9883L54.3668 47.7443L54.9044 47.5592L45.6916 20.8032Z" fill="#1A1A1A"/>
<path d="M46.7519 20.438L46.2217 20.6206L55.4346 47.3766L55.9648 47.1941L46.7519 20.438Z" fill="#1A1A1A"/>
<path d="M47.8348 20.0654L47.2971 20.2505L56.51 47.0065L57.0476 46.8214L47.8348 20.0654Z" fill="#1A1A1A"/>
<path d="M49.9704 19.33L48.3649 19.8828L57.5778 46.6388L59.1833 46.086L49.9704 19.33Z" fill="#1A1A1A"/>
<path d="M51.576 18.7773L51.0383 18.9624L60.2512 45.7184L60.7888 45.5333L51.576 18.7773Z" fill="#1A1A1A"/>
<path d="M54.2493 17.8564L52.6438 18.4092L61.8566 45.1652L63.4621 44.6124L54.2493 17.8564Z" fill="#1A1A1A"/>
<path d="M55.3246 17.4867L54.787 17.6719L63.9998 44.4279L64.5375 44.2428L55.3246 17.4867Z" fill="#1A1A1A"/>
<path d="M56.3925 17.1186L55.8548 17.3037L65.0676 44.0597L65.6053 43.8746L56.3925 17.1186Z" fill="#1A1A1A"/>
<path d="M59.0733 16.1957L58.5356 16.3809L67.7485 43.1369L68.2861 42.9517L59.0733 16.1957Z" fill="#1A1A1A"/>
<path d="M61.7467 15.2748L60.1412 15.8276L69.354 42.5836L70.9595 42.0308L61.7467 15.2748Z" fill="#1A1A1A"/>
<path d="M62.8145 14.9076L62.2769 15.0928L71.4897 41.8488L72.0273 41.6637L62.8145 14.9076Z" fill="#1A1A1A"/>
<path d="M63.8899 14.5375L63.3522 14.7227L72.5651 41.4787L73.1027 41.2935L63.8899 14.5375Z" fill="#1A1A1A"/>
<path d="M37.7814 53.4555L37.2438 53.6406L38.1643 56.314L38.7019 56.1289L37.7814 53.4555Z" fill="#1A1A1A"/>
<path d="M38.8494 53.0878L38.3117 53.2729L39.2322 55.9463L39.7699 55.7612L38.8494 53.0878Z" fill="#1A1A1A"/>
<path d="M54.9045 47.5595L54.3668 47.7446L55.2873 50.418L55.825 50.2329L54.9045 47.5595Z" fill="#1A1A1A"/>
<path d="M55.9648 47.1944L55.4346 47.377L56.3551 50.0503L56.8853 49.8678L55.9648 47.1944Z" fill="#1A1A1A"/>
<path d="M72.0274 41.6635L71.4897 41.8486L72.4103 44.522L72.9479 44.3369L72.0274 41.6635Z" fill="#1A1A1A"/>
<path d="M73.1027 41.2934L72.5651 41.4785L73.4856 44.1519L74.0232 43.9667L73.1027 41.2934Z" fill="#1A1A1A"/>
<path d="M44.2079 53.9741C44.4573 54.6984 44.533 55.2821 44.4249 55.7202C44.3168 56.1584 44.0276 56.4585 43.5571 56.6205C43.0867 56.7824 42.6938 56.7089 42.3363 56.4227C41.9714 56.1391 41.6743 55.64 41.43 54.9306C41.1857 54.2212 41.1023 53.6151 41.213 53.1844C41.3161 52.7563 41.6054 52.4562 42.0758 52.2942C42.5463 52.1322 42.9391 52.2058 43.3041 52.4894C43.6716 52.7805 43.9662 53.2721 44.2079 53.9741ZM41.9079 54.766C42.1187 55.3783 42.3451 55.7932 42.5847 56.0281C42.8217 56.2556 43.1021 56.3177 43.4157 56.2097C43.7294 56.1017 43.912 55.8802 43.9636 55.545C44.0078 55.2124 43.9308 54.7461 43.7225 54.1412C43.5142 53.5363 43.2953 53.1189 43.0483 52.8865C42.8087 52.6516 42.5309 52.5969 42.2098 52.7075C41.8887 52.8181 41.7135 53.0371 41.6642 53.3548C41.6175 53.6799 41.6971 54.1537 41.9079 54.766Z" fill="#1A1A1A"/>
<path d="M47.2853 55.2698L46.8224 55.4292L45.7913 52.4347C45.7064 52.1883 45.6241 51.9493 45.5694 51.7176C45.5449 51.7678 45.5081 51.8306 45.4787 51.8908C45.4419 51.9536 45.2821 52.2175 44.992 52.6849L44.625 52.4437L45.4419 51.2018L45.8452 51.063L47.2928 55.2672L47.2853 55.2698Z" fill="#1A1A1A"/>
<path d="M51.6463 53.7676L48.8833 54.719L48.7419 54.3083L49.4639 52.8151C49.6817 52.3559 49.8234 52.0398 49.8766 51.8544C49.9297 51.6691 49.9655 51.5064 49.969 51.3465C49.9724 51.1866 49.9534 51.0345 49.8968 50.8702C49.8197 50.6462 49.6908 50.4901 49.5126 50.4094C49.3345 50.3288 49.1172 50.3284 48.8783 50.4107C48.7065 50.4698 48.545 50.5588 48.4163 50.67C48.28 50.7837 48.1443 50.9474 48.0015 51.1636L47.6345 50.9225C47.9122 50.4677 48.2739 50.1594 48.7294 50.0025C49.1252 49.8663 49.4673 49.8654 49.7608 49.9899C50.0542 50.1144 50.2588 50.3446 50.3771 50.6881C50.4696 50.9569 50.485 51.244 50.4256 51.5568C50.3662 51.8696 50.2031 52.2933 49.9286 52.8305L49.3213 54.0503L49.329 54.0727L51.4871 53.3296L51.6388 53.7702L51.6463 53.7676Z" fill="#1A1A1A"/>
<path d="M53.7517 49.4515C53.8443 49.7204 53.8442 49.9626 53.754 50.1858C53.6638 50.409 53.4858 50.5956 53.23 50.7505L53.2378 50.7729C53.5892 50.702 53.8791 50.7191 54.0951 50.8368C54.3185 50.952 54.4803 51.1552 54.5755 51.4315C54.7143 51.8348 54.6779 52.1898 54.4761 52.5015C54.2744 52.8132 53.9146 53.054 53.3994 53.2314C53.1754 53.3086 52.9686 53.363 52.769 53.39C52.5695 53.4169 52.3723 53.4264 52.1697 53.3959L52.0128 52.9404C52.2229 52.9683 52.4402 52.9686 52.6673 52.9489C52.8843 52.9243 53.0937 52.8773 53.2729 52.8156C53.9972 52.5661 54.2654 52.1564 54.07 51.5889C53.8952 51.0811 53.4045 50.966 52.6055 51.2412L52.1948 51.3826L52.0534 50.9719L52.4715 50.8279C52.8001 50.7147 53.0358 50.5501 53.1736 50.3439C53.3189 50.1352 53.3391 49.9027 53.2491 49.6413C53.1797 49.4397 53.0559 49.2986 52.8729 49.2279C52.6898 49.1573 52.4777 49.1719 52.2387 49.2542C52.052 49.3184 51.888 49.4 51.7417 49.5088C51.5954 49.6177 51.4396 49.7716 51.2768 49.978L50.9273 49.7392C51.0527 49.5456 51.2184 49.3716 51.4141 49.2123C51.6098 49.0531 51.8359 48.9334 52.0824 48.8486C52.4931 48.7072 52.8401 48.6963 53.1359 48.8032C53.4242 48.9128 53.6237 49.1281 53.7368 49.4567L53.7517 49.4515Z" fill="#1A1A1A"/>
<path d="M62.4411 48.9735L61.8138 49.1895L62.1455 50.1528L61.69 50.3097L61.3583 49.3464L59.3122 50.0509L59.1683 49.6327L60.1824 46.1011L60.6902 45.9262L61.6621 48.7489L62.2894 48.533L62.4385 48.9661L62.4411 48.9735ZM61.2092 48.9133L60.7284 47.5168C60.6332 47.2405 60.5353 46.9318 60.4394 46.5806L60.417 46.5883C60.3917 46.8058 60.3535 46.986 60.3125 47.1338L59.641 49.4532L61.2092 48.9133Z" fill="#1A1A1A"/>
<path d="M63.6158 46.7811C64.0564 46.6294 64.4459 46.6205 64.7744 46.7497C65.1029 46.8788 65.3352 47.1412 65.4664 47.5221C65.6155 47.9552 65.5919 48.3476 65.4004 48.6891C65.209 49.0307 64.8719 49.2888 64.3865 49.4559C63.9011 49.623 63.5244 49.6692 63.2266 49.6047L63.0671 49.1417C63.2324 49.1851 63.4198 49.1957 63.6369 49.1711C63.8539 49.1465 64.0584 49.1095 64.2525 49.0426C64.5886 48.9269 64.8216 48.7548 64.9543 48.5337C65.087 48.3126 65.0969 48.0502 64.9941 47.7515C64.7909 47.1616 64.3322 46.9938 63.6153 47.2406C63.4361 47.3023 63.2 47.4171 62.9118 47.5748L62.6114 47.5028L62.092 45.4848L64.1829 44.7649L64.3346 45.2055L62.6544 45.784L62.9844 47.082C63.1855 46.9626 63.4018 46.8631 63.6184 46.7885L63.6158 46.7811Z" fill="#1A1A1A"/>
<path d="M65.9791 46.828C65.6937 45.9991 65.6396 45.3328 65.8193 44.8115C65.999 44.2903 66.4075 43.9241 67.0348 43.7081C67.2513 43.6335 67.4308 43.5968 67.568 43.583L67.7094 43.9937C67.5447 44.0003 67.3701 44.027 67.1759 44.0938C66.7279 44.2481 66.4332 44.5083 66.2894 44.8668C66.1482 45.2329 66.1729 45.7172 66.3562 46.3223L66.3936 46.3094C66.4895 45.9089 66.769 45.6289 67.2245 45.472C67.5979 45.3435 67.9351 45.3526 68.2389 45.507C68.5326 45.6565 68.7526 45.9315 68.8863 46.3198C69.038 46.7604 69.0342 47.1376 68.8827 47.4738C68.7311 47.8099 68.4512 48.04 68.0479 48.1788C67.6148 48.328 67.2147 48.282 66.8402 48.0434C66.4732 47.8022 66.1894 47.3904 65.9889 46.808L65.9791 46.828ZM67.8893 47.7908C68.1581 47.6982 68.3438 47.534 68.4366 47.3183C68.5268 47.0951 68.5166 46.823 68.4035 46.4944C68.3083 46.2181 68.1666 46.0247 67.9681 45.9093C67.7697 45.7939 67.5349 45.7912 67.2586 45.8863C67.0868 45.9454 66.9428 46.0368 66.8241 46.1528C66.7079 46.2764 66.6219 46.4146 66.5809 46.5624C66.535 46.7202 66.5414 46.86 66.5876 46.9944C66.6571 47.196 66.7561 47.3624 66.8899 47.5084C67.0237 47.6544 67.182 47.7503 67.3573 47.7985C67.5326 47.8467 67.7075 47.845 67.8941 47.7807L67.8893 47.7908Z" fill="#1A1A1A"/>
<path d="M70.344 44.4647C70.7846 44.313 71.1741 44.3041 71.5026 44.4332C71.8311 44.5624 72.0634 44.8248 72.1946 45.2057C72.3437 45.6388 72.3276 46.0286 72.1361 46.3701C71.9447 46.7117 71.6075 46.9698 71.1147 47.1395C70.6218 47.3092 70.2526 47.3528 69.9548 47.2883L69.7953 46.8253C69.9606 46.8686 70.148 46.8793 70.3651 46.8547C70.5821 46.83 70.7866 46.7931 70.9807 46.7262C71.3168 46.6105 71.5499 46.4384 71.6825 46.2173C71.8152 45.9962 71.8251 45.7338 71.7223 45.4351C71.5192 44.8452 71.0604 44.6774 70.3436 44.9242C70.1643 44.9859 69.9282 45.1007 69.64 45.2583L69.3396 45.1864L68.8202 43.1684L70.9111 42.4485L71.0628 42.8891L69.3826 43.4676L69.7126 44.7656C69.9212 44.6437 70.13 44.5467 70.3466 44.4721L70.344 44.4647Z" fill="#1A1A1A"/>
</g>
<defs>
<filter id="filter0_d_0_6118" x="-0.00616455" y="1.99316" width="102.725" height="101.801" filterUnits="userSpaceOnUse" color-interpolation-filters="sRGB">
<feFlood flood-opacity="0" result="BackgroundImageFix"/>
<feColorMatrix in="SourceAlpha" type="matrix" values="0 0 0 0 0 0 0 0 0 0 0 0 0 0 0 0 0 0 127 0" result="hardAlpha"/>
<feOffset dy="17"/>
<feGaussianBlur stdDeviation="8"/>
<feComposite in2="hardAlpha" operator="out"/>
<feColorMatrix type="matrix" values="0 0 0 0 0.571632 0 0 0 0 0.62755 0 0 0 0 0.679167 0 0 0 0.3 0"/>
<feBlend mode="normal" in2="BackgroundImageFix" result="effect1_dropShadow_0_6118"/>
<feBlend mode="normal" in="SourceGraphic" in2="effect1_dropShadow_0_6118" result="shape"/>
</filter>
</defs>
</svg>
