<svg width="138" height="35" viewBox="0 0 138 35" fill="none" xmlns="http://www.w3.org/2000/svg">
<g clip-path="url(#clip0_0_3919)">
<path d="M33.7623 25.8115C33.7623 26.5177 33.5397 27.1053 33.0945 27.5749C32.5756 28.1234 31.8341 28.3969 30.87 28.3969H29.4375V23.2402H30.8356C31.9057 23.2402 32.6907 23.5379 33.1914 24.1326C33.5727 24.5831 33.763 25.1429 33.763 25.8122L33.7623 25.8115ZM33.2525 25.8115C33.2525 25.2729 33.0938 24.8175 32.7771 24.4452C32.3544 23.9529 31.707 23.7063 30.8349 23.7063H29.9466V27.9294H30.8693C31.6543 27.9294 32.2631 27.7042 32.6942 27.2538C33.0664 26.8637 33.2525 26.3827 33.2525 25.8115Z" fill="#92A0AD"/>
<path d="M35.1387 24.1184H34.6289V23.2402H35.1387V24.1184ZM35.1387 28.3977H34.6289V24.5859H35.1387V28.3977Z" fill="#92A0AD"/>
<path d="M39.919 27.8526C39.919 28.5404 39.7287 29.0626 39.3474 29.4207C39.0167 29.7318 38.5785 29.8874 38.0322 29.8874C37.5639 29.8874 37.1608 29.761 36.8238 29.5073C36.486 29.2544 36.2529 28.9141 36.1244 28.4864H36.6342C36.7584 28.7883 36.953 29.0228 37.2198 29.1905C37.4627 29.3439 37.7317 29.4207 38.0259 29.4207C38.5954 29.4207 38.99 29.2139 39.2105 28.8004C39.3439 28.5496 39.4099 28.2334 39.4099 27.8526V27.6437C39.2765 27.9087 39.0869 28.1155 38.8418 28.264C38.5961 28.4125 38.3054 28.4871 37.9704 28.4871C37.4101 28.4871 36.9431 28.2931 36.5689 27.9052C36.1946 27.5173 36.0078 27.0491 36.0078 26.5013C36.0078 25.9535 36.1925 25.464 36.5625 25.076C36.9319 24.6881 37.3925 24.4941 37.9437 24.4941C38.2878 24.4941 38.5855 24.5652 38.8355 24.7066C39.0855 24.8487 39.2821 25.054 39.4246 25.3233L39.4387 24.5844H39.9211V27.8526H39.919ZM39.4366 26.4934C39.4366 26.0522 39.2933 25.6863 39.0061 25.3957C38.719 25.1052 38.3665 24.9602 37.9487 24.9602C37.5309 24.9602 37.1987 25.1052 36.9256 25.3957C36.6524 25.6863 36.5155 26.0451 36.5155 26.4721C36.5155 26.8991 36.6531 27.2643 36.9291 27.5663C37.2043 27.8682 37.5533 28.0196 37.976 28.0196C38.3988 28.0196 38.7414 27.8718 39.0195 27.5769C39.2976 27.2821 39.4359 26.9205 39.4359 26.4934H39.4366Z" fill="#92A0AD"/>
<path d="M41.4395 24.1184H40.9297V23.2402H41.4395V24.1184ZM41.4395 28.3977H40.9297V24.5859H41.4395V28.3977Z" fill="#92A0AD"/>
<path d="M44.2713 25.052H43.3964V28.3969H42.8866V25.052H42.1016V24.5852H42.8866V23.2402H43.3964V24.5852H44.2713V25.052Z" fill="#92A0AD"/>
<path d="M48.7705 28.3961H48.2881V27.6856C48.0858 27.9784 47.8492 28.1901 47.5789 28.3201C47.3492 28.4317 47.0922 28.4871 46.8071 28.4871C46.2377 28.4871 45.7588 28.2981 45.3712 27.9194C44.9829 27.5407 44.7891 27.0562 44.7891 26.4665C44.7891 25.9599 44.9541 25.5187 45.2848 25.1421C45.6612 24.7101 46.1639 24.4941 46.7931 24.4941C47.1463 24.4941 47.4419 24.5581 47.6779 24.686C47.9145 24.8139 48.1125 25.0007 48.2733 25.2473L48.2874 24.5851H48.7698V28.3968L48.7705 28.3961ZM48.2881 26.5148C48.2881 26.0828 48.1455 25.7155 47.8611 25.4135C47.576 25.1116 47.2207 24.9602 46.7938 24.9602C46.3669 24.9602 46.0284 25.108 45.7363 25.4029C45.4449 25.6977 45.2989 26.0657 45.2989 26.5077C45.2989 26.9496 45.447 27.2942 45.7433 27.584C46.0397 27.8746 46.3943 28.0196 46.8071 28.0196C47.22 28.0196 47.5648 27.8732 47.8541 27.5805C48.1434 27.2878 48.2881 26.9325 48.2881 26.5141V26.5148Z" fill="#92A0AD"/>
<path d="M50.291 28.3969H49.7812V23.2402H50.291V28.3969Z" fill="#92A0AD"/>
<path d="M52.9477 26.5361H51.0742V26.0693H52.9477V26.5361Z" fill="#92A0AD"/>
<path d="M57.5712 28.3961H57.0888V27.6856C56.8866 27.9784 56.65 28.1901 56.3796 28.3201C56.15 28.4317 55.893 28.4871 55.6079 28.4871C55.0385 28.4871 54.5596 28.2981 54.172 27.9194C53.7836 27.5407 53.5898 27.0562 53.5898 26.4665C53.5898 25.9599 53.7549 25.5187 54.0856 25.1421C54.462 24.7101 54.9647 24.4941 55.5939 24.4941C55.9471 24.4941 56.2427 24.5581 56.4786 24.686C56.7153 24.8139 56.9133 25.0007 57.0741 25.2473L57.0881 24.5851H57.5705V28.3968L57.5712 28.3961ZM57.0888 26.5148C57.0888 26.0828 56.9463 25.7155 56.6619 25.4135C56.3768 25.1116 56.0215 24.9602 55.5946 24.9602C55.1677 24.9602 54.8292 25.108 54.5371 25.4029C54.2457 25.6977 54.0996 26.0657 54.0996 26.5077C54.0996 26.9496 54.2478 27.2942 54.5441 27.584C54.8404 27.8746 55.195 28.0196 55.6079 28.0196C56.0208 28.0196 56.3656 27.8732 56.6549 27.5805C56.9442 27.2878 57.0888 26.9325 57.0888 26.5141V26.5148Z" fill="#92A0AD"/>
<path d="M60.5493 25.0518H59.0957V28.3967H58.5859V24.585H60.5485V25.0518H60.5493Z" fill="#92A0AD"/>
<path d="M64.961 26.6751H61.5934C61.5934 27.0516 61.7331 27.3699 62.0133 27.63C62.2934 27.89 62.6305 28.02 63.0258 28.02C63.3151 28.02 63.577 27.9426 63.8109 27.7863C64.0447 27.6307 64.2216 27.4204 64.341 27.1554H64.8712C64.7195 27.5689 64.4807 27.8943 64.1549 28.1309C63.8291 28.3674 63.4527 28.4861 63.0251 28.4861C62.4648 28.4861 61.9978 28.2971 61.6235 27.9184C61.2493 27.5397 61.0625 27.0644 61.0625 26.4932C61.0625 25.9774 61.2275 25.5269 61.5582 25.1411C61.9304 24.7092 62.4191 24.4932 63.0251 24.4932C63.6817 24.4932 64.1823 24.7326 64.5264 25.2108C64.8157 25.61 64.9603 26.0982 64.9603 26.6744L64.961 26.6751ZM64.4098 26.2083C64.341 25.8275 64.1781 25.5241 63.9211 25.2989C63.6641 25.0736 63.3657 24.9607 63.0258 24.9607C62.6628 24.9607 62.3496 25.0758 62.0856 25.306C61.8216 25.5362 61.6573 25.8367 61.5934 26.2083H64.4105H64.4098Z" fill="#92A0AD"/>
<path d="M68.955 28.3967H68.4452V26.6752H66.3379V28.3967H65.8281V24.585H66.3379V26.2084H68.4452V24.585H68.955V28.3967Z" fill="#92A0AD"/>
<path d="M73.6736 25.741H73.102C72.9777 25.4952 72.8036 25.3034 72.5782 25.1663C72.3535 25.0291 72.1049 24.9609 71.8346 24.9609C71.3985 24.9609 71.039 25.1059 70.7567 25.3965C70.4744 25.687 70.3333 26.048 70.3333 26.4799C70.3333 26.9119 70.4801 27.2771 70.7743 27.5741C71.0678 27.8718 71.4217 28.0203 71.8353 28.0203C72.0972 28.0203 72.3402 27.9563 72.5656 27.8285C72.7903 27.7006 72.9693 27.5187 73.1027 27.2814H73.6673C73.5114 27.6203 73.3043 27.8924 73.0473 28.097C72.7123 28.3571 72.3079 28.4871 71.8353 28.4871C71.2244 28.4871 70.7286 28.2782 70.3473 27.8597C69.9984 27.4789 69.8242 27.0213 69.8242 26.4871C69.8242 25.9805 69.9941 25.535 70.334 25.1492C70.7195 24.7123 71.2202 24.4941 71.8353 24.4941C72.2622 24.4941 72.6379 24.6057 72.9616 24.8288C73.2853 25.0519 73.5226 25.356 73.6743 25.7418L73.6736 25.741Z" fill="#92A0AD"/>
<path d="M76.6708 25.0518H75.6997V28.3967H75.1899V25.0518H74.2188V24.585H76.6708V25.0518Z" fill="#92A0AD"/>
<path d="M79.9318 27.2955C79.9318 27.6116 79.8307 27.8695 79.6285 28.0692C79.408 28.2873 79.1054 28.3967 78.7192 28.3967H77.3281V24.585H78.6777C79.0773 24.585 79.3736 24.6965 79.566 24.9196C79.7177 25.0965 79.7935 25.3239 79.7935 25.6024C79.7935 25.7793 79.7486 25.937 79.6594 26.0763C79.5702 26.2155 79.4466 26.32 79.2907 26.3896C79.4838 26.4408 79.6383 26.5487 79.7556 26.7136C79.8728 26.8784 79.9311 27.0724 79.9311 27.2955H79.9318ZM79.2844 25.6024C79.2844 25.4169 79.2303 25.2784 79.1229 25.1875C79.0148 25.0972 78.8554 25.0518 78.644 25.0518H77.8379V26.2084H78.644C78.8463 26.2084 79.0035 26.1537 79.1159 26.0443C79.2282 25.9349 79.2844 25.7878 79.2844 25.6017V25.6024ZM79.422 27.3026C79.422 27.098 79.3553 26.9424 79.2226 26.8358C79.0892 26.7292 78.9031 26.6752 78.6651 26.6752H77.8386V27.9299H78.6651C78.9361 27.9299 79.1355 27.8603 79.264 27.7211C79.3694 27.6095 79.4227 27.4702 79.4227 27.3026H79.422Z" fill="#92A0AD"/>
<path d="M84.576 26.4942C84.576 27.0611 84.3878 27.535 84.0114 27.9158C83.6351 28.2967 83.1667 28.4871 82.6063 28.4871C82.046 28.4871 81.5889 28.2967 81.2083 27.9158C80.827 27.535 80.6367 27.0611 80.6367 26.4942C80.6367 25.9272 80.8235 25.4526 81.1978 25.0689C81.572 24.686 82.0418 24.4941 82.6063 24.4941C83.1709 24.4941 83.6351 24.6846 84.0114 25.0654C84.3878 25.4462 84.576 25.9222 84.576 26.4942ZM84.0662 26.4942C84.0662 26.0622 83.9272 25.6984 83.6498 25.4036C83.3717 25.1087 83.0241 24.9609 82.6063 24.9609C82.1885 24.9609 81.8346 25.1073 81.5594 25.4C81.2841 25.6927 81.1458 26.0572 81.1458 26.4942C81.1458 26.9311 81.2834 27.2885 81.5594 27.5812C81.8346 27.8739 82.1836 28.0203 82.6063 28.0203C83.0291 28.0203 83.3717 27.8753 83.6498 27.5848C83.9279 27.2942 84.0662 26.9311 84.0662 26.4942Z" fill="#92A0AD"/>
<path d="M90.3143 28.3967H89.8045V25.0518H87.6973V28.3967H87.1875V24.585H90.3143V28.3967Z" fill="#92A0AD"/>
<path d="M95.119 26.4942C95.119 27.0611 94.9308 27.535 94.5544 27.9158C94.178 28.2967 93.7097 28.4871 93.1493 28.4871C92.589 28.4871 92.1319 28.2967 91.7513 27.9158C91.37 27.535 91.1797 27.0611 91.1797 26.4942C91.1797 25.9272 91.3665 25.4526 91.7407 25.0689C92.115 24.686 92.5848 24.4941 93.1493 24.4941C93.7139 24.4941 94.178 24.6846 94.5544 25.0654C94.9308 25.4462 95.119 25.9222 95.119 26.4942ZM94.6092 26.4942C94.6092 26.0622 94.4701 25.6984 94.1928 25.4036C93.9147 25.1087 93.5671 24.9609 93.1493 24.9609C92.7315 24.9609 92.3776 25.1073 92.1024 25.4C91.8271 25.6927 91.6888 26.0572 91.6888 26.4942C91.6888 26.9311 91.8264 27.2885 92.1024 27.5812C92.3776 27.8739 92.7266 28.0203 93.1493 28.0203C93.572 28.0203 93.9147 27.8753 94.1928 27.5848C94.4708 27.2942 94.6092 26.9311 94.6092 26.4942Z" fill="#92A0AD"/>
<path d="M99.3484 28.3967H98.7972L97.475 25.24L96.1528 28.3967H95.6016L97.2131 24.585H97.7432L99.3477 28.3967H99.3484Z" fill="#92A0AD"/>
<path d="M103.111 28.3967H102.601V26.6752H100.494V28.3967H99.9844V24.585H100.494V26.2084H102.601V24.585H103.111V28.3967Z" fill="#92A0AD"/>
<path d="M107.92 26.4942C107.92 27.0611 107.732 27.535 107.355 27.9158C106.979 28.2967 106.51 28.4871 105.95 28.4871C105.39 28.4871 104.933 28.2967 104.552 27.9158C104.171 27.535 103.98 27.0611 103.98 26.4942C103.98 25.9272 104.167 25.4526 104.542 25.0689C104.916 24.686 105.386 24.4941 105.95 24.4941C106.515 24.4941 106.979 24.6846 107.355 25.0654C107.732 25.4462 107.92 25.9222 107.92 26.4942ZM107.41 26.4942C107.41 26.0622 107.271 25.6984 106.994 25.4036C106.715 25.1087 106.368 24.9609 105.95 24.9609C105.532 24.9609 105.178 25.1073 104.903 25.4C104.628 25.6927 104.49 26.0572 104.49 26.4942C104.49 26.9311 104.627 27.2885 104.903 27.5812C105.178 27.8739 105.527 28.0203 105.95 28.0203C106.373 28.0203 106.715 27.8753 106.994 27.5848C107.272 27.2942 107.41 26.9311 107.41 26.4942Z" fill="#92A0AD"/>
<path d="M110.745 25.0518H109.291V28.3967H108.781V24.585H110.745V25.0518Z" fill="#92A0AD"/>
<path d="M115.197 26.4942C115.197 27.0611 115.009 27.535 114.633 27.9158C114.256 28.2967 113.788 28.4871 113.227 28.4871C112.667 28.4871 112.21 28.2967 111.829 27.9158C111.448 27.535 111.258 27.0611 111.258 26.4942C111.258 25.9272 111.445 25.4526 111.819 25.0689C112.193 24.686 112.663 24.4941 113.227 24.4941C113.792 24.4941 114.256 24.6846 114.633 25.0654C115.009 25.4462 115.197 25.9222 115.197 26.4942ZM114.687 26.4942C114.687 26.0622 114.548 25.6984 114.271 25.4036C113.993 25.1087 113.645 24.9609 113.227 24.9609C112.81 24.9609 112.456 25.1073 112.18 25.4C111.905 25.6927 111.767 26.0572 111.767 26.4942C111.767 26.9311 111.905 27.2885 112.18 27.5812C112.456 27.8739 112.805 28.0203 113.227 28.0203C113.65 28.0203 113.993 27.8753 114.271 27.5848C114.549 27.2942 114.687 26.9311 114.687 26.4942Z" fill="#92A0AD"/>
<path d="M121.562 29.3661H121.053V28.3977H117.809V24.5859H118.318V27.9309H120.44V24.5859H120.949V27.9309H121.562V29.3668V29.3661Z" fill="#92A0AD"/>
<path d="M125.488 28.3967H124.978V25.3168L122.732 28.3967H122.223V24.585H122.732V27.6649L124.978 24.585H125.488V28.3967Z" fill="#92A0AD"/>
<path d="M127.01 28.3967H126.5V24.585H127.01V28.3967ZM129.476 28.3967H128.821L127.306 26.4663L128.78 24.585H129.379L127.932 26.4251L129.475 28.3974L129.476 28.3967Z" fill="#92A0AD"/>
<path d="M133.458 28.3967H132.907L131.584 25.24L130.262 28.3967H129.711L131.322 24.585H131.853L133.457 28.3967H133.458Z" fill="#92A0AD"/>
<path d="M137.927 28.3961H137.444V27.6856C137.242 27.9784 137.005 28.1901 136.735 28.3201C136.505 28.4317 136.248 28.4871 135.963 28.4871C135.394 28.4871 134.915 28.2981 134.527 27.9194C134.139 27.5407 133.945 27.0562 133.945 26.4665C133.945 25.9599 134.11 25.5187 134.441 25.1421C134.817 24.7101 135.32 24.4941 135.949 24.4941C136.303 24.4941 136.598 24.5581 136.834 24.686C137.071 24.8139 137.269 25.0007 137.43 25.2473L137.444 24.5851H137.926V28.3968L137.927 28.3961ZM137.444 26.5148C137.444 26.0828 137.302 25.7155 137.017 25.4135C136.732 25.1116 136.377 24.9602 135.95 24.9602C135.523 24.9602 135.185 25.108 134.893 25.4029C134.6 25.6977 134.455 26.0657 134.455 26.5077C134.455 26.9496 134.603 27.2942 134.9 27.584C135.196 27.8746 135.551 28.0196 135.963 28.0196C136.376 28.0196 136.721 27.8732 137.01 27.5805C137.3 27.2878 137.444 26.9325 137.444 26.5141V26.5148Z" fill="#92A0AD"/>
<path d="M31.6942 18.6403H29.4297V6.26367H31.6942V18.6403Z" fill="#007DD4"/>
<path d="M42.9705 15.6126C42.618 16.6271 42.0527 17.4328 41.2761 18.0296C40.4995 18.6264 39.5543 18.9241 38.4414 18.9241C36.832 18.9241 35.5596 18.3856 34.6229 17.3071C33.7964 16.3628 33.3828 15.2403 33.3828 13.9401C33.3828 12.6399 33.7795 11.6289 34.573 10.7059C35.4985 9.62813 36.7603 9.08887 38.3585 9.08887C39.4932 9.08887 40.4686 9.39224 41.2845 9.99971C42.0998 10.6072 42.6622 11.4186 42.9705 12.4338H40.491C40.2818 12.0218 39.9925 11.712 39.6231 11.5059C39.2538 11.2999 38.8212 11.1962 38.3255 11.1962C37.4766 11.1962 36.8074 11.4654 36.3173 12.0026C35.8271 12.5404 35.5814 13.1969 35.5814 13.9728C35.5814 14.7486 35.8292 15.4584 36.325 16.0012C36.8207 16.544 37.4878 16.8161 38.3248 16.8161C38.843 16.8161 39.2777 16.7159 39.6309 16.5149C39.9834 16.3138 40.2699 16.0133 40.4903 15.6118H42.9698L42.9705 15.6126Z" fill="#007DD4"/>
<path d="M53.5493 14.01V14.2601C53.5493 14.4938 53.5324 14.7382 53.4994 14.994H46.3252C46.4684 15.5467 46.7577 15.9887 47.1931 16.3198C47.6285 16.6508 48.1382 16.8171 48.7225 16.8171C49.108 16.8171 49.4661 16.7567 49.7968 16.6366C50.1935 16.4832 50.5187 16.2594 50.7721 15.9638H53.2516C52.8436 16.9286 52.2404 17.6633 51.4413 18.1677C50.6422 18.6722 49.7638 18.9244 48.8046 18.9244C47.2837 18.9244 46.0661 18.3802 45.1511 17.291C44.3577 16.3468 43.9609 15.2739 43.9609 14.0739C43.9609 12.8739 44.3577 11.757 45.1511 10.79C46.0766 9.65681 47.3055 9.08984 48.8376 9.08984C50.2258 9.08984 51.3585 9.55948 52.2348 10.4994C53.1111 11.4387 53.5493 12.6089 53.5493 14.01ZM51.2517 13.0203C51.0973 12.4462 50.7995 11.9979 50.3593 11.6774C49.9183 11.357 49.4113 11.1971 48.8383 11.1971C48.2653 11.1971 47.7169 11.3634 47.2598 11.6945C46.8027 12.0256 46.4804 12.4675 46.2929 13.0203H51.2517Z" fill="#007DD4"/>
<path d="M71.6444 18.6403H69.3799V9.37418L66.2889 18.6403H64.3712L61.2802 9.37418V18.6403H59.0156V6.26367H62.0905L65.3304 15.7302L68.5703 6.26367H71.6451V18.6403H71.6444Z" fill="#007DD4"/>
<path d="M82.7915 18.6402H80.7748V17.3855C80.4111 17.8821 79.9617 18.2622 79.4273 18.5272C78.8929 18.7915 78.3115 18.9244 77.6831 18.9244C76.4704 18.9244 75.4347 18.491 74.5752 17.6242C73.6603 16.702 73.2031 15.524 73.2031 14.0903C73.2031 12.6565 73.6413 11.465 74.5169 10.5151C75.3932 9.56516 76.4704 9.08984 77.7484 9.08984C79.0264 9.08984 80.0684 9.61987 80.7404 10.6785L80.7734 9.37404H82.7901V18.6402H82.7915ZM80.7249 13.9908C80.7249 13.1815 80.4855 12.5137 80.0059 11.9872C79.5263 11.4607 78.8901 11.1971 78.0967 11.1971C77.3032 11.1971 76.6691 11.4693 76.1628 12.0121C75.6559 12.5549 75.4024 13.2476 75.4024 14.0903C75.4024 14.8775 75.6531 15.529 76.1544 16.0441C76.6558 16.5592 77.3032 16.8171 78.0967 16.8171C78.8901 16.8171 79.513 16.5571 79.9975 16.0356C80.482 15.5148 80.7249 14.8327 80.7249 13.9901V13.9908Z" fill="#007DD4"/>
<path d="M88.7364 11.2307C88.0749 11.2307 87.582 11.4346 87.2569 11.841C86.9318 12.2481 86.7689 12.8478 86.7689 13.6393V18.6404H84.5703V9.37423H86.587V10.2105C87.0385 9.44101 87.6831 9.05664 88.5208 9.05664H88.7357V11.2307H88.7364Z" fill="#007DD4"/>
<path d="M98.1449 18.6404H95.2027L92.0618 14.3085V18.6404H89.8633V6.26367H92.0618V13.7401L95.004 9.37489H97.5993L94.2934 13.9078L98.1449 18.6411V18.6404Z" fill="#007DD4"/>
<path d="M108.643 14.01V14.2601C108.643 14.4938 108.626 14.7382 108.593 14.994H101.419C101.562 15.5467 101.851 15.9887 102.287 16.3198C102.722 16.6508 103.232 16.8171 103.816 16.8171C104.202 16.8171 104.56 16.7567 104.891 16.6366C105.287 16.4832 105.612 16.2594 105.866 15.9638H108.345C107.937 16.9286 107.334 17.6633 106.535 18.1677C105.736 18.6722 104.858 18.9244 103.898 18.9244C102.377 18.9244 101.16 18.3802 100.245 17.291C99.4514 16.3468 99.0547 15.2739 99.0547 14.0739C99.0547 12.8739 99.4514 11.757 100.245 10.79C101.17 9.65681 102.399 9.08984 103.931 9.08984C105.32 9.08984 106.452 9.55948 107.329 10.4994C108.205 11.4387 108.643 12.6089 108.643 14.01ZM106.345 13.0203C106.191 12.4462 105.893 11.9979 105.453 11.6774C105.012 11.357 104.505 11.1971 103.932 11.1971C103.359 11.1971 102.811 11.3634 102.354 11.6945C101.896 12.0256 101.574 12.4675 101.387 13.0203H106.345Z" fill="#007DD4"/>
<path d="M113.88 11.3476H112.558V18.6401H110.359V11.3476H109.285V9.37392H110.359V6.2627H112.558V9.37392H113.88V11.3476Z" fill="#007DD4"/>
<path d="M117.187 8.30419H114.988V6.26367H117.187V8.30419ZM117.187 18.6403H114.988V9.37418H117.187V18.6403Z" fill="#007DD4"/>
<path d="M127.086 18.6402H124.887V13.7229C124.887 12.7865 124.689 12.1066 124.293 11.6824C123.984 11.3478 123.571 11.1808 123.052 11.1808C122.27 11.1808 121.73 11.4984 121.433 12.1343C121.245 12.525 121.152 13.0544 121.152 13.7229V18.6402H118.953V9.37404H120.97V10.2273C121.245 9.91969 121.521 9.68381 121.796 9.51827C122.292 9.23265 122.865 9.08984 123.515 9.08984C124.595 9.08984 125.46 9.45717 126.111 10.1918C126.761 10.9265 127.086 11.9396 127.086 13.2306V18.6402Z" fill="#007DD4"/>
<path d="M137.998 17.2349C137.998 18.8178 137.496 20.0669 136.494 20.9813C135.579 21.8175 134.438 22.236 133.072 22.236C131.959 22.236 130.986 21.9404 130.154 21.3493C129.322 20.7582 128.768 19.9219 128.493 18.8406H131.022C131.154 19.2526 131.405 19.5709 131.774 19.794C132.144 20.0171 132.576 20.1287 133.072 20.1287C133.832 20.1287 134.477 19.8836 135.006 19.3926C135.535 18.9017 135.799 18.3113 135.799 17.6199V17.2853C135.424 17.7869 135.014 18.1549 134.568 18.3894C134.121 18.6239 133.611 18.7404 133.038 18.7404C131.76 18.7404 130.669 18.2672 129.765 17.3215C128.862 16.3752 128.41 15.2284 128.41 13.8821C128.41 12.5357 128.864 11.33 129.774 10.4341C130.683 9.53816 131.788 9.08984 133.088 9.08984C133.595 9.08984 134.052 9.17297 134.46 9.3378C135.099 9.59145 135.595 10.027 135.948 10.6451L135.981 9.37404H137.998V17.2349ZM135.931 13.9482C135.931 13.1148 135.689 12.4476 135.204 11.9474C134.719 11.4472 134.074 11.1971 133.27 11.1971C132.466 11.1971 131.782 11.4693 131.286 12.0142C130.834 12.5144 130.609 13.1318 130.609 13.865C130.609 14.643 130.834 15.2881 131.286 15.799C131.782 16.3546 132.444 16.6324 133.27 16.6324C134.096 16.6324 134.719 16.3766 135.204 15.865C135.688 15.3542 135.931 14.7148 135.931 13.9474V13.9482Z" fill="#007DD4"/>
<path d="M0 22.6875L5.31906 34.9995H7.9972L0 22.6875Z" fill="url(#paint0_linear_0_3919)"/>
<path d="M3.71176 19.5908L0 22.6878L7.9972 34.9999L3.71176 19.5908Z" fill="url(#paint1_linear_0_3919)"/>
<path d="M0.6875 9.36914L7.99586 35H12.5109L0.6875 9.36914Z" fill="url(#paint2_linear_0_3919)"/>
<path d="M19.7056 24.1592L12.5117 34.9998H15.4202L19.7056 24.1592Z" fill="url(#paint3_linear_0_3919)"/>
<path d="M17.0268 15.874L19.7056 24.1597L12.5117 35.0003L17.0268 15.874Z" fill="url(#paint4_linear_0_3919)"/>
<path d="M7.6897 0L0.6875 9.36919L8.60816 5.30449L7.6897 0Z" fill="url(#paint5_linear_0_3919)"/>
<path d="M13.087 3.21353L8.60987 5.30449L7.69141 0L13.087 3.21353Z" fill="url(#paint6_linear_0_3919)"/>
<path d="M0.6875 9.36914L17.026 15.8736L12.5109 35L0.6875 9.36914Z" fill="white"/>
<path d="M9.60948 12.9211L8.60816 5.30469L0.6875 9.36938L9.60948 12.9211Z" fill="url(#paint7_linear_0_3919)"/>
<path d="M12.5121 35.0003L13.0865 3.21387L8.60938 5.30483L12.5121 35.0003Z" fill="url(#paint8_linear_0_3919)"/>
<path d="M0.6875 9.36914L17.026 15.8736L12.5109 35L0.6875 9.36914Z" fill="url(#paint9_linear_0_3919)"/>
<path d="M12.5108 35L12.8858 14.2254L9.60938 12.9209L12.5108 35Z" fill="url(#paint10_linear_0_3919)"/>
</g>
<defs>
<linearGradient id="paint0_linear_0_3919" x1="3.99895" y1="21.6857" x2="3.99895" y2="36.7445" gradientUnits="userSpaceOnUse">
<stop stop-color="#82F3F3"/>
<stop offset="0.92" stop-color="#4AEDED"/>
</linearGradient>
<linearGradient id="paint1_linear_0_3919" x1="0" y1="27.2953" x2="7.9972" y2="27.2953" gradientUnits="userSpaceOnUse">
<stop stop-color="#0072FD"/>
<stop offset="0.61" stop-color="#34E1F2"/>
</linearGradient>
<linearGradient id="paint2_linear_0_3919" x1="-2.05594" y1="10.972" x2="12.1153" y2="35.2309" gradientUnits="userSpaceOnUse">
<stop offset="0.22" stop-color="#0078CC"/>
<stop offset="0.5" stop-color="#00C4FF"/>
</linearGradient>
<linearGradient id="paint3_linear_0_3919" x1="12.5117" y1="29.5795" x2="19.7056" y2="29.5795" gradientUnits="userSpaceOnUse">
<stop stop-color="#82F3F3"/>
<stop offset="0.92" stop-color="#4AEDED"/>
</linearGradient>
<linearGradient id="paint4_linear_0_3919" x1="11.2415" y1="19.2538" x2="18.4228" y2="31.5475" gradientUnits="userSpaceOnUse">
<stop offset="0.31" stop-color="#2FC8EC"/>
<stop offset="0.92" stop-color="#0E9BEA"/>
</linearGradient>
<linearGradient id="paint5_linear_0_3919" x1="2.78774" y1="10.5962" x2="8.6499" y2="0.561264" gradientUnits="userSpaceOnUse">
<stop offset="0.28" stop-color="#47EAED"/>
<stop offset="0.93" stop-color="#4AEDED"/>
</linearGradient>
<linearGradient id="paint6_linear_0_3919" x1="7.47232" y1="3.31087" x2="11.7496" y2="0.869831" gradientUnits="userSpaceOnUse">
<stop stop-color="#2FC8EC"/>
<stop offset="0.72" stop-color="#2FC8EC"/>
</linearGradient>
<linearGradient id="paint7_linear_0_3919" x1="3.79538" y1="12.5147" x2="9.83481" y2="6.54583" gradientUnits="userSpaceOnUse">
<stop offset="0.28" stop-color="#41E2ED"/>
<stop offset="0.93" stop-color="#22B6EB"/>
</linearGradient>
<linearGradient id="paint8_linear_0_3919" x1="10.1219" y1="3.74247" x2="15.6002" y2="34.449" gradientUnits="userSpaceOnUse">
<stop offset="0.28" stop-color="#1190ED"/>
<stop offset="0.93" stop-color="#01299A"/>
</linearGradient>
<linearGradient id="paint9_linear_0_3919" x1="8.85674" y1="9.36914" x2="8.85674" y2="35" gradientUnits="userSpaceOnUse">
<stop offset="0.31" stop-color="#2AC1EB"/>
<stop offset="1" stop-color="#0235F9"/>
</linearGradient>
<linearGradient id="paint10_linear_0_3919" x1="10.6297" y1="12.739" x2="14.5362" y2="34.6383" gradientUnits="userSpaceOnUse">
<stop offset="0.28" stop-color="#1190ED"/>
<stop offset="0.93" stop-color="#01299A"/>
</linearGradient>
<clipPath id="clip0_0_3919">
<rect width="138" height="35" fill="white"/>
</clipPath>
</defs>
</svg>
