<svg width="32" height="32" viewBox="0 0 32 32" fill="none" xmlns="http://www.w3.org/2000/svg">
<g clip-path="url(#clip0_0_3994)">
<path d="M19.1579 16.8923C19.0531 16.782 18.9215 16.7008 18.776 16.6565C18.6304 16.6123 18.4759 16.6065 18.3274 16.6398C18.1789 16.6731 18.0416 16.7443 17.9289 16.8465C17.8162 16.9487 17.7319 17.0784 17.6843 17.2229C17.609 17.4268 17.4623 17.5965 17.2715 17.7007C17.0807 17.8048 16.8586 17.8362 16.6464 17.7892C15.7011 17.5534 14.4274 16.3155 14.1916 15.3365C14.134 15.1236 14.1607 14.8967 14.2662 14.703C14.3717 14.5093 14.5478 14.3637 14.7579 14.2966C14.8998 14.2488 15.0271 14.1656 15.1277 14.0549C15.2284 13.9441 15.2991 13.8094 15.333 13.6637C15.367 13.5179 15.3631 13.3659 15.3218 13.2221C15.2805 13.0782 15.203 12.9473 15.0969 12.8418L13.7748 11.5197C13.6011 11.3601 13.3738 11.2715 13.1379 11.2715C12.9021 11.2715 12.6748 11.3601 12.5011 11.5197L11.6043 12.4208C10.7074 13.3639 11.699 15.865 13.92 18.0839C16.1411 20.3029 18.6379 21.3387 19.5811 20.3997L20.4779 19.5029C20.6346 19.3298 20.7214 19.1047 20.7214 18.8713C20.7214 18.6379 20.6346 18.4128 20.4779 18.2397L19.1579 16.8923Z" fill="#73657C"/>
<path d="M16 0C12.8355 0 9.74207 0.938384 7.11088 2.69649C4.4797 4.45459 2.42894 6.95345 1.21793 9.87707C0.00693251 12.8007 -0.309921 16.0177 0.307443 19.1214C0.924806 22.2251 2.44866 25.0761 4.6863 27.3137C6.92394 29.5513 9.77487 31.0752 12.8786 31.6926C15.9823 32.3099 19.1993 31.9931 22.1229 30.7821C25.0466 29.5711 27.5454 27.5203 29.3035 24.8891C31.0616 22.2579 32 19.1645 32 16C32 11.7565 30.3143 7.68687 27.3137 4.68629C24.3131 1.68571 20.2435 0 16 0ZM16 24.4211C14.3527 24.4241 12.7413 23.94 11.3684 23.0295L8.13264 24.0653L9.18527 20.9368C8.27597 19.6803 7.73137 18.197 7.61154 16.6506C7.4917 15.1042 7.80129 13.5547 8.50615 12.1731C9.21101 10.7915 10.2838 9.63135 11.6061 8.82069C12.9284 8.01002 14.449 7.58031 16 7.57895C18.2334 7.57895 20.3753 8.46616 21.9546 10.0454C23.5338 11.6247 24.4211 13.7666 24.4211 16C24.4211 18.2334 23.5338 20.3753 21.9546 21.9546C20.3753 23.5338 18.2334 24.4211 16 24.4211Z" fill="#73657C"/>
</g>
<defs>
<clipPath id="clip0_0_3994">
<rect width="32" height="32" fill="white"/>
</clipPath>
</defs>
</svg>
