<svg width="32" height="33" viewBox="0 0 32 33" fill="none" xmlns="http://www.w3.org/2000/svg">
<g clip-path="url(#clip0_0_3983)">
<path fill-rule="evenodd" clip-rule="evenodd" d="M6.24306 3.25477C8.81333 1.25141 12.0145 0.202556 15.2376 0.0305222C15.1197 2.99117 15.1636 6.01009 14.3571 8.88195C13.7564 11.1295 12.201 13.1245 10.0944 14.1012C6.92334 15.4858 3.3875 15.3832 -0.0002175 15.5219C-0.0002175 10.7493 2.47131 6.08501 6.24306 3.25477ZM16.1977 0C19.0505 0.241402 21.9088 0.998907 24.3008 2.64433C28.5636 5.41352 31.356 10.3859 31.4356 15.5219C28.303 15.4109 25.0799 15.4553 22.0789 14.4148C19.9119 13.6406 18.0905 11.9064 17.3334 9.69495C16.2252 6.60111 16.2526 3.24645 16.1977 0ZM22.6467 17.3754C25.5105 16.5791 28.5005 16.5541 31.4466 16.4847C31.3451 20.5275 29.6389 24.5093 26.7641 27.3257C23.9936 30.1559 20.1176 31.7902 16.195 31.9511C16.2718 28.6464 16.2169 25.2224 17.4074 22.0869C18.255 19.77 20.3233 18.0441 22.6467 17.3754ZM-0.0002175 16.4903C3.56031 16.6179 7.36224 16.4514 10.6101 18.1773C12.832 19.3261 14.1404 21.7151 14.6067 24.1208C15.1389 26.6958 15.1554 29.3373 15.2212 31.9539C11.016 31.7902 6.89317 29.9089 4.06504 26.743C1.58255 23.9571 -0.013933 20.2667 -0.0002175 16.4903Z" fill="#73657C"/>
</g>
<defs>
<clipPath id="clip0_0_3983">
<rect width="32" height="33" fill="white"/>
</clipPath>
</defs>
</svg>
