<svg width="195" height="197" viewBox="0 0 195 197" fill="none" xmlns="http://www.w3.org/2000/svg">
<g clip-path="url(#clip0_0_5732)">
<path d="M86.6012 24.3431L84.6568 23.2053C84.3429 23.0223 84.1604 22.6778 84.1951 22.3215C84.232 21.9447 84.2538 21.5679 84.2581 21.1933C84.2625 20.8359 84.4819 20.5151 84.8121 20.3665L86.8652 19.4418C87.2693 19.2599 87.4909 18.8271 87.3986 18.3998L87.0227 16.6591C86.9304 16.2317 86.5491 15.9238 86.1037 15.9173L83.8388 15.8861C83.4727 15.8807 83.1403 15.6708 82.9882 15.3436C82.8307 15.0056 82.658 14.6729 82.4733 14.3489C82.2941 14.0345 82.3158 13.6481 82.5277 13.3542L83.8366 11.5403C84.0941 11.184 84.0648 10.6995 83.7682 10.3744L82.557 9.05034C82.2593 8.72523 81.7727 8.64557 81.3838 8.85872L79.4122 9.94168C79.0928 10.1172 78.6996 10.0978 78.4008 9.89001C78.0923 9.67579 77.7741 9.47233 77.4449 9.28179C77.1288 9.0977 76.9506 8.75107 76.9843 8.3926L77.194 6.18038C77.2353 5.74548 76.9637 5.33963 76.5411 5.20399L74.8193 4.65175C74.3968 4.51611 73.934 4.6862 73.707 5.0619L72.5512 6.97054C72.3643 7.27841 72.0145 7.45819 71.6517 7.42267C71.2683 7.38607 70.8848 7.36454 70.5035 7.35915C70.1396 7.35377 69.8126 7.13955 69.6606 6.81444L68.7166 4.79708C68.5308 4.39985 68.0898 4.18132 67.6542 4.27174L65.8824 4.63883C65.4468 4.72926 65.134 5.10388 65.1285 5.53986L65.0992 7.76392C65.0949 8.12132 64.8841 8.44857 64.5528 8.59713C64.2052 8.75322 63.8641 8.92331 63.5306 9.10739C63.2134 9.28179 62.8202 9.25703 62.5225 9.04926L60.6748 7.76176C60.3119 7.50879 59.8188 7.53678 59.4885 7.82851L58.1426 9.01697C57.8113 9.3087 57.7309 9.78667 57.9493 10.1688L59.054 12.1065C59.2332 12.4198 59.2137 12.8073 59.0019 13.1001C58.7835 13.4026 58.5771 13.7159 58.3838 14.0378C58.1969 14.3478 57.8439 14.5233 57.4789 14.4888L55.2259 14.2811C54.7827 14.2402 54.371 14.5061 54.2331 14.9216L53.6725 16.6117C53.5346 17.0272 53.7084 17.4815 54.0907 17.7043L56.0352 18.8422C56.3491 19.0263 56.5316 19.3697 56.4969 19.726C56.46 20.1028 56.4382 20.4796 56.4339 20.8531C56.4295 21.2105 56.2101 21.5313 55.8799 21.6799L53.8268 22.6046C53.4227 22.7865 53.2011 23.2193 53.2934 23.6466L53.6693 25.3873C53.7616 25.8147 54.1429 26.1226 54.5883 26.1291L56.8521 26.1603C57.216 26.1657 57.5495 26.3723 57.7005 26.6974C57.8602 27.0398 58.034 27.3746 58.2208 27.7018C58.399 28.014 58.374 28.4005 58.1633 28.6911L56.8543 30.504C56.5968 30.8603 56.6262 31.3447 56.9227 31.6698L58.1339 32.9928C58.4316 33.3179 58.9182 33.3976 59.3071 33.1845L61.2787 32.1015C61.5981 31.926 61.9913 31.9454 62.2901 32.1532C62.5986 32.3674 62.9169 32.5708 63.246 32.7614C63.5621 32.9455 63.7403 33.2921 63.7066 33.6506L63.4969 35.8628C63.4557 36.2977 63.7272 36.7035 64.1498 36.8392L65.8716 37.3914C66.2941 37.5271 66.7569 37.357 66.9839 36.9813L68.1397 35.0726C68.3266 34.7648 68.6764 34.585 69.0392 34.6205C69.4227 34.6571 69.8061 34.6786 70.1874 34.684C70.5513 34.6894 70.8783 34.9036 71.0304 35.2287L71.9743 37.2461C72.1601 37.6433 72.6011 37.8619 73.0367 37.7714L74.8085 37.4043C75.2441 37.3139 75.5569 36.9393 75.5624 36.5033L75.5917 34.2793C75.596 33.9197 75.81 33.5935 76.1435 33.4439C76.4879 33.2889 76.8257 33.1209 77.156 32.939C77.4753 32.7635 77.8697 32.7851 78.1684 32.9939L80.0162 34.2814C80.379 34.5344 80.8722 34.5064 81.2024 34.2147L82.5483 33.0262C82.8796 32.7345 82.96 32.2565 82.7417 31.8743L81.6369 29.9366C81.4577 29.6234 81.4772 29.2358 81.689 28.943C81.9074 28.6405 82.1138 28.3273 82.3071 28.0054C82.494 27.6954 82.847 27.5199 83.212 27.5543L85.465 27.7621C85.9082 27.803 86.321 27.5371 86.4579 27.1216L87.0184 25.4315C87.1563 25.0159 86.9825 24.5627 86.6002 24.3388L86.6012 24.3431ZM69.8995 28.6481C65.6119 28.4016 62.3357 24.7888 62.5823 20.5775C62.8289 16.3673 66.5038 13.154 70.7914 13.4005C75.079 13.647 78.3552 17.2597 78.1086 21.471C77.862 25.6812 74.1871 28.8946 69.8995 28.6481Z" fill="white"/>
<path d="M72.835 38.0329C72.3777 38.0329 71.9551 37.7734 71.7563 37.3493L70.8134 35.3319C70.6994 35.0876 70.4517 34.9282 70.1845 34.9239C69.7977 34.9185 69.4045 34.897 69.0167 34.8593C68.7495 34.8346 68.4855 34.9659 68.3454 35.1974L67.1885 37.106C66.9017 37.5786 66.3292 37.7907 65.7969 37.6195L64.0752 37.0672C63.5418 36.8961 63.205 36.3934 63.2572 35.8433L63.4668 33.6311C63.4918 33.3641 63.3571 33.1046 63.1236 32.9679C62.789 32.7731 62.462 32.5653 62.1513 32.3489C61.9297 32.1939 61.6321 32.1788 61.3931 32.3102L59.4215 33.3931C58.9327 33.6612 58.3309 33.5632 57.9561 33.1531L56.7449 31.829C56.369 31.4178 56.3332 30.816 56.6591 30.366L57.968 28.5532C58.1255 28.3357 58.1429 28.0472 58.0126 27.8179C57.8236 27.4885 57.6465 27.1451 57.4835 26.7953C57.3717 26.5563 57.1229 26.3991 56.8481 26.3948L54.5842 26.3636C54.0237 26.356 53.5512 25.9739 53.4349 25.4346L53.0591 23.6939C52.9418 23.1535 53.2177 22.6163 53.7272 22.3859L55.7802 21.4612C56.0279 21.3492 56.1909 21.1081 56.1941 20.8465C56.1996 20.4665 56.2213 20.0811 56.2582 19.699C56.2843 19.4374 56.1485 19.1801 55.9128 19.0423L53.9683 17.9044C53.486 17.6224 53.2698 17.0583 53.4436 16.533L54.0042 14.8418C54.178 14.3175 54.6918 13.9892 55.2469 14.0398L57.4998 14.2486C57.7747 14.2734 58.0386 14.141 58.1777 13.9117C58.3732 13.5855 58.585 13.2647 58.8066 12.9568C58.962 12.7404 58.9772 12.4509 58.8447 12.2173L57.7399 10.2796C57.4651 9.79728 57.565 9.20305 57.9832 8.83381L59.3302 7.64535C59.7463 7.27826 60.3568 7.24381 60.813 7.56246L62.6608 8.84996C62.8846 9.00605 63.1811 9.02327 63.4147 8.89409C63.7504 8.71001 64.1001 8.53454 64.4543 8.37522C64.6976 8.26649 64.8573 8.02213 64.8605 7.75515L64.8899 5.5311C64.8975 4.97885 65.2853 4.5138 65.8339 4.40077L67.6056 4.03368C68.1531 3.91957 68.6995 4.19085 68.9341 4.69143L69.8781 6.70879C69.9922 6.95316 70.2388 7.11248 70.5071 7.11679C70.8938 7.12217 71.287 7.1437 71.6748 7.18138C71.9399 7.20721 72.206 7.07373 72.3462 6.84335L73.502 4.93579C73.7888 4.46213 74.3612 4.25114 74.8935 4.4223L76.6153 4.97455C77.1487 5.14571 77.4854 5.64844 77.4333 6.19853L77.2236 8.41074C77.1986 8.67772 77.3333 8.93823 77.5669 9.07387C77.9015 9.26872 78.2295 9.47648 78.5391 9.69286C78.7607 9.84787 79.0594 9.86295 79.2973 9.73161L81.269 8.64865C81.7578 8.3806 82.3607 8.47856 82.7344 8.88871L83.9456 10.2128C84.3214 10.624 84.3573 11.2258 84.0314 11.6758L82.7224 13.4897C82.5649 13.7071 82.5486 13.9978 82.6811 14.2292C82.8691 14.5586 83.045 14.8988 83.2047 15.2412C83.3177 15.4834 83.5676 15.6427 83.8413 15.6459L86.1062 15.6771C86.6667 15.6847 87.1393 16.0668 87.2555 16.6062L87.6314 18.3469C87.7487 18.8873 87.4728 19.4244 86.9633 19.6548L84.9102 20.5795C84.6625 20.6915 84.4996 20.9326 84.4963 21.1942C84.4909 21.5742 84.4692 21.9596 84.4322 22.3418C84.4062 22.6034 84.542 22.8606 84.7777 22.9984L86.7221 24.1363C87.2045 24.4183 87.4206 24.9824 87.2468 25.5078L86.6863 27.1989C86.5125 27.7232 85.9998 28.0526 85.4436 28.0009L83.1906 27.7921C82.9158 27.7673 82.6518 27.8997 82.5128 28.129C82.3151 28.4585 82.1032 28.7793 81.8838 29.0839C81.7285 29.3003 81.7133 29.5899 81.8458 29.8235L82.9505 31.7612C83.2254 32.2434 83.1254 32.8377 82.7072 33.2069L81.3613 34.3954C80.9452 34.7625 80.3348 34.7969 79.8774 34.4783L78.0296 33.1908C77.807 33.0347 77.5082 33.0185 77.2703 33.1488C76.9347 33.3339 76.5881 33.5062 76.2405 33.6623C75.9939 33.7731 75.8332 34.0175 75.8288 34.2845L75.7995 36.5085C75.7919 37.0608 75.4041 37.5258 74.8555 37.6389L73.0838 38.006C73.0001 38.0232 72.9165 38.0318 72.8339 38.0318L72.835 38.0329ZM68.9504 34.3835C68.9874 34.3835 69.0254 34.3857 69.0623 34.3889C69.4371 34.4244 69.8173 34.446 70.191 34.4513C70.6418 34.4578 71.0567 34.7248 71.2479 35.1338L72.1908 37.1512C72.331 37.4505 72.6579 37.612 72.9871 37.5441L74.7588 37.1771C75.0869 37.1092 75.3183 36.8326 75.3226 36.5042L75.3519 34.2802C75.3574 33.8302 75.63 33.419 76.0439 33.2327C76.3796 33.082 76.7141 32.9152 77.0389 32.7365C77.4354 32.519 77.933 32.5449 78.3056 32.8043L80.1533 34.0918C80.4282 34.2834 80.7943 34.263 81.043 34.0423L82.3889 32.8538C82.6377 32.6353 82.6964 32.2822 82.5334 31.9958L81.4286 30.0581C81.2049 29.6652 81.2309 29.1754 81.4938 28.8105C81.7057 28.5166 81.9099 28.2066 82.1011 27.889C82.3335 27.5025 82.7789 27.2818 83.2341 27.3227L85.487 27.5316C85.8216 27.565 86.1269 27.3658 86.2311 27.0536L86.7917 25.3635C86.8949 25.0513 86.7667 24.7165 86.4788 24.5486L84.5344 23.4107C84.14 23.1793 83.913 22.7433 83.9564 22.2998C83.9923 21.9316 84.014 21.5581 84.0184 21.1921C84.0249 20.7475 84.2965 20.3395 84.7125 20.1522L86.7656 19.2274C87.0698 19.0907 87.2338 18.771 87.1643 18.4502L86.7884 16.7095C86.7189 16.3876 86.4354 16.1594 86.0997 16.1551L83.8348 16.1239C83.3785 16.1174 82.9603 15.8505 82.7702 15.4435C82.616 15.113 82.4454 14.7836 82.264 14.4661C82.0402 14.0742 82.0674 13.5844 82.3324 13.2173L83.6414 11.4034C83.8348 11.1364 83.8131 10.779 83.5893 10.5358L82.3781 9.21166C82.1532 8.96622 81.7915 8.90701 81.4993 9.06849L79.5276 10.1514C79.1301 10.37 78.6325 10.3441 78.2621 10.0858C77.9623 9.87694 77.6462 9.67563 77.3225 9.48725C76.9292 9.25903 76.7022 8.82089 76.7446 8.37091L76.9542 6.1587C76.9857 5.83252 76.7848 5.53217 76.4654 5.42991L74.7436 4.87766C74.4232 4.77539 74.081 4.90134 73.9104 5.18446L72.7546 7.09203C72.52 7.47957 72.0779 7.70456 71.6271 7.65827C71.2512 7.62274 70.8721 7.60121 70.4984 7.59583C70.0476 7.58937 69.6326 7.3224 69.4414 6.91333L68.4974 4.89596C68.3573 4.59669 68.0303 4.43522 67.7012 4.50304L65.9295 4.87013C65.6014 4.93795 65.37 5.21461 65.3657 5.54294L65.3363 7.76592C65.3309 8.21697 65.0604 8.62712 64.6487 8.81228C64.3055 8.96622 63.9676 9.13523 63.6439 9.31285C63.2507 9.53031 62.7542 9.50124 62.3827 9.2418L60.5349 7.95431C60.2601 7.76269 59.894 7.78314 59.6453 8.00382L58.2983 9.19228C58.0506 9.41081 57.9908 9.76391 58.1538 10.0503L59.2585 11.9869C59.4823 12.3798 59.4562 12.8696 59.1934 13.2356C58.9794 13.5327 58.7751 13.8428 58.5861 14.1571C58.3537 14.5436 57.9072 14.7643 57.4531 14.7234L55.2002 14.5145C54.8645 14.4801 54.5603 14.6803 54.4561 14.9925L53.8955 16.6826C53.7923 16.9937 53.9205 17.3296 54.2084 17.4975L56.1528 18.6354C56.5472 18.8668 56.7742 19.3028 56.7307 19.7463C56.6949 20.1145 56.6732 20.488 56.6688 20.854C56.6623 21.2986 56.3897 21.7066 55.9747 21.8939L53.9216 22.8187C53.6174 22.9554 53.4534 23.2751 53.5229 23.5959L53.8988 25.3366C53.9683 25.6585 54.2518 25.8856 54.5875 25.891L56.8513 25.9222C57.3087 25.9287 57.7258 26.1935 57.9137 26.5972C58.0712 26.9341 58.2429 27.2668 58.4254 27.5843C58.647 27.9729 58.6198 28.4617 58.3537 28.8288L57.0447 30.6416C56.8513 30.9086 56.8731 31.266 57.0968 31.5093L58.308 32.8334C58.5329 33.0788 58.8946 33.138 59.1868 32.9765L61.1585 31.8936C61.5561 31.675 62.0536 31.7009 62.424 31.9592C62.7238 32.1681 63.0399 32.3694 63.3636 32.5578C63.7569 32.786 63.9839 33.2241 63.9415 33.6741L63.7319 35.8863C63.7004 36.2125 63.9014 36.5128 64.2207 36.6151L65.9425 37.1674C66.2629 37.2696 66.6051 37.1437 66.7757 36.8606L67.9326 34.9519C68.1477 34.5967 68.5376 34.3803 68.9483 34.3803L68.9504 34.3835ZM70.3594 28.8977C70.2018 28.8977 70.0443 28.8934 69.8857 28.8837C65.4732 28.6296 62.0894 24.8974 62.3436 20.5634C62.5978 16.2294 66.3944 12.9073 70.8058 13.1624C75.2183 13.4165 78.601 17.1487 78.3479 21.4827C78.1035 25.6617 74.5666 28.8966 70.3594 28.8966V28.8977ZM69.914 28.4111C74.0593 28.6479 77.6321 25.5293 77.871 21.4569C78.1089 17.3834 74.9283 13.8761 70.7787 13.6372C66.6323 13.3993 63.0606 16.519 62.8216 20.5914C62.5837 24.6649 65.7643 28.1721 69.914 28.4111Z" fill="#1E1E1E"/>
<path d="M50.5549 35.4438L49.1753 34.6364C48.9526 34.5062 48.8233 34.2618 48.8472 34.0088C48.8733 33.7419 48.8885 33.4749 48.8918 33.209C48.895 32.956 49.0504 32.7278 49.285 32.6223L50.7417 31.9667C51.0285 31.8375 51.186 31.5307 51.1197 31.2272L50.8536 29.9924C50.7884 29.6888 50.5179 29.4703 50.2018 29.466L48.5952 29.4445C48.3356 29.4412 48.0999 29.2916 47.9912 29.0591C47.8793 28.819 47.7577 28.5833 47.6262 28.3529C47.4991 28.1301 47.5143 27.8556 47.6653 27.6478L48.5941 26.3614C48.7766 26.1084 48.756 25.765 48.5452 25.5346L47.686 24.5959C47.4752 24.3655 47.1298 24.3085 46.8539 24.4603L45.4547 25.2289C45.2288 25.3538 44.9485 25.3398 44.7367 25.1923C44.5184 25.0405 44.2913 24.8963 44.0589 24.7606C43.8351 24.6304 43.708 24.3838 43.7319 24.1298L43.8807 22.5602C43.91 22.2513 43.7178 21.9639 43.4179 21.868L42.1959 21.4762C41.8961 21.3804 41.568 21.501 41.4061 21.7669L40.586 23.1211C40.4535 23.3396 40.2058 23.4667 39.9472 23.4419C39.6746 23.4161 39.403 23.401 39.1325 23.3967C38.874 23.3935 38.6426 23.2406 38.5351 23.0102L37.8659 21.5795C37.7345 21.2975 37.4216 21.1436 37.112 21.2071L35.8552 21.4676C35.5467 21.5311 35.324 21.797 35.3197 22.107L35.299 23.6841C35.2958 23.9382 35.1458 24.1696 34.9112 24.2751C34.6646 24.386 34.4224 24.5066 34.1856 24.6368C33.9607 24.7606 33.6815 24.7423 33.4708 24.5959L32.1596 23.682C31.9022 23.5022 31.5524 23.5216 31.3178 23.7293L30.3629 24.5722C30.1283 24.7789 30.0707 25.118 30.2249 25.3893L31.0082 26.764C31.1353 26.9868 31.1211 27.2613 30.9712 27.4691C30.817 27.6833 30.6703 27.9062 30.5324 28.1344C30.3998 28.354 30.1489 28.4788 29.8904 28.4552L28.2924 28.3077C27.9785 28.2786 27.6852 28.467 27.5874 28.762L27.1899 29.9612C27.0921 30.2562 27.2159 30.578 27.4864 30.7363L28.866 31.5437C29.0887 31.6739 29.218 31.9183 29.1941 32.1713C29.168 32.4382 29.1528 32.7052 29.1495 32.9711C29.1463 33.2241 28.9909 33.4523 28.7563 33.5578L27.2996 34.2134C27.0128 34.3426 26.8553 34.6494 26.9215 34.9529L27.1877 36.1877C27.2529 36.4913 27.5233 36.7098 27.8395 36.7141L29.4461 36.7367C29.7046 36.7399 29.9403 36.8874 30.0479 37.1178C30.1609 37.36 30.2836 37.5979 30.4172 37.8304C30.5443 38.0522 30.5259 38.3256 30.3759 38.5323L29.4472 39.8187C29.2647 40.0717 29.2853 40.4151 29.496 40.6455L30.3553 41.5842C30.566 41.8146 30.9115 41.8716 31.1874 41.7198L32.5865 40.9512C32.8125 40.8263 33.0928 40.8403 33.3046 40.9878C33.5229 41.1396 33.75 41.2839 33.9824 41.4195C34.2062 41.5497 34.3333 41.7963 34.3094 42.0503L34.1606 43.6199C34.1312 43.9288 34.3235 44.2162 34.6233 44.3121L35.8454 44.7039C36.1452 44.7997 36.4733 44.6791 36.6351 44.4132L37.4553 43.059C37.5878 42.8405 37.8355 42.7134 38.094 42.7382C38.3667 42.764 38.6383 42.7791 38.9088 42.7834C39.1673 42.7866 39.3987 42.9395 39.5062 43.1699L40.1754 44.6006C40.3068 44.8826 40.6197 45.0376 40.9293 44.973L42.1861 44.7125C42.4946 44.649 42.7173 44.3831 42.7216 44.0731L42.7423 42.4949C42.7455 42.2398 42.8976 42.0083 43.1333 41.9028C43.3778 41.793 43.6167 41.6735 43.8514 41.5444C44.0784 41.4195 44.3576 41.4356 44.5694 41.5831L45.8806 42.4971C46.138 42.6768 46.4878 42.6575 46.7224 42.4497L47.6773 41.6068C47.9119 41.4001 47.9695 41.061 47.8153 40.7897L47.032 39.415C46.9049 39.1922 46.9191 38.9177 47.069 38.7099C47.2243 38.4957 47.3699 38.2729 47.5078 38.0447C47.6404 37.825 47.8913 37.7002 48.1498 37.7239L49.7478 37.8713C50.0617 37.9004 50.355 37.712 50.4528 37.4171L50.8503 36.2178C50.9481 35.9229 50.8243 35.601 50.5538 35.4427L50.5549 35.4438ZM38.7056 38.4979C35.664 38.3235 33.3393 35.7592 33.5142 32.773C33.6891 29.7857 36.2962 27.5057 39.3389 27.6812C42.3805 27.8556 44.7052 30.4198 44.5303 33.406C44.3554 36.3933 41.7483 38.6733 38.7056 38.4979Z" fill="white"/>
<path d="M40.7884 45.2248C40.4375 45.2248 40.1127 45.0256 39.9606 44.7005L39.2915 43.2698C39.2219 43.1202 39.0709 43.0233 38.9069 43.0201C38.6332 43.0169 38.3518 43.0007 38.0726 42.9738C37.9097 42.9587 37.7478 43.0395 37.662 43.1805L36.8419 44.5347C36.6213 44.8986 36.1814 45.0601 35.774 44.9287L34.553 44.5369C34.1435 44.4055 33.885 44.0191 33.9252 43.5971L34.074 42.0276C34.0892 41.865 34.0066 41.7057 33.8643 41.6228C33.6254 41.4839 33.3918 41.3354 33.1691 41.1803C33.0333 41.0856 32.8508 41.077 32.7053 41.1567L31.3072 41.9253C30.9324 42.1309 30.4697 42.0555 30.1818 41.7412L29.3226 40.8025C29.0336 40.4871 29.0065 40.0242 29.2563 39.6786L30.1851 38.3922C30.2807 38.2598 30.2915 38.0843 30.2122 37.9444C30.0754 37.7054 29.9483 37.46 29.8342 37.2145C29.7669 37.0692 29.6137 36.9734 29.4464 36.9712L27.8398 36.9486C27.4096 36.9432 27.0468 36.6493 26.9577 36.2349L26.6916 35.0001C26.6014 34.5846 26.8132 34.1712 27.2054 33.9958L28.6621 33.3402C28.8142 33.2724 28.913 33.1249 28.9152 32.9666C28.9185 32.6975 28.9337 32.4219 28.9608 32.1463C28.976 31.987 28.8935 31.8309 28.7501 31.7459L27.3705 30.9385C27.0001 30.721 26.8339 30.2883 26.9675 29.8846L27.3651 28.6854C27.4987 28.2838 27.8854 28.0319 28.3188 28.0685L29.9168 28.216C30.0808 28.2322 30.247 28.1514 30.3317 28.0104C30.4708 27.779 30.6218 27.5497 30.7814 27.329C30.877 27.1966 30.8857 27.02 30.8043 26.8779L30.021 25.5032C29.8103 25.1329 29.8874 24.6754 30.2079 24.3923L31.1627 23.5494C31.4821 23.2673 31.9503 23.2404 32.3012 23.4859L33.6123 24.3987C33.7492 24.4946 33.9306 24.5053 34.0729 24.4267C34.313 24.2943 34.5628 24.1694 34.8159 24.0564C34.9637 23.9897 35.0614 23.8411 35.0636 23.6786L35.0842 22.1015C35.0897 21.6773 35.3884 21.3199 35.8099 21.2327L37.0667 20.9722C37.486 20.884 37.9064 21.0928 38.0868 21.4771L38.7559 22.9078C38.8254 23.0574 38.9764 23.1543 39.1405 23.1565C39.4185 23.1608 39.6988 23.1758 39.9747 23.2027C40.1355 23.2167 40.2995 23.1371 40.3843 22.995L41.2044 21.6418C41.4238 21.278 41.8638 21.1165 42.2722 21.2478L43.4943 21.6397C43.9038 21.771 44.1624 22.1575 44.1222 22.5795L43.9734 24.149C43.9582 24.3115 44.0407 24.4709 44.183 24.5538C44.4198 24.6916 44.6545 24.8401 44.8772 24.9962C45.0129 25.0909 45.1954 25.1006 45.3421 25.0199L46.7412 24.2513C47.116 24.0457 47.5788 24.121 47.8666 24.4353L48.7259 25.3741C49.0148 25.6895 49.042 26.1513 48.7921 26.4979L47.8634 27.7843C47.7678 27.9168 47.758 28.0944 47.8384 28.2354C47.9731 28.4712 48.0991 28.7144 48.2132 28.9588C48.2827 29.1063 48.4358 29.2043 48.6031 29.2064L50.2098 29.2279C50.6399 29.2344 51.0027 29.5272 51.0918 29.9417L51.358 31.1764C51.4481 31.5919 51.2363 32.0053 50.8441 32.1819L49.3874 32.8374C49.2364 32.9053 49.1365 33.0527 49.1343 33.2121C49.1311 33.4833 49.1148 33.7589 49.0887 34.0324C49.0735 34.1906 49.1561 34.3478 49.2994 34.4328L50.679 35.2391C51.0495 35.4566 51.2157 35.8893 51.082 36.293L50.6845 37.4922C50.5508 37.8938 50.163 38.1468 49.7307 38.1091L48.1328 37.9616C47.9644 37.9455 47.8025 38.0273 47.7178 38.1672C47.5755 38.403 47.4245 38.6323 47.2681 38.8497C47.1736 38.9811 47.1638 39.1576 47.2453 39.3008L48.0285 40.6744C48.2392 41.0447 48.1632 41.5011 47.8416 41.7853L46.8868 42.6282C46.5674 42.9103 46.0992 42.9372 45.7484 42.6928L44.4372 41.7789C44.3003 41.6831 44.1178 41.6734 43.9723 41.753C43.7311 41.8855 43.4845 42.0082 43.2369 42.1201C43.0859 42.188 42.9881 42.3365 42.9859 42.4991L42.9653 44.0772C42.9599 44.5014 42.6611 44.8588 42.2396 44.9459L40.9828 45.2065C40.9187 45.2194 40.8546 45.2258 40.7916 45.2258L40.7884 45.2248ZM38.0324 42.498C38.0607 42.498 38.09 42.4991 38.1183 42.5023C38.3844 42.5271 38.6516 42.5421 38.9134 42.5453C39.2599 42.5507 39.5782 42.7563 39.7249 43.0696L40.394 44.5003C40.4799 44.6833 40.6797 44.7812 40.8818 44.7403L42.1386 44.4798C42.3396 44.4378 42.4808 44.2699 42.483 44.0697L42.5036 42.4915C42.508 42.146 42.7165 41.8295 43.0359 41.6863C43.2716 41.5808 43.5073 41.4624 43.7366 41.3364C44.0407 41.1685 44.422 41.189 44.7088 41.3881L46.0199 42.3021C46.1883 42.4194 46.4121 42.4065 46.5653 42.2719L47.5201 41.429C47.6711 41.2955 47.708 41.0802 47.6081 40.9058L46.8249 39.5311C46.6532 39.2286 46.6728 38.8529 46.8748 38.5709C47.0237 38.3642 47.1681 38.1457 47.3028 37.9218C47.481 37.6257 47.8221 37.4556 48.173 37.4869L49.7709 37.6343C49.9795 37.6559 50.163 37.5332 50.226 37.3426L50.6236 36.1434C50.6866 35.9539 50.6084 35.7494 50.4324 35.646L49.0529 34.8387C48.7498 34.661 48.576 34.3252 48.6086 33.9839C48.6346 33.7245 48.6488 33.4618 48.652 33.2035C48.6564 32.8611 48.866 32.5479 49.1854 32.4036L50.6421 31.748C50.8279 31.6641 50.9278 31.4692 50.8854 31.2733L50.6193 30.0385C50.5769 29.8415 50.4031 29.7027 50.1978 29.6994L48.5912 29.6779C48.2403 29.6736 47.9199 29.468 47.7732 29.1558C47.6646 28.9233 47.5451 28.6918 47.4169 28.4679C47.2453 28.1665 47.2659 27.7897 47.469 27.5077L48.3978 26.2213C48.5151 26.0587 48.5021 25.8402 48.3663 25.6916L47.5071 24.7529C47.3724 24.6054 47.1453 24.5678 46.9683 24.6646L45.5691 25.4333C45.265 25.6012 44.8826 25.5807 44.598 25.3827C44.3851 25.2352 44.1624 25.0931 43.9364 24.9618C43.6344 24.7863 43.4595 24.4493 43.4921 24.1038L43.641 22.5342C43.6594 22.3351 43.5378 22.1521 43.3422 22.0896L42.1201 21.6978C41.9235 21.6343 41.7139 21.7118 41.6096 21.8851L40.7894 23.2394C40.6091 23.5365 40.2691 23.7087 39.9226 23.6743C39.6597 23.6495 39.3925 23.6344 39.1274 23.6301C38.7809 23.6258 38.4626 23.4202 38.316 23.1059L37.6468 21.6752C37.561 21.4922 37.3611 21.3942 37.1591 21.4351L35.9022 21.6956C35.7013 21.7366 35.56 21.9066 35.5579 22.1069L35.5372 23.6839C35.5329 24.0306 35.3254 24.346 35.0093 24.4881C34.7681 24.5957 34.5302 24.7152 34.301 24.8412C33.999 25.007 33.6188 24.9865 33.3321 24.7874L32.0209 23.8745C31.8558 23.7582 31.6266 23.7722 31.4756 23.9046L30.5207 24.7475C30.3697 24.881 30.3328 25.0963 30.4328 25.2707L31.216 26.6454C31.3876 26.9468 31.368 27.3236 31.1649 27.6056C31.0139 27.8156 30.8694 28.0341 30.7369 28.2548C30.5577 28.5519 30.2177 28.7209 29.8668 28.6897L28.2689 28.5422C28.0646 28.5218 27.8767 28.6434 27.8137 28.8339L27.4161 30.0332C27.3531 30.2237 27.4313 30.4272 27.6073 30.5305L28.9869 31.3379C29.29 31.5155 29.4649 31.8514 29.4312 32.1926C29.4051 32.4542 29.391 32.7169 29.3877 32.9731C29.3834 33.3154 29.1737 33.6287 28.8544 33.7729L27.3987 34.4285C27.213 34.5125 27.113 34.7073 27.1543 34.9022L27.4205 36.1369C27.4628 36.3339 27.6366 36.4728 27.8419 36.4749L29.4486 36.4976C29.7994 36.5019 30.1199 36.7064 30.2644 37.0164C30.373 37.25 30.4947 37.4847 30.625 37.7119C30.7956 38.0111 30.7738 38.3868 30.5696 38.6689L29.6408 39.9553C29.5235 40.1178 29.5366 40.3364 29.6723 40.4849L30.5316 41.4236C30.6674 41.5711 30.8933 41.6088 31.0704 41.5119L32.4685 40.7433C32.7737 40.5764 33.155 40.5958 33.4396 40.7939C33.6514 40.9414 33.8741 41.0824 34.1012 41.2148C34.4031 41.3903 34.578 41.7272 34.5454 42.0728L34.3966 43.6423C34.3782 43.8415 34.5009 44.0245 34.6954 44.0869L35.9174 44.4787C36.113 44.5412 36.3226 44.4637 36.428 44.2914L37.2481 42.9372C37.4133 42.6648 37.7131 42.498 38.0292 42.498H38.0324ZM39.0362 38.7442C38.9221 38.7442 38.807 38.741 38.6918 38.7345C35.5231 38.5526 33.0931 35.8721 33.2756 32.7589C33.3636 31.2507 34.0447 29.8674 35.1929 28.863C36.3411 27.8597 37.8195 27.3548 39.3523 27.4442C40.8872 27.5324 42.295 28.202 43.3183 29.3302C44.3416 30.4595 44.8565 31.9117 44.7685 33.4198C44.6805 34.928 43.9994 36.3124 42.8512 37.3157C41.7899 38.2436 40.4462 38.7442 39.0362 38.7442ZM39.009 27.9081C37.7152 27.9081 36.4834 28.3678 35.5101 29.2182C34.4585 30.1376 33.8339 31.4046 33.7535 32.7858C33.5863 35.6374 35.8142 38.094 38.7201 38.2609C40.1279 38.3416 41.4825 37.8798 42.5351 36.9594C43.5866 36.04 44.2113 34.773 44.2916 33.3918C44.372 32.0107 43.9006 30.6812 42.9631 29.6467C42.0246 28.6122 40.733 27.9975 39.3251 27.9168C39.2198 27.9103 39.1144 27.9081 39.009 27.9081Z" fill="#1E1E1E"/>
<path d="M94.8473 8.68505C94.7593 8.68505 94.6746 8.6366 94.6333 8.55371C94.5746 8.43637 94.6224 8.29427 94.7408 8.23507L96.4007 7.41154C96.5191 7.35341 96.6625 7.40078 96.7222 7.51812C96.7809 7.63545 96.7331 7.77755 96.6147 7.83676L94.9548 8.66029C94.9201 8.67751 94.8842 8.68505 94.8484 8.68505H94.8473Z" fill="#1E1E1E"/>
<path d="M90.9812 10.6025C90.8932 10.6025 90.8085 10.5541 90.7672 10.4712C90.7085 10.3539 90.7563 10.2118 90.8747 10.1525L92.5346 9.32902C92.653 9.27089 92.7964 9.31826 92.8561 9.4356C92.9148 9.55294 92.867 9.69503 92.7486 9.75424L91.0887 10.5778C91.054 10.595 91.0181 10.6025 90.9823 10.6025H90.9812Z" fill="#1E1E1E"/>
<path d="M93.1922 8.13923C93.1042 8.13923 93.0195 8.09079 92.9782 8.0079L92.1472 6.363C92.0885 6.24566 92.1363 6.10356 92.2547 6.04435C92.3731 5.98622 92.5165 6.03359 92.5763 6.15093L93.4073 7.79582C93.4659 7.91316 93.4181 8.05526 93.2997 8.11447C93.265 8.13169 93.2291 8.13923 93.1933 8.13923H93.1922Z" fill="#1E1E1E"/>
<path d="M95.1275 11.9708C95.0396 11.9708 94.9548 11.9224 94.9135 11.8395L94.0825 10.1946C94.0239 10.0772 94.0717 9.93513 94.1901 9.87592C94.3085 9.81779 94.4519 9.86516 94.5116 9.98142L95.3426 11.6263C95.4013 11.7437 95.3535 11.8858 95.2351 11.945C95.2003 11.9622 95.1645 11.9697 95.1286 11.9697L95.1275 11.9708Z" fill="#1E1E1E"/>
<path d="M121.268 133.43L82.285 133.672C82.0319 133.672 81.9494 133.905 81.9494 134.129V166.997C81.9494 170.143 59.7999 178.319 59.5848 177.904L59.5577 181.382C59.5566 182.03 60.1301 182.604 60.8634 182.604H94.0452C95.5617 182.604 97.0597 182.267 98.4327 181.697L116.403 174.199C119.638 172.849 121.679 169.95 121.679 166.787V133.886C121.679 133.663 121.521 133.429 121.269 133.429L121.268 133.43Z" fill="#1E1E1E"/>
<path d="M78.0019 131.757V164.633C78.0019 167.873 75.8977 170.826 72.5911 172.225L60.4681 177.353C59.6762 177.688 59.9456 178.739 60.8244 178.739H94.1322C95.6302 178.739 97.1097 178.446 98.4643 177.881L111.896 172.277C115.228 170.887 117.353 167.923 117.353 164.665V131.757C117.353 131.623 117.229 131.514 117.077 131.514H78.2789C78.1268 131.514 78.003 131.623 78.003 131.757H78.0019Z" fill="white"/>
<path d="M94.1329 178.976H60.8251C60.2157 178.976 59.8605 178.58 59.779 178.187C59.6878 177.747 59.9278 177.324 60.3754 177.134L72.4984 172.007C75.6975 170.654 77.7647 167.759 77.7647 164.633V131.758C77.7647 131.493 77.9961 131.276 78.2796 131.276H117.078C117.361 131.276 117.592 131.492 117.592 131.758V164.665C117.592 168.001 115.393 171.075 111.989 172.496L98.5574 178.1C97.1822 178.674 95.6527 178.977 94.1329 178.977V178.976ZM78.2427 131.763V164.633C78.2427 167.95 76.0614 171.015 72.6863 172.443L60.5633 177.57C60.32 177.674 60.2016 177.868 60.2483 178.091C60.2906 178.296 60.4851 178.501 60.8251 178.501H94.1329C95.5897 178.501 97.0551 178.211 98.3716 177.662L111.804 172.058C115.03 170.712 117.115 167.81 117.115 164.664V131.756C117.115 131.763 117.101 131.75 117.078 131.75H78.2796C78.259 131.75 78.247 131.758 78.2427 131.762V131.763Z" fill="#1E1E1E"/>
<path d="M5.38474 150.386L165.677 150.733L168.46 150.739L173.635 150.75C175.106 150.75 176.314 149.612 176.5 148.163L189.903 44.3679C190.229 41.8425 188.371 39.458 185.808 39.458L19.7346 39.6076L5.38474 150.386Z" fill="#1E1E1E"/>
<path d="M179.578 39.4331C182.469 39.4331 184.819 42.3181 184.449 45.1666L170.951 148.166C170.763 149.614 169.521 150.699 168.051 150.699L166.786 150.747L3.16219 150.699C1.39914 150.699 0.0369339 149.16 0.262882 147.424L14.0338 42.3278C14.2217 40.8799 15.346 39.4331 16.8158 39.4331H179.578Z" fill="white"/>
<path d="M166.794 150.985L3.16219 150.937C2.25514 150.937 1.39045 150.55 0.789733 149.874C0.187928 149.195 -0.0912484 148.291 0.0249847 147.393L13.797 42.2977C13.9947 40.7734 15.1787 39.1963 16.8158 39.1963H179.577C180.958 39.1963 182.32 39.8379 183.314 40.9574C184.364 42.1405 184.877 43.7251 184.686 45.1967L171.187 148.198C170.984 149.76 169.636 150.937 168.051 150.937L166.796 150.985H166.794ZM16.8158 39.671C15.459 39.671 14.439 41.0662 14.2717 42.3591L0.50078 147.455C0.401928 148.217 0.638739 148.984 1.15038 149.56C1.65985 150.134 2.3931 150.464 3.16328 150.464L166.787 150.512L168.043 150.465C169.397 150.465 170.541 149.465 170.714 148.138L184.212 45.1375C184.386 43.7994 183.915 42.3548 182.955 41.2718C182.052 40.2545 180.822 39.671 179.578 39.671H16.8158Z" fill="#1E1E1E"/>
<path d="M172.19 44.7198C174.835 44.7198 176.985 47.297 176.647 49.8407L164.298 141.837C164.127 143.13 162.99 144.098 161.645 144.098L160.487 144.141L10.7934 144.098C9.18024 144.098 7.93427 142.724 8.14066 141.172L20.7395 47.3045C20.9111 46.0106 21.9398 44.7188 23.2846 44.7188H172.191L172.19 44.7198Z" fill="white"/>
<path d="M160.496 144.378L10.7934 144.336C9.9439 144.336 9.13788 143.977 8.58387 143.35C8.04615 142.742 7.79848 141.937 7.90385 141.141L20.5026 47.2733C20.6851 45.9018 21.7758 44.4819 23.2846 44.4819H172.19C173.483 44.4819 174.75 45.0762 175.668 46.1128C176.616 47.184 177.059 48.5533 176.884 49.8709L164.535 141.867C164.348 143.274 163.105 144.335 161.645 144.335L160.497 144.377L160.496 144.378ZM23.2835 44.9567C22.0539 44.9567 21.1283 46.1914 20.9752 47.3357L8.37639 141.204C8.2884 141.863 8.49479 142.532 8.94126 143.037C9.4051 143.561 10.0786 143.861 10.7912 143.861L160.485 143.905L161.633 143.863C162.863 143.863 163.902 142.979 164.058 141.806L176.408 49.8106C176.566 48.6297 176.164 47.396 175.307 46.4283C174.48 45.4938 173.344 44.9588 172.188 44.9588H23.2835V44.9567Z" fill="#1E1E1E"/>
<path d="M140.943 133.625L41.3099 131.884C40.9558 131.877 40.7179 131.615 40.7548 131.27L51.9001 29.0023C51.9447 28.5911 52.3586 28.2348 52.7811 28.2423L152.415 29.9841C152.769 29.9905 153.007 30.2532 152.97 30.5977L141.824 132.865C141.78 133.277 141.366 133.633 140.943 133.625Z" fill="white"/>
<path d="M140.957 133.863H140.94L41.3066 132.121C41.0655 132.117 40.8515 132.023 40.7037 131.857C40.5582 131.694 40.493 131.476 40.518 131.245L51.6633 28.977C51.722 28.4409 52.2369 27.9963 52.7865 28.006L152.42 29.7478C152.661 29.7521 152.875 29.8458 153.022 30.0115C153.167 30.1752 153.234 30.3926 153.208 30.6241L142.062 132.892C142.005 133.423 141.501 133.863 140.956 133.863H140.957ZM52.7692 28.4797C52.4748 28.4797 52.1695 28.7434 52.1391 29.0276L40.9938 131.295C40.9829 131.394 41.0068 131.481 41.0633 131.544C41.1209 131.609 41.2099 131.645 41.3153 131.646L140.949 133.388C141.248 133.383 141.556 133.127 141.588 132.84L152.733 30.5724C152.744 30.4734 152.72 30.3872 152.663 30.3248C152.606 30.2602 152.517 30.2236 152.411 30.2225L52.7778 28.4808H52.7692V28.4797Z" fill="#1E1E1E"/>
<path d="M134.844 90.1979H134.84L60.061 88.891C59.9936 88.8899 59.9306 88.8608 59.8861 88.8102C59.8416 88.7607 59.8209 88.694 59.8274 88.6283L60.1751 85.443C60.1881 85.3213 60.2848 85.2233 60.4173 85.2309L135.196 86.5378C135.264 86.5388 135.327 86.5679 135.371 86.6185C135.416 86.668 135.437 86.7348 135.43 86.8004L135.083 89.9858C135.07 90.1064 134.967 90.1979 134.846 90.1979H134.844ZM60.3304 88.4216L134.629 89.7199L134.925 87.0082L60.6259 85.7088L60.3304 88.4206V88.4216Z" fill="#1E1E1E"/>
<path d="M114.629 96.1273H114.625L59.3774 95.1617C59.31 95.1606 59.247 95.1315 59.2025 95.0809C59.1579 95.0314 59.1373 94.9647 59.1438 94.899L59.4914 91.7136C59.5045 91.5909 59.6066 91.4983 59.7337 91.5015L114.981 92.4672C115.049 92.4682 115.112 92.4973 115.156 92.5479C115.201 92.5974 115.221 92.6642 115.215 92.7298L114.867 95.9152C114.854 96.0358 114.751 96.1273 114.629 96.1273ZM59.6468 94.6923L114.414 95.6493L114.71 92.9376L59.9422 91.9806L59.6468 94.6923Z" fill="#1E1E1E"/>
<path d="M132.996 107.164H132.991L58.2121 105.857C58.1448 105.856 58.0818 105.827 58.0372 105.776C57.9927 105.727 57.9721 105.66 57.9786 105.594L58.3262 102.409C58.3392 102.287 58.4348 102.197 58.5684 102.197L133.348 103.504C133.415 103.505 133.478 103.534 133.522 103.584C133.567 103.634 133.588 103.701 133.581 103.766L133.234 106.952C133.22 107.072 133.117 107.164 132.996 107.164ZM58.4815 105.388L132.781 106.686L133.076 103.974L58.777 102.675L58.4815 105.386V105.388Z" fill="#1E1E1E"/>
<path d="M112.781 113.092H112.777L57.5278 112.126C57.4604 112.125 57.3974 112.096 57.3529 112.046C57.3083 111.996 57.2877 111.929 57.2942 111.864L57.6418 108.678C57.6549 108.557 57.7559 108.471 57.8841 108.466L113.132 109.432C113.199 109.433 113.262 109.462 113.307 109.513C113.351 109.562 113.372 109.629 113.365 109.695L113.019 112.88C113.006 113.001 112.903 113.092 112.781 113.092ZM57.7983 111.657L112.566 112.614L112.861 109.902L58.0937 108.945L57.7983 111.657Z" fill="#1E1E1E"/>
<path d="M130.889 122.028H130.885L56.1058 120.721C56.0385 120.72 55.9755 120.691 55.9309 120.64C55.8864 120.591 55.8657 120.524 55.8723 120.458L56.2199 117.273C56.2329 117.151 56.3372 117.049 56.4621 117.061L131.241 118.368C131.309 118.369 131.372 118.398 131.416 118.449C131.461 118.498 131.481 118.565 131.475 118.631L131.128 121.816C131.115 121.936 131.012 122.028 130.89 122.028H130.889ZM56.3752 120.251L130.674 121.55L130.97 118.838L56.6707 117.54L56.3752 120.252V120.251Z" fill="#1E1E1E"/>
<path d="M110.674 127.956H110.67L55.4223 126.99C55.3549 126.989 55.2919 126.96 55.2474 126.91C55.2029 126.86 55.1822 126.793 55.1887 126.728L55.5363 123.542C55.5494 123.421 55.6591 123.324 55.7786 123.33L111.026 124.296C111.094 124.297 111.157 124.326 111.201 124.377C111.246 124.426 111.266 124.493 111.26 124.559L110.912 127.744C110.899 127.865 110.796 127.956 110.674 127.956ZM55.6917 126.521L110.459 127.478L110.755 124.766L55.9872 123.809L55.6917 126.521Z" fill="#1E1E1E"/>
<path d="M116.019 57.2085H78.7774L82.4969 73.5089C82.7663 74.6887 83.909 75.5252 85.2517 75.5252H108.542C109.885 75.5252 111.074 74.6887 111.407 73.5089L116.018 57.2085H116.019Z" fill="white"/>
<path d="M108.543 75.762H85.2532C83.7888 75.762 82.5602 74.8567 82.2648 73.5617L78.5453 57.2613C78.529 57.1913 78.5464 57.117 78.592 57.061C78.6376 57.0051 78.7061 56.9717 78.7789 56.9717H116.02C116.095 56.9717 116.166 57.0061 116.21 57.0653C116.256 57.1245 116.27 57.201 116.25 57.2731L111.64 73.5735C111.275 74.8621 110.003 75.7631 108.544 75.7631L108.543 75.762ZM79.0776 57.4453L82.7319 73.4562C82.9774 74.5348 84.0148 75.2873 85.2532 75.2873H108.543C109.788 75.2873 110.871 74.5294 111.179 73.4443L115.704 57.4453H79.0776Z" fill="#1E1E1E"/>
<path d="M116.18 56.0888H78.6781C77.9003 56.0888 77.2866 55.4634 77.3072 54.6926C77.3278 53.9218 77.9764 53.2964 78.7541 53.2964H116.256C117.034 53.2964 117.648 53.9218 117.627 54.6926C117.606 55.4634 116.958 56.0888 116.18 56.0888Z" fill="white"/>
<path d="M116.18 56.3267H78.6778C78.2368 56.3267 77.8262 56.1555 77.5209 55.8465C77.2168 55.5365 77.0549 55.1242 77.0669 54.6871C77.0919 53.7904 77.8479 53.0605 78.7539 53.0605H116.256C116.697 53.0605 117.108 53.2317 117.413 53.5407C117.717 53.8507 117.879 54.263 117.867 54.7001C117.842 55.5968 117.086 56.3267 116.181 56.3267H116.18ZM78.7539 53.5342C78.1054 53.5342 77.5633 54.0574 77.5459 54.7001C77.5372 55.0079 77.6502 55.2986 77.8642 55.5161C78.0771 55.7335 78.3661 55.853 78.6778 55.853H116.18C116.828 55.853 117.37 55.3298 117.388 54.6871C117.396 54.3793 117.284 54.0886 117.07 53.8712C116.857 53.6537 116.568 53.5342 116.256 53.5342H78.7539Z" fill="#1E1E1E"/>
<path d="M90.598 60.0977H86.7786C86.0638 60.0977 85.5163 60.68 85.6543 61.2926L88.0593 71.9726C88.1603 72.4193 88.6024 72.7369 89.1239 72.7369H90.2091C90.825 72.7369 91.3377 72.2977 91.354 71.7573L91.6832 61.0773C91.6995 60.5358 91.2139 60.0977 90.598 60.0977Z" fill="white"/>
<path d="M90.2088 72.9749H89.1236C88.486 72.9749 87.9526 72.5841 87.8266 72.0243L85.4215 61.3444C85.3455 61.0096 85.4324 60.6565 85.6583 60.3766C85.9201 60.0536 86.3384 59.8599 86.7794 59.8599H90.5988C90.9823 59.8599 91.3451 60.0063 91.5949 60.2614C91.8154 60.4875 91.9328 60.7792 91.923 61.0838L91.5938 71.7638C91.5732 72.4313 90.9518 72.9738 90.2099 72.9738L90.2088 72.9749ZM86.7783 60.3357C86.4818 60.3357 86.2026 60.4627 86.0309 60.6748C85.8941 60.8438 85.843 61.0451 85.8876 61.2421L88.2926 71.9221C88.3686 72.2579 88.7173 72.5012 89.1236 72.5012H90.2088C90.6955 72.5012 91.1018 72.1643 91.1148 71.7509L91.4439 61.0709C91.4494 60.8955 91.3809 60.7264 91.2506 60.593C91.0898 60.4293 90.853 60.3357 90.5988 60.3357H86.7794H86.7783Z" fill="#1E1E1E"/>
<path d="M109.389 61.2926C109.565 60.68 109.051 60.0977 108.334 60.0977H104.501C103.883 60.0977 103.37 60.5369 103.352 61.0773L103.022 71.7573C103.006 72.2987 103.492 72.7369 104.11 72.7369H105.2C105.724 72.7369 106.186 72.4193 106.314 71.9726L109.388 61.2926H109.389Z" fill="white"/>
<path d="M105.201 72.9752H104.111C103.727 72.9752 103.362 72.8277 103.112 72.5726C102.891 72.3476 102.775 72.0559 102.784 71.7512L103.114 61.0723C103.135 60.4049 103.757 59.8623 104.502 59.8623H108.335C108.776 59.8623 109.186 60.055 109.432 60.3779C109.648 60.6621 109.716 61.0195 109.619 61.3586L106.546 72.0386C106.387 72.5898 105.834 72.9752 105.201 72.9752ZM104.502 60.336C104.013 60.336 103.605 60.6729 103.593 61.0863L103.263 71.7663C103.257 71.9407 103.326 72.1097 103.455 72.2432C103.616 72.4079 103.855 72.5026 104.111 72.5026H105.201C105.615 72.5026 105.987 72.2528 106.086 71.9094L109.159 61.2295C109.216 61.0314 109.178 60.8312 109.051 60.6643C108.894 60.4598 108.627 60.337 108.335 60.337H104.502V60.336Z" fill="#1E1E1E"/>
<path d="M99.0539 60.0977H96.1252C95.6853 60.0977 95.3192 60.5369 95.3073 61.0773L95.0726 71.7573C95.0607 72.2987 95.4072 72.7369 95.8482 72.7369H98.7769C99.2168 72.7369 99.5829 72.2977 99.5948 71.7573L99.8295 61.0773C99.8414 60.5358 99.4949 60.0977 99.0539 60.0977Z" fill="white"/>
<path d="M98.7756 72.9753H95.847C95.6015 72.9753 95.3647 72.873 95.1811 72.6879C94.9519 72.4553 94.8248 72.1152 94.8324 71.7534L95.067 61.0735C95.0823 60.405 95.5559 59.8613 96.124 59.8613H99.0526C99.2982 59.8613 99.535 59.9636 99.7185 60.1488C99.9477 60.3813 100.075 60.7215 100.067 61.0832L99.8326 71.7631C99.8174 72.4316 99.3438 72.9753 98.7756 72.9753ZM96.1251 60.3361C95.8198 60.3361 95.5548 60.6784 95.5461 61.0842L95.3115 71.7642C95.306 71.9989 95.3832 72.2153 95.5244 72.3563C95.5896 72.423 95.6993 72.5016 95.8481 72.5016H98.7767C99.082 72.5016 99.347 72.1593 99.3557 71.7534L99.5904 61.0735C99.5958 60.8388 99.5187 60.6224 99.3785 60.4803C99.3134 60.4147 99.2036 60.335 99.0548 60.335H96.1262L96.1251 60.3361Z" fill="#1E1E1E"/>
<path d="M83.5652 55.861C84.3818 55.0627 84.4082 53.777 83.6241 52.9894C82.84 52.2017 81.5424 52.2103 80.7257 53.0086C79.9091 53.8069 79.8828 55.0926 80.6668 55.8803C81.4509 56.668 82.7486 56.6594 83.5652 55.861Z" fill="#1E1E1E"/>
<path d="M82.1225 55.2459C81.9215 55.2459 81.7216 55.1727 81.5674 55.0252C81.2458 54.7174 81.2447 54.2039 81.5641 53.8766L95.8901 39.2168C96.2095 38.8906 96.7287 38.8745 97.0492 39.1824C97.3707 39.4902 97.3718 40.0037 97.0524 40.331L82.7264 54.9908C82.5602 55.1609 82.3408 55.2459 82.1225 55.2459Z" fill="white"/>
<path d="M82.1225 55.483C81.8509 55.483 81.5945 55.3807 81.4012 55.1956C81.2035 55.0061 81.0916 54.7499 81.0862 54.4733C81.0807 54.1891 81.1894 53.9189 81.3914 53.7122L95.7163 39.0524C96.1269 38.6325 96.7983 38.6142 97.2143 39.0114C97.4131 39.202 97.525 39.4582 97.5293 39.7338C97.5348 40.018 97.4261 40.2882 97.2241 40.4949L82.8992 55.1547C82.696 55.3624 82.4125 55.4819 82.1236 55.4819L82.1225 55.483ZM96.493 39.1988C96.3377 39.1988 96.1802 39.2601 96.0607 39.3818L81.7358 54.0416C81.6228 54.1568 81.5619 54.3075 81.5652 54.4646C81.5674 54.6143 81.6282 54.7521 81.7347 54.8533C81.9541 55.0632 82.3365 55.0492 82.5559 54.8242L96.8819 40.1644C96.9949 40.0492 97.0557 39.8985 97.0525 39.7413C97.0503 39.5917 96.9894 39.4539 96.883 39.3516C96.7754 39.2483 96.6353 39.1977 96.493 39.1977V39.1988Z" fill="#1E1E1E"/>
<path d="M114.225 55.8669C115.042 55.0686 115.068 53.7829 114.284 52.9952C113.5 52.2075 112.203 52.2162 111.386 53.0145C110.569 53.8128 110.543 55.0985 111.327 55.8862C112.111 56.6738 113.409 56.6652 114.225 55.8669Z" fill="#1E1E1E"/>
<path d="M112.78 55.2459C112.981 55.2459 113.186 55.1727 113.349 55.0252C113.686 54.7174 113.717 54.2039 113.415 53.8766L99.8905 39.2168C99.5896 38.8906 99.0714 38.8745 98.7325 39.1824C98.3947 39.4902 98.3642 40.0037 98.6662 40.331L112.191 54.9908C112.347 55.1609 112.562 55.2459 112.78 55.2459Z" fill="white"/>
<path d="M112.781 55.4827C112.489 55.4827 112.209 55.3622 112.014 55.1501L98.4896 40.4903C98.0996 40.0683 98.1366 39.403 98.5711 39.0079C98.7851 38.8131 99.0599 38.7151 99.3478 38.7259C99.6259 38.7377 99.8811 38.8562 100.067 39.0575L113.591 53.7173C113.981 54.1393 113.944 54.8045 113.51 55.1996C113.309 55.3816 113.05 55.4827 112.781 55.4827ZM99.3 39.1985C99.1512 39.1985 99.0078 39.2545 98.8948 39.3567C98.6547 39.5753 98.6308 39.9402 98.8426 40.1706L112.367 54.8304C112.571 55.0521 112.954 55.0618 113.186 54.8508C113.426 54.6323 113.45 54.2674 113.237 54.037L99.7128 39.3772C99.6128 39.2695 99.4749 39.206 99.325 39.1996C99.3163 39.1996 99.3076 39.1996 99.2989 39.1996L99.3 39.1985Z" fill="#1E1E1E"/>
<path d="M83.4483 45.0069C86.2485 43.8574 87.5782 40.6761 86.4183 37.9011C85.2584 35.1262 82.0482 33.8084 79.248 34.9578C76.4478 36.1073 75.1181 39.2886 76.2779 42.0636C77.4378 44.8385 80.6481 46.1563 83.4483 45.0069Z" fill="#1E1E1E"/>
<path d="M80.7635 43.2431C80.5517 43.2549 80.3573 43.1602 80.253 42.9922L78.239 40.2213C78.076 39.9597 78.1782 39.6056 78.466 39.4301C78.7539 39.2546 79.1189 39.3235 79.2818 39.5851L80.7776 41.5239L83.098 37.5053C83.262 37.2211 83.6281 37.0995 83.9148 37.234C84.2016 37.3686 84.3016 37.7088 84.1375 37.993L81.2936 42.9169C81.1872 43.1021 80.9873 43.2258 80.7722 43.2409C80.769 43.2409 80.7657 43.2409 80.7624 43.2409L80.7635 43.2431Z" fill="white"/>
<path d="M194.626 139.7L161.517 145.435L128.674 139.733C128.627 139.726 128.627 139.659 128.674 139.651L161.893 133.887L194.626 139.699V139.7Z" fill="white"/>
<path d="M161.516 145.672C161.502 145.672 161.489 145.671 161.475 145.669L128.632 139.967C128.497 139.943 128.4 139.828 128.4 139.692C128.4 139.557 128.497 139.441 128.632 139.418L161.851 133.653C161.879 133.649 161.906 133.649 161.934 133.653L194.668 139.465C194.782 139.486 194.865 139.584 194.864 139.699C194.864 139.814 194.781 139.912 194.667 139.932L161.557 145.668C161.544 145.67 161.53 145.671 161.516 145.671V145.672ZM129.823 139.692L161.516 145.194L193.252 139.697L161.891 134.128L129.823 139.692Z" fill="#1E1E1E"/>
<path d="M161.523 194.048V145.388L128.572 139.672V188.234L161.523 194.048Z" fill="#1E1E1E"/>
<path d="M149.06 147.528V143.121L141.749 142.108V146.491L149.06 147.528Z" fill="white"/>
<path d="M149.059 147.766C149.049 147.766 149.037 147.766 149.026 147.764L141.716 146.727C141.599 146.71 141.511 146.61 141.511 146.493V142.109C141.511 142.04 141.541 141.976 141.593 141.93C141.646 141.885 141.715 141.865 141.783 141.874L149.093 142.887C149.212 142.904 149.3 143.004 149.3 143.122V147.529C149.3 147.598 149.269 147.664 149.217 147.708C149.174 147.746 149.117 147.766 149.061 147.766H149.059ZM141.989 146.286L148.82 147.255V143.327L141.989 142.379V146.285V146.286Z" fill="#1E1E1E"/>
<path d="M161.523 194.048V145.388L194.761 139.679V188.206L161.523 194.048Z" fill="white"/>
<path d="M161.522 194.285C161.467 194.285 161.412 194.266 161.368 194.23C161.314 194.185 161.282 194.118 161.282 194.048V145.388C161.282 145.273 161.366 145.174 161.481 145.154L194.719 139.446C194.789 139.434 194.861 139.453 194.914 139.499C194.968 139.544 195 139.609 195 139.679V188.206C195 188.321 194.916 188.419 194.802 188.44L161.564 194.282C161.55 194.284 161.535 194.285 161.521 194.285H161.522ZM161.761 145.587V193.765L194.522 188.008V139.961L161.761 145.587Z" fill="#1E1E1E"/>
<path d="M189.705 99.4408L162.838 104.096L136.227 99.4752C136.181 99.4677 136.181 99.402 136.227 99.3945L163.142 94.7246L189.705 99.4418V99.4408Z" fill="white"/>
<path d="M162.837 104.332C162.823 104.332 162.81 104.331 162.796 104.329L136.185 99.7089C136.05 99.6852 135.952 99.57 135.952 99.4343C135.952 99.2987 136.05 99.1835 136.185 99.1598L163.1 94.49C163.128 94.4846 163.156 94.4857 163.183 94.49L189.746 99.2072C189.86 99.2277 189.944 99.3256 189.943 99.4408C189.943 99.556 189.859 99.654 189.745 99.6744L162.877 104.329C162.864 104.331 162.85 104.332 162.836 104.332H162.837ZM137.38 99.4343L162.837 103.854L188.332 99.4376L163.141 94.9647L137.379 99.4354L137.38 99.4343Z" fill="#1E1E1E"/>
<path d="M162.843 143.545V104.057L189.815 99.4248V138.804L162.843 143.545Z" fill="white"/>
<path d="M162.843 143.782C162.787 143.782 162.732 143.762 162.688 143.727C162.634 143.682 162.602 143.615 162.602 143.545V104.057C162.602 103.942 162.686 103.842 162.801 103.823L189.775 99.1909C189.844 99.1791 189.916 99.1984 189.969 99.2437C190.024 99.2889 190.055 99.3545 190.055 99.4245V138.804C190.055 138.919 189.972 139.017 189.858 139.038L162.884 143.779C162.87 143.781 162.856 143.782 162.841 143.782H162.843ZM163.082 104.256V143.261L189.576 138.604V99.7044L163.082 104.255V104.256Z" fill="#1E1E1E"/>
<path d="M162.843 143.545V104.057L136.104 99.418V138.827L162.843 143.545Z" fill="#1E1E1E"/>
<path d="M153.117 106.767V102.359L147.217 101.346V105.731L153.117 106.767Z" fill="white"/>
<path d="M153.117 107.004C153.103 107.004 153.089 107.003 153.075 107.001L147.175 105.964C147.061 105.945 146.978 105.846 146.978 105.731V101.346C146.978 101.276 147.009 101.209 147.062 101.165C147.117 101.12 147.188 101.102 147.257 101.112L153.156 102.125C153.272 102.145 153.355 102.244 153.355 102.359V106.766C153.355 106.836 153.324 106.903 153.269 106.948C153.226 106.985 153.172 107.003 153.115 107.003L153.117 107.004ZM147.458 105.531L152.878 106.484V102.559L147.458 101.628V105.531Z" fill="#1E1E1E"/>
<path d="M173.116 96.5527L146.876 101.246L152.767 102.267L179.021 97.5625L173.116 96.5527Z" fill="white"/>
<path d="M152.767 102.504C152.753 102.504 152.74 102.503 152.725 102.501L146.834 101.48C146.72 101.46 146.637 101.362 146.637 101.247C146.637 101.132 146.719 101.033 146.833 101.014L173.072 96.3214C173.099 96.316 173.127 96.316 173.155 96.3214L179.06 97.3312C179.174 97.3506 179.258 97.4485 179.259 97.5637C179.259 97.6789 179.177 97.7779 179.063 97.7984L152.81 102.503C152.796 102.505 152.782 102.506 152.768 102.506L152.767 102.504ZM148.243 101.242L152.766 102.026L177.644 97.568L173.115 96.794L148.243 101.242Z" fill="#1E1E1E"/>
<path d="M159.115 135.162V113.82L139.532 110.401V131.663L159.115 135.162Z" fill="white"/>
<path d="M159.114 135.398C159.1 135.398 159.086 135.397 159.072 135.395L139.489 131.896C139.375 131.876 139.293 131.778 139.293 131.663V110.401C139.293 110.331 139.324 110.264 139.379 110.219C139.433 110.173 139.504 110.154 139.574 110.167L159.157 113.586C159.271 113.605 159.354 113.704 159.354 113.82V135.161C159.354 135.231 159.323 135.298 159.269 135.343C159.225 135.379 159.171 135.398 159.115 135.398H159.114ZM139.771 131.465L158.875 134.877V114.018L139.771 110.683V131.465Z" fill="#1E1E1E"/>
<path d="M141.913 126.28V129.563L156.733 132.082V128.87L141.913 126.28Z" fill="#1E1E1E"/>
<path d="M156.018 119.091L152.959 114.706L149.917 118.02L151.479 118.292V126.072L154.438 126.575V118.81L156.018 119.091Z" fill="#1E1E1E"/>
<path d="M148.729 117.866L145.669 113.48L142.628 116.795L144.19 117.068V124.847L147.15 125.35V117.585L148.729 117.866Z" fill="#1E1E1E"/>
<path d="M105.004 163.522L125.255 167.03L145.279 163.554C145.32 163.547 145.32 163.489 145.279 163.482L125.026 159.967L105.005 163.522H105.004Z" fill="white"/>
<path d="M125.251 196.763V167.001L104.922 163.509V193.19L125.251 196.763Z" fill="#1E1E1E"/>
<path d="M125.25 196.763V167.001L145.404 163.505V193.208L125.25 196.763Z" fill="white"/>
<path d="M125.25 197C125.194 197 125.139 196.981 125.096 196.945C125.041 196.9 125.01 196.833 125.01 196.763V167.001C125.01 166.886 125.093 166.787 125.208 166.767L145.36 163.271C145.43 163.259 145.502 163.279 145.556 163.323C145.61 163.368 145.641 163.435 145.641 163.505V193.207C145.641 193.323 145.557 193.421 145.443 193.441L125.29 196.997C125.276 196.999 125.262 197 125.249 197H125.25ZM125.489 167.2V196.48L145.164 193.008V163.787L125.489 167.199V167.2Z" fill="#1E1E1E"/>
<path d="M118.46 161.24L138.464 164.727L132.988 165.747L112.986 162.26L118.46 161.24Z" fill="white"/>
<path d="M132.988 165.985C132.974 165.985 132.96 165.984 132.947 165.981L112.945 162.495C112.831 162.474 112.747 162.377 112.747 162.262C112.747 162.148 112.829 162.049 112.943 162.027L118.418 161.007C118.446 161.002 118.475 161.002 118.503 161.007L138.506 164.494C138.62 164.513 138.704 164.611 138.704 164.726C138.704 164.84 138.623 164.939 138.509 164.961L133.033 165.981C133.018 165.985 133.003 165.986 132.988 165.986V165.985ZM114.322 162.252L132.987 165.507L137.128 164.735L118.462 161.481L114.322 162.252Z" fill="#1E1E1E"/>
<path d="M125.254 167.267C125.24 167.267 125.227 167.266 125.213 167.264L104.962 163.755C104.848 163.736 104.765 163.637 104.765 163.522C104.765 163.407 104.847 163.309 104.961 163.288L124.982 159.734C125.01 159.728 125.037 159.728 125.065 159.734L145.319 163.248C145.451 163.271 145.547 163.384 145.547 163.517C145.547 163.651 145.452 163.764 145.319 163.788L125.295 167.265C125.28 167.267 125.267 167.268 125.253 167.268L125.254 167.267ZM106.377 163.519L125.254 166.789L144.1 163.517L125.025 160.207L106.377 163.519Z" fill="#1E1E1E"/>
<path d="M125.25 197C125.194 197 125.139 196.981 125.096 196.945C125.041 196.9 125.01 196.833 125.01 196.763V167.001C125.01 166.886 125.093 166.787 125.208 166.767L145.36 163.271C145.43 163.259 145.502 163.279 145.556 163.323C145.61 163.368 145.641 163.435 145.641 163.505V193.207C145.641 193.323 145.557 193.421 145.443 193.441L125.29 196.997C125.276 196.999 125.262 197 125.249 197H125.25ZM125.489 167.2V196.48L145.164 193.008V163.787L125.489 167.199V167.2Z" fill="#1E1E1E"/>
<path d="M125.251 197C125.237 197 125.222 196.999 125.208 196.997L104.878 193.424C104.764 193.404 104.681 193.305 104.681 193.19V163.51C104.681 163.44 104.712 163.373 104.767 163.329C104.821 163.284 104.891 163.265 104.961 163.276L125.291 166.767C125.406 166.787 125.49 166.886 125.49 167.001V196.763C125.49 196.833 125.458 196.9 125.404 196.945C125.36 196.981 125.306 197 125.25 197H125.251ZM105.16 192.991L125.011 196.48V167.2L105.16 163.791V192.991Z" fill="#1E1E1E"/>
<path d="M131.624 48.1227L149.673 51.25L167.521 48.1518C167.556 48.1453 167.556 48.0937 167.521 48.0872L149.469 44.9546L131.624 48.1227Z" fill="white"/>
<path d="M149.669 77.7506V51.2245L131.55 48.1123V74.5663L149.669 77.7506Z" fill="#1E1E1E"/>
<path d="M149.669 77.7505V51.2244L167.632 48.1079V74.5813L149.669 77.7505Z" fill="white"/>
<path d="M143.617 46.0894L161.445 49.1972L156.566 50.1069L138.737 46.999L143.617 46.0894Z" fill="#1E1E1E"/>
<path d="M149.673 51.4868C149.659 51.4868 149.646 51.4857 149.632 51.4835L131.583 48.3563C131.469 48.3358 131.386 48.2379 131.386 48.1227C131.386 48.0075 131.468 47.9095 131.582 47.8891L149.427 44.7199C149.455 44.7145 149.482 44.7145 149.51 44.7199L167.562 47.8525C167.693 47.8751 167.787 47.987 167.787 48.1184C167.787 48.2497 167.693 48.3617 167.561 48.3843L149.715 51.4824C149.701 51.4846 149.688 51.4857 149.673 51.4857V51.4868ZM132.997 48.1205L149.673 51.0099L166.32 48.1195L149.469 45.1957L132.997 48.1205Z" fill="#1E1E1E"/>
<path d="M149.67 77.9881C149.614 77.9881 149.559 77.9687 149.516 77.9332C149.461 77.888 149.43 77.8212 149.43 77.7513V51.2241C149.43 51.1089 149.513 51.0099 149.627 50.9905L167.59 47.874C167.661 47.8622 167.732 47.8816 167.786 47.9257C167.84 47.9709 167.872 48.0376 167.872 48.1076V74.581C167.872 74.6962 167.788 74.7941 167.674 74.8146L149.711 77.9838C149.697 77.986 149.683 77.987 149.669 77.987L149.67 77.9881ZM149.909 51.4232V77.4682L167.393 74.3829V48.3897L149.909 51.4222V51.4232Z" fill="#1E1E1E"/>
<path d="M149.67 77.9883C149.656 77.9883 149.642 77.9872 149.628 77.985L131.507 74.7997C131.393 74.7792 131.31 74.6813 131.31 74.5661V48.1121C131.31 48.0421 131.341 47.9754 131.394 47.9312C131.449 47.886 131.52 47.8677 131.589 47.8785L149.709 50.9907C149.824 51.01 149.908 51.1091 149.908 51.2243V77.7514C149.908 77.8214 149.877 77.8882 149.822 77.9334C149.779 77.9689 149.725 77.9883 149.668 77.9883H149.67ZM131.79 74.368L149.431 77.4683V51.4234L131.79 48.3931V74.3669V74.368Z" fill="#1E1E1E"/>
<path d="M180.76 20.0574C174.894 6.96816 160.44 -1.40273 144.54 0.194805C128.635 1.79341 116.173 12.8814 113.083 26.877L113.108 26.863C116.351 23.1168 120.761 23.5323 125.181 25.611L125.289 25.639C129.384 20.9304 134.902 21.8573 138.685 24.2762L138.734 24.288L139.198 24.4732C144.699 21.0886 149.451 19.8625 155.14 22.6388C158.531 19.8819 163.457 18.3479 168.533 21.2835L168.562 21.29L168.629 21.2566C171.438 18.5083 176.379 17.7902 180.674 20.0347L180.76 20.0574Z" fill="#1E1E1E"/>
<path d="M142.454 0.82666C131.223 4.20796 127.462 13.5197 125.334 25.3946C129.11 21.8152 133.595 20.9293 139.189 24.3439C138.456 14.8869 140.449 7.28352 142.455 0.827737L142.454 0.82666Z" fill="white"/>
<path d="M125.334 25.6316C125.296 25.6316 125.257 25.6219 125.221 25.6036C125.13 25.5552 125.081 25.454 125.098 25.3528C127.022 14.6201 130.448 4.19305 142.384 0.599686C142.469 0.57385 142.561 0.597533 142.623 0.658894C142.686 0.721331 142.708 0.811757 142.683 0.895724C140.719 7.2148 138.686 14.7579 139.426 24.3247C139.433 24.4141 139.39 24.4991 139.312 24.5454C139.235 24.5917 139.139 24.5917 139.063 24.5454C133.952 21.4257 129.515 21.7594 125.499 25.5659C125.454 25.609 125.394 25.6316 125.334 25.6316ZM142.092 1.18746C131 4.74745 127.594 14.5382 125.696 24.7446C129.646 21.3148 133.981 21.0403 138.916 23.9049C138.282 14.6868 140.189 7.35905 142.092 1.18746Z" fill="#1E1E1E"/>
<path d="M147.272 0.349609C160.345 1.9902 165.187 10.4601 168.27 21.1358C164.792 19.2153 160.1 19.9689 155.139 22.6386C153.523 13.6078 151.167 6.07983 147.271 0.349609H147.272Z" fill="white"/>
<path d="M155.14 22.8758C155.104 22.8758 155.069 22.8682 155.036 22.8521C154.967 22.8187 154.918 22.7552 154.905 22.6798C153.137 12.7922 150.648 5.73892 147.075 0.482359C147.023 0.404851 147.021 0.304736 147.07 0.225075C147.118 0.145414 147.211 0.104506 147.303 0.114195C161.114 1.84844 165.654 11.2108 168.501 21.0694C168.528 21.162 168.496 21.261 168.42 21.3202C168.344 21.3794 168.239 21.388 168.155 21.3418C164.892 19.5397 160.432 20.0607 155.255 22.8456C155.219 22.865 155.18 22.8747 155.141 22.8747L155.14 22.8758ZM147.763 0.655676C151.18 5.86164 153.588 12.7577 155.317 22.2762C160.267 19.6796 164.591 19.1295 167.885 20.6743C165.109 11.2915 160.65 2.48896 147.762 0.655676H147.763Z" fill="#1E1E1E"/>
<path d="M149.056 48.6051C149.012 48.6051 148.969 48.5932 148.93 48.5695L113.319 26.8037C113.207 26.7348 113.171 26.5884 113.241 26.4775C113.31 26.3667 113.457 26.3311 113.57 26.4L149.025 48.0711L180.096 19.3845C180.193 19.2951 180.345 19.3005 180.434 19.3963C180.524 19.4921 180.519 19.6417 180.422 19.7311L149.219 48.5405C149.173 48.5824 149.114 48.604 149.056 48.604V48.6051Z" fill="#1E1E1E"/>
<path d="M149.056 48.605C148.994 48.605 148.933 48.5813 148.887 48.5361L125.217 25.2201C125.124 25.1276 125.123 24.9779 125.217 24.8854C125.31 24.7928 125.461 24.7917 125.555 24.8854L148.409 47.3972L138.812 23.4493C138.763 23.3277 138.823 23.1899 138.946 23.1414C139.068 23.093 139.207 23.1522 139.256 23.2738L149.278 48.2799C149.321 48.3843 149.283 48.5038 149.188 48.5652C149.148 48.591 149.102 48.6039 149.057 48.6039L149.056 48.605Z" fill="#1E1E1E"/>
<path d="M149.055 48.605C149.023 48.605 148.989 48.5985 148.958 48.5845C148.853 48.5382 148.796 48.4241 148.822 48.3143L154.906 22.5848C154.937 22.4567 155.066 22.3792 155.194 22.4083C155.322 22.4384 155.403 22.5654 155.372 22.6935L149.571 47.2227L168.69 20.1272C168.766 20.0195 168.915 19.9937 169.024 20.069C169.132 20.1444 169.158 20.2919 169.082 20.3995L149.251 48.5048C149.205 48.5694 149.131 48.606 149.055 48.606V48.605Z" fill="#1E1E1E"/>
<path d="M21.8583 180.829L22.4134 186.111L25.9938 186.53V180.267L21.8583 180.829Z" fill="white"/>
<path d="M25.9938 186.767C25.9841 186.767 25.9754 186.767 25.9656 186.765L22.3852 186.346C22.2744 186.333 22.1864 186.246 22.1755 186.135L21.6194 180.853C21.6063 180.726 21.6965 180.61 21.8247 180.593L25.9613 180.031C26.0297 180.021 26.0992 180.042 26.1514 180.087C26.2035 180.132 26.2328 180.197 26.2328 180.266V186.529C26.2328 186.597 26.2035 186.661 26.1524 186.707C26.109 186.745 26.0514 186.767 25.9938 186.767ZM22.6318 185.898L25.7549 186.263V180.538L22.1201 181.032L22.6318 185.897V185.898Z" fill="#1E1E1E"/>
<path d="M26.5576 195.726C25.0651 195.936 22.6177 196.12 19.7444 195.722C18.8048 195.592 18.1812 194.681 18.4083 193.763C19.0405 191.199 20.13 186.334 22.0006 184.079L22.4656 185.302L23.1076 184.151C23.1956 183.994 23.3531 183.887 23.5323 183.865L24.938 183.687C25.2313 183.65 25.505 183.844 25.5658 184.133L25.7896 185.193L26.6467 183.802L27.0269 188.996C27.1084 190.109 27.2768 191.214 27.5309 192.3L27.9144 193.939C28.0285 194.805 27.4256 195.604 26.5576 195.727V195.726Z" fill="white"/>
<path d="M23.1738 196.193C22.1256 196.193 20.9578 196.128 19.7118 195.956C19.198 195.885 18.7353 195.599 18.443 195.172C18.1497 194.744 18.052 194.209 18.1758 193.705L18.3116 193.149C18.9569 190.501 20.0388 186.069 21.816 183.926C21.8703 183.86 21.955 183.827 22.0397 183.843C22.1245 183.857 22.194 183.914 22.2244 183.994L22.5069 184.735L22.8979 184.033C23.0228 183.811 23.2488 183.658 23.5019 183.625L24.9076 183.448C25.3214 183.397 25.7136 183.674 25.7994 184.08L25.8993 184.555L26.4414 183.675C26.4957 183.587 26.6011 183.544 26.7021 183.568C26.8031 183.593 26.877 183.679 26.8846 183.782L27.2648 188.976C27.3452 190.073 27.5136 191.172 27.7634 192.244L28.1469 193.882C28.2827 194.898 27.582 195.819 26.5913 195.958C25.7125 196.082 24.5436 196.191 23.1727 196.191L23.1738 196.193ZM21.93 184.561C20.3712 186.728 19.3816 190.786 18.7776 193.261L18.6418 193.818C18.5495 194.191 18.6223 194.589 18.8395 194.906C19.0557 195.223 19.3979 195.434 19.7781 195.486C22.5992 195.876 25.0042 195.704 26.525 195.49C27.2583 195.387 27.7754 194.704 27.6776 193.967L27.2985 192.352C27.0421 191.257 26.8705 190.133 26.789 189.011L26.462 184.555L25.9938 185.315C25.9428 185.397 25.845 185.442 25.7494 185.424C25.6527 185.408 25.5756 185.334 25.5561 185.239L25.3323 184.179C25.2964 184.01 25.1389 183.897 24.9695 183.92L23.5638 184.098C23.4606 184.111 23.3683 184.173 23.3172 184.265L22.6752 185.416C22.6296 185.496 22.5427 185.544 22.4482 185.537C22.3548 185.531 22.2744 185.471 22.2418 185.384L21.9289 184.562L21.93 184.561Z" fill="#1E1E1E"/>
<path d="M23.2846 194.624C22.3961 194.624 21.3391 194.533 20.1507 194.263C20.0214 194.234 19.941 194.106 19.9715 193.978C20.0008 193.85 20.129 193.77 20.2582 193.801C23.7398 194.592 26.1003 193.776 26.1242 193.767C26.248 193.722 26.3849 193.787 26.4305 193.909C26.4751 194.032 26.411 194.168 26.2871 194.213C26.2198 194.238 25.1096 194.624 23.2857 194.624H23.2846Z" fill="#1E1E1E"/>
<path d="M21.5556 190.566C21.4274 190.566 21.3209 190.465 21.3166 190.337C21.3122 190.205 21.4154 190.097 21.548 190.092L24.9035 189.981C25.0371 189.966 25.1458 190.079 25.1501 190.211C25.1545 190.342 25.0513 190.451 24.9187 190.455L21.5632 190.566C21.5632 190.566 21.5578 190.566 21.5545 190.566H21.5556Z" fill="#1E1E1E"/>
<path d="M38.627 178.017L39.1636 185.724H43.4719L43.6728 178.017H38.627Z" fill="white"/>
<path d="M43.4723 185.962H39.164C39.038 185.962 38.9337 185.865 38.925 185.741L38.3884 178.033C38.3841 177.968 38.4069 177.903 38.4525 177.856C38.4981 177.807 38.5611 177.78 38.6274 177.78H43.6721C43.7362 177.78 43.7981 177.806 43.8438 177.851C43.8894 177.898 43.9133 177.959 43.9122 178.022L43.7123 185.73C43.7091 185.858 43.6026 185.962 43.4733 185.962H43.4723ZM39.3878 185.488H43.2398L43.4277 178.254H38.8848L39.3889 185.488H39.3878Z" fill="#1E1E1E"/>
<path d="M38.0383 190.076C38.0275 190.804 38.5271 191.445 39.2387 191.611C41.7154 192.186 47.2946 193.466 48.886 193.702C50.951 194.009 53.4897 193.378 54.5814 192.173C55.6731 190.968 52.1373 188.089 50.46 187.043C47.9681 185.488 45.5728 182.414 44.5691 182.275C43.5654 182.137 41.6904 185.043 41.6904 185.043L38.6271 183.76C38.6271 183.76 38.0926 186.379 38.0383 190.077V190.076Z" fill="white"/>
<path d="M49.9665 194.017C49.5896 194.017 49.2159 193.991 48.852 193.937C47.241 193.698 41.5554 192.393 39.1851 191.842C38.3704 191.653 37.787 190.909 37.8001 190.074C37.8555 186.396 38.3888 183.74 38.3943 183.714C38.4084 183.644 38.454 183.585 38.517 183.551C38.58 183.518 38.655 183.515 38.7223 183.543L41.601 184.749C42.0974 184.006 43.5976 181.905 44.6035 182.043C45.1836 182.123 46.0005 182.897 47.1313 183.967C48.1796 184.958 49.3669 186.082 50.589 186.845C51.9403 187.688 54.7994 189.922 55.0145 191.443C55.0634 191.794 54.9787 192.093 54.7614 192.333C53.8337 193.358 51.8708 194.019 49.9676 194.019L49.9665 194.017ZM38.278 190.08C38.2693 190.695 38.6963 191.242 39.2937 191.381C41.6575 191.93 47.3279 193.232 48.9226 193.469C50.9811 193.775 53.3894 193.136 54.404 192.016C54.5246 191.883 54.5681 191.717 54.5387 191.508C54.3736 190.335 51.9892 188.279 50.3326 187.246C49.0692 186.457 47.8635 185.316 46.7989 184.309C45.8549 183.416 44.9631 182.572 44.5362 182.512C43.9485 182.435 42.6362 184.02 41.8921 185.172C41.8291 185.27 41.7042 185.308 41.5977 185.263L38.8092 184.095C38.6735 184.869 38.3215 187.144 38.278 190.081V190.08Z" fill="#1E1E1E"/>
<path d="M49.9349 192.128C46.1807 192.128 41.3304 190.427 39.5619 189.754C39.4381 189.707 39.3773 189.57 39.424 189.447C39.4718 189.325 39.6097 189.264 39.7336 189.31C41.4064 189.947 49.9143 193.015 53.1036 190.943C53.2144 190.871 53.3622 190.903 53.4349 191.011C53.5077 191.121 53.4762 191.267 53.3665 191.34C52.4942 191.907 51.2852 192.126 49.936 192.126L49.9349 192.128Z" fill="#1E1E1E"/>
<path d="M45.1492 187.934C45.0873 187.934 45.0254 187.91 44.9787 187.863C44.8863 187.769 44.8874 187.62 44.9819 187.528L46.7667 185.796C46.8612 185.704 47.0122 185.707 47.1045 185.799C47.1969 185.893 47.1947 186.042 47.1013 186.134L45.3165 187.866C45.2698 187.911 45.21 187.934 45.1492 187.934Z" fill="#1E1E1E"/>
<path d="M20.6358 127.767C20.6358 127.767 19.3008 151.863 18.6023 160.181C17.9038 168.5 20.236 181.871 20.236 181.871L26.8863 181.522C26.8863 181.522 27.3426 165.265 27.8357 160.75C27.8357 160.75 30.6449 154.63 31.477 149.171C32.3091 143.712 35.1454 135.09 35.1454 135.09C35.1454 135.09 37.4483 178.124 37.6699 181.505C37.6699 181.505 42.8841 181.736 44.7536 180.563C44.7536 180.563 48.0668 164.872 47.591 156.334C47.1152 147.796 47.6377 126.586 47.6377 126.586L20.6347 127.767H20.6358Z" fill="white"/>
<path d="M20.237 182.107C20.1218 182.107 20.0208 182.025 20.0012 181.91C19.9773 181.777 17.6722 168.414 18.3653 160.161C19.0551 151.941 20.3847 127.994 20.3988 127.753C20.4053 127.631 20.5042 127.534 20.6269 127.529L47.63 126.348C47.6984 126.342 47.7603 126.369 47.8081 126.416C47.8559 126.462 47.882 126.525 47.8798 126.591C47.8744 126.803 47.3627 147.891 47.8331 156.321C48.3045 164.791 45.025 180.454 44.9914 180.611C44.9783 180.674 44.9403 180.728 44.8849 180.763C42.973 181.962 37.8783 181.75 37.6622 181.741C37.5405 181.736 37.4416 181.64 37.434 181.52C37.2363 178.51 35.3668 143.639 34.979 136.408C34.1697 138.995 32.3491 145.055 31.7158 149.206C30.9206 154.42 28.3016 160.302 28.0713 160.812C27.5857 165.317 27.1317 181.366 27.1273 181.528C27.1241 181.652 27.0252 181.752 26.9003 181.759L20.25 182.107C20.25 182.107 20.2413 182.107 20.237 182.107ZM20.8638 127.994C20.7291 130.409 19.4972 152.392 18.8411 160.201C18.2002 167.831 20.1479 179.895 20.4368 181.622L26.6537 181.296C26.7102 179.341 27.1403 164.91 27.5988 160.724C27.602 160.699 27.6085 160.674 27.6183 160.651C27.6466 160.589 30.4231 154.496 31.2411 149.134C32.0667 143.719 34.8899 135.102 34.9182 135.016C34.954 134.907 35.0648 134.838 35.1767 134.854C35.2908 134.869 35.3777 134.963 35.3842 135.077C35.407 135.5 37.6089 176.646 37.8957 181.274C38.8712 181.3 42.9068 181.349 44.5416 180.413C44.823 179.052 47.8016 164.4 47.353 156.347C46.9097 148.402 47.3367 129.264 47.3931 126.833L20.8627 127.994H20.8638Z" fill="#1E1E1E"/>
<path d="M26.6123 160.985H24.5799C24.4473 160.985 24.3409 160.879 24.3409 160.749C24.3409 160.618 24.4484 160.512 24.5799 160.512H26.6123C26.7448 160.512 26.8513 160.618 26.8513 160.749C26.8513 160.879 26.7437 160.985 26.6123 160.985Z" fill="#1E1E1E"/>
<path d="M41.0906 173.501H41.0863C40.9538 173.499 40.8495 173.39 40.8516 173.26C40.9255 169.274 45.3065 162.134 45.4934 161.832C45.5618 161.721 45.7095 161.684 45.8225 161.753C45.9355 161.821 45.9713 161.967 45.9018 162.079C45.8573 162.153 41.4013 169.41 41.3307 173.269C41.3285 173.398 41.2221 173.501 41.0917 173.501H41.0906Z" fill="#1E1E1E"/>
<path d="M51.7375 89.6468C52.1058 89.6177 55.1713 94.8323 56.6117 97.3212C57.0212 98.0295 57.9348 98.2588 58.6333 97.8315L69.9014 90.9375C70.8215 90.3745 71.6112 89.621 72.2054 88.7232C73.1461 87.3022 73.7067 85.8575 74.9657 84.8478C75.99 84.0264 77.0274 83.1146 77.3381 82.8756C77.5326 82.726 78.4364 83.3633 77.7553 84.4957C77.5456 84.8434 76.7646 85.5486 76.5506 85.8683C76.2095 86.3785 76.2095 87.0589 76.5886 87.5412C76.9927 88.0557 77.3305 88.8814 76.8764 90.029C76.2051 91.7277 74.6832 92.1475 73.8218 92.2466C73.3895 92.2961 72.9908 92.5038 72.704 92.83L62.306 104.638C60.6929 106.47 57.9956 106.884 55.9056 105.619C52.5251 103.572 48.1723 99.4484 45.0362 94.2349L51.7364 89.6425L51.7375 89.6468Z" fill="white"/>
<path d="M58.5206 106.591C57.5821 106.591 56.6348 106.34 55.7821 105.824C52.7003 103.959 48.2052 99.967 44.8323 94.3595C44.7682 94.2529 44.7986 94.1141 44.9018 94.043L51.6021 89.4507C51.6368 89.427 51.677 89.413 51.7194 89.4097C51.9453 89.3947 52.2853 89.3699 56.8206 97.2026C56.9868 97.4889 57.2551 97.6913 57.5756 97.772C57.896 97.8528 58.2273 97.8022 58.5087 97.6299L69.7768 90.736C70.6686 90.1902 71.4399 89.4496 72.0069 88.5938C72.2785 88.1836 72.5218 87.7659 72.7554 87.3622C73.3398 86.3557 73.8916 85.4062 74.8172 84.6645C75.4092 84.1909 75.9936 83.6957 76.4629 83.2974C76.7953 83.0153 77.0582 82.7936 77.194 82.6891C77.3634 82.5589 77.6252 82.6084 77.8599 82.814C78.2194 83.1284 78.4617 83.7893 77.9631 84.6182C77.8371 84.8271 77.5524 85.1253 77.2765 85.4127C77.0614 85.6366 76.8398 85.8691 76.7518 86.0005C76.4575 86.4408 76.4694 87.0016 76.779 87.3967C77.2027 87.9371 77.6024 88.8467 77.1005 90.117C76.3825 91.9341 74.7553 92.3798 73.8504 92.4832C73.4767 92.5262 73.1345 92.7049 72.8847 92.987L62.4867 104.795C61.4514 105.971 59.9958 106.589 58.5196 106.589L58.5206 106.591ZM45.3581 94.3078C48.6723 99.7409 53.0327 103.606 56.0309 105.421C58.0231 106.627 60.5868 106.234 62.126 104.486L72.5251 92.678C72.8532 92.3066 73.304 92.0709 73.7961 92.0149C74.5945 91.9234 76.0284 91.5326 76.6563 89.9458C76.993 89.0933 76.9083 88.3332 76.4021 87.6895C75.9654 87.1329 75.9458 86.3503 76.3532 85.7399C76.464 85.5742 76.6899 85.3373 76.93 85.0876C77.1755 84.8303 77.4536 84.5396 77.5524 84.376C77.8436 83.8927 77.7882 83.56 77.6915 83.3663C77.6155 83.2134 77.5003 83.1284 77.4395 83.1014C77.3015 83.2112 77.0647 83.4115 76.7736 83.658C76.326 84.0369 75.7144 84.5547 75.1181 85.0327C74.2621 85.7184 73.732 86.6313 73.1704 87.598C72.9325 88.0081 72.6869 88.4312 72.4067 88.8532C71.8016 89.7671 70.9793 90.5573 70.0277 91.1386L58.7596 98.0325C58.3664 98.2726 57.9036 98.3436 57.4572 98.2317C57.0085 98.1187 56.6348 97.8377 56.4045 97.4383C53.5465 92.5025 52.1452 90.3549 51.7389 89.9318L45.3581 94.3057V94.3078Z" fill="#1E1E1E"/>
<path d="M13.0637 99.3438C13.0637 99.3438 12.3142 85.6163 22.786 81.7602C30.8952 78.774 41.2497 80.0626 44.4955 81.1778C52.4863 83.924 56.4187 94.3865 56.4187 94.3865L47.0548 95.6945C47.0548 95.6945 49.877 125.754 48.6528 132.458C48.6528 132.458 41.1172 133.334 37.9202 132.079C34.7244 130.824 24.2145 129.064 19.1904 131.367L20.1029 99.2147L13.0626 99.3438H13.0637Z" fill="#1E1E1E"/>
<path d="M26.1155 124.978C26.0015 124.978 25.9004 124.897 25.8798 124.782C25.857 124.653 25.9439 124.53 26.0731 124.507C38.0332 122.398 41.5256 114.14 41.5593 114.058C41.6093 113.936 41.7483 113.878 41.8711 113.926C41.9938 113.975 42.0525 114.114 42.0036 114.234C41.9688 114.32 38.3906 122.817 26.1568 124.973C26.1427 124.975 26.1285 124.977 26.1144 124.977L26.1155 124.978Z" fill="white"/>
<path d="M48.457 110.402H33.1153L37.921 93.3081H53.2627L48.457 110.402Z" fill="white"/>
<path d="M48.4575 110.639H33.1159C33.0409 110.639 32.9703 110.604 32.9258 110.545C32.8801 110.486 32.866 110.41 32.8856 110.338L37.6913 93.2436C37.7196 93.1414 37.8141 93.0703 37.9216 93.0703H53.2633C53.3383 93.0703 53.4089 93.1048 53.4534 93.164C53.499 93.2232 53.5131 93.2996 53.4936 93.3707L48.6878 110.466C48.6596 110.568 48.5651 110.639 48.4575 110.639ZM33.4309 110.165H48.2761L52.9483 93.545H38.103L33.4309 110.165Z" fill="#1E1E1E"/>
<path d="M14.8811 99.3568L21.628 99.0532C21.628 99.0532 21.6791 104.721 22.2874 104.822C24.4557 105.183 28.9974 105.201 31.9543 104.845C32.9841 104.721 33.7988 103.935 33.9922 102.919C34.1389 102.151 34.5549 101.25 35.6119 100.601C36.633 99.9747 35.626 101.947 36.5808 103.217C37.0936 103.9 38.7187 103.597 40.9336 103.085C43.1485 102.573 43.7112 104.934 41.2291 106.362C38.5372 107.909 36.8274 107.735 35.9692 107.916C34.2594 108.277 19.1426 110.641 16.8093 109.375C15.006 108.397 14.8811 99.3557 14.8811 99.3557V99.3568Z" fill="white"/>
<path d="M19.7407 109.985C18.321 109.985 17.2216 109.871 16.6937 109.585C14.822 108.57 14.6547 100.301 14.6417 99.361C14.6395 99.2329 14.7405 99.1263 14.8698 99.1209L21.6168 98.8174C21.6809 98.8109 21.7449 98.8378 21.7917 98.8819C21.8384 98.9261 21.8655 98.9874 21.8666 99.052C21.8883 101.459 22.085 104.227 22.3663 104.595C24.5671 104.952 29.0155 104.96 31.9246 104.61C32.8436 104.499 33.5801 103.803 33.7561 102.876C33.9559 101.828 34.5534 100.973 35.4843 100.401C35.6516 100.299 35.8982 100.175 36.1122 100.294C36.3653 100.435 36.3621 100.766 36.3588 101.222C36.3545 101.767 36.3479 102.513 36.7716 103.076C37.2029 103.65 38.8866 103.315 40.8789 102.855C42.0912 102.574 42.7668 103.084 42.995 103.653C43.3035 104.424 42.9189 105.664 41.3481 106.568C39.1875 107.81 37.6667 107.964 36.6608 108.066C36.4077 108.091 36.1883 108.113 36.0177 108.15C35.1628 108.33 25.1374 109.985 19.7407 109.985ZM15.124 99.5838C15.1783 102.215 15.5857 108.443 16.9229 109.168C19.1585 110.379 34.1765 108.053 35.9178 107.685C36.1133 107.644 36.3447 107.62 36.6119 107.593C37.5776 107.495 39.0365 107.348 41.1081 106.157C42.4344 105.395 42.7853 104.415 42.5507 103.827C42.354 103.334 41.7544 103.14 40.9875 103.316C38.677 103.85 36.9943 104.165 36.3881 103.359C35.8689 102.668 35.8765 101.795 35.8808 101.218C35.8819 101.054 35.8841 100.842 35.8645 100.735C35.8363 100.746 35.7939 100.767 35.7364 100.802C34.9108 101.309 34.4024 102.036 34.2264 102.962C34.0113 104.092 33.1097 104.944 31.9821 105.079C29.0198 105.436 24.4704 105.425 22.2479 105.055C22.0513 105.022 21.4582 104.923 21.3919 99.3007L15.1251 99.5828L15.124 99.5838Z" fill="#1E1E1E"/>
<path d="M38.1133 81.4234C38.1133 81.4234 36.3665 80.3577 36.3839 79.7354L35.8853 76.5382C35.8799 76.2454 36.0624 75.9827 36.3372 75.8869L38.4033 75.184C38.6662 75.0914 38.8367 74.8341 38.8183 74.5542L38.6575 72.0137L39.4668 71.3032C39.5298 71.2472 39.5385 71.1514 39.4842 71.0868L38.2056 69.542C37.7874 68.9586 37.3681 67.5623 37.0248 67.6571C37.0248 67.6571 29.7369 66.8228 29.3817 70.4646C29.3306 70.9921 29.4903 71.5185 29.7988 71.9491L30.4441 72.8512C31.0926 73.7565 31.4337 74.8664 31.3185 75.9763C31.2946 76.2067 30.9916 77.6912 30.7895 78.6729C30.6744 79.2306 30.3626 79.7257 29.9096 80.0713C29.3404 80.5062 28.6473 81.0595 28.7603 81.0951C28.7603 81.0951 29.5674 81.6828 30.8417 82.2028C33.1044 83.1275 35.6778 82.8971 37.7678 81.6322L38.1144 81.4223L38.1133 81.4234Z" fill="white"/>
<path d="M33.7159 83.0002C32.7056 83.0002 31.6975 82.8096 30.7503 82.4221C29.4641 81.8968 28.6527 81.3111 28.619 81.2864C28.5658 81.2476 28.5234 81.1863 28.5125 81.1238C28.4843 80.9624 28.468 80.873 29.7639 79.8837C30.1713 79.5726 30.4526 79.1259 30.5558 78.6253C30.9904 76.5229 31.0718 76.0481 31.0816 75.9523C31.187 74.9372 30.8915 73.8844 30.2506 72.9887L29.6053 72.0866C29.2534 71.5946 29.0893 71.0112 29.1458 70.4417C29.2186 69.6957 29.5641 69.0713 30.1724 68.5837C32.2016 66.9581 36.5326 67.3661 37.016 67.4178C37.3908 67.364 37.6417 67.8925 37.9524 68.5546C38.1012 68.8732 38.2566 69.2016 38.4021 69.405L39.6709 70.9358C39.8067 71.1005 39.7882 71.3395 39.6275 71.4805L38.9051 72.1146L39.0593 74.5399C39.0832 74.9243 38.8475 75.2806 38.4847 75.4076L36.4175 76.1106C36.2458 76.1709 36.1296 76.3345 36.1274 76.5196L36.6228 79.6985C36.6249 79.7125 36.626 79.7265 36.626 79.7416C36.6184 80.0323 37.4549 80.7406 38.2424 81.2207C38.313 81.2638 38.3565 81.3402 38.3565 81.4231C38.3565 81.506 38.313 81.5824 38.2413 81.6255L37.8948 81.8343C36.6184 82.6062 35.1671 82.9991 33.7191 82.9991L33.7159 83.0002ZM29.0959 81.0345C29.4033 81.2336 30.0572 81.6266 30.9317 81.9829C33.0978 82.8678 35.606 82.6611 37.6428 81.4296L37.6634 81.4166C37.0855 81.0313 36.1557 80.324 36.1448 79.7524L35.6495 76.5735C35.6473 76.5627 35.6473 76.5519 35.6462 76.5412C35.6397 76.1461 35.8852 75.7919 36.2578 75.6617L38.325 74.9576C38.4847 74.9017 38.59 74.7413 38.5792 74.5669L38.4184 72.0263C38.4141 71.9531 38.4434 71.8821 38.4988 71.8336L39.2505 71.1748L38.0208 69.6903C37.8394 69.4384 37.6754 69.0896 37.5179 68.7516C37.3832 68.4642 37.1605 67.9905 37.0388 67.8915C37.0258 67.8915 37.0117 67.8915 36.9986 67.8904C36.953 67.885 32.4221 67.3887 30.4722 68.9507C29.9606 69.3609 29.6814 69.8625 29.6205 70.4858C29.576 70.9412 29.7096 71.4116 29.9942 71.8099L30.6395 72.712C31.3477 73.7014 31.6736 74.8683 31.5563 75.9986C31.5368 76.1838 31.3575 77.0988 31.0229 78.7179C30.8969 79.3293 30.5526 79.8762 30.0551 80.2562C29.5054 80.676 29.2317 80.9075 29.0959 81.0323V81.0345Z" fill="#1E1E1E"/>
<path d="M37.267 62.1155C35.6061 62.0305 37.7059 63.727 31.5542 61.9745C29.1046 61.2769 30.3626 64.1253 29.7271 63.9456C27.3785 63.2835 27.4589 63.3029 26.3172 63.6118C25.5612 63.8164 25.0789 65.218 25.2298 66.2611C25.4286 67.639 26.9875 69.8254 28.3844 72.1378C29.1079 73.3348 30.3876 73.4436 31.9366 71.6619C32.1017 71.4725 31.2588 70.3551 31.6987 69.8739C32.8415 68.6219 33.3488 70.5133 34.2721 69.9288C35.1575 69.3679 35.5235 69.0062 36.4599 68.1579C37.5929 67.132 39.4939 68.7285 40.15 66.4204C40.4922 65.2169 39.5417 62.2296 37.2681 62.1144L37.267 62.1155Z" fill="#1E1E1E"/>
<path d="M34.8417 73.8243C33.7032 73.8243 32.6376 73.2323 32.1205 72.2462L31.5502 71.1589C31.4894 71.0427 31.535 70.8995 31.6523 70.8392C31.7696 70.7789 31.9141 70.8241 31.975 70.9404L32.5453 72.0277C33.0873 73.0611 34.355 73.5778 35.5608 73.257L36.5939 72.9502C36.721 72.9125 36.8535 72.9836 36.8915 73.1095C36.9295 73.2355 36.8578 73.3668 36.7307 73.4045L35.6912 73.7124C35.4087 73.7877 35.1219 73.8243 34.8417 73.8243Z" fill="#1E1E1E"/>
<path d="M31.2048 68.4815C31.0896 68.4815 30.9875 68.3986 30.9691 68.2824C30.9517 68.1725 30.5519 65.5857 32.0141 63.9182C32.8168 63.0032 34.0204 62.5489 35.5804 62.5812C35.7129 62.5834 35.8172 62.6921 35.815 62.8223C35.8128 62.9515 35.7064 63.0549 35.576 63.0549H35.5717C34.1519 63.0258 33.0819 63.423 32.3769 64.2272C31.0625 65.7257 31.4383 68.1822 31.4416 68.207C31.4622 68.3362 31.3732 68.4578 31.2428 68.4783C31.2298 68.4804 31.2178 68.4815 31.2048 68.4815Z" fill="white"/>
<path d="M34.5773 69.9566C34.725 68.8822 33.9755 67.9102 32.9033 67.7864C32.786 67.7724 32.3493 67.7627 32.2352 67.7691C31.3043 67.8262 30.8252 68.5485 30.6927 69.5055C30.5504 70.5368 30.9784 71.5003 31.9832 71.6844C32.0245 71.6919 32.3221 71.7134 32.3656 71.7134C33.5409 71.7167 34.4295 71.0309 34.5784 69.9566H34.5773Z" fill="white"/>
<path d="M32.3744 71.9502H32.3647C32.3136 71.9502 32.0007 71.9276 31.9399 71.9168C30.8775 71.7231 30.2811 70.7413 30.456 69.4732C30.6179 68.2987 31.261 67.5915 32.2202 67.5323C32.3527 67.5247 32.8046 67.5355 32.9306 67.5506C33.5096 67.6173 34.0234 67.9058 34.3797 68.3601C34.7415 68.823 34.8957 69.4011 34.8142 69.9888C34.6524 71.1633 33.6715 71.9502 32.3733 71.9502H32.3744ZM32.3549 68.0038C32.3093 68.0038 32.2734 68.0038 32.2506 68.0059C31.3262 68.063 31.022 68.8703 30.9307 69.5378C30.8156 70.3699 31.11 71.2839 32.0279 71.4507C32.0681 71.4561 32.3266 71.4755 32.369 71.4766H32.3777C33.4412 71.4766 34.2124 70.8683 34.3428 69.9242C34.4058 69.4635 34.2863 69.0114 34.0039 68.6497C33.7279 68.2966 33.3271 68.0727 32.8774 68.021C32.7992 68.0124 32.5222 68.0038 32.356 68.0038H32.3549Z" fill="#1E1E1E"/>
<path d="M33.4136 69.921C33.5385 68.8445 32.7683 67.8865 31.6929 67.781C30.6174 67.6755 29.6441 68.4635 29.5192 69.54C29.3943 70.6165 30.1645 71.5745 31.2399 71.68C32.3153 71.7855 33.2886 70.9975 33.4136 69.921Z" fill="white"/>
<path d="M31.4315 71.9265C31.3598 71.9265 31.2881 71.9233 31.2154 71.9158C30.6353 71.8587 30.115 71.581 29.75 71.1321C29.3795 70.6767 29.2122 70.1019 29.2807 69.513C29.4208 68.3095 30.5125 67.4246 31.7151 67.5452C32.2951 67.6022 32.8155 67.88 33.1805 68.3289C33.552 68.7842 33.7182 69.3602 33.6497 69.9479C33.5183 71.0783 32.5461 71.9265 31.4305 71.9265H31.4315ZM31.5 68.0081C30.6244 68.0081 29.8597 68.6766 29.7565 69.5668C29.7033 70.0287 29.8325 70.4786 30.1226 70.8339C30.4072 71.1827 30.8113 71.3991 31.2632 71.4432C32.2071 71.5368 33.0653 70.8404 33.175 69.893C33.2283 69.4312 33.0979 68.9812 32.809 68.6249C32.5243 68.2761 32.1202 68.0597 31.6684 68.0156C31.6119 68.0102 31.5554 68.007 31.5 68.007V68.0081Z" fill="#1E1E1E"/>
<path d="M36.3277 74.3584C36.9601 74.3584 37.4727 73.8475 37.4727 73.2173C37.4727 72.5871 36.9601 72.0762 36.3277 72.0762C35.6954 72.0762 35.1828 72.5871 35.1828 73.2173C35.1828 73.8475 35.6954 74.3584 36.3277 74.3584Z" fill="#1E1E1E"/>
</g>
<defs>
<clipPath id="clip0_0_5732">
<rect width="195" height="197" fill="white"/>
</clipPath>
</defs>
</svg>
