<svg width="194" height="193" viewBox="0 0 194 193" fill="none" xmlns="http://www.w3.org/2000/svg">
<g clip-path="url(#clip0_0_5865)">
<path d="M90.6861 103.565C99.7662 77.2539 97.4002 66.2719 92.9406 61.2233C91.6097 59.7162 88.542 56.9615 86.4053 51.9298C83.6353 45.4037 85.125 41.3918 84.4485 35.8433C83.125 24.991 74.3604 15.2176 65.1687 10.9136C58.7481 7.90681 46.6275 4.9981 39.8408 11.3281C36.9708 14.0048 34.2818 19.0534 35.9177 22.404C38.2575 27.1984 47.7027 23.6927 52.8609 29.9763C55.046 32.6382 54.3348 34.4491 55.3216 36.8178C55.6867 37.6953 56.0928 38.2162 56.705 39.0357C58.3347 41.2167 59.7886 43.5274 61.4435 45.6895C66.2334 51.9467 62.0463 61.565 67.5727 66.448C71.6609 70.0602 77.3241 67.7758 78.6149 71.0368C79.6333 73.6112 76.0374 75.1815 76.1931 79.2567C76.3825 84.2061 81.0578 85.901 85.8319 92.8922C88.5094 96.8123 89.8023 100.626 90.6861 103.564V103.565Z" fill="white"/>
<path d="M90.6854 103.8H90.6812C90.5802 103.798 90.4907 103.731 90.4613 103.634C89.5186 100.5 88.2078 96.7891 85.6387 93.0261C83.7545 90.2672 81.9176 88.3709 80.2975 86.6993C77.8462 84.1692 76.0756 82.3415 75.9578 79.2672C75.8768 77.1463 76.7605 75.7089 77.5401 74.4412C78.2776 73.2421 78.8593 72.295 78.3964 71.1243C77.7999 69.6162 76.164 69.3905 74.0925 69.1047C71.9443 68.8083 69.5088 68.4719 67.4173 66.6242C64.4632 64.0139 64.2223 60.175 63.9666 56.1104C63.7404 52.5014 63.5058 48.7701 61.2565 45.8329C60.3686 44.6728 59.5259 43.4526 58.7106 42.2724C58.0036 41.2484 57.2725 40.1895 56.516 39.177L56.4224 39.0515C55.8648 38.3059 55.4619 37.768 55.1042 36.9095C54.7307 36.0131 54.594 35.1926 54.4614 34.3984C54.2342 33.0422 54.0206 31.7608 52.6792 30.1261C50.0197 26.8851 46.1681 26.3009 42.7711 25.7841C39.6034 25.3032 36.8691 24.8866 35.7077 22.5073C33.9392 18.8836 36.967 13.6884 39.6812 11.1562C46.6878 4.62053 59.0609 7.79501 65.268 10.7006C73.6202 14.6112 83.2569 24.1388 84.6814 35.8148C84.9117 37.7026 84.8928 39.4259 84.8749 41.0923C84.8392 44.4176 84.8055 47.5583 86.6213 51.838C88.4108 56.0524 90.8947 58.6922 92.3792 60.2699C92.6632 60.5715 92.9083 60.832 93.1166 61.0683C95.7636 64.0656 97.1123 68.5584 97.1249 74.4212C97.1407 81.8121 95.0482 91.6435 90.9073 103.642C90.8747 103.737 90.7853 103.8 90.6864 103.8H90.6854ZM50.8592 7.7813C46.8583 7.7813 42.9363 8.76107 40 11.5C36.9785 14.319 34.6377 19.2495 36.1274 22.3017C37.1816 24.4605 39.8043 24.8592 42.8405 25.32C46.3217 25.8495 50.2669 26.4485 53.0401 29.8276C54.4603 31.5583 54.696 32.9631 54.9222 34.3204C55.0505 35.0871 55.1831 35.8813 55.5355 36.7281C55.8711 37.5328 56.2394 38.0254 56.7959 38.7699L56.8895 38.8954C57.6512 39.9153 58.3845 40.9773 59.0946 42.0056C59.9068 43.1815 60.7453 44.3965 61.6269 45.5481C63.9624 48.5992 64.2012 52.4033 64.4327 56.0819C64.682 60.0463 64.9166 63.7914 67.7256 66.273C69.7108 68.0268 72.0716 68.3527 74.1546 68.6406C76.2892 68.9349 78.1324 69.1891 78.8299 70.9514C79.3791 72.3403 78.711 73.4277 77.9367 74.6869C77.1919 75.8976 76.3481 77.2708 76.4239 79.2493C76.5343 82.1432 78.2523 83.9172 80.631 86.3724C82.2638 88.0588 84.1154 89.9687 86.0227 92.7614C88.4414 96.3029 89.7575 99.7906 90.6959 102.807C94.6642 91.1668 96.6683 81.6191 96.6536 74.4212C96.642 68.6765 95.3322 64.2881 92.7631 61.3783C92.5601 61.1474 92.3171 60.8901 92.0351 60.5905C90.5297 58.9906 88.01 56.3118 86.1879 52.0205C84.3331 47.6511 84.3678 44.4619 84.4036 41.0859C84.4215 39.4344 84.4404 37.7269 84.2132 35.8707C82.8108 24.3719 73.3056 14.9824 65.067 11.1245C61.5921 9.49721 56.1541 7.7792 50.8571 7.7792L50.8592 7.7813Z" fill="#1E1E1E"/>
<path d="M90.7604 101.176C90.632 101.176 90.5279 101.073 90.5268 100.944C90.329 79.1492 84.9741 56.43 76.2022 40.1716C64.616 18.698 49.6528 13.4342 49.5024 13.3836C49.3803 13.3425 49.314 13.2096 49.3551 13.0862C49.3961 12.9628 49.5287 12.8974 49.6518 12.9386C49.6896 12.9512 53.5149 14.2706 58.7225 18.2476C63.5187 21.9104 70.5169 28.6485 76.6135 39.948C80.5818 47.3042 84.001 56.4015 86.4985 66.2582C89.3759 77.6115 90.8887 89.2811 90.9939 100.94C90.995 101.07 90.8908 101.175 90.7625 101.176H90.7604Z" fill="#1E1E1E"/>
<path d="M73.5496 122.507C87.5796 96.981 86.8905 86.9439 83.0748 82.6948C78.9276 78.0754 72.2966 81.6465 65.7676 75.655C57.0683 67.6724 61.1639 54.2879 54.1394 51.5574C49.7103 49.8352 46.8172 54.6655 41.457 52.6996C36.3977 50.8445 36.8775 45.8602 31.7309 40.7357C26.4727 35.5005 16.2069 31.4295 8.62587 35.5595C2.01694 39.1601 -0.0461224 47.631 0.26423 53.4273C0.723973 61.9931 6.59543 68.996 12.7436 72.2295C21.5818 76.8773 30.5305 73.4941 31.713 76.8594C32.8134 79.9938 25.1009 83.0607 25.4996 88.9288C25.7784 93.0261 29.9129 97.0316 34.1379 98.0683C39.9936 99.5037 43.3949 94.5912 46.8887 96.4642C50.553 98.428 48.5109 104.74 51.1305 110.465C53.2904 115.186 58.9314 120.187 73.5506 122.507H73.5496Z" fill="white"/>
<path d="M73.551 122.742C73.5384 122.742 73.5268 122.742 73.5142 122.738C61.3326 120.805 53.7305 116.709 50.9184 110.563C49.7643 108.039 49.5034 105.413 49.273 103.096C48.9753 100.094 48.7396 97.7234 46.7786 96.6719C45.1921 95.8218 43.5773 96.4747 41.7078 97.2319C39.5911 98.0883 37.1914 99.0596 34.0826 98.2971C29.4957 97.1718 25.541 92.9775 25.2664 88.9456C25.0413 85.6329 27.339 83.1661 29.1864 81.1834C30.6655 79.5951 31.9438 78.223 31.4924 76.9374C30.9917 75.5104 28.7887 75.4166 25.7409 75.2879C22.2124 75.1381 17.3803 74.9325 12.6356 72.4372C9.40057 70.7361 6.39803 68.0815 4.18033 64.964C1.68278 61.451 0.247788 57.4655 0.0310669 53.4399C-0.318212 46.9275 2.16987 38.8088 8.5158 35.3527C15.8559 31.3546 26.168 34.8655 31.8975 40.569C34.1625 42.8238 35.3408 45.0365 36.3813 46.9886C37.7132 49.4881 38.7652 51.4624 41.5384 52.4791C44.2453 53.4715 46.3063 52.6774 48.3009 51.9096C50.2114 51.1735 52.0167 50.4795 54.226 51.338C57.7777 52.7185 58.572 56.6808 59.4926 61.2696C60.4499 66.0418 61.5346 71.4511 65.9279 75.482C69.325 78.5995 72.7957 79.0941 75.8582 79.5297C78.625 79.9241 81.2383 80.2964 83.2509 82.5375C85.5422 85.0898 86.2103 89.1691 85.2361 94.6628C84.0083 101.588 80.1463 110.994 73.7562 122.619C73.7141 122.695 73.6352 122.741 73.551 122.741V122.742ZM45.1658 95.7955C45.7781 95.7955 46.3852 95.9284 46.9996 96.2585C49.1815 97.4281 49.4392 100.033 49.7391 103.049C49.9653 105.329 50.222 107.914 51.3434 110.368C54.0735 116.336 61.502 120.333 73.4248 122.249C84.7143 101.675 87.903 88.4203 82.9026 82.8518C81.0037 80.7373 78.5882 80.3934 75.7919 79.9948C72.662 79.5487 69.1156 79.0435 65.6113 75.8279C61.1064 71.6937 60.0049 66.2043 59.0339 61.3624C58.1407 56.9097 57.3695 53.0634 54.0567 51.7757C52.0157 50.9815 50.2935 51.6459 48.4693 52.3473C46.3946 53.1456 44.2495 53.9725 41.3785 52.9199C38.437 51.841 37.2934 49.6948 35.9689 47.2101C34.9442 45.2864 33.7827 43.1075 31.5682 40.9023C25.9608 35.319 15.8885 31.8713 8.73988 35.7651C2.5728 39.1231 0.157312 47.0498 0.499226 53.4146C0.992635 62.6121 7.4627 69.1868 12.8534 72.0217C17.5055 74.4684 22.2776 74.6709 25.7609 74.8186C28.9928 74.9557 31.3283 75.0548 31.9343 76.7813C32.4792 78.3348 31.1126 79.8028 29.5293 81.5029C27.6514 83.5194 25.5231 85.8038 25.7346 88.9129C25.9913 92.6906 29.866 96.7784 34.1951 97.8404C37.1566 98.5671 39.4817 97.6253 41.5331 96.7963C42.8282 96.2722 44.0075 95.7955 45.1658 95.7955Z" fill="#1E1E1E"/>
<path d="M164.378 186.779H75.9742C72.1648 186.779 69.4663 183.703 69.9471 179.907L91.7149 8.053C92.1957 4.25839 95.6737 1.18094 99.4832 1.18094L183.449 0.201172C193.087 0.201172 194.394 4.25839 193.914 8.053L172.146 179.908C171.665 183.703 168.187 186.78 164.377 186.78L164.378 186.779Z" fill="#1E1E1E"/>
<path d="M159.058 186.78H70.6537C66.8443 186.78 64.1458 183.688 64.6266 179.873L86.3944 7.14124C86.8752 3.32659 90.3532 0.234375 94.1627 0.234375H182.567C186.376 0.234375 189.075 3.32659 188.594 7.14124L166.826 179.874C166.346 183.689 162.867 186.781 159.058 186.781V186.78Z" fill="white"/>
<path d="M159.058 187.015H70.6533C68.7512 187.015 67.0522 186.275 65.8697 184.929C64.6756 183.571 64.1517 181.765 64.3937 179.844L86.1625 7.11147C86.6559 3.1903 90.2455 0 94.1623 0H182.567C184.469 0 186.168 0.740361 187.35 2.08609C188.544 3.44342 189.068 5.24897 188.826 7.17053L167.058 179.903C166.564 183.825 162.975 187.015 159.058 187.015ZM94.1623 0.469317C90.4728 0.469317 87.0915 3.47505 86.6265 7.17053L64.8587 179.903C64.6335 181.689 65.1175 183.364 66.2211 184.62C67.3141 185.862 68.888 186.547 70.6533 186.547H159.058C162.747 186.547 166.128 183.54 166.593 179.845L188.362 7.11147C188.587 5.32596 188.103 3.65118 187 2.39615C185.907 1.15378 184.333 0.469317 182.568 0.469317H94.1633H94.1623Z" fill="#1E1E1E"/>
<path d="M69.6651 180.124L90.4493 16.5167C90.5598 15.6434 91.3635 14.9347 92.243 14.9347H181.123C181.563 14.9347 182.746 14.7744 182.746 14.7744C182.746 14.7744 182.569 16.0801 182.514 16.5167L161.729 180.125C161.619 180.998 160.815 181.707 159.936 181.707H71.0559C70.1764 181.707 69.5536 180.999 69.6641 180.125L69.6651 180.124Z" fill="white"/>
<path d="M73.9729 179.347L93.6198 15.4967C93.725 14.6224 94.4836 13.9126 95.3147 13.9126H179.33C179.33 13.9126 179.338 13.9126 179.342 13.9126C180.134 13.9063 180.756 14.5876 180.66 15.3744C180.654 15.4197 180.649 15.4609 180.645 15.4967L160.998 179.347C160.893 180.222 160.134 180.931 159.303 180.931H75.288C74.4569 180.931 73.8677 180.223 73.9729 179.347Z" fill="white"/>
<path d="M159.303 181.166H75.2876C74.8331 181.166 74.4228 180.985 74.1303 180.654C73.8221 180.306 73.6801 179.82 73.74 179.32L93.3869 15.4697C93.5058 14.4826 94.3696 13.6789 95.3143 13.6789H179.329C179.789 13.6715 180.219 13.8656 180.516 14.1999C180.809 14.529 180.945 14.9677 180.892 15.4043L180.877 15.5245L161.23 179.375C161.111 180.362 160.247 181.166 159.303 181.166ZM95.3143 14.1482C94.5989 14.1482 93.9424 14.7663 93.8509 15.5256L74.204 179.376C74.1598 179.749 74.2576 180.092 74.4796 180.343C74.6816 180.572 74.9678 180.698 75.2865 180.698H159.302C160.017 180.698 160.674 180.08 160.765 179.32L180.427 15.3474C180.465 15.0405 180.372 14.7441 180.167 14.5131C179.96 14.279 179.653 14.1493 179.343 14.1493H95.3132L95.3143 14.1482Z" fill="#1E1E1E"/>
<path d="M151.59 82.2031H106.665L111.152 102.095C111.477 103.534 112.855 104.554 114.476 104.554H142.571C144.192 104.554 145.625 103.534 146.028 102.095L151.59 82.2031Z" fill="white"/>
<path d="M142.571 104.788H114.475C112.735 104.788 111.274 103.702 110.924 102.145L106.437 82.2537C106.421 82.1841 106.437 82.1113 106.482 82.0554C106.526 81.9995 106.593 81.9668 106.665 81.9668H151.589C151.663 81.9668 151.731 82.0016 151.775 82.0596C151.82 82.1187 151.834 82.1935 151.814 82.2642L146.253 102.156C145.82 103.705 144.306 104.787 142.571 104.787V104.788ZM106.957 82.4372L111.38 102.042C111.682 103.382 112.955 104.319 114.475 104.319H142.571C144.097 104.319 145.425 103.378 145.802 102.03L151.28 82.4372H106.957Z" fill="#1E1E1E"/>
<path d="M151.784 80.8373H106.544C105.606 80.8373 104.865 80.0748 104.89 79.133C104.916 78.1923 105.697 77.4287 106.636 77.4287H151.876C152.814 77.4287 153.555 78.1912 153.529 79.133C153.504 80.0738 152.723 80.8373 151.784 80.8373Z" fill="white"/>
<path d="M151.784 81.0717H106.544C106.027 81.0717 105.545 80.8692 105.188 80.5022C104.832 80.1341 104.642 79.6458 104.657 79.1269C104.685 78.0617 105.573 77.1948 106.637 77.1948H151.877C152.395 77.1948 152.876 77.3973 153.233 77.7643C153.59 78.1324 153.779 78.6207 153.764 79.1396C153.736 80.2048 152.848 81.0717 151.784 81.0717ZM106.637 77.6631C105.825 77.6631 105.147 78.3254 105.125 79.1385C105.115 79.5298 105.257 79.8979 105.525 80.1742C105.793 80.4505 106.155 80.6024 106.545 80.6024H151.785C152.598 80.6024 153.275 79.9401 153.297 79.1269C153.308 78.7357 153.166 78.3676 152.897 78.0913C152.629 77.815 152.267 77.6631 151.877 77.6631H106.637Z" fill="#1E1E1E"/>
<path d="M120.454 101.388H119.145C118.401 101.388 117.779 100.929 117.633 100.271L114.731 87.239C114.644 86.8467 114.744 86.4333 115.007 86.1042C115.312 85.7224 115.801 85.4946 116.317 85.4946H120.925C121.372 85.4946 121.796 85.6676 122.087 85.9682C122.343 86.2329 122.478 86.5756 122.468 86.9321L122.071 99.9644C122.047 100.749 121.323 101.387 120.456 101.387L120.454 101.388ZM116.316 85.9639C115.941 85.9639 115.589 86.1264 115.372 86.3974C115.196 86.6178 115.131 86.8794 115.188 87.1357L118.089 100.168C118.186 100.602 118.63 100.918 119.145 100.918H120.454C121.071 100.918 121.585 100.483 121.602 99.9496L121.999 86.9173C122.006 86.6885 121.918 86.467 121.75 86.294C121.546 86.0831 121.245 85.9629 120.925 85.9629H116.317L116.316 85.9639Z" fill="#1E1E1E"/>
<path d="M138.539 101.388H137.225C136.776 101.388 136.351 101.215 136.058 100.912C135.803 100.648 135.668 100.306 135.678 99.9506L136.076 86.9183C136.1 86.1337 136.826 85.4956 137.696 85.4956H142.319C142.834 85.4956 143.312 85.7224 143.599 86.1031C143.85 86.4363 143.93 86.855 143.816 87.2526L140.109 100.285C139.923 100.935 139.279 101.388 138.539 101.388ZM137.696 85.9639C137.078 85.9639 136.56 86.3984 136.544 86.932L136.147 99.9643C136.139 100.192 136.228 100.413 136.395 100.585C136.6 100.796 136.902 100.918 137.226 100.918H138.54C139.063 100.918 139.534 100.597 139.66 100.154L143.368 87.1219C143.441 86.8635 143.391 86.6019 143.228 86.3836C143.029 86.12 142.69 85.9618 142.321 85.9618H137.698L137.696 85.9639Z" fill="#1E1E1E"/>
<path d="M130.788 101.389H127.255C126.973 101.389 126.702 101.269 126.491 101.054C126.225 100.781 126.077 100.38 126.086 99.9532L126.37 86.9209C126.387 86.1352 126.935 85.4961 127.592 85.4961H131.125C131.407 85.4961 131.678 85.6153 131.888 85.8304C132.155 86.1036 132.303 86.5054 132.293 86.9315L132.009 99.9637C131.993 100.749 131.444 101.389 130.788 101.389ZM127.591 85.9644C127.187 85.9644 126.849 86.3978 126.838 86.9304L126.553 99.9627C126.547 100.263 126.646 100.542 126.825 100.725C126.911 100.814 127.055 100.919 127.254 100.919H130.787C131.191 100.919 131.529 100.486 131.54 99.9532L131.824 86.9209C131.831 86.6203 131.732 86.3419 131.553 86.1584C131.467 86.0698 131.322 85.9644 131.124 85.9644H127.591Z" fill="#1E1E1E"/>
<path d="M112.439 80.5541C113.424 79.5802 113.455 78.0115 112.509 77.0503C111.564 76.0891 109.998 76.0995 109.014 77.0734C108.029 78.0474 107.997 79.6161 108.943 80.5773C109.889 81.5385 111.454 81.5281 112.439 80.5541Z" fill="#1E1E1E"/>
<path d="M110.7 79.8083C110.457 79.8083 110.216 79.7186 110.03 79.5394C109.643 79.1639 109.641 78.5364 110.026 78.1388L127.307 60.2488C127.692 59.8502 128.318 59.8312 128.705 60.2067C129.092 60.5821 129.094 61.2096 128.709 61.6072L111.428 79.4972C111.228 79.7039 110.963 79.8093 110.699 79.8093L110.7 79.8083Z" fill="white"/>
<path d="M110.7 80.0425C110.387 80.0425 110.091 79.9233 109.867 79.7071C109.639 79.4857 109.509 79.1861 109.504 78.8645C109.499 78.5323 109.624 78.2159 109.858 77.9743L127.138 60.0844C127.612 59.594 128.388 59.5729 128.868 60.0359C129.096 60.2574 129.226 60.5569 129.231 60.8796C129.236 61.2118 129.111 61.5282 128.877 61.7697L111.597 79.6597C111.361 79.9033 111.035 80.0425 110.7 80.0425ZM128.036 60.1709C127.834 60.1709 127.63 60.251 127.475 60.4113L110.194 78.3013C110.048 78.4532 109.969 78.6504 109.973 78.8571C109.976 79.0543 110.054 79.2357 110.193 79.3707C110.478 79.646 110.976 79.6291 111.261 79.3338L128.542 61.4438C128.688 61.292 128.767 61.0948 128.763 60.888C128.76 60.6908 128.682 60.5094 128.543 60.3744C128.403 60.2384 128.22 60.1709 128.035 60.1709H128.036Z" fill="#1E1E1E"/>
<path d="M149.422 80.5541C150.407 79.5802 150.439 78.0115 149.493 77.0503C148.547 76.0891 146.982 76.0995 145.997 77.0734C145.012 78.0474 144.981 79.6161 145.926 80.5773C146.872 81.5385 148.437 81.5281 149.422 80.5541Z" fill="#1E1E1E"/>
<path d="M147.685 79.8083C147.928 79.8083 148.174 79.7186 148.37 79.5394C148.778 79.1639 148.814 78.5364 148.45 78.1388L132.134 60.2488C131.772 59.8502 131.146 59.8312 130.738 60.2067C130.33 60.5821 130.294 61.2096 130.658 61.6072L146.974 79.4972C147.163 79.7039 147.422 79.8093 147.685 79.8093V79.8083Z" fill="white"/>
<path d="M147.684 80.0425C147.348 80.0425 147.025 79.9011 146.8 79.6544L130.484 61.7644C130.034 61.2708 130.077 60.4946 130.579 60.0327C130.826 59.8049 131.144 59.6868 131.477 59.7026C131.797 59.7163 132.092 59.8544 132.307 60.0896L148.622 77.9796C149.072 78.4731 149.029 79.2494 148.527 79.7113C148.296 79.9254 147.996 80.0425 147.684 80.0425ZM131.422 60.1708C131.228 60.1708 131.042 60.2436 130.896 60.3786C130.583 60.6665 130.554 61.1464 130.831 61.4491L147.146 79.339C147.413 79.6322 147.909 79.6449 148.211 79.3664C148.524 79.0785 148.553 78.5986 148.277 78.296L131.962 60.406C131.831 60.2636 131.652 60.1803 131.456 60.1708C131.444 60.1708 131.432 60.1708 131.422 60.1708Z" fill="#1E1E1E"/>
<path d="M127.949 117.634C119.231 117.634 111.126 114.231 105.127 108.051C99.1255 101.869 95.9494 93.6492 96.1851 84.9051C96.6722 66.8654 111.709 52.189 129.704 52.189C138.423 52.189 146.527 55.5923 152.526 61.7715C158.528 67.9538 161.704 76.1737 161.469 84.9178C160.981 102.957 145.945 117.634 127.949 117.634ZM129.704 52.6583C111.96 52.6583 97.134 67.1301 96.6532 84.9178C96.4207 93.5342 99.5495 101.634 105.463 107.724C111.373 113.812 119.359 117.165 127.949 117.165C145.693 117.165 160.52 102.693 161 84.9051C161.233 76.2887 158.104 68.19 152.191 62.0984C146.28 56.011 138.294 52.6583 129.703 52.6583H129.704Z" fill="#1E1E1E"/>
<path d="M137.258 9.0193C135.83 9.0193 134.82 7.8613 135 6.43226C135.18 5.00322 136.484 3.84521 137.91 3.84521C139.337 3.84521 140.348 5.00322 140.168 6.43226C139.988 7.8613 138.685 9.0193 137.258 9.0193Z" fill="white"/>
<path d="M151.485 34.7054L152.765 34.8467C156.631 35.2738 159.804 32.8292 159.853 29.3868L159.943 22.9682L144.641 22.8564L144.573 27.7015C144.524 31.1438 147.618 34.2804 151.485 34.7064V34.7054Z" fill="white"/>
<path d="M153.625 35.1291C153.332 35.1291 153.037 35.1133 152.739 35.0806L151.459 34.9393C147.482 34.5005 144.288 31.2522 144.338 27.697L144.407 22.853C144.409 22.7244 144.513 22.6221 144.64 22.6221H144.643L159.944 22.7339C160.007 22.7339 160.067 22.7602 160.11 22.8045C160.153 22.8488 160.177 22.9089 160.176 22.9722L160.085 29.3908C160.063 30.978 159.392 32.4355 158.197 33.4944C157.001 34.5543 155.369 35.1302 153.624 35.1302L153.625 35.1291ZM144.871 23.0924L144.806 27.7033C144.758 31.0223 147.766 34.0597 151.509 34.4721L152.79 34.6134C154.732 34.8275 156.588 34.2907 157.888 33.1411C158.983 32.1708 159.597 30.8367 159.617 29.3834L159.705 23.2011L144.871 23.0924Z" fill="#1E1E1E"/>
<path d="M136.285 34.8065L137.566 34.9478C141.432 35.375 144.605 32.9303 144.653 29.4879L144.744 23.0694L129.415 22.7129L129.374 27.8016C129.325 31.2439 132.419 34.3804 136.285 34.8065Z" fill="#1E1E1E"/>
<path d="M138.426 35.2304C138.133 35.2304 137.838 35.2146 137.54 35.1819L136.259 35.0406C132.283 34.6019 129.089 31.3525 129.139 27.7983L129.18 22.7107C129.18 22.6475 129.207 22.5884 129.252 22.5441C129.297 22.4998 129.356 22.4756 129.42 22.4777L144.749 22.8341C144.878 22.8373 144.98 22.9438 144.978 23.0714L144.887 29.49C144.865 31.0772 144.194 32.5348 142.999 33.5926C141.802 34.6525 140.17 35.2294 138.426 35.2294V35.2304ZM136.311 34.5734L137.591 34.7147C139.532 34.9277 141.39 34.392 142.69 33.2424C143.785 32.2732 144.399 30.938 144.419 29.4847L144.506 23.2982L129.646 22.9523L129.607 27.8026C129.56 31.1236 132.568 34.16 136.311 34.5734Z" fill="#1E1E1E"/>
<path d="M121.087 34.9087L122.367 35.05C126.233 35.4771 129.406 33.0324 129.455 29.5901L129.561 22.9521L114.242 23.0587L114.174 27.9037C114.125 31.3461 117.219 34.4826 121.086 34.9087H121.087Z" fill="white"/>
<path d="M123.227 35.3318C122.935 35.3318 122.639 35.316 122.342 35.2833L121.061 35.142C117.085 34.7032 113.891 31.4549 113.941 27.9008L114.009 23.0557C114.012 22.9281 114.115 22.8258 114.242 22.8248L129.561 22.7183H129.563C129.625 22.7183 129.685 22.7436 129.729 22.7879C129.773 22.8332 129.797 22.8933 129.796 22.9566L129.69 29.5945C129.668 31.1818 128.997 32.6383 127.802 33.6971C126.606 34.757 124.974 35.3329 123.229 35.3329L123.227 35.3318ZM114.473 23.2909L114.408 27.9061C114.362 31.225 117.369 34.2613 121.112 34.6748L122.392 34.8161C124.333 35.0291 126.192 34.4934 127.49 33.3438C128.586 32.3746 129.2 31.0394 129.22 29.5861L129.323 23.1876L114.473 23.2909Z" fill="#1E1E1E"/>
<path d="M105.888 35.0101L107.168 35.1514C111.035 35.5785 114.208 33.1338 114.256 29.6915L114.352 22.9238L99.0445 23.1601L98.9761 28.0051C98.9278 31.4475 102.022 34.584 105.888 35.0101Z" fill="#1E1E1E"/>
<path d="M108.027 35.4327C107.735 35.4327 107.439 35.4169 107.141 35.3842L105.861 35.2429C101.884 34.8042 98.6903 31.5548 98.7408 28.0006L98.8092 23.1567C98.8113 23.0301 98.9134 22.9278 99.0396 22.9257L114.347 22.6895C114.415 22.6947 114.471 22.7137 114.516 22.758C114.561 22.8034 114.586 22.8645 114.585 22.9278L114.489 29.6955C114.467 31.2827 113.796 32.7402 112.6 33.7991C111.404 34.859 109.773 35.4348 108.027 35.4348V35.4327ZM99.2742 23.3908L99.209 28.007C99.1627 31.3259 102.169 34.3623 105.913 34.7757L107.193 34.917C109.134 35.1311 110.992 34.5943 112.291 33.4447C113.386 32.4744 114.001 31.1403 114.021 29.687L114.112 23.1609L99.2732 23.3897L99.2742 23.3908Z" fill="#1E1E1E"/>
<path d="M90.6888 35.1113L91.9692 35.2527C95.8354 35.6798 99.0084 33.2351 99.0568 29.7928L99.1536 22.8975L83.8526 22.7256L83.7769 28.1064C83.7285 31.5487 86.8226 34.6853 90.6888 35.1113Z" fill="white"/>
<path d="M92.829 35.5351C92.5365 35.5351 92.2409 35.5192 91.9432 35.4865L90.6628 35.3452C86.6861 34.9065 83.4921 31.6571 83.5426 28.103L83.6183 22.7222C83.6204 22.5935 83.7246 22.4912 83.8519 22.4912H83.855L99.156 22.6631C99.218 22.6631 99.277 22.6895 99.3211 22.7338C99.3643 22.7781 99.3885 22.8382 99.3874 22.9004L99.2906 29.7957C99.2685 31.3829 98.5973 32.8404 97.4022 33.8983C96.205 34.9582 94.5733 35.534 92.8279 35.5351H92.829ZM84.0833 22.9626L84.0107 28.1093C83.9645 31.4283 86.9712 34.4646 90.7144 34.878L91.9947 35.0193C93.9357 35.2334 95.7947 34.6966 97.0929 33.5471C98.1881 32.5778 98.8025 31.2427 98.8225 29.7894L98.9161 23.1293L84.0833 22.9626Z" fill="#1E1E1E"/>
<path d="M75.4896 35.2124L76.77 35.3537C80.6362 35.7808 83.8092 33.3362 83.8576 29.8938L83.9533 23.084L68.6514 22.9722L68.5777 28.2074C68.5293 31.6498 71.6234 34.7863 75.4896 35.2124Z" fill="#1E1E1E"/>
<path d="M77.6298 35.6366C77.3373 35.6366 77.0417 35.6208 76.744 35.5881L75.4637 35.4468C71.4869 35.008 68.2929 31.7597 68.3434 28.2045L68.4171 22.9692C68.4192 22.8406 68.5233 22.7383 68.6506 22.7383H68.6527L83.9547 22.8501C84.0168 22.8501 84.0767 22.8764 84.1199 22.9207C84.163 22.965 84.1872 23.0251 84.1861 23.0884L84.0904 29.8983C84.0683 31.4855 83.3971 32.943 82.202 34.0008C81.0058 35.0608 79.3741 35.6366 77.6288 35.6366H77.6298ZM68.8821 23.2087L68.8116 28.2108C68.7653 31.5298 71.772 34.5672 75.5152 34.9795L76.7955 35.1209C78.7366 35.3339 80.5955 34.7981 81.8937 33.6486C82.9889 32.6794 83.6033 31.3442 83.6233 29.8909L83.7159 23.3173L68.8821 23.2087Z" fill="#1E1E1E"/>
<path d="M182.016 1.15186L159.976 23.1982L144.608 23.1792L166.628 1.15186H182.016Z" fill="white"/>
<path d="M159.976 23.432L144.608 23.4131C144.513 23.4131 144.428 23.3561 144.392 23.2686C144.357 23.181 144.377 23.0798 144.443 23.0133L166.463 0.986032C166.508 0.942792 166.566 0.91748 166.628 0.91748H182.016C182.11 0.91748 182.196 0.974431 182.232 1.06197C182.268 1.1495 182.248 1.25075 182.182 1.31719L160.143 23.3635C160.098 23.4067 160.04 23.432 159.977 23.432H159.976ZM145.173 22.9448L159.88 22.9627L181.45 1.3868H166.724L145.172 22.9458L145.173 22.9448Z" fill="#1E1E1E"/>
<path d="M166.558 1.15137L144.662 23.0563L129.294 23.0374L151.173 1.15137H166.558Z" fill="#1E1E1E"/>
<path d="M144.662 23.2918L129.294 23.2728C129.199 23.2728 129.114 23.2158 129.078 23.1283C129.042 23.0408 129.062 22.9395 129.128 22.8731L151.008 0.986032C151.052 0.942792 151.111 0.91748 151.173 0.91748H166.558C166.653 0.91748 166.738 0.974431 166.775 1.06197C166.81 1.1495 166.791 1.25075 166.724 1.31719L144.828 23.2222C144.784 23.2654 144.725 23.2907 144.663 23.2907L144.662 23.2918ZM129.859 22.8045L144.565 22.8225L165.992 1.3868H151.27L129.859 22.8045Z" fill="#1E1E1E"/>
<path d="M129.53 22.9208L129.369 23.0821L114.001 23.0632L135.905 1.15186H151.293L129.53 22.9208Z" fill="white"/>
<path d="M129.369 23.316L114.001 23.297C113.906 23.297 113.821 23.2401 113.785 23.1526C113.749 23.065 113.769 22.9638 113.836 22.8973L135.739 0.986032C135.783 0.942792 135.842 0.91748 135.904 0.91748H151.292C151.386 0.91748 151.471 0.974431 151.508 1.06197C151.544 1.1495 151.524 1.25075 151.458 1.31719L129.534 23.2475C129.49 23.2907 129.431 23.316 129.369 23.316ZM114.566 22.8288L129.272 22.8467L129.365 22.7539L150.727 1.3868H136.002L114.566 22.8288Z" fill="#1E1E1E"/>
<path d="M136.034 1.15137L114.077 23.1059L98.709 23.0869L120.638 1.15137H136.034Z" fill="#1E1E1E"/>
<path d="M114.077 23.3403L98.7085 23.3213C98.6139 23.3213 98.5286 23.2643 98.4929 23.1768C98.4571 23.0893 98.4771 22.988 98.5434 22.9216L120.472 0.986032C120.516 0.942792 120.575 0.91748 120.637 0.91748H136.034C136.129 0.91748 136.214 0.974431 136.251 1.06197C136.286 1.1495 136.267 1.25075 136.199 1.31719L114.242 23.2717C114.198 23.315 114.139 23.3403 114.077 23.3403ZM99.2735 22.853L113.98 22.871L135.468 1.3868H120.734L99.2735 22.8541V22.853Z" fill="#1E1E1E"/>
<path d="M120.756 1.15186L98.7843 23.1307L83.416 23.1117L105.369 1.15186H120.756Z" fill="white"/>
<path d="M98.7843 23.3645L83.416 23.3456C83.3214 23.3456 83.2361 23.2886 83.2004 23.2011C83.1646 23.1135 83.1846 23.0123 83.2509 22.9458L105.204 0.986032C105.248 0.942792 105.307 0.91748 105.369 0.91748H120.756C120.851 0.91748 120.936 0.974431 120.973 1.06197C121.009 1.1495 120.989 1.25075 120.922 1.31719L98.9505 23.296C98.9063 23.3392 98.8474 23.3645 98.7853 23.3645H98.7843ZM83.981 22.8773L98.6875 22.8952L120.19 1.3868H105.466L83.981 22.8783V22.8773Z" fill="#1E1E1E"/>
<path d="M105.684 1.15186L83.6486 23.1718L68.2803 23.1539L90.2754 1.15186H105.684Z" fill="#1E1E1E"/>
<path d="M83.6493 23.4067L68.2811 23.3877C68.1864 23.3877 68.1012 23.3308 68.0654 23.2433C68.0296 23.1557 68.0496 23.0545 68.1159 22.988L90.1099 0.986032C90.1541 0.942792 90.213 0.91748 90.2751 0.91748H105.682C105.777 0.91748 105.862 0.974431 105.899 1.06197C105.935 1.1495 105.915 1.25075 105.847 1.31719L83.8134 23.3371C83.7692 23.3814 83.7103 23.4057 83.6483 23.4057L83.6493 23.4067ZM68.846 22.9195L83.5525 22.9374L105.116 1.3868H90.3719L68.845 22.9195H68.846Z" fill="#1E1E1E"/>
<path d="M69.1524 23.3423C69.023 23.3423 68.9189 23.2379 68.9189 23.1082C68.9189 22.9785 69.023 22.873 69.1524 22.873L84.1935 22.8604C84.3229 22.8604 84.4271 22.9648 84.4271 23.0945C84.4271 23.2242 84.3229 23.3297 84.1935 23.3297L69.1524 23.3423Z" fill="white"/>
<path d="M98.9747 23.3169C98.8453 23.3169 98.7411 23.2125 98.7411 23.0828C98.7411 22.9531 98.8453 22.8476 98.9747 22.8476L114.243 22.835C114.372 22.835 114.477 22.9394 114.477 23.0691C114.477 23.1988 114.372 23.3043 114.243 23.3043L98.9747 23.3169Z" fill="white"/>
<path d="M129.369 23.293C129.24 23.293 129.136 23.1886 129.136 23.0589C129.136 22.9292 129.24 22.8237 129.369 22.8237L144.744 22.811C144.873 22.811 144.977 22.9154 144.977 23.0452C144.977 23.1749 144.873 23.2804 144.744 23.2804L129.369 23.293Z" fill="white"/>
<path d="M157.091 154.746L156.247 151.657L152.759 151.816C152.436 151.136 152.062 150.49 151.639 149.888L153.485 146.925L151.213 144.672L148.271 146.558C147.659 146.137 147.012 145.768 146.339 145.453L146.459 141.956L143.367 141.144L141.762 144.246C141.029 144.188 140.284 144.194 139.535 144.262L137.895 141.174L134.812 142.019L134.97 145.514C134.292 145.838 133.648 146.214 133.046 146.638L130.088 144.788L127.84 147.065L129.721 150.013C129.301 150.626 128.932 151.274 128.619 151.949L125.13 151.829L124.319 154.927L127.416 156.536C127.358 157.271 127.364 158.016 127.431 158.767L124.35 160.41L125.194 163.499L128.681 163.34C129.004 164.02 129.379 164.666 129.802 165.268L127.955 168.232L130.228 170.484L133.169 168.599C133.782 169.019 134.429 169.388 135.102 169.703L134.982 173.2L138.074 174.012L139.678 170.91C140.412 170.968 141.156 170.962 141.905 170.895L143.546 173.983L146.629 173.137L146.47 169.642C147.149 169.318 147.793 168.942 148.394 168.518L151.353 170.368L153.601 168.091L151.72 165.144C152.14 164.53 152.509 163.882 152.821 163.207L156.311 163.327L157.121 160.229L154.025 158.621C154.083 157.885 154.077 157.14 154.009 156.389L157.091 154.746ZM142.892 165.53C138.509 166.732 133.983 164.147 132.782 159.754C131.582 155.363 134.162 150.827 138.545 149.624C142.928 148.422 147.455 151.007 148.655 155.4C149.856 159.791 147.275 164.327 142.892 165.53Z" fill="white"/>
<path d="M138.073 174.245C138.053 174.245 138.033 174.243 138.014 174.238L134.922 173.426C134.816 173.397 134.743 173.3 134.747 173.19L134.862 169.848C134.275 169.567 133.706 169.242 133.165 168.879L130.353 170.681C130.26 170.741 130.14 170.728 130.063 170.651L127.79 168.398C127.712 168.321 127.699 168.2 127.757 168.107L129.522 165.274C129.158 164.743 128.828 164.174 128.538 163.581L125.204 163.732C125.095 163.741 124.997 163.666 124.968 163.56L124.124 160.471C124.095 160.366 124.143 160.254 124.24 160.203L127.185 158.631C127.134 157.972 127.128 157.315 127.171 156.672L124.211 155.135C124.114 155.084 124.065 154.974 124.092 154.867L124.902 151.769C124.93 151.663 125.033 151.587 125.137 151.593L128.473 151.708C128.754 151.121 129.079 150.55 129.441 150.008L127.643 147.19C127.584 147.097 127.597 146.977 127.673 146.899L129.922 144.622C129.998 144.544 130.119 144.53 130.212 144.588L133.039 146.357C133.57 145.992 134.138 145.661 134.729 145.371L134.578 142.031C134.573 141.921 134.644 141.823 134.749 141.794L137.833 140.948C137.939 140.919 138.05 140.967 138.101 141.064L139.669 144.016C140.325 143.964 140.982 143.959 141.625 144.001L143.158 141.036C143.209 140.939 143.319 140.891 143.426 140.917L146.518 141.729C146.624 141.757 146.696 141.855 146.692 141.965L146.578 145.307C147.164 145.588 147.734 145.913 148.275 146.276L151.087 144.474C151.179 144.414 151.299 144.427 151.377 144.504L153.649 146.757C153.727 146.834 153.741 146.955 153.683 147.048L151.919 149.881C152.283 150.413 152.613 150.982 152.902 151.574L156.236 151.423C156.345 151.413 156.444 151.489 156.473 151.594L157.317 154.684C157.345 154.789 157.298 154.901 157.201 154.952L154.255 156.524C154.307 157.182 154.312 157.84 154.27 158.483L157.23 160.02C157.326 160.071 157.376 160.181 157.348 160.288L156.538 163.386C156.511 163.493 156.409 163.576 156.304 163.562L152.968 163.447C152.687 164.034 152.362 164.605 152 165.147L153.798 167.965C153.857 168.057 153.844 168.178 153.767 168.256L151.519 170.533C151.442 170.611 151.321 170.625 151.229 170.567L148.401 168.798C147.871 169.162 147.302 169.493 146.71 169.784L146.862 173.124C146.867 173.234 146.795 173.332 146.69 173.361L143.607 174.207C143.5 174.236 143.39 174.188 143.338 174.091L141.771 171.14C141.114 171.192 140.457 171.197 139.815 171.155L138.281 174.12C138.24 174.199 138.159 174.246 138.074 174.246L138.073 174.245ZM135.221 173.02L137.951 173.737L139.469 170.802C139.512 170.718 139.603 170.671 139.695 170.676C140.412 170.732 141.147 170.727 141.882 170.66C141.974 170.651 142.065 170.7 142.11 170.784L143.662 173.706L146.385 172.959L146.235 169.652C146.23 169.558 146.283 169.47 146.368 169.43C147.036 169.111 147.672 168.74 148.259 168.326C148.336 168.273 148.438 168.269 148.518 168.319L151.317 170.07L153.301 168.06L151.52 165.27C151.47 165.191 151.471 165.089 151.524 165.011C151.936 164.409 152.3 163.769 152.607 163.108C152.647 163.023 152.731 162.969 152.827 162.973L156.13 163.087L156.846 160.351L153.916 158.829C153.832 158.786 153.783 158.696 153.79 158.603C153.846 157.885 153.841 157.147 153.775 156.41C153.766 156.316 153.815 156.226 153.898 156.182L156.814 154.627L156.068 151.899L152.768 152.05C152.674 152.053 152.587 152.002 152.546 151.916C152.228 151.248 151.858 150.611 151.445 150.022C151.392 149.945 151.389 149.843 151.438 149.763L153.185 146.958L151.179 144.969L148.394 146.754C148.316 146.804 148.214 146.802 148.136 146.749C147.535 146.337 146.896 145.972 146.237 145.665C146.152 145.625 146.098 145.539 146.101 145.445L146.215 142.135L143.485 141.418L141.966 144.353C141.923 144.438 141.835 144.486 141.74 144.479C141.025 144.423 140.288 144.428 139.553 144.495C139.459 144.504 139.37 144.455 139.326 144.371L137.773 141.449L135.05 142.195L135.2 145.503C135.204 145.597 135.151 145.684 135.066 145.725C134.4 146.043 133.764 146.414 133.176 146.829C133.099 146.882 132.997 146.886 132.917 146.836L130.117 145.085L128.132 147.095L129.913 149.885C129.964 149.964 129.963 150.066 129.909 150.144C129.498 150.746 129.134 151.386 128.826 152.047C128.786 152.132 128.7 152.19 128.607 152.182L125.303 152.068L124.588 154.804L127.518 156.326C127.601 156.369 127.65 156.459 127.643 156.552C127.587 157.27 127.592 158.007 127.659 158.745C127.667 158.839 127.619 158.928 127.536 158.973L124.619 160.528L125.364 163.256L128.664 163.106C128.757 163.099 128.845 163.154 128.886 163.24C129.204 163.909 129.574 164.546 129.987 165.134C130.041 165.211 130.044 165.313 129.994 165.393L128.247 168.199L130.253 170.188L133.038 168.403C133.117 168.353 133.219 168.355 133.297 168.408C133.896 168.82 134.536 169.185 135.196 169.492C135.281 169.532 135.334 169.618 135.331 169.712L135.218 173.022L135.221 173.02ZM140.721 166.058C137.002 166.058 133.585 163.581 132.556 159.817C131.959 157.632 132.247 155.345 133.366 153.377C134.485 151.409 136.303 149.996 138.483 149.398C142.984 148.163 147.648 150.828 148.881 155.337C149.478 157.522 149.19 159.809 148.07 161.777C146.951 163.745 145.133 165.158 142.953 165.756C142.208 165.961 141.458 166.058 140.721 166.058ZM140.717 149.565C140.019 149.565 139.311 149.657 138.607 149.851C136.547 150.416 134.83 151.751 133.773 153.61C132.716 155.469 132.443 157.629 133.007 159.693C134.172 163.954 138.579 166.471 142.829 165.304C144.889 164.739 146.606 163.404 147.663 161.545C148.721 159.686 148.993 157.526 148.429 155.462C147.458 151.907 144.228 149.565 140.716 149.565H140.717Z" fill="#1E1E1E"/>
<path d="M105.564 192.766H6.14029C2.94523 192.766 0.394025 190.098 0.528686 186.897L2.99047 128.689C3.10409 126.012 5.30076 123.901 7.974 123.901H107.999C111.194 123.901 113.745 126.569 113.611 129.77L111.174 187.375C111.047 190.389 108.573 192.766 105.563 192.766H105.564Z" fill="white"/>
<path d="M105.564 193H6.14066C4.53103 193 3.03082 192.359 1.9167 191.193C0.802587 190.028 0.227119 188.499 0.295502 186.887L2.75728 128.679C2.87616 125.869 5.16752 123.667 7.97437 123.667H108C109.609 123.667 111.109 124.308 112.223 125.473C113.338 126.638 113.913 128.168 113.845 129.779L111.409 187.384C111.276 190.533 108.709 193 105.564 193ZM7.97437 124.135C5.41895 124.135 3.33275 126.14 3.22439 128.698L0.762609 186.906C0.699487 188.389 1.22972 189.797 2.25441 190.868C3.2791 191.94 4.65938 192.531 6.1396 192.531H105.563C108.456 192.531 110.818 190.261 110.94 187.364L113.375 129.759C113.439 128.276 112.908 126.868 111.884 125.797C110.859 124.725 109.479 124.135 107.998 124.135H7.97437Z" fill="#1E1E1E"/>
<path d="M41.3333 186.386H8.98503C8.02662 186.386 7.246 185.604 7.246 184.643V184.618C7.246 183.656 8.02662 182.875 8.98503 182.875H41.3333C42.2917 182.875 43.0723 183.657 43.0723 184.618V184.643C43.0723 185.605 42.2917 186.386 41.3333 186.386ZM8.98503 183.344C8.28437 183.344 7.71416 183.915 7.71416 184.618V184.643C7.71416 185.346 8.28437 185.917 8.98503 185.917H41.3333C42.0339 185.917 42.6041 185.346 42.6041 184.643V184.618C42.6041 183.915 42.0339 183.344 41.3333 183.344H8.98503Z" fill="#1E1E1E"/>
<path d="M102.342 186.386H92.9423C91.9839 186.386 91.2033 185.604 91.2033 184.643V184.618C91.2033 183.656 91.9839 182.875 92.9423 182.875H102.342C103.301 182.875 104.081 183.657 104.081 184.618V184.643C104.081 185.605 103.301 186.386 102.342 186.386ZM92.9423 183.344C92.2416 183.344 91.6714 183.915 91.6714 184.618V184.643C91.6714 185.346 92.2416 185.917 92.9423 185.917H102.342C103.043 185.917 103.613 185.346 103.613 184.643V184.618C103.613 183.915 103.043 183.344 102.342 183.344H92.9423Z" fill="#1E1E1E"/>
<path d="M27.4747 171.079H12.2074C10.8482 171.079 9.74142 169.971 9.74142 168.607V167.928C9.74142 166.564 10.8482 165.456 12.2074 165.456H27.4747C28.8339 165.456 29.9407 166.564 29.9407 167.928V168.607C29.9407 169.971 28.8339 171.079 27.4747 171.079ZM12.2074 165.925C11.1059 165.925 10.2096 166.824 10.2096 167.928V168.607C10.2096 169.712 11.1059 170.61 12.2074 170.61H27.4747C28.5762 170.61 29.4725 169.712 29.4725 168.607V167.928C29.4725 166.824 28.5762 165.925 27.4747 165.925H12.2074Z" fill="#1E1E1E"/>
<path d="M52.535 171.079H37.2677C35.9085 171.079 34.8018 169.971 34.8018 168.607V167.928C34.8018 166.564 35.9085 165.456 37.2677 165.456H52.535C53.8942 165.456 55.001 166.564 55.001 167.928V168.607C55.001 169.971 53.8942 171.079 52.535 171.079ZM37.2677 165.925C36.1663 165.925 35.2699 166.824 35.2699 167.928V168.607C35.2699 169.712 36.1663 170.61 37.2677 170.61H52.535C53.6365 170.61 54.5328 169.712 54.5328 168.607V167.928C54.5328 166.824 53.6365 165.925 52.535 165.925H37.2677Z" fill="#1E1E1E"/>
<path d="M77.5965 171.079H62.3293C60.97 171.079 59.8633 169.971 59.8633 168.607V167.928C59.8633 166.564 60.97 165.456 62.3293 165.456H77.5965C78.9558 165.456 80.0625 166.564 80.0625 167.928V168.607C80.0625 169.971 78.9558 171.079 77.5965 171.079ZM62.3293 165.925C61.2278 165.925 60.3314 166.824 60.3314 167.928V168.607C60.3314 169.712 61.2278 170.61 62.3293 170.61H77.5965C78.698 170.61 79.5944 169.712 79.5944 168.607V167.928C79.5944 166.824 78.698 165.925 77.5965 165.925H62.3293Z" fill="#1E1E1E"/>
<path d="M102.657 171.079H87.3896C86.0304 171.079 84.9236 169.971 84.9236 168.607V167.928C84.9236 166.564 86.0293 165.456 87.3896 165.456H102.657C104.016 165.456 105.123 166.564 105.123 167.928V168.607C105.123 169.971 104.016 171.079 102.657 171.079ZM87.3896 165.925C86.2881 165.925 85.3918 166.824 85.3918 167.928V168.607C85.3918 169.712 86.2881 170.61 87.3896 170.61H102.657C103.758 170.61 104.655 169.712 104.655 168.607V167.928C104.655 166.824 103.758 165.925 102.657 165.925H87.3896Z" fill="#1E1E1E"/>
<path d="M101.813 137.204H84.1623C82.338 137.204 80.8525 135.716 80.8525 133.886V133.834C80.8525 132.006 82.337 130.518 84.1623 130.518H101.813C103.638 130.518 105.122 132.006 105.122 133.834V133.886C105.122 135.715 103.638 137.204 101.813 137.204ZM84.1623 130.987C82.5958 130.987 81.3207 132.265 81.3207 133.835V133.887C81.3207 135.458 82.5958 136.736 84.1623 136.736H101.813C103.38 136.736 104.655 135.458 104.655 133.887V133.835C104.655 132.265 103.38 130.987 101.813 130.987H84.1623Z" fill="#1E1E1E"/>
<path d="M24.9561 142.259H14.2726C12.5342 142.259 11.1249 143.672 11.1249 145.414V153.782C11.1249 155.525 12.5342 156.937 14.2726 156.937H24.9561C26.6945 156.937 28.1038 155.525 28.1038 153.782V145.414C28.1038 143.672 26.6945 142.259 24.9561 142.259Z" fill="#1E1E1E"/>
<path d="M21.888 153.275H17.3789C16.3879 153.275 15.582 152.467 15.582 151.473V148.36C15.582 147.366 16.3879 146.559 17.3789 146.559H21.888C22.879 146.559 23.6849 147.366 23.6849 148.36V151.473C23.6849 152.467 22.879 153.275 21.888 153.275ZM17.3789 147.028C16.6467 147.028 16.0502 147.626 16.0502 148.36V151.473C16.0502 152.207 16.6467 152.805 17.3789 152.805H21.888C22.6202 152.805 23.2167 152.207 23.2167 151.473V148.36C23.2167 147.626 22.6202 147.028 21.888 147.028H17.3789Z" fill="white"/>
<path d="M15.7013 149.649C15.7013 149.649 15.6939 149.649 15.6908 149.649L11.148 149.447C11.0186 149.442 10.9187 149.332 10.925 149.203C10.9313 149.073 11.0439 148.975 11.1691 148.979L15.7118 149.181C15.8412 149.186 15.9411 149.296 15.9348 149.425C15.9296 149.551 15.8254 149.65 15.7013 149.65V149.649Z" fill="white"/>
<path d="M15.7013 151.564H15.696L10.9755 151.463C10.8461 151.46 10.744 151.353 10.7461 151.224C10.7493 151.094 10.8587 150.992 10.9849 150.994L15.7055 151.095C15.8349 151.098 15.9369 151.205 15.9348 151.334C15.9316 151.462 15.8275 151.564 15.7013 151.564Z" fill="white"/>
<path d="M23.4506 149.649C23.3233 149.649 23.2192 149.547 23.2171 149.419C23.2139 149.289 23.317 149.181 23.4464 149.179L28.1669 149.078C28.2963 149.082 28.4036 149.178 28.4057 149.308C28.4089 149.438 28.3058 149.545 28.1764 149.547L23.4559 149.649H23.4506Z" fill="white"/>
<path d="M27.9039 151.564H27.8986L23.4453 151.463C23.3159 151.46 23.2139 151.352 23.2171 151.223C23.2202 151.094 23.3265 150.998 23.4559 150.995L27.9092 151.096C28.0386 151.099 28.1406 151.207 28.1375 151.335C28.1343 151.463 28.0301 151.564 27.9039 151.564Z" fill="white"/>
<path d="M18.1065 146.826C17.9856 146.826 17.8835 146.734 17.874 146.61L17.5174 142.176C17.5069 142.047 17.6026 141.933 17.732 141.922C17.8583 141.914 17.974 142.008 17.9834 142.138L18.3401 146.572C18.3506 146.701 18.2549 146.815 18.1255 146.825C18.1192 146.825 18.1128 146.825 18.1065 146.825V146.826Z" fill="white"/>
<path d="M20.5116 146.727C20.5022 146.727 20.4916 146.727 20.4822 146.724C20.3538 146.709 20.2633 146.59 20.2791 146.462L20.8136 142.23C20.8304 142.101 20.9482 142.011 21.0755 142.026C21.2039 142.042 21.2944 142.16 21.2786 142.289L20.7441 146.521C20.7294 146.639 20.6284 146.725 20.5127 146.725L20.5116 146.727Z" fill="white"/>
<path d="M17.7506 157.207C17.7422 157.207 17.7328 157.207 17.7243 157.205C17.596 157.19 17.5034 157.074 17.5181 156.946L17.9632 153.015C17.9779 152.886 18.0957 152.793 18.222 152.808C18.3503 152.823 18.4429 152.939 18.4282 153.068L17.9831 156.998C17.9695 157.118 17.8685 157.206 17.7506 157.206V157.207Z" fill="white"/>
<path d="M20.5999 157.207C20.4779 157.207 20.3748 157.113 20.3664 156.989L20.0991 153.058C20.0907 152.929 20.1875 152.817 20.3169 152.809C20.4442 152.801 20.5578 152.897 20.5663 153.027L20.8335 156.957C20.8419 157.087 20.7451 157.199 20.6157 157.207C20.6104 157.207 20.6052 157.207 20.5999 157.207Z" fill="white"/>
<path d="M48.8932 67.2464C47.0742 65.2731 44.3694 64.8576 42.3369 65.4144C39.7646 66.119 38.4675 68.3495 37.5522 69.9231C35.9352 72.7042 36.7158 73.7124 35.445 75.3281C33.1936 78.1894 29.665 76.4007 26.9213 78.492C22.7363 81.6813 22.1671 92.503 27.8303 96.6245C31.6071 99.373 36.7442 97.7836 38.1424 97.3512C42.3842 96.0392 47.6623 92.3764 48.4198 87.4112C49.0458 83.3054 46.3473 79.8894 48.606 76.4481C49.1815 75.5717 49.6581 75.3344 50.0852 74.2376C50.7785 72.4584 50.9352 69.4611 48.8943 67.2474L48.8932 67.2464Z" fill="#1E1E1E"/>
<path d="M43.4071 67.7333C44.374 66.9476 43.7617 64.6294 43.1431 63.3786C42.9116 62.9104 41.8743 60.8127 40.5098 60.8939C39.1085 60.9772 37.7671 63.3354 38.2668 65.2032C38.8918 67.5382 42.2741 68.654 43.4071 67.7322V67.7333Z" fill="#1E1E1E"/>
<path d="M62.6014 150.44C61.7208 147.528 61.8702 145.689 62.6687 143.775L64.0132 141.093L59.9692 139.466L58.7299 142.52C58.3311 143.502 57.7536 144.404 57.0266 145.176L56.3586 145.887L62.6014 150.441V150.44Z" fill="white"/>
<path d="M62.6014 150.674C62.553 150.674 62.5046 150.659 62.4635 150.629L56.2207 146.075C56.166 146.035 56.1313 145.974 56.125 145.907C56.1187 145.84 56.1418 145.773 56.1881 145.725L56.8562 145.014C57.5663 144.26 58.1239 143.39 58.5131 142.43L59.7524 139.377C59.8008 139.258 59.9365 139.198 60.0565 139.247L64.1005 140.873C64.1615 140.898 64.2089 140.947 64.232 141.008C64.2552 141.069 64.252 141.138 64.2226 141.197L62.8781 143.879C62.1795 145.555 61.8997 147.308 62.8255 150.371C62.8549 150.467 62.8191 150.572 62.7371 150.631C62.6961 150.659 62.6487 150.674 62.6014 150.674ZM56.711 145.852L62.19 149.849C61.5483 147.423 61.6324 145.648 62.453 143.683L63.6902 141.214L60.0986 139.769L58.9466 142.606C58.5352 143.621 57.9461 144.538 57.197 145.335L56.711 145.852Z" fill="#1E1E1E"/>
<path d="M58.1884 144.395C58.0874 144.079 57.6729 144.002 57.4467 144.244C56.8071 144.926 55.6867 146.067 54.8366 146.657C54.0444 147.206 53.7972 148.265 54.2454 149.113C55.5141 151.511 58.726 156.714 62.1105 160.683C62.3419 160.955 62.9174 161.318 63.7464 160.945C66.5301 159.69 63.8842 154.019 62.3745 148.114C62.3156 147.882 62.1283 147.705 61.8937 147.662L61.0532 147.507C59.4993 147.197 58.847 146.464 58.1884 144.396V144.395Z" fill="#1E1E1E"/>
<path d="M55.027 146.527C55.027 146.527 54.8987 146.615 54.8366 146.658C54.0444 147.208 53.7972 148.266 54.2454 149.114C55.5141 151.513 58.726 156.715 62.1105 160.685C62.3419 160.957 62.9174 161.32 63.7464 160.946C63.9999 160.831 64.3839 160.519 64.3839 160.519L64.1567 160.229C60.9143 156.091 57.9801 151.718 55.3795 147.147L55.027 146.528V146.527Z" fill="white"/>
<path d="M63.0615 161.337C62.5575 161.337 62.1609 161.103 61.9326 160.835C58.5524 156.871 55.3595 151.718 54.0391 149.223C53.5321 148.264 53.8172 147.079 54.704 146.464L54.8966 146.332C54.9502 146.295 55.0165 146.283 55.0807 146.297C55.1438 146.312 55.1985 146.353 55.2311 146.41L55.5835 147.029C58.1705 151.575 61.1173 155.966 64.3418 160.081L64.569 160.371C64.6479 160.473 64.6322 160.617 64.5322 160.698C64.4901 160.732 64.1167 161.034 63.8431 161.157C63.5633 161.284 63.3003 161.335 63.0615 161.335V161.337ZM54.9492 146.863C54.2737 147.345 54.0591 148.261 54.4515 149.002C55.7634 151.48 58.9322 156.595 62.2882 160.531C62.3724 160.629 62.8311 161.1 63.6506 160.73C63.7663 160.678 63.9252 160.57 64.0535 160.475L63.9715 160.37C60.7333 156.236 57.7728 151.826 55.1743 147.26L54.9481 146.862L54.9492 146.863Z" fill="#1E1E1E"/>
<path d="M63.5272 152.763C63.5145 152.763 63.5009 152.763 63.4882 152.76L60.7003 152.292C60.573 152.271 60.4868 152.149 60.5078 152.022C60.5288 151.894 60.6488 151.808 60.7771 151.829L63.565 152.297C63.6923 152.318 63.7786 152.439 63.7576 152.567C63.7386 152.682 63.6397 152.763 63.5272 152.763Z" fill="white"/>
<path d="M63.9795 154.356C63.968 154.356 63.9564 154.356 63.9448 154.354L61.6661 154.015C61.5388 153.996 61.4504 153.877 61.4694 153.748C61.4883 153.62 61.6082 153.534 61.7355 153.551L64.0132 153.889C64.1415 153.908 64.2289 154.028 64.2099 154.156C64.1931 154.273 64.0932 154.357 63.9785 154.357L63.9795 154.356Z" fill="white"/>
<path d="M48.1042 161.14L48.6544 163.76C49.3898 167.574 46.6093 169.525 46.6093 169.525L54.8289 170.528C54.8289 170.528 53.0341 169.434 53.4002 164.138L53.8705 159.706L48.1042 161.141V161.14Z" fill="white"/>
<path d="M54.8299 170.762C54.8205 170.762 54.811 170.762 54.8015 170.76L46.5819 169.757C46.4862 169.745 46.4073 169.675 46.3831 169.58C46.3599 169.487 46.3957 169.387 46.4756 169.332C46.584 169.255 49.1215 167.415 48.4251 163.804L47.8759 161.189C47.8496 161.065 47.9264 160.943 48.0484 160.912L53.8147 159.477C53.8894 159.459 53.9672 159.477 54.0251 159.528C54.083 159.578 54.1124 159.653 54.104 159.729L53.6337 164.161C53.2824 169.247 54.9351 170.316 54.952 170.326C55.0456 170.383 55.0877 170.499 55.0519 170.603C55.0193 170.698 54.9299 170.762 54.831 170.762H54.8299ZM47.1626 169.355L54.2113 170.215C53.6706 169.467 52.9173 167.749 53.1677 164.121L53.6032 160.014L48.3809 161.314L48.8848 163.712C49.4603 166.698 47.9359 168.607 47.1637 169.356L47.1626 169.355Z" fill="#1E1E1E"/>
<path d="M47.9338 165.998C47.2563 166.779 46.0285 168.249 45.0859 169.669C44.4936 170.561 44.8481 171.59 45.4825 172.444C46.7765 174.187 48.5524 175.529 50.6386 176.909C52.4618 178.115 54.4996 179.387 56.9508 180.511C57.6168 180.817 59.117 181.234 60.1206 180.732C63.1505 179.217 58.0986 174.472 54.124 169.005C53.9683 168.791 53.7032 168.685 53.4433 168.737L52.5133 168.923C51.5823 169.108 50.6344 168.716 50.1073 167.927L48.8564 166.053C48.6428 165.733 48.1863 165.707 47.9338 165.998Z" fill="#1E1E1E"/>
<path d="M45.574 169.009C45.574 169.009 45.1322 169.601 45.0859 169.669C44.9376 169.892 44.8502 170.153 44.8018 170.419C44.6461 171.277 44.9439 172.157 45.5456 172.788C45.6908 172.94 45.8886 173.135 46.118 173.354C48.5029 175.629 51.1835 177.568 54.0725 179.15C55.538 179.953 58.7909 181.602 60.1196 180.731C60.5299 180.462 60.7813 179.643 60.7813 179.643C60.7813 179.643 60.0049 180.11 57.6662 178.946C53.7158 176.978 51.0405 174.768 47.7791 172.127C47.1374 171.608 46.6945 171.131 46.2379 170.564C45.877 170.117 45.6456 169.578 45.573 169.008L45.574 169.009Z" fill="white"/>
<path d="M59.1223 181.214C57.9461 181.214 56.2176 180.594 53.9609 179.358C51.0163 177.744 48.323 175.783 45.957 173.526C45.7119 173.292 45.5162 173.099 45.3763 172.952C44.7082 172.251 44.4073 171.289 44.5715 170.379C44.6304 170.053 44.7377 169.771 44.8902 169.54C44.9376 169.469 45.3121 168.969 45.3857 168.869C45.4426 168.793 45.5404 168.758 45.633 168.782C45.7256 168.806 45.7929 168.884 45.8055 168.979C45.8728 169.506 46.0864 170.003 46.421 170.418C46.9301 171.048 47.3657 171.491 47.9275 171.946L48.242 172.201C51.3161 174.692 53.9715 176.844 57.7704 178.737C59.9124 179.804 60.6604 179.443 60.6677 179.44C60.7508 179.397 60.856 179.407 60.9286 179.467C61.0012 179.528 61.0328 179.624 61.0054 179.713C60.977 179.806 60.7151 180.623 60.248 180.929C59.9576 181.119 59.582 181.214 59.1212 181.214H59.1223ZM45.4531 169.564C45.3626 169.686 45.2942 169.779 45.2805 169.8C45.1638 169.976 45.0796 170.199 45.0323 170.462C44.8944 171.225 45.149 172.034 45.715 172.627C45.8497 172.769 46.0401 172.956 46.28 173.185C48.6166 175.415 51.2761 177.353 54.1861 178.946C57.0782 180.53 59.1412 181.094 59.9934 180.536C60.1543 180.431 60.2985 180.189 60.4037 179.967C59.9124 179.997 59.0223 179.883 57.5631 179.157C53.7179 177.24 51.0447 175.074 47.9485 172.566L47.634 172.311C47.0459 171.834 46.5893 171.371 46.058 170.713C45.7824 170.371 45.5772 169.98 45.4541 169.564H45.4531Z" fill="#1E1E1E"/>
<path d="M53.3823 173.046C53.2739 173.046 53.1772 172.971 53.154 172.861C53.1267 172.734 53.2066 172.61 53.3329 172.582L56.3996 171.919C56.5258 171.89 56.65 171.972 56.6773 172.099C56.7047 172.226 56.6247 172.35 56.4974 172.378L53.4307 173.041C53.4139 173.044 53.397 173.046 53.3813 173.046H53.3823Z" fill="white"/>
<path d="M55.0793 174.425C54.973 174.425 54.8773 174.353 54.852 174.245C54.8226 174.12 54.9004 173.993 55.0256 173.962L57.5126 173.374C57.6378 173.344 57.7641 173.422 57.7935 173.549C57.823 173.674 57.7451 173.801 57.62 173.832L55.1329 174.42C55.115 174.424 55.0971 174.426 55.0793 174.426V174.425Z" fill="white"/>
<path d="M39.8162 108.154C39.8162 108.154 67.8837 101.983 76.4379 106.868C77.7266 107.605 78.9491 109.146 79.2184 110.609C80.0401 115.061 77.5667 124.761 64.0448 142.997C63.8544 143.255 63.5135 143.355 63.2147 143.241L58.9245 141.609C58.5763 141.478 58.3879 141.1 58.49 140.741L64.2173 120.645C64.3667 120.122 63.9343 119.616 63.3957 119.682L36.6475 122.978L39.8152 108.154H39.8162Z" fill="white"/>
<path d="M63.4662 143.521C63.3536 143.521 63.241 143.501 63.1316 143.46L58.8414 141.829C58.3764 141.651 58.1281 141.157 58.2648 140.677L63.9922 120.581C64.0416 120.408 64.0027 120.232 63.887 120.095C63.7712 119.959 63.6029 119.894 63.4251 119.915L36.6769 123.211C36.6012 123.22 36.5265 123.193 36.476 123.136C36.4244 123.08 36.4044 123.003 36.4202 122.928L39.5879 108.104C39.6069 108.015 39.6773 107.944 39.7668 107.924C40.9166 107.671 68.0204 101.79 76.5546 106.664C77.9633 107.468 79.1805 109.109 79.4499 110.566C80.1147 114.169 79.0227 123.193 64.2341 143.136C64.0511 143.383 63.7628 143.521 63.4683 143.521H63.4662ZM63.4893 119.442C63.7776 119.442 64.0521 119.567 64.2426 119.79C64.4593 120.044 64.534 120.388 64.4424 120.709L58.7151 140.806C58.6457 141.049 58.7719 141.3 59.0076 141.391L63.2978 143.022C63.4988 143.098 63.7281 143.031 63.8565 142.858C78.5398 123.057 79.6392 114.181 78.988 110.652C78.7418 109.32 77.6203 107.815 76.3211 107.073C68.2582 102.468 42.217 107.882 40.0119 108.352L36.9452 122.706L63.3673 119.451C63.4083 119.446 63.4493 119.444 63.4893 119.444V119.442Z" fill="#1E1E1E"/>
<path d="M57.9763 116.198C49.7988 109.187 23.484 108.966 23.484 108.966C23.484 108.966 20.1974 112.895 21.766 120.798C22.2836 123.404 24.1215 125.742 27.0273 125.742L43.1709 125.879C44.3534 125.89 45.2928 126.877 45.2476 128.062C44.9478 135.886 44.6795 152.06 46.9109 163.081C47.0014 163.528 47.337 163.883 47.7757 164.002C48.8067 164.283 50.8276 164.736 53.018 164.707C53.7008 164.697 54.2731 164.182 54.3636 163.504L59.7174 123.424C59.8784 122.216 59.8826 120.989 59.6806 119.786C59.466 118.502 58.9926 117.07 57.9752 116.198H57.9763Z" fill="white"/>
<path d="M52.8132 164.942C50.667 164.942 48.7091 164.499 47.715 164.228C47.1858 164.085 46.7902 163.663 46.6819 163.127C44.4768 152.238 44.6903 136.479 45.0144 128.053C45.0344 127.544 44.8513 127.06 44.501 126.691C44.1506 126.323 43.6772 126.118 43.1701 126.114L27.0265 125.976C23.7284 125.976 22.0083 123.211 21.538 120.843C19.9652 112.921 23.1687 108.979 23.3065 108.815C23.3517 108.761 23.417 108.722 23.4875 108.732C24.5658 108.741 49.9811 109.034 58.1302 116.019C59.0286 116.789 59.6294 118.044 59.9145 119.748C60.1112 120.921 60.1238 122.169 59.9523 123.455L54.5985 163.534C54.4922 164.325 53.8158 164.931 53.0236 164.941C52.9541 164.941 52.8847 164.942 52.8153 164.942H52.8132ZM23.5979 109.202C23.1497 109.814 20.5933 113.69 21.9957 120.753C22.4312 122.946 24.0103 125.508 27.0276 125.508L43.1733 125.645C43.8087 125.651 44.401 125.908 44.8397 126.369C45.2784 126.83 45.5067 127.435 45.4825 128.072C45.1595 136.476 44.946 152.193 47.1416 163.035C47.2142 163.395 47.4814 163.679 47.8381 163.776C48.8407 164.049 50.8532 164.506 53.0162 164.472C53.578 164.465 54.0577 164.034 54.1335 163.472L59.4873 123.393C59.6525 122.153 59.6409 120.953 59.4526 119.826C59.1864 118.234 58.6383 117.073 57.8262 116.376C50.081 109.737 25.5126 109.231 23.6 109.202H23.5979Z" fill="#1E1E1E"/>
<path d="M51.9252 91.0962L54.5732 94.6134C56.6752 98.4038 60.0544 100.915 63.7954 103.09L65.3125 103.971C66.2846 104.537 67.4166 104.762 68.5296 104.613L68.7001 104.589C70.4012 104.362 72.1276 104.769 73.55 105.733L69.7784 107.181C67.4786 108.063 64.9201 108.027 62.6655 107.034C60.5057 106.082 55.64 104.916 53.3444 102.237C48.5355 96.6236 48.1189 95.3759 48.1189 95.3759L51.9252 91.0972V91.0962Z" fill="white"/>
<path d="M66.3803 108.052C65.0789 108.052 63.786 107.783 62.5708 107.248C62.0669 107.026 61.4178 106.793 60.6666 106.524C58.2575 105.661 54.9583 104.481 53.1666 102.389C48.3819 96.8046 47.9138 95.501 47.8959 95.4483C47.8696 95.3681 47.8875 95.2806 47.9432 95.2173L51.7495 90.9386C51.7958 90.8859 51.8631 90.8574 51.9336 90.8606C52.0031 90.8638 52.0683 90.8975 52.1104 90.9534L54.7584 94.4706C54.7647 94.4791 54.771 94.4886 54.7762 94.4981C56.9961 98.5004 60.6393 100.984 63.9111 102.885L65.4282 103.766C66.3508 104.302 67.4418 104.519 68.497 104.378L68.6674 104.355C70.4275 104.119 72.2076 104.538 73.6794 105.536C73.752 105.584 73.7909 105.67 73.7804 105.757C73.7709 105.844 73.713 105.919 73.632 105.949L69.8605 107.398C68.7263 107.834 67.5491 108.051 66.3792 108.051L66.3803 108.052ZM48.3946 95.4177C48.605 95.8343 49.5644 97.4648 53.5222 102.084C55.2339 104.082 58.4647 105.239 60.8244 106.083C61.584 106.355 62.2405 106.591 62.7592 106.819C64.9527 107.787 67.4155 107.837 69.6942 106.962L73.0282 105.682C71.7331 104.926 70.2245 104.623 68.7306 104.822L68.5601 104.845C67.4018 105 66.2057 104.762 65.1946 104.174L63.6776 103.293C60.3542 101.362 56.652 98.8358 54.3765 94.7427L51.9105 91.466L48.3946 95.4177Z" fill="#1E1E1E"/>
<path d="M77.2458 106.259L57.7567 107.748L68.4644 88.3434C68.8631 87.6126 69.6175 87.1296 70.4633 87.0652L86.2797 85.8566C87.2844 85.7796 87.9767 86.8121 87.5022 87.6801L77.2448 106.258L77.2458 106.259Z" fill="#1E1E1E"/>
<path d="M73.9777 97.926C74.7268 97.3517 75.0845 96.5591 74.7767 96.1556C74.4689 95.7522 73.6121 95.8907 72.8631 96.465C72.1141 97.0393 71.7564 97.8319 72.0642 98.2354C72.372 98.6388 73.2287 98.5003 73.9777 97.926Z" fill="white"/>
<path d="M76.2973 107.517L45.7238 109.853C45.0926 109.901 44.5414 109.427 44.493 108.793L44.4414 108.621L77.302 106.111L77.3535 106.283C77.4019 106.917 76.9285 107.469 76.2962 107.518L76.2973 107.517Z" fill="#1E1E1E"/>
<path d="M48.1101 86.4489C48.0512 86.3298 47.9786 86.219 47.8892 86.122C44.5679 82.5257 34.079 77.2566 28.601 84.1836C25.9762 87.5036 25.953 96.0473 24.3708 100.231C22.092 106.258 21.6586 108.464 21.0663 110.838C20.8864 111.557 21.3829 112.268 22.1183 112.348C24.376 112.595 28.984 113.161 34.2989 113.022C41.8073 112.825 46.6636 111.484 46.6636 111.484C46.6636 111.484 45.0224 102.966 45.6757 96.4206C46.9802 97.8781 50.0206 99.902 51.2957 100.887C52.6991 99.304 54.3971 97.1399 56.2108 95.4978C53.868 92.3486 51.322 89.576 48.1091 86.4479L48.1101 86.4489Z" fill="white"/>
<path d="M32.6297 113.279C28.3626 113.279 24.6784 112.869 22.5879 112.636L22.0945 112.581C21.6758 112.536 21.2981 112.31 21.0572 111.966C20.8174 111.621 20.7384 111.189 20.8405 110.781C20.9089 110.509 20.9752 110.238 21.0414 109.964C21.5527 107.87 22.1314 105.496 24.1534 100.149C24.772 98.5125 25.1486 96.2028 25.5473 93.7571C26.1617 89.9878 26.7972 86.0898 28.4184 84.0385C30.15 81.848 32.4877 80.6816 35.365 80.5709C40.5116 80.3768 45.8854 83.6051 48.0621 85.9622C48.1537 86.0624 48.2326 86.1752 48.302 86.3071C51.7779 89.6935 54.2008 92.4019 56.4006 95.358C56.4732 95.4551 56.4595 95.5911 56.3701 95.6723C55.0477 96.8704 53.7726 98.3648 52.648 99.6831C52.2356 100.167 51.8463 100.624 51.4729 101.044C51.3908 101.136 51.2519 101.149 51.1551 101.073C50.8301 100.822 50.3924 100.506 49.8864 100.139C48.6113 99.2149 46.9175 97.9883 45.8644 96.9537C45.351 103.317 46.8786 111.357 46.8944 111.44C46.9175 111.561 46.8449 111.679 46.7271 111.711C46.6787 111.725 41.7572 113.062 34.3067 113.257C33.7396 113.272 33.1799 113.279 32.6297 113.279ZM35.8227 81.0317C35.6754 81.0317 35.5291 81.0349 35.3829 81.0402C32.6486 81.1446 30.4288 82.252 28.7855 84.3296C27.239 86.2849 26.6141 90.1217 26.0092 93.832C25.6073 96.3009 25.2265 98.6327 24.591 100.315C22.5795 105.636 22.0041 107.994 21.4959 110.076C21.4286 110.351 21.3623 110.622 21.2939 110.896C21.2245 111.172 21.2781 111.465 21.4402 111.698C21.6032 111.932 21.8599 112.085 22.144 112.115L22.6384 112.17C24.9866 112.432 29.3578 112.919 34.293 112.788C40.8293 112.617 45.391 111.564 46.3936 111.313C46.1453 109.938 44.8513 102.323 45.4425 96.3979C45.452 96.3051 45.5151 96.2271 45.6024 96.1986C45.6908 96.1701 45.7876 96.1954 45.8497 96.265C46.8018 97.3292 48.7417 98.7339 50.1588 99.7591C50.5839 100.067 50.9595 100.339 51.2645 100.569C51.5907 100.198 51.9315 99.7981 52.2892 99.3783C53.3792 98.1012 54.6079 96.6605 55.8956 95.4688C53.739 92.5917 51.3508 89.9319 47.9453 86.6171C47.9264 86.5981 47.9106 86.5771 47.8991 86.5539C47.8454 86.4463 47.7854 86.3577 47.716 86.2818C45.6614 84.0575 40.6757 81.0317 35.8195 81.0317H35.8227Z" fill="#1E1E1E"/>
<path d="M38.3697 95.9042C38.2518 95.9042 38.1498 95.8146 38.1372 95.6943L37.5207 89.9297C37.507 89.801 37.5996 89.685 37.7279 89.6713C37.8573 89.6576 37.972 89.7504 37.9857 89.879L38.6022 95.6437C38.6158 95.7724 38.5233 95.8884 38.3949 95.9021C38.3865 95.9021 38.3781 95.9032 38.3697 95.9032V95.9042Z" fill="#1E1E1E"/>
<path d="M30.7655 99.0702C30.6813 99.0702 30.6003 99.0248 30.5582 98.9447C29.2179 96.3798 27.5252 89.6638 27.4894 88.2274C27.4863 88.0976 27.5883 87.9901 27.7177 87.9869C27.8492 87.9774 27.9544 88.086 27.9576 88.2158C27.9912 89.5836 29.6882 96.2669 30.9727 98.7263C31.0327 98.8413 30.9885 98.9826 30.8738 99.0427C30.8391 99.0607 30.8023 99.0691 30.7655 99.0691V99.0702Z" fill="#1E1E1E"/>
<path d="M60.6951 103.984L56.7152 102.603C56.1239 102.399 55.4685 102.517 54.9867 102.917L53.1403 104.447C52.7879 104.739 52.3376 104.884 51.881 104.853C49.8895 104.721 40.6126 102.178 39.9025 100.49C39.3049 99.0693 38.8367 97.3682 38.8367 97.3682L31.6418 99.8898C31.6418 99.8898 31.7586 102.118 34.6833 105.109C37.1735 107.655 43.5951 108.51 52.427 107.976C52.427 107.976 54.2734 107.766 55.8209 105.914C56.8099 104.731 59.219 105.34 60.6477 104.989C61.1548 104.865 61.1874 104.154 60.694 103.983L60.6951 103.984Z" fill="white"/>
<path d="M47.7423 108.361C41.0397 108.361 36.5096 107.312 34.5171 105.274C31.564 102.255 31.4135 99.9981 31.4083 99.9032C31.403 99.7988 31.4661 99.7038 31.565 99.669L38.7599 97.1474C38.821 97.1263 38.8883 97.1305 38.9462 97.1611C39.004 97.1917 39.0461 97.2434 39.0629 97.3066C39.0671 97.3235 39.5343 99.0099 40.1192 100.399C40.7567 101.913 49.757 104.477 51.8979 104.618C52.2976 104.645 52.6858 104.519 52.992 104.266L54.8383 102.735C55.3801 102.286 56.1292 102.15 56.793 102.381L60.7729 103.761C61.098 103.874 61.2979 104.169 61.2821 104.514C61.2663 104.859 61.0401 105.135 60.7056 105.218C60.1796 105.347 59.5567 105.353 58.8971 105.358C57.7556 105.368 56.5763 105.378 56.0029 106.064C54.4133 107.967 52.5354 108.2 52.4554 108.208C50.7838 108.31 49.2109 108.36 47.7433 108.36L47.7423 108.361ZM31.8985 100.049C31.9964 100.615 32.4887 102.53 34.8506 104.945C37.1829 107.33 43.2553 108.298 52.4134 107.742C52.4186 107.742 54.1787 107.516 55.6421 105.764C56.3543 104.911 57.6441 104.9 58.8918 104.888C59.5231 104.883 60.1196 104.878 60.592 104.762C60.7466 104.724 60.8076 104.597 60.8118 104.493C60.8171 104.389 60.7687 104.258 60.6172 104.205L56.6373 102.825C56.1271 102.646 55.5506 102.752 55.134 103.097L53.2876 104.628C52.8889 104.958 52.3818 105.12 51.8642 105.088C50.0263 104.965 40.4864 102.486 39.6857 100.581C39.2218 99.4781 38.8315 98.1957 38.6789 97.6715L31.8975 100.049H31.8985Z" fill="#1E1E1E"/>
<path d="M37.555 79.8483C37.737 79.7566 40.1977 76.8468 41.6369 75.133C41.5275 74.6573 41.5443 74.5055 41.5833 73.7841C41.5833 73.7841 40.8374 73.0353 41.1372 72.0629C41.4854 70.9323 42.5554 71.8393 42.5554 71.8393C42.5554 71.8393 43.0509 70.9703 44.9161 72.469C46.7814 73.9676 48.7508 72.1441 48.7508 72.1441C48.7508 72.1441 48.7508 73.2663 47.7651 74.6299C47.2212 75.3829 47.1296 76.3764 47.1044 77.3056L46.0597 77.1547C45.4842 77.8371 45.0571 78.1725 44.267 78.5005C44.267 78.5005 43.6421 78.3855 42.9941 77.8476L41.8494 80.4621L42.9941 82.3425C42.9941 82.3425 43.2802 82.7169 40.2135 83.1272C37.1468 83.5375 34.6924 81.077 34.6924 81.077C34.6924 81.077 36.3283 80.4621 37.555 79.8472V79.8483Z" fill="white"/>
<path d="M39.508 83.4099C36.7211 83.4099 34.6212 81.3406 34.5265 81.2447C34.4697 81.1888 34.4466 81.1076 34.4634 81.0295C34.4802 80.9515 34.536 80.8872 34.6096 80.8597C34.6254 80.8534 36.2351 80.247 37.4354 79.6469C37.528 79.5699 38.0835 78.9993 41.3838 75.0718C41.3006 74.67 41.3122 74.4633 41.3438 73.8875V73.8695C41.1449 73.6323 40.6326 72.9067 40.9135 71.9944C41.0303 71.6137 41.2365 71.3785 41.5247 71.293C41.9066 71.1813 42.3085 71.3838 42.5326 71.5325C42.6189 71.4681 42.7398 71.4059 42.9029 71.3743C43.4521 71.2698 44.1801 71.5757 45.0628 72.2855C46.7513 73.6428 48.5177 72.0408 48.5924 71.9722C48.6607 71.909 48.7596 71.8921 48.8449 71.9301C48.9301 71.968 48.9848 72.0524 48.9848 72.1452C48.9848 72.1937 48.9721 73.3602 47.9548 74.7692C47.4562 75.46 47.3636 76.4007 47.3383 77.314C47.3362 77.3805 47.3057 77.4437 47.2552 77.487C47.2047 77.5302 47.1374 77.5492 47.0711 77.5397L46.1537 77.4068C45.5772 78.0734 45.1259 78.3993 44.3568 78.7188C44.3148 78.7357 44.2695 78.741 44.2253 78.7325C44.2011 78.7283 43.6825 78.6292 43.0902 78.2157L42.1139 80.4453L43.1933 82.2192C43.2333 82.2825 43.2564 82.3816 43.2122 82.4902C43.1501 82.64 43.005 82.9912 40.2454 83.3603C39.9951 83.394 39.7499 83.4088 39.5101 83.4088L39.508 83.4099ZM35.1336 81.1593C35.8437 81.7572 37.8436 83.2074 40.1823 82.8963C41.9687 82.6579 42.541 82.4385 42.7177 82.3405L41.6499 80.5855C41.6099 80.5201 41.6047 80.4389 41.6352 80.3693L42.7798 77.7549C42.8093 77.6874 42.8682 77.6378 42.9397 77.6209C43.0102 77.603 43.086 77.6209 43.1428 77.6684C43.6215 78.0649 44.0812 78.2126 44.2453 78.2558C44.9376 77.9605 45.3289 77.6589 45.8802 77.004C45.9328 76.9417 46.0117 76.9111 46.0927 76.9227L46.8796 77.0366C46.9196 76.1318 47.0532 75.2163 47.5761 74.4928C48.1084 73.7556 48.3388 73.0965 48.4398 72.6662C47.7013 73.1408 46.2042 73.8042 44.7703 72.6514C43.7582 71.8383 43.2206 71.7908 42.9902 71.8351C42.8251 71.8668 42.7598 71.9554 42.7588 71.9564C42.7241 72.0165 42.6651 72.0587 42.5968 72.0714C42.5273 72.084 42.4579 72.064 42.4053 72.0197C42.2917 71.9248 41.9108 71.6696 41.6562 71.7444C41.5289 71.7824 41.429 71.9132 41.3617 72.1336C41.1071 72.9615 41.7436 73.6133 41.7499 73.6207C41.7972 73.6681 41.8214 73.7324 41.8183 73.7989L41.8119 73.9128C41.7783 74.535 41.7709 74.6647 41.8666 75.0813C41.8835 75.153 41.8645 75.2279 41.8172 75.2849C37.9131 79.9327 37.7426 80.0181 37.6606 80.0582C36.7832 80.498 35.6901 80.9409 35.1346 81.1593H35.1336Z" fill="#1E1E1E"/>
<path d="M42.9934 78.0838C42.9376 78.0838 42.8818 78.0637 42.8366 78.0237L42.4989 77.7189C42.4032 77.6324 42.3958 77.4837 42.4821 77.3877C42.5683 77.2917 42.7167 77.2843 42.8124 77.3708L43.1501 77.6756C43.2459 77.7621 43.2543 77.9108 43.167 78.0068C43.1207 78.0585 43.0575 78.0838 42.9934 78.0838Z" fill="#1E1E1E"/>
<path d="M71.2752 78.1629C74.8693 74.56 74.8693 68.7184 71.2752 65.1154C67.6811 61.5124 61.8539 61.5124 58.2598 65.1154C54.6657 68.7184 54.6657 74.56 58.2598 78.163C61.8539 81.7659 67.6811 81.7659 71.2752 78.1629Z" fill="white"/>
<path d="M64.768 81.1002C59.5646 81.1002 55.3301 76.8563 55.3301 71.639C55.3301 66.4216 59.5635 62.1777 64.768 62.1777C69.9724 62.1777 74.2058 66.4216 74.2058 71.639C74.2058 76.8563 69.9724 81.1002 64.768 81.1002ZM64.768 62.6471C59.8223 62.6471 55.7982 66.6811 55.7982 71.639C55.7982 76.5968 59.8223 80.6309 64.768 80.6309C69.7136 80.6309 73.7377 76.5968 73.7377 71.639C73.7377 66.6811 69.7136 62.6471 64.768 62.6471Z" fill="#1E1E1E"/>
<path d="M64.0661 66.792H60.79V76.6434H64.0661V66.792Z" fill="#1E1E1E"/>
<path d="M68.7448 66.792H65.4688V76.6434H68.7448V66.792Z" fill="#1E1E1E"/>
</g>
<defs>
<clipPath id="clip0_0_5865">
<rect width="194" height="193" fill="white"/>
</clipPath>
</defs>
</svg>
