<svg width="200" height="198" viewBox="0 0 200 198" fill="none" xmlns="http://www.w3.org/2000/svg">
<g clip-path="url(#clip0_0_3772)">
<path d="M48.2243 53.0521L47.7309 50.344L44.7263 50.2185C44.5002 49.6115 44.2264 49.0315 43.9083 48.483L45.7141 46.0832L43.9321 43.9842L41.2673 45.3777C40.7728 44.972 40.2459 44.6074 39.6919 44.2882L40.0565 41.303L37.4641 40.3758L35.8553 42.9119C35.2299 42.8081 34.5904 42.7572 33.9434 42.7594L32.7662 39.9917L30.0581 40.4851L29.9326 43.4897C29.3256 43.7158 28.7456 43.9896 28.1971 44.3077L25.7973 42.5019L23.6983 44.2839L25.0918 46.9488C24.6861 47.4432 24.3204 47.9701 24.0023 48.5241L21.0172 48.1595L20.0899 50.7519L22.626 52.3607C22.5222 52.9861 22.4713 53.6256 22.4735 54.2726L19.7058 55.4498L20.1992 58.1579L23.2038 58.2834C23.4299 58.8904 23.7037 59.4704 24.0218 60.0189L22.216 62.4187L23.998 64.5177L26.6629 63.1242C27.1573 63.531 27.6842 63.8945 28.2382 64.2137L27.8736 67.1988L30.466 68.1261L32.0749 65.59C32.7002 65.6938 33.3397 65.7447 33.9867 65.7436L35.1639 68.5113L37.872 68.0179L37.9975 65.0133C38.6045 64.7871 39.1845 64.5134 39.733 64.1953L42.1328 66.0011L44.2318 64.2191L42.8383 61.5542C43.2451 61.0598 43.6086 60.5328 43.9278 59.9789L46.913 60.3435L47.8402 57.7511L45.3041 56.1422C45.4079 55.5168 45.4588 54.8774 45.4577 54.2304L48.2254 53.0532L48.2243 53.0521ZM35.2353 61.2231C31.3846 61.9243 27.694 59.3719 26.9929 55.5201C26.2917 51.6694 28.8441 47.9788 32.6959 47.2766C36.5466 46.5755 40.2372 49.1278 40.9394 52.9796C41.6405 56.8304 39.0882 60.5209 35.2364 61.2231H35.2353Z" fill="black"/>
<path d="M95.2682 30.0268L94.4243 25.3917L89.2828 25.1775C88.8955 24.1388 88.4281 23.1466 87.8838 22.2086L90.9739 18.1025L87.9249 14.5104L83.3644 16.8961C82.5194 16.2004 81.6171 15.5772 80.6682 15.0308L81.2925 9.92173L76.8564 8.33557L74.1039 12.6753C73.0338 12.4968 71.9399 12.4103 70.832 12.4135L68.8185 7.67773L64.1833 8.52167L63.9691 13.6632C62.9315 14.0505 61.9382 14.5179 61.0002 15.0622L56.8941 11.9721L53.302 15.021L55.6877 19.5815C54.992 20.4266 54.3688 21.3289 53.8224 22.2778L48.7134 21.6535L47.1272 26.0896L51.467 28.8421C51.2884 29.9122 51.2019 31.006 51.2051 32.114L46.4694 34.1275L47.3133 38.7627L52.4548 38.9769C52.8421 40.0156 53.3096 41.0077 53.8538 41.9458L50.7637 46.0519L53.8127 49.644L58.3732 47.2583C59.2182 47.954 60.1205 48.5772 61.0694 49.1236L60.4451 54.2326L64.8812 55.8188L67.6337 51.479C68.7038 51.6575 69.7977 51.7441 70.9056 51.7408L72.9191 56.4766L77.5543 55.6327L77.7685 50.4912C78.8072 50.1038 79.7994 49.6364 80.7385 49.0922L84.8446 52.1823L88.4367 49.1333L86.051 44.5728C86.7467 43.7278 87.3699 42.8254 87.9163 41.8766L93.0253 42.5009L94.6115 38.0648L90.2717 35.3123C90.4502 34.2422 90.5368 33.1483 90.5336 32.0404L95.2693 30.0268H95.2682ZM73.0425 44.0091C66.4522 45.209 60.1378 40.8411 58.9369 34.2508C57.737 27.6606 62.1049 21.3462 68.6951 20.1452C75.2854 18.9453 81.5998 23.3132 82.8007 29.9035C84.0006 36.4938 79.6327 42.8081 73.0425 44.0091Z" fill="black"/>
<path d="M83.4857 198C78.935 198 74.3853 197.489 69.8648 196.469C69.7339 196.44 69.6528 196.31 69.682 196.179C69.7112 196.048 69.841 195.967 69.9719 195.996C78.9144 198.016 87.9802 198.023 96.9162 196.013C97.0482 195.983 97.1769 196.067 97.2061 196.196C97.2353 196.327 97.1531 196.457 97.0233 196.486C92.5331 197.496 88.0105 198 83.4868 198H83.4857Z" fill="black"/>
<path d="M82.6449 193.089C64.7286 193.089 47.534 185.941 47.3273 185.854C47.204 185.802 47.1466 185.66 47.1986 185.537C47.2505 185.414 47.3933 185.356 47.5167 185.408C47.7644 185.513 72.5144 195.8 93.4786 191.599C93.6096 191.572 93.7372 191.658 93.7643 191.79C93.7902 191.921 93.7059 192.048 93.5739 192.075C89.9936 192.793 86.303 193.091 82.6449 193.091V193.089Z" fill="black"/>
<path d="M23.7936 77.1391C23.4549 77.1391 23.1163 77.0763 22.7906 76.9497C22.083 76.6749 21.5247 76.1339 21.2196 75.4274C20.5974 73.9841 21.2423 72.293 22.6586 71.6578C23.3402 71.3516 24.0976 71.3322 24.7944 71.6027C25.502 71.8775 26.0603 72.4185 26.3654 73.125C26.9875 74.5683 26.3427 76.2594 24.9264 76.8946C24.5639 77.0579 24.1788 77.1391 23.7936 77.1391ZM23.7914 71.898C23.4733 71.898 23.1563 71.9651 22.8577 72.0993C21.6827 72.6273 21.1471 74.0338 21.6653 75.2348C21.9185 75.8212 22.3805 76.2703 22.967 76.4975C23.5415 76.7204 24.1658 76.7041 24.7273 76.452C25.9034 75.924 26.4379 74.5175 25.9196 73.3165C25.6665 72.7301 25.2045 72.2821 24.618 72.0538C24.3497 71.95 24.0706 71.898 23.7914 71.898Z" fill="black"/>
<path d="M98.2232 6.80868C98.1615 6.80868 98.0988 6.78488 98.0522 6.73727L96.9973 5.68344C96.9021 5.58931 96.9021 5.43567 96.9973 5.34045C97.0925 5.24524 97.2451 5.24524 97.3403 5.34045L98.3952 6.39429C98.4904 6.48842 98.4904 6.64206 98.3952 6.73727C98.3476 6.78488 98.2859 6.80868 98.2243 6.80868H98.2232Z" fill="black"/>
<path d="M101.915 10.4981C101.853 10.4981 101.79 10.4743 101.744 10.4267L100.689 9.37289C100.594 9.27876 100.594 9.12512 100.689 9.02991C100.784 8.93469 100.937 8.93469 101.032 9.02991L102.087 10.0837C102.182 10.1779 102.182 10.3315 102.087 10.4267C102.039 10.4743 101.978 10.4981 101.916 10.4981H101.915Z" fill="black"/>
<path d="M97.1683 10.4981C97.1066 10.4981 97.0438 10.4743 96.9973 10.4267C96.9021 10.3315 96.9021 10.1779 96.9973 10.0837L98.0522 9.02991C98.1474 8.93469 98.3 8.93469 98.3952 9.02991C98.4904 9.12512 98.4904 9.27876 98.3952 9.37289L97.3403 10.4267C97.2927 10.4743 97.231 10.4981 97.1693 10.4981H97.1683Z" fill="black"/>
<path d="M100.86 6.80868C100.798 6.80868 100.735 6.78488 100.689 6.73727C100.594 6.64206 100.594 6.48842 100.689 6.39429L101.744 5.34045C101.839 5.24524 101.992 5.24524 102.087 5.34045C102.182 5.43567 102.182 5.58931 102.087 5.68344L101.032 6.73727C100.984 6.78488 100.923 6.80868 100.861 6.80868H100.86Z" fill="black"/>
<path d="M189.861 152.913L50.978 152.653C49.526 152.653 48.3758 151.341 48.4689 149.792L54.753 44.9146C54.8374 43.4983 55.9356 42.3968 57.262 42.3968L196.341 42.1426C197.793 42.1426 199.15 43.7071 199.057 45.2565L192.773 150.134C192.689 151.55 191.188 152.913 189.861 152.913Z" fill="black"/>
<path d="M186.019 152.913H46.7334C45.2814 152.913 44.1312 151.602 44.2243 150.053L50.5083 44.6257C50.5927 43.2094 51.6909 42.1079 53.0174 42.1079H192.303C193.755 42.1079 194.906 43.4193 194.812 44.9686L188.528 150.396C188.444 151.812 187.346 152.913 186.019 152.913Z" fill="white"/>
<path d="M116.448 153.156H94.2026C94.0684 153.156 93.9602 153.047 93.9602 152.913C93.9602 152.779 94.0684 152.671 94.2026 152.671H116.448C116.582 152.671 116.69 152.779 116.69 152.913C116.69 153.047 116.582 153.156 116.448 153.156Z" fill="black"/>
<path d="M178.134 153.156H126.659C126.525 153.156 126.417 153.047 126.417 152.913C126.417 152.779 126.525 152.671 126.659 152.671H178.134C178.268 152.671 178.376 152.779 178.376 152.913C178.376 153.047 178.268 153.156 178.134 153.156Z" fill="black"/>
<path d="M188.995 147.485C188.995 147.485 188.985 147.485 188.981 147.485C188.847 147.478 188.745 147.363 188.752 147.23L194.571 44.9548C194.613 44.2462 194.368 43.5537 193.898 43.0538C193.471 42.6005 192.904 42.3495 192.303 42.3495L159.697 42.4014C159.563 42.4014 159.455 42.2932 159.455 42.159C159.455 42.0249 159.563 41.9167 159.697 41.9167L192.305 41.8647C193.04 41.8647 193.733 42.1688 194.252 42.7206C194.814 43.3167 195.106 44.1401 195.056 44.9819L189.237 147.256C189.23 147.385 189.124 147.484 188.996 147.484L188.995 147.485Z" fill="black"/>
<path d="M47.5795 94.0026C47.5795 94.0026 47.5698 94.0026 47.5644 94.0026C47.4313 93.995 47.3285 93.8803 47.3372 93.7462L50.2661 44.6108C50.358 43.0711 51.5666 41.8647 53.0175 41.8647H131.444C131.578 41.8647 131.686 41.9729 131.686 42.1071C131.686 42.2413 131.578 42.3495 131.444 42.3495H53.0175C51.823 42.3495 50.8265 43.3557 50.7497 44.64L47.8208 93.7754C47.8132 93.9041 47.7061 94.0037 47.5795 94.0037V94.0026Z" fill="black"/>
<path d="M183.503 148.822H49.909C48.5641 148.822 47.4994 147.608 47.5849 146.173L53.4048 48.5295C53.4827 47.2182 54.5008 46.1968 55.7289 46.1968H189.323C190.667 46.1968 191.732 47.4107 191.647 48.8454L185.827 146.489C185.749 147.8 184.731 148.821 183.503 148.821V148.822Z" fill="white"/>
<path d="M183.503 149.065H49.9089C49.223 149.065 48.577 148.781 48.0923 148.266C47.5686 147.711 47.296 146.943 47.3425 146.159L53.1624 48.5155C53.2479 47.0797 54.3753 45.9556 55.7288 45.9556H189.323C190.009 45.9556 190.654 46.239 191.139 46.7541C191.663 47.3091 191.936 48.0773 191.889 48.8617L186.069 146.505C185.984 147.941 184.856 149.065 183.503 149.065ZM55.7288 46.4403C54.6317 46.4403 53.7164 47.3643 53.6461 48.5447L47.8262 146.188C47.7872 146.839 48.0133 147.475 48.445 147.934C48.8378 148.351 49.3571 148.58 49.9089 148.58H183.503C184.6 148.58 185.515 147.656 185.585 146.476L191.405 48.8325C191.444 48.1812 191.218 47.545 190.786 47.0862C190.394 46.6697 189.874 46.4403 189.323 46.4403H55.7288Z" fill="black"/>
<path d="M162.121 65.8204H190.635L190.91 61.2372H162.397L163.3 46.1968H155.829L154.926 61.2372H98.6948L99.5723 46.1968H94.8701L94.1473 58.594C94.0478 60.2926 93.4127 61.9167 92.3329 63.2313L78.3171 80.2982L80.3328 46.1968H72.8618L70.6946 82.8549H51.3544L50.9314 90.0478H68.891C69.6386 90.0478 70.2326 90.6775 70.1882 91.4241L69.2156 107.882C69.129 109.356 69.4904 110.821 70.2532 112.083L72.7677 116.246H62.0475C60.6204 116.246 59.4411 117.358 59.3577 118.783L58.6242 131.364H48.4667L48.1572 135.947H58.3569L57.606 148.821H62.3083L63.0592 135.947H84.652L92.4183 148.821H99.8893L92.123 135.947H141.51L130.937 148.821H138.408L147.946 137.208C148.602 136.41 149.579 135.947 150.612 135.947H186.439L186.729 131.364H152.746L157.258 125.869C158.125 124.813 158.637 123.511 158.719 122.148L162.122 65.8193L162.121 65.8204ZM154.65 65.8204L153.148 90.8009H96.9691L98.4265 65.8204H154.65ZM77.8713 112.329C77.0122 110.906 76.6043 109.257 76.7028 107.597L77.6019 92.3784C77.6917 90.8647 78.2586 89.4181 79.2227 88.2463L93.4224 71.0009L90.962 113.165C90.8614 114.895 89.4289 116.247 87.6956 116.247H80.2376L77.8713 112.329ZM63.3264 131.365L63.862 122.19C63.9063 121.426 64.5393 120.829 65.3053 120.829H75.5332L81.8886 131.365H63.3275H63.3264ZM87.8849 128.922L83.0031 120.83H90.6569C93.2309 120.83 95.3548 118.816 95.4922 116.247H95.4857L96.7029 95.3841H152.874L151.303 121.532C151.198 123.28 150.543 124.951 149.432 126.305L145.276 131.365H92.2128C90.4416 131.365 88.8002 130.438 87.886 128.922H87.8849Z" fill="white"/>
<path d="M138.407 149.065H130.936C130.842 149.065 130.758 149.011 130.717 148.926C130.677 148.842 130.689 148.741 130.749 148.669L140.997 136.191H92.5514L100.096 148.697C100.141 148.772 100.143 148.866 100.099 148.942C100.056 149.017 99.9759 149.065 99.8882 149.065H92.4173C92.3318 149.065 92.2539 149.021 92.2095 148.948L84.5135 136.191H63.2853L62.5474 148.837C62.5398 148.964 62.4338 149.065 62.305 149.065H57.6028C57.5357 149.065 57.4719 149.038 57.4264 148.989C57.381 148.94 57.3572 148.876 57.3604 148.808L58.0962 136.191H48.1529C48.0858 136.191 48.022 136.162 47.9755 136.114C47.93 136.065 47.9062 135.999 47.9105 135.932L48.22 131.349C48.2286 131.221 48.3347 131.123 48.4623 131.123H58.3916L59.1121 118.77C59.203 117.219 60.4906 116.004 62.0443 116.004H72.3338L70.0422 112.21C69.2502 110.898 68.8791 109.398 68.9699 107.869L69.9426 91.4112C69.9599 91.1169 69.8582 90.8377 69.657 90.6235C69.4547 90.4093 69.182 90.2913 68.8866 90.2913H50.9271C50.86 90.2913 50.7961 90.2643 50.7507 90.2156C50.7053 90.1669 50.6815 90.102 50.6847 90.0349L51.1077 82.842C51.1153 82.7143 51.2214 82.6137 51.3501 82.6137H70.462L72.6151 46.1839C72.6227 46.0551 72.7287 45.9556 72.8575 45.9556H80.3284C80.3955 45.9556 80.4594 45.9826 80.5048 46.0313C80.5502 46.08 80.574 46.1449 80.5708 46.212L78.5995 79.569L92.1424 63.0788C93.1963 61.7945 93.8054 60.2397 93.9017 58.581L94.6245 46.1839C94.632 46.0562 94.7381 45.9556 94.8668 45.9556H99.5691C99.6361 45.9556 99.7 45.9826 99.7454 46.0313C99.7909 46.08 99.8147 46.1449 99.8114 46.212L98.9491 60.996H154.695L155.586 46.1839C155.593 46.0562 155.699 45.9556 155.828 45.9556H163.299C163.366 45.9556 163.43 45.9837 163.475 46.0313C163.521 46.08 163.545 46.1449 163.54 46.212L162.652 60.996H190.908C190.975 60.996 191.039 61.023 191.084 61.0717C191.129 61.1204 191.153 61.1853 191.15 61.2524L190.875 65.8356C190.868 65.9633 190.762 66.0639 190.633 66.0639H162.347L158.957 122.164C158.872 123.588 158.347 124.923 157.442 126.024L153.255 131.123H186.726C186.793 131.123 186.857 131.151 186.902 131.199C186.948 131.248 186.971 131.314 186.967 131.381L186.677 135.964C186.67 136.092 186.564 136.192 186.435 136.192H150.608C149.644 136.192 148.741 136.619 148.13 137.363L138.591 148.977C138.546 149.034 138.477 149.066 138.404 149.066L138.407 149.065ZM131.449 148.58H138.293L147.758 137.054C148.461 136.197 149.501 135.705 150.611 135.705H186.21L186.469 131.607H152.743C152.649 131.607 152.564 131.553 152.524 131.469C152.484 131.384 152.496 131.284 152.556 131.211L157.069 125.716C157.909 124.694 158.395 123.455 158.475 122.134L161.878 65.8053C161.886 65.6777 161.992 65.5781 162.121 65.5781H190.407L190.652 61.4796H162.397C162.33 61.4796 162.266 61.4515 162.22 61.4039C162.175 61.3552 162.151 61.2903 162.154 61.2232L163.043 46.4392H156.057L155.167 61.2513C155.159 61.379 155.053 61.4796 154.925 61.4796H98.6937C98.6267 61.4796 98.5628 61.4526 98.5174 61.4039C98.4719 61.3552 98.4481 61.2903 98.4514 61.2232L99.3137 46.4392H95.0973L94.3875 58.6081C94.2847 60.3695 93.6388 62.0217 92.519 63.385L78.5032 80.4519C78.4372 80.5331 78.3246 80.5623 78.2273 80.5233C78.1299 80.4855 78.0671 80.3881 78.0736 80.2831L80.0742 46.4381H73.089L70.9359 82.868C70.9283 82.9967 70.8223 83.0963 70.6935 83.0963H51.5817L51.1867 89.8045H68.8888C69.3183 89.8045 69.7165 89.9765 70.0119 90.2892C70.3062 90.6019 70.4544 91.0098 70.4295 91.4382L69.4568 107.895C69.3724 109.325 69.7197 110.731 70.4598 111.957L72.9743 116.119C73.0198 116.194 73.0208 116.288 72.9776 116.364C72.9343 116.439 72.8542 116.487 72.7666 116.487H62.0464C60.7492 116.487 59.6737 117.501 59.599 118.796L58.8655 131.377C58.8579 131.505 58.7518 131.605 58.6231 131.605H48.6917L48.4147 135.703H58.3558C58.4229 135.703 58.4868 135.73 58.5322 135.778C58.5777 135.827 58.6015 135.892 58.5982 135.959L57.8625 148.577H62.0789L62.8168 135.931C62.8244 135.803 62.9304 135.703 63.0592 135.703H84.6531C84.7385 135.703 84.8164 135.747 84.8608 135.819L92.5568 148.577H99.4609L91.9163 136.07C91.8709 135.996 91.8698 135.902 91.9131 135.826C91.9563 135.75 92.0364 135.703 92.124 135.703H141.512C141.606 135.703 141.69 135.757 141.731 135.841C141.771 135.925 141.759 136.026 141.699 136.099L131.451 148.577L131.449 148.58ZM145.272 131.607H92.2106C90.3658 131.607 88.6282 130.626 87.6761 129.047L82.7942 120.954C82.7488 120.88 82.7477 120.786 82.791 120.71C82.8343 120.634 82.9143 120.586 83.002 120.586H90.6558C93.0827 120.586 95.0886 118.702 95.2455 116.286C95.2423 116.268 95.2412 116.25 95.2423 116.231L96.4595 95.369C96.4671 95.2413 96.5731 95.1407 96.7018 95.1407H152.873C152.94 95.1407 153.004 95.1678 153.05 95.2165C153.095 95.2651 153.119 95.3301 153.115 95.3971L151.544 121.545C151.434 123.356 150.769 125.055 149.617 126.457L145.461 131.518C145.415 131.574 145.346 131.606 145.274 131.606L145.272 131.607ZM88.0905 128.796C88.956 130.231 90.5346 131.123 92.2106 131.123H145.159L149.242 126.151C150.328 124.829 150.957 123.226 151.06 121.518L152.616 95.6265H96.9301L95.7292 116.207C95.7324 116.224 95.7335 116.241 95.7324 116.26C95.5874 118.958 93.3575 121.072 90.6547 121.072H83.4304L88.0905 128.797V128.796ZM81.8865 131.607H63.3253C63.2582 131.607 63.1944 131.58 63.149 131.532C63.1035 131.483 63.0797 131.418 63.083 131.351L63.6185 122.177C63.6705 121.285 64.4105 120.588 65.3032 120.588H75.531C75.6165 120.588 75.6944 120.632 75.7387 120.704L82.0942 131.241C82.1397 131.315 82.1407 131.409 82.0975 131.485C82.0542 131.561 81.9741 131.608 81.8865 131.608V131.607ZM63.5818 131.123H81.4569L75.3936 121.072H65.3032C64.667 121.072 64.139 121.57 64.1022 122.205L63.5818 131.123ZM87.6945 116.489H80.2365C80.151 116.489 80.0731 116.445 80.0287 116.372L77.6625 112.454C76.7742 110.983 76.3576 109.298 76.4593 107.583L77.3584 92.3644C77.4515 90.788 78.0314 89.3111 79.0344 88.0928L93.2341 70.8462C93.3001 70.7651 93.4127 70.7369 93.51 70.7748C93.6074 70.8127 93.6691 70.9101 93.6637 71.015L91.2033 113.179C91.0951 115.035 89.5544 116.489 87.6945 116.489ZM80.3739 116.004H87.6945C89.2979 116.004 90.6255 114.75 90.7196 113.151L93.1368 71.7291L79.4098 88.4011C78.4718 89.5394 77.9297 90.92 77.8432 92.3925L76.944 107.611C76.8488 109.228 77.2405 110.816 78.079 112.203L80.375 116.004H80.3739ZM153.148 91.0433H96.9691C96.902 91.0433 96.8382 91.0163 96.7927 90.9676C96.7473 90.9189 96.7235 90.854 96.7267 90.7869L98.1841 65.8064C98.1917 65.6787 98.2977 65.5781 98.4265 65.5781H154.65C154.717 65.5781 154.781 65.6063 154.826 65.6539C154.872 65.7025 154.895 65.7675 154.892 65.8345L153.39 90.815C153.383 90.9427 153.277 91.0433 153.148 91.0433ZM97.2255 90.5586H152.92L154.392 66.0628H98.6548L97.2255 90.5586Z" fill="black"/>
<path d="M89.853 133.895C88.8749 133.895 87.9412 133.592 87.1513 133.019C87.0432 132.94 87.0193 132.789 87.0973 132.681C87.1762 132.572 87.3266 132.548 87.4359 132.627C88.1413 133.138 88.9766 133.41 89.8519 133.41H90.0261C90.1603 133.41 90.2685 133.518 90.2685 133.652C90.2685 133.786 90.1603 133.895 90.0261 133.895H89.8519H89.853ZM92.9366 133.889C92.8025 133.889 92.6943 133.781 92.6943 133.647C92.6943 133.513 92.8025 133.404 92.9366 133.404L95.846 133.4C95.9802 133.4 96.0884 133.508 96.0884 133.643C96.0884 133.777 95.9802 133.885 95.846 133.885L92.9366 133.889ZM98.7544 133.879C98.6202 133.879 98.512 133.771 98.512 133.637C98.512 133.503 98.6202 133.395 98.7544 133.395L101.664 133.39C101.798 133.39 101.906 133.499 101.906 133.633C101.906 133.767 101.798 133.875 101.664 133.875L98.7544 133.879ZM104.572 133.871C104.438 133.871 104.33 133.763 104.33 133.628C104.33 133.494 104.438 133.386 104.572 133.386L107.482 133.382C107.616 133.382 107.724 133.49 107.724 133.624C107.724 133.758 107.616 133.867 107.482 133.867L104.572 133.871ZM110.39 133.861C110.256 133.861 110.147 133.753 110.147 133.619C110.147 133.485 110.256 133.376 110.39 133.376L113.299 133.372C113.433 133.372 113.542 133.48 113.542 133.614C113.542 133.749 113.433 133.857 113.299 133.857L110.39 133.861ZM116.208 133.851C116.073 133.851 115.965 133.743 115.965 133.609C115.965 133.475 116.073 133.367 116.208 133.367L119.117 133.362C119.251 133.362 119.359 133.47 119.359 133.605C119.359 133.739 119.251 133.847 119.117 133.847L116.208 133.851ZM122.025 133.842C121.891 133.842 121.783 133.733 121.783 133.599C121.783 133.465 121.891 133.357 122.025 133.356L124.935 133.351C125.069 133.351 125.177 133.46 125.177 133.594C125.177 133.728 125.069 133.836 124.935 133.836L122.025 133.841V133.842ZM127.843 133.832C127.709 133.832 127.601 133.724 127.601 133.59C127.601 133.455 127.709 133.347 127.843 133.347L130.752 133.343C130.887 133.343 130.995 133.451 130.995 133.585C130.995 133.719 130.887 133.828 130.752 133.828L127.843 133.832ZM133.661 133.822C133.527 133.822 133.418 133.714 133.418 133.58C133.418 133.446 133.527 133.337 133.661 133.337L136.57 133.333C136.704 133.333 136.813 133.441 136.813 133.575C136.813 133.71 136.704 133.818 136.57 133.818L133.661 133.822ZM139.479 133.812C139.344 133.812 139.236 133.704 139.236 133.57C139.236 133.436 139.344 133.328 139.479 133.327L142.388 133.322C142.522 133.322 142.63 133.43 142.63 133.565C142.63 133.699 142.522 133.807 142.388 133.807L139.479 133.811V133.812ZM145.295 133.782C145.172 133.782 145.067 133.689 145.054 133.564C145.041 133.43 145.137 133.311 145.271 133.298C146.188 133.206 147.052 132.8 147.707 132.153C147.802 132.059 147.956 132.06 148.05 132.155C148.144 132.25 148.143 132.404 148.048 132.498C147.314 133.223 146.346 133.678 145.32 133.782C145.311 133.782 145.304 133.783 145.295 133.783V133.782ZM85.5273 130.783C85.4451 130.783 85.3639 130.741 85.3185 130.664L83.833 128.162C83.7648 128.048 83.8027 127.898 83.9173 127.83C84.032 127.761 84.1813 127.8 84.2495 127.915L85.7351 130.416C85.8032 130.531 85.7654 130.68 85.6507 130.748C85.6117 130.771 85.5695 130.783 85.5273 130.783ZM149.717 130.315C149.664 130.315 149.611 130.298 149.566 130.262C149.461 130.179 149.445 130.027 149.528 129.922L151.347 127.651C151.43 127.547 151.582 127.528 151.687 127.613C151.791 127.696 151.809 127.849 151.725 127.954L149.907 130.225C149.859 130.284 149.789 130.315 149.717 130.315ZM82.5562 125.781C82.4729 125.781 82.3929 125.739 82.3474 125.662L80.8619 123.16C80.7937 123.046 80.8316 122.896 80.9463 122.828C81.061 122.76 81.2103 122.798 81.2784 122.913L82.764 125.414C82.8321 125.529 82.7943 125.678 82.6796 125.746C82.6406 125.769 82.5984 125.781 82.5562 125.781ZM153.29 125.727C153.245 125.727 153.201 125.715 153.161 125.69C153.047 125.619 153.013 125.469 153.084 125.356C153.588 124.551 153.996 123.685 154.293 122.782C154.335 122.655 154.471 122.585 154.599 122.627C154.726 122.669 154.795 122.806 154.754 122.933C154.444 123.872 154.02 124.774 153.495 125.612C153.449 125.686 153.37 125.726 153.29 125.726V125.727ZM79.5852 120.778C79.5029 120.778 79.4218 120.736 79.3763 120.659L77.8908 118.157C77.8226 118.043 77.8605 117.893 77.9752 117.825C78.0899 117.756 78.2392 117.795 78.3074 117.91L79.7929 120.411C79.8611 120.526 79.8232 120.675 79.7085 120.743C79.6695 120.766 79.6273 120.778 79.5852 120.778ZM155.092 120.254C155.086 120.254 155.08 120.254 155.074 120.254C154.941 120.245 154.84 120.128 154.85 119.995C154.857 119.909 154.862 119.823 154.867 119.737L155.006 117.096C155.013 116.963 155.116 116.857 155.261 116.867C155.395 116.874 155.497 116.988 155.491 117.122L155.352 119.764C155.347 119.854 155.341 119.943 155.335 120.031C155.325 120.159 155.219 120.255 155.093 120.255L155.092 120.254ZM76.6141 115.775C76.5308 115.775 76.4507 115.733 76.4053 115.656L74.9197 113.154C74.8515 113.04 74.8894 112.89 75.0041 112.822C75.1188 112.753 75.2681 112.792 75.3363 112.907L76.8218 115.408C76.89 115.523 76.8521 115.672 76.7374 115.74C76.6985 115.763 76.6563 115.775 76.6141 115.775ZM155.402 114.444C155.402 114.444 155.393 114.444 155.389 114.444C155.255 114.437 155.153 114.323 155.159 114.189L155.312 111.284C155.319 111.151 155.426 111.047 155.567 111.054C155.702 111.062 155.803 111.175 155.797 111.31L155.644 114.215C155.638 114.343 155.531 114.444 155.402 114.444ZM73.7469 110.719C73.6506 110.719 73.5597 110.662 73.5218 110.567C73.1496 109.643 72.917 108.672 72.8293 107.68C72.8174 107.547 72.9159 107.429 73.049 107.417C73.1842 107.403 73.3 107.503 73.3119 107.636C73.3952 108.581 73.617 109.506 73.9708 110.386C74.0206 110.51 73.9611 110.651 73.8367 110.701C73.8074 110.712 73.7761 110.718 73.7458 110.718L73.7469 110.719ZM155.708 108.634C155.708 108.634 155.699 108.634 155.695 108.634C155.561 108.626 155.459 108.513 155.466 108.379L155.618 105.474C155.626 105.34 155.735 105.239 155.874 105.244C156.008 105.252 156.109 105.365 156.103 105.499L155.95 108.405C155.944 108.533 155.837 108.634 155.708 108.634ZM73.1301 104.994C73.1301 104.994 73.1215 104.994 73.1172 104.994C72.9841 104.987 72.8813 104.873 72.8889 104.739L73.0468 101.835C73.0544 101.702 73.1713 101.598 73.3022 101.607C73.4353 101.614 73.538 101.728 73.5315 101.862L73.3736 104.766C73.366 104.895 73.26 104.995 73.1312 104.995L73.1301 104.994ZM156.014 102.824C156.014 102.824 156.006 102.824 156.001 102.824C155.867 102.816 155.765 102.703 155.772 102.568L155.924 99.6633C155.932 99.5292 156.036 99.4232 156.18 99.434C156.314 99.4415 156.416 99.5552 156.409 99.6893L156.257 102.594C156.25 102.723 156.143 102.824 156.014 102.824ZM73.4461 99.1851C73.4461 99.1851 73.4374 99.1851 73.4331 99.1851C73.3 99.1775 73.1972 99.0639 73.2048 98.9298L73.3628 96.0247C73.3703 95.8916 73.4839 95.7877 73.6181 95.7953C73.7512 95.8029 73.854 95.9165 73.8475 96.0507L73.6895 98.9557C73.683 99.0845 73.5759 99.1851 73.4482 99.1851H73.4461ZM156.319 97.0147C156.319 97.0147 156.311 97.0147 156.306 97.0147C156.172 97.0071 156.07 96.8935 156.077 96.7593L156.23 93.8543C156.237 93.7212 156.345 93.6162 156.485 93.6249C156.619 93.6325 156.721 93.7461 156.714 93.8802L156.562 96.7853C156.555 96.9141 156.448 97.0147 156.319 97.0147ZM73.762 93.376C73.762 93.376 73.7533 93.376 73.749 93.376C73.6159 93.3685 73.5132 93.2549 73.5207 93.1207L73.6787 90.2156C73.6863 90.0825 73.8031 89.9722 73.934 89.9873C74.0671 89.9949 74.1699 90.1085 74.1623 90.2427L74.0044 93.1467C73.9979 93.2754 73.8908 93.376 73.7631 93.376H73.762ZM156.624 91.2045C156.624 91.2045 156.616 91.2045 156.611 91.2045C156.477 91.197 156.376 91.0834 156.382 90.9492L156.535 88.0441C156.542 87.911 156.653 87.8072 156.79 87.8147C156.924 87.8223 157.026 87.9359 157.019 88.0701L156.867 90.9752C156.86 91.1039 156.753 91.2045 156.624 91.2045ZM73.6397 87.6297C73.5564 87.6297 73.4764 87.5875 73.4309 87.5107C73.009 86.7977 72.2332 86.3552 71.4066 86.3552H71.188C71.0538 86.3552 70.9456 86.247 70.9456 86.1128C70.9456 85.9786 71.0538 85.8704 71.188 85.8704H71.4066C72.4041 85.8704 73.339 86.4038 73.8475 87.2629C73.9156 87.3787 73.8778 87.5269 73.762 87.5951C73.7231 87.6178 73.6809 87.6286 73.6387 87.6286L73.6397 87.6297ZM68.2797 86.3552H65.3703C65.2361 86.3552 65.1279 86.247 65.1279 86.1128C65.1279 85.9786 65.2361 85.8704 65.3703 85.8704H68.2797C68.4138 85.8704 68.522 85.9786 68.522 86.1128C68.522 86.247 68.4138 86.3552 68.2797 86.3552ZM62.4619 86.3552H59.5525C59.4184 86.3552 59.3102 86.247 59.3102 86.1128C59.3102 85.9786 59.4184 85.8704 59.5525 85.8704H62.4619C62.5961 85.8704 62.7043 85.9786 62.7043 86.1128C62.7043 86.247 62.5961 86.3552 62.4619 86.3552ZM56.6442 86.3552H53.7348C53.6006 86.3552 53.4924 86.247 53.4924 86.1128C53.4924 85.9786 53.6006 85.8704 53.7348 85.8704H56.6442C56.7784 85.8704 56.8866 85.9786 56.8866 86.1128C56.8866 86.247 56.7784 86.3552 56.6442 86.3552ZM156.932 85.3944C156.932 85.3944 156.923 85.3944 156.919 85.3944C156.785 85.3868 156.683 85.2732 156.689 85.139L156.842 82.2339C156.848 82.1009 156.956 81.9991 157.097 82.0046C157.231 82.0121 157.333 82.1257 157.327 82.2599L157.174 85.165C157.168 85.2937 157.061 85.3944 156.932 85.3944ZM157.238 79.5842C157.238 79.5842 157.229 79.5842 157.225 79.5842C157.091 79.5766 156.989 79.463 156.996 79.3289L157.148 76.4238C157.156 76.2896 157.265 76.1836 157.403 76.1944C157.538 76.202 157.639 76.3156 157.633 76.4497L157.48 79.3548C157.474 79.4836 157.367 79.5842 157.238 79.5842ZM157.544 73.774C157.544 73.774 157.535 73.774 157.531 73.774C157.397 73.7665 157.295 73.6529 157.302 73.5187L157.454 70.6136C157.461 70.4805 157.567 70.3756 157.71 70.3842C157.844 70.3918 157.946 70.5054 157.939 70.6396L157.786 73.5447C157.78 73.6734 157.673 73.774 157.544 73.774ZM157.849 67.9639C157.849 67.9639 157.841 67.9639 157.836 67.9639C157.702 67.9563 157.6 67.8427 157.607 67.7085L157.759 64.8034C157.767 64.6704 157.875 64.5676 158.015 64.5741C158.149 64.5816 158.251 64.6952 158.244 64.8294L158.092 67.7345C158.085 67.8633 157.978 67.9639 157.849 67.9639ZM158.155 62.1537C158.155 62.1537 158.147 62.1537 158.142 62.1537C158.008 62.1461 157.907 62.0325 157.913 61.8984L157.935 61.4894C157.937 61.445 157.938 61.4017 157.938 61.3574C157.938 60.6314 157.618 59.9454 157.059 59.4769C156.957 59.3914 156.944 59.2378 157.029 59.135C157.115 59.0322 157.268 59.0193 157.371 59.1047C158.04 59.6652 158.423 60.4864 158.423 61.3563C158.423 61.4082 158.422 61.4613 158.418 61.5132L158.397 61.9222C158.39 62.0509 158.283 62.1515 158.154 62.1515L158.155 62.1537ZM154.456 58.8905H154.453L151.545 58.8515C151.41 58.8494 151.303 58.7401 151.306 58.6059C151.308 58.4729 151.416 58.3668 151.548 58.3668H151.551L154.459 58.4058C154.594 58.4079 154.701 58.5172 154.699 58.6514C154.696 58.7845 154.588 58.8905 154.456 58.8905ZM148.638 58.8126H148.635L146.215 58.7801C146.081 58.778 145.974 58.6687 145.976 58.5345C145.978 58.4014 146.086 58.2954 146.218 58.2954H146.221L148.642 58.3279C148.776 58.33 148.883 58.4393 148.881 58.5735C148.879 58.7066 148.77 58.8126 148.638 58.8126Z" fill="black"/>
<path d="M146.555 0C136.937 0 129.14 7.77393 129.14 17.3645C129.14 19.7621 130.229 23.1141 131.862 26.7949C135.976 36.0728 143.549 47.4334 145.864 50.8287C146.197 51.3145 146.913 51.3166 147.245 50.8297C150.478 46.0907 163.97 25.8049 163.97 17.3645C163.97 7.77393 156.173 0 146.556 0L146.555 0Z" fill="black"/>
<path d="M146.554 29.7682C153.427 29.7682 158.999 24.196 158.999 17.3223C158.999 10.4487 153.427 4.87646 146.554 4.87646C139.68 4.87646 134.108 10.4487 134.108 17.3223C134.108 24.196 139.68 29.7682 146.554 29.7682Z" fill="white"/>
<path d="M146.553 60.6856C148.558 60.6856 150.182 59.0609 150.182 57.0567C150.182 55.0525 148.558 53.4277 146.553 53.4277C144.549 53.4277 142.925 55.0525 142.925 57.0567C142.925 59.0609 144.549 60.6856 146.553 60.6856Z" fill="black"/>
<path d="M153.103 13.3926H140.437V23.787H153.103V13.3926Z" fill="white"/>
<path d="M153.103 24.0296H140.437C140.303 24.0296 140.195 23.9214 140.195 23.7872V13.3928C140.195 13.2586 140.303 13.1504 140.437 13.1504H153.103C153.237 13.1504 153.345 13.2586 153.345 13.3928V23.7872C153.345 23.9214 153.237 24.0296 153.103 24.0296ZM140.68 23.5448H152.86V13.6351H140.68V23.5448Z" fill="black"/>
<path d="M150.058 18.0278H147.32V23.7871H150.058V18.0278Z" fill="white"/>
<path d="M150.058 24.0292H147.319C147.184 24.0292 147.076 23.921 147.076 23.7868V18.0275C147.076 17.8934 147.184 17.7852 147.319 17.7852H150.058C150.192 17.7852 150.3 17.8934 150.3 18.0275V23.7868C150.3 23.921 150.192 24.0292 150.058 24.0292ZM147.562 23.5445H149.816V18.271H147.562V23.5445Z" fill="black"/>
<path d="M144.729 17.332H141.921V20.1408H144.729V17.332Z" fill="white"/>
<path d="M144.73 20.3834H141.922C141.787 20.3834 141.679 20.2752 141.679 20.141V17.3322C141.679 17.198 141.787 17.0898 141.922 17.0898H144.73C144.865 17.0898 144.973 17.198 144.973 17.3322V20.141C144.973 20.2752 144.865 20.3834 144.73 20.3834ZM142.164 19.8986H144.488V17.5746H142.164V19.8986Z" fill="black"/>
<path d="M153.823 11.3193H139.42V13.7419H153.823V11.3193Z" fill="white"/>
<path d="M153.823 13.9854H139.42C139.286 13.9854 139.178 13.8772 139.178 13.743V11.3205C139.178 11.1863 139.286 11.0781 139.42 11.0781H153.823C153.957 11.0781 154.066 11.1863 154.066 11.3205V13.743C154.066 13.8772 153.957 13.9854 153.823 13.9854ZM139.662 13.5006H153.581V11.5628H139.662V13.5006Z" fill="black"/>
<path d="M104.612 158.823H99.9792C98.0857 158.823 96.5515 163.369 96.5515 168.919C96.5515 174.47 98.0857 179.017 99.9792 179.017H104.612C106.506 179.017 108.04 174.471 108.04 168.92C108.04 163.37 106.506 158.823 104.612 158.823Z" fill="black"/>
<path d="M99.9792 178.854C101.872 178.854 103.407 174.354 103.407 168.803C103.407 163.253 101.872 158.753 99.9792 158.753C98.0861 158.753 96.5515 163.253 96.5515 168.803C96.5515 174.354 98.0861 178.854 99.9792 178.854Z" fill="white"/>
<path d="M99.9791 179.096C97.9212 179.096 96.3091 174.575 96.3091 168.803C96.3091 163.031 97.9212 158.51 99.9791 158.51C102.037 158.51 103.649 163.031 103.649 168.803C103.649 174.575 102.037 179.096 99.9791 179.096ZM99.9791 158.996C98.4406 158.996 96.7938 162.937 96.7938 168.804C96.7938 174.672 98.4406 178.612 99.9791 178.612C101.518 178.612 103.164 174.672 103.164 168.804C103.164 162.937 101.518 158.996 99.9791 158.996Z" fill="black"/>
<path d="M90.5217 159.566H85.8887C83.9953 159.566 82.4611 164.112 82.4611 169.662C82.4611 175.213 83.9953 179.76 85.8887 179.76H90.5217C92.4152 179.76 93.9494 175.214 93.9494 169.663C93.9494 164.113 92.4152 159.566 90.5217 159.566Z" fill="black"/>
<path d="M85.8876 179.597C87.7807 179.597 89.3153 175.097 89.3153 169.546C89.3153 163.996 87.7807 159.496 85.8876 159.496C83.9946 159.496 82.46 163.996 82.46 169.546C82.46 175.097 83.9946 179.597 85.8876 179.597Z" fill="white"/>
<path d="M85.8876 179.838C83.8297 179.838 82.2175 175.317 82.2175 169.545C82.2175 163.773 83.8297 159.252 85.8876 159.252C87.9455 159.252 89.5576 163.773 89.5576 169.545C89.5576 175.317 87.9455 179.838 85.8876 179.838ZM85.8876 159.738C84.349 159.738 82.7022 163.679 82.7022 169.546C82.7022 175.414 84.349 179.354 85.8876 179.354C87.4261 179.354 89.0729 175.414 89.0729 169.546C89.0729 163.679 87.4261 159.738 85.8876 159.738Z" fill="black"/>
<path d="M52.7285 159.77H48.7577C47.1348 159.77 45.8191 163.64 45.8191 168.397C45.8191 173.155 47.1348 177.027 48.7577 177.027H52.7285C54.3515 177.027 55.6661 173.156 55.6661 168.398C55.6661 163.641 54.3504 159.77 52.7285 159.77Z" fill="black"/>
<path d="M103.473 174.049L103.358 112.458L4.08984 125.027V169.091L103.473 174.049Z" fill="white"/>
<path d="M103.473 174.291C103.473 174.291 103.465 174.291 103.461 174.291L4.07689 169.333C3.94814 169.327 3.84644 169.221 3.84644 169.091V125.027C3.84644 124.904 3.93732 124.802 4.0585 124.787L103.328 112.216C103.397 112.208 103.466 112.229 103.518 112.275C103.57 112.32 103.601 112.386 103.601 112.456L103.715 174.048C103.715 174.114 103.688 174.178 103.641 174.225C103.595 174.268 103.536 174.292 103.473 174.292V174.291ZM4.33224 168.86L103.231 173.794L103.117 112.732L4.33224 125.241V168.862V168.86Z" fill="black"/>
<path d="M116.91 158.265H70.5529V98.4883L116.91 100.667V158.265Z" fill="white"/>
<path d="M116.91 158.507C116.776 158.507 116.667 158.399 116.667 158.265V100.898L70.542 98.7296C70.4079 98.7231 70.3051 98.6095 70.3116 98.4764C70.3181 98.3423 70.4338 98.2384 70.5648 98.246L116.922 100.425C117.05 100.432 117.153 100.538 117.153 100.667V158.266C117.153 158.4 117.045 158.508 116.911 158.508L116.91 158.507Z" fill="black"/>
<path d="M70.5529 158.265V98.4883L0.24231 102.856V157.603L70.5529 158.265Z" fill="white"/>
<path d="M66.3008 102.744V127.806L44.0231 128.383V104.036L66.3008 102.744Z" fill="white"/>
<path d="M44.0231 128.625C43.9604 128.625 43.8998 128.601 43.8543 128.556C43.8078 128.511 43.7808 128.448 43.7808 128.383V104.036C43.7808 103.907 43.8814 103.801 44.0091 103.793L66.2868 102.501C66.3528 102.498 66.4188 102.521 66.4674 102.567C66.5161 102.613 66.5432 102.677 66.5432 102.744V127.807C66.5432 127.938 66.4382 128.047 66.3073 128.05L44.0296 128.625H44.0231ZM44.2655 104.265V128.134L66.0574 127.57V103L44.2655 104.264V104.265Z" fill="black"/>
<path d="M70.554 102.744H66.3008V127.807H70.554V102.744Z" fill="white"/>
<path d="M70.5529 128.048H66.2997C66.1656 128.048 66.0574 127.94 66.0574 127.806V102.742C66.0574 102.608 66.1656 102.5 66.2997 102.5H70.5529C70.6871 102.5 70.7953 102.608 70.7953 102.742V127.806C70.7953 127.94 70.6871 128.048 70.5529 128.048ZM66.5421 127.564H70.3095V102.985H66.5421V127.564Z" fill="black"/>
<path d="M53.1311 103.871L53.1614 106.929L56.5512 106.808L56.6118 103.659L53.1311 103.871Z" fill="black"/>
<path d="M49.1764 123.762C49.1137 123.762 49.0542 123.738 49.0087 123.695C48.9611 123.649 48.9341 123.586 48.9341 123.52V111.868C48.9341 111.738 49.0369 111.631 49.1667 111.626L60.8985 111.141C60.9634 111.135 61.0283 111.162 61.0759 111.208C61.1235 111.253 61.1506 111.317 61.1506 111.383V123.035C61.1506 123.165 61.0478 123.272 60.918 123.277L49.1862 123.761C49.1862 123.761 49.1797 123.761 49.1764 123.761V123.762ZM49.4188 112.101V123.266L60.6659 122.802V111.636L49.4188 112.101Z" fill="black"/>
<path d="M58.8071 117.471C58.9975 117.464 59.1447 117.291 59.1219 117.104C58.9196 115.466 57.1712 114.251 55.044 114.34C52.9169 114.428 51.1673 115.787 50.9661 117.442C50.9434 117.631 51.0894 117.791 51.2809 117.783L58.8082 117.472L58.8071 117.471Z" fill="black"/>
<path d="M54.2898 121.908C54.0442 121.908 53.8148 121.817 53.6395 121.648C53.4567 121.471 53.355 121.233 53.355 120.976V120.413C53.355 120.279 53.4632 120.171 53.5973 120.171C53.7315 120.171 53.8397 120.279 53.8397 120.413V120.976C53.8397 121.1 53.8873 121.214 53.9749 121.298C54.0637 121.384 54.1805 121.424 54.3104 121.423C54.5808 121.412 54.8005 121.185 54.8005 120.918V113.27C54.8005 113.136 54.9087 113.028 55.0429 113.028C55.177 113.028 55.2852 113.136 55.2852 113.27V120.918C55.2852 121.441 54.8568 121.886 54.3298 121.908C54.3169 121.908 54.3028 121.908 54.2887 121.908H54.2898Z" fill="black"/>
<path d="M66.3008 130.059V155.123H44.0231V130.488L66.3008 130.059Z" fill="white"/>
<path d="M66.3008 155.365H44.0231C43.889 155.365 43.7808 155.257 43.7808 155.123V130.487C43.7808 130.355 43.8868 130.247 44.0188 130.245L66.2965 129.817C66.3571 129.813 66.4242 129.84 66.4707 129.886C66.5172 129.931 66.5432 129.994 66.5432 130.059V155.123C66.5432 155.257 66.435 155.365 66.3008 155.365ZM44.2655 154.88H66.0574V130.307L44.2655 130.727V154.882V154.88Z" fill="black"/>
<path d="M70.554 130.059H66.3008V155.123H70.554V130.059Z" fill="white"/>
<path d="M70.5529 155.365H66.2997C66.1656 155.365 66.0574 155.257 66.0574 155.123V130.059C66.0574 129.925 66.1656 129.816 66.2997 129.816H70.5529C70.6871 129.816 70.7953 129.925 70.7953 130.059V155.123C70.7953 155.257 70.6871 155.365 70.5529 155.365ZM66.5421 154.88H70.3095V130.301H66.5421V154.88Z" fill="black"/>
<path d="M52.4991 130.596V133.623L55.8565 133.684L55.9333 130.535L52.4991 130.596Z" fill="black"/>
<path d="M60.9613 151.39H49.4253C49.2912 151.39 49.183 151.282 49.183 151.147V139.612C49.183 139.477 49.2912 139.369 49.4253 139.369H60.9613C61.0954 139.369 61.2036 139.477 61.2036 139.612V151.147C61.2036 151.282 61.0954 151.39 60.9613 151.39ZM49.6677 150.905H60.7189V139.854H49.6677V150.905Z" fill="black"/>
<path d="M59.2918 148.155H51.0938V149.541H59.2918V148.155Z" fill="black"/>
<path d="M53.6796 141.891H52.2936V146.644H53.6796V141.891Z" fill="black"/>
<path d="M51.1511 142.81L52.9872 140.974L54.8222 142.81H51.1511Z" fill="black"/>
<path d="M58.0929 141.891H56.7069V146.644H58.0929V141.891Z" fill="black"/>
<path d="M55.5634 142.81L57.3995 140.974L59.2356 142.81H55.5634Z" fill="black"/>
<path d="M43.8932 131.151H39.64V155.123H43.8932V131.151Z" fill="white"/>
<path d="M43.8922 155.365H39.639C39.5048 155.365 39.3966 155.257 39.3966 155.123V131.151C39.3966 131.016 39.5048 130.908 39.639 130.908H43.8922C44.0263 130.908 44.1345 131.016 44.1345 131.151V155.123C44.1345 155.257 44.0263 155.365 43.8922 155.365ZM39.8813 154.88H43.6487V131.393H39.8813V154.88Z" fill="black"/>
<path d="M39.6011 131.151V155.123H18.0375V131.844L39.6011 131.151Z" fill="white"/>
<path d="M39.601 155.365H18.0374C17.9032 155.365 17.795 155.257 17.795 155.123V131.844C17.795 131.713 17.8989 131.606 18.0298 131.602L39.5934 130.908C39.6584 130.901 39.7222 130.931 39.7698 130.977C39.8174 131.022 39.8434 131.085 39.8434 131.151V155.123C39.8434 155.257 39.7352 155.365 39.601 155.365ZM18.2798 154.88H39.3587V131.401L18.2798 132.079V154.88Z" fill="black"/>
<path d="M26.5612 131.806V134.834L29.9336 134.894L30.0029 131.746L26.5612 131.806Z" fill="black"/>
<path d="M34.7593 151.122H23.1076C22.9734 151.122 22.8652 151.014 22.8652 150.879V139.228C22.8652 139.094 22.9734 138.985 23.1076 138.985H34.7593C34.8935 138.985 35.0017 139.094 35.0017 139.228V150.879C35.0017 151.014 34.8935 151.122 34.7593 151.122ZM23.35 150.637H34.5169V139.47H23.35V150.637Z" fill="black"/>
<path d="M32.6722 145.229C32.8615 145.229 33.0076 145.063 32.9849 144.876C32.7847 143.229 31.0471 141.942 28.9351 141.942C26.8231 141.942 25.0854 143.229 24.8853 144.876C24.8625 145.064 25.0086 145.229 25.198 145.229H32.6743H32.6722Z" fill="black"/>
<path d="M28.2155 149.479C27.6865 149.479 27.2548 149.049 27.2548 148.519V147.956C27.2548 147.822 27.363 147.714 27.4971 147.714C27.6313 147.714 27.7395 147.822 27.7395 147.956V148.519C27.7395 148.78 27.9526 148.995 28.2155 148.995C28.4785 148.995 28.6905 148.782 28.6905 148.519V140.871C28.6905 140.737 28.7987 140.629 28.9329 140.629C29.0671 140.629 29.1753 140.737 29.1753 140.871V148.519C29.1753 149.048 28.7446 149.479 28.2155 149.479Z" fill="black"/>
<path d="M43.8932 104.401H39.64V128.373H43.8932V104.401Z" fill="white"/>
<path d="M43.8922 128.615H39.639C39.5048 128.615 39.3966 128.507 39.3966 128.373V104.401C39.3966 104.267 39.5048 104.159 39.639 104.159H43.8922C44.0263 104.159 44.1345 104.267 44.1345 104.401V128.373C44.1345 128.507 44.0263 128.615 43.8922 128.615ZM39.8813 128.131H43.6487V104.643H39.8813V128.131Z" fill="black"/>
<path d="M39.6011 104.401V128.373L18.0375 128.949V105.095L39.6011 104.401Z" fill="white"/>
<path d="M18.0374 129.191C17.9747 129.191 17.9141 129.166 17.8686 129.123C17.8221 129.077 17.795 129.015 17.795 128.949V105.095C17.795 104.964 17.8989 104.856 18.0298 104.852L39.5934 104.159C39.6584 104.152 39.7222 104.181 39.7698 104.227C39.8174 104.272 39.8434 104.335 39.8434 104.401V128.373C39.8434 128.504 39.7384 128.612 39.6075 128.615L18.0439 129.191H18.0374ZM18.2798 105.329V128.7L39.3587 128.137V104.652L18.2798 105.33V105.329Z" fill="black"/>
<path d="M27.2883 105.172V108.199L30.6608 108.259L30.7301 105.051L27.2883 105.172Z" fill="black"/>
<path d="M23.1541 123.545C23.0914 123.545 23.0308 123.521 22.9853 123.477C22.9377 123.432 22.9117 123.369 22.9117 123.303V111.767C22.9117 111.636 23.0156 111.529 23.1465 111.525L35.046 111.161C35.1098 111.159 35.1748 111.184 35.2224 111.229C35.27 111.275 35.2959 111.338 35.2959 111.404V122.94C35.2959 123.07 35.1921 123.178 35.0612 123.182L23.1617 123.545H23.1541ZM23.3965 112.002V123.053L34.8112 122.705V111.654L23.3965 112.002Z" fill="black"/>
<path d="M33.3311 121.385L24.8755 121.644V120.258L33.3311 119.999V121.385Z" fill="black"/>
<path d="M26.1133 118.71V113.957L27.5426 113.913V118.667L26.1133 118.71Z" fill="black"/>
<path d="M24.934 114.911L26.8285 113.017L28.7219 114.796L24.934 114.911Z" fill="black"/>
<path d="M30.665 118.572V113.818L32.0943 113.774V118.527L30.665 118.572Z" fill="black"/>
<path d="M29.4857 114.772L31.3792 112.878L33.2737 114.656L29.4857 114.772Z" fill="black"/>
<path d="M62.7574 161.229H58.2953C56.4722 161.229 54.9943 165.605 54.9943 170.95C54.9943 176.295 56.4722 180.674 58.2953 180.674H62.7574C64.5805 180.674 66.0585 176.296 66.0585 170.951C66.0585 165.606 64.5805 161.229 62.7574 161.229Z" fill="black"/>
<path d="M58.2963 180.514C60.1195 180.514 61.5974 176.182 61.5974 170.837C61.5974 165.493 60.1195 161.16 58.2963 161.16C56.4732 161.16 54.9952 165.493 54.9952 170.837C54.9952 176.182 56.4732 180.514 58.2963 180.514Z" fill="white"/>
<path d="M58.2964 180.758C56.3099 180.758 54.7529 176.401 54.7529 170.838C54.7529 165.276 56.3088 160.919 58.2964 160.919C60.2839 160.919 61.8398 165.276 61.8398 170.838C61.8398 176.401 60.2839 180.758 58.2964 180.758ZM58.2964 161.404C56.8195 161.404 55.2377 165.195 55.2377 170.838C55.2377 176.482 56.8184 180.273 58.2964 180.273C59.7743 180.273 61.3551 176.482 61.3551 170.838C61.3551 165.195 59.7733 161.404 58.2964 161.404Z" fill="black"/>
<path d="M76.6542 161.527H72.0212C70.1277 161.527 68.5935 166.072 68.5935 171.623C68.5935 177.173 70.1277 181.721 72.0212 181.721H76.6542C78.5476 181.721 80.0818 177.174 80.0818 171.624C80.0818 166.073 78.5476 161.527 76.6542 161.527Z" fill="black"/>
<path d="M72.0212 181.556C73.9142 181.556 75.4489 177.057 75.4489 171.506C75.4489 165.955 73.9142 161.456 72.0212 161.456C70.1281 161.456 68.5935 165.955 68.5935 171.506C68.5935 177.057 70.1281 181.556 72.0212 181.556Z" fill="white"/>
<path d="M72.0211 181.798C69.9632 181.798 68.3511 177.278 68.3511 171.506C68.3511 165.733 69.9632 161.213 72.0211 161.213C74.079 161.213 75.6911 165.733 75.6911 171.506C75.6911 177.278 74.079 181.798 72.0211 181.798ZM72.0211 161.699C70.4826 161.699 68.8358 165.639 68.8358 171.507C68.8358 177.374 70.4826 181.315 72.0211 181.315C73.5597 181.315 75.2064 177.374 75.2064 171.507C75.2064 165.639 73.5597 161.699 72.0211 161.699Z" fill="black"/>
<path d="M14.0191 160.012H10.1943C8.63197 160.012 7.36499 163.632 7.36499 168.154C7.36499 172.676 8.63197 176.298 10.1943 176.298H14.0191C15.5815 176.298 16.8484 172.677 16.8484 168.155C16.8484 163.634 15.5815 160.012 14.0191 160.012Z" fill="black"/>
<path d="M10.1953 176.204C11.7579 176.204 13.0247 172.538 13.0247 168.016C13.0247 163.495 11.7579 159.829 10.1953 159.829C8.63271 159.829 7.36597 163.495 7.36597 168.016C7.36597 172.538 8.63271 176.204 10.1953 176.204Z" fill="white"/>
<path d="M10.1954 176.446C8.47287 176.446 7.12366 172.744 7.12366 168.017C7.12366 163.289 8.47287 159.587 10.1954 159.587C11.9179 159.587 13.2671 163.289 13.2671 168.017C13.2671 172.744 11.9179 176.446 10.1954 176.446ZM10.1954 160.072C8.94569 160.072 7.60838 163.265 7.60838 168.017C7.60838 172.769 8.94569 175.961 10.1954 175.961C11.445 175.961 12.7823 172.769 12.7823 168.017C12.7823 163.265 11.445 160.072 10.1954 160.072Z" fill="black"/>
<path d="M21.2638 160.499H17.4391C15.8767 160.499 14.6097 164.119 14.6097 168.641C14.6097 173.162 15.8767 176.785 17.4391 176.785H21.2638C22.8262 176.785 24.0932 173.163 24.0932 168.642C24.0932 164.12 22.8262 160.499 21.2638 160.499Z" fill="black"/>
<path d="M17.4391 176.689C19.0017 176.689 20.2684 173.024 20.2684 168.502C20.2684 163.981 19.0017 160.315 17.4391 160.315C15.8765 160.315 14.6097 163.981 14.6097 168.502C14.6097 173.024 15.8765 176.689 17.4391 176.689Z" fill="white"/>
<path d="M17.4391 176.933C15.7166 176.933 14.3674 173.23 14.3674 168.503C14.3674 163.776 15.7166 160.074 17.4391 160.074C19.1616 160.074 20.5108 163.776 20.5108 168.503C20.5108 173.23 19.1616 176.933 17.4391 176.933ZM17.4391 160.558C16.1895 160.558 14.8522 163.751 14.8522 168.503C14.8522 173.255 16.1895 176.448 17.4391 176.448C18.6888 176.448 20.0261 173.255 20.0261 168.503C20.0261 163.751 18.6888 160.558 17.4391 160.558Z" fill="black"/>
<path d="M28.8225 160.499H24.8517C23.2288 160.499 21.9131 164.369 21.9131 169.127C21.9131 173.884 23.2288 177.756 24.8517 177.756H28.8225C30.4455 177.756 31.7601 173.885 31.7601 169.128C31.7601 164.37 30.4444 160.499 28.8225 160.499Z" fill="black"/>
<path d="M24.8517 177.602C26.4741 177.602 27.7893 173.745 27.7893 168.988C27.7893 164.231 26.4741 160.375 24.8517 160.375C23.2294 160.375 21.9142 164.231 21.9142 168.988C21.9142 173.745 23.2294 177.602 24.8517 177.602Z" fill="white"/>
<path d="M24.8517 177.845C23.0686 177.845 21.6718 173.954 21.6718 168.988C21.6718 164.022 23.0686 160.132 24.8517 160.132C26.6347 160.132 28.0326 164.022 28.0326 168.988C28.0326 173.954 26.6358 177.845 24.8517 177.845ZM24.8517 160.617C23.55 160.617 22.1565 163.981 22.1565 168.988C22.1565 173.996 23.55 177.36 24.8517 177.36C26.1533 177.36 27.5479 173.997 27.5479 168.988C27.5479 163.98 26.1543 160.617 24.8517 160.617Z" fill="black"/>
<path d="M70.5529 158.384H70.5507L24.0911 158.028C23.9569 158.028 23.8498 157.918 23.8509 157.783C23.8509 157.65 23.9601 157.543 24.0932 157.543H24.0954L70.3116 157.898V98.747L0.484705 103.085V157.363L8.56808 157.424C8.70225 157.424 8.80936 157.535 8.80828 157.669C8.80828 157.802 8.699 157.909 8.56592 157.909H8.56375L0.239098 157.845C0.106016 157.845 -0.00109863 157.736 -0.00109863 157.603V102.856C-0.00109863 102.729 0.0984423 102.623 0.226114 102.614L70.5367 98.2449C70.6027 98.2417 70.6687 98.2644 70.7174 98.3098C70.766 98.3553 70.7942 98.4191 70.7942 98.4862V158.14C70.7942 158.205 70.7682 158.267 70.7228 158.312C70.6773 158.358 70.6157 158.383 70.5518 158.383L70.5529 158.384Z" fill="black"/>
<path d="M101.732 152.599L104.573 155.15L105.599 174.191H121.643V152.651L101.732 152.599Z" fill="white"/>
<path d="M121.643 174.433H105.599C105.47 174.433 105.364 174.333 105.357 174.204L104.336 155.263L101.569 152.779C101.494 152.712 101.468 152.606 101.504 152.512C101.539 152.418 101.629 152.356 101.73 152.356L121.641 152.408C121.774 152.408 121.882 152.516 121.882 152.65V174.191C121.882 174.325 121.774 174.433 121.64 174.433H121.643ZM105.828 173.949H121.401V152.893L102.367 152.843L104.737 154.969C104.784 155.012 104.813 155.072 104.817 155.137L105.829 173.949H105.828Z" fill="black"/>
<path d="M120.53 157.779H114.542C112.096 157.779 110.112 163.611 110.112 170.784C110.112 177.957 112.095 183.793 114.542 183.793H120.53C122.976 183.793 124.961 177.959 124.961 170.785C124.961 163.612 122.977 157.779 120.53 157.779Z" fill="black"/>
<path d="M114.541 183.586C116.988 183.586 118.972 177.771 118.972 170.597C118.972 163.423 116.988 157.608 114.541 157.608C112.094 157.608 110.111 163.423 110.111 170.597C110.111 177.771 112.094 183.586 114.541 183.586Z" fill="white"/>
<path d="M114.541 183.827C111.922 183.827 109.868 178.016 109.868 170.596C109.868 163.176 111.921 157.365 114.541 157.365C117.162 157.365 119.214 163.176 119.214 170.596C119.214 178.016 117.162 183.827 114.541 183.827ZM114.541 157.851C112.271 157.851 110.354 163.688 110.354 170.597C110.354 177.507 112.273 183.344 114.541 183.344C116.81 183.344 118.729 177.507 118.729 170.597C118.729 163.688 116.81 157.851 114.541 157.851Z" fill="black"/>
<path d="M145.162 125.339H145.568C146.387 125.339 147.051 126.004 147.051 126.823V133.294C147.051 133.952 146.517 134.486 145.859 134.486H144.959C144.445 134.486 144.028 134.069 144.028 133.556V126.474C144.028 125.848 144.537 125.339 145.163 125.339H145.162Z" fill="black"/>
<path d="M158.546 154.955H152.558C150.112 154.955 148.128 160.787 148.128 167.96C148.128 175.134 150.111 180.969 152.558 180.969H158.546C160.992 180.969 162.977 175.135 162.977 167.962C162.977 160.788 160.993 154.954 158.546 154.954V154.955Z" fill="black"/>
<path d="M152.557 180.762C155.004 180.762 156.988 174.947 156.988 167.773C156.988 160.6 155.004 154.784 152.557 154.784C150.11 154.784 148.127 160.6 148.127 167.773C148.127 174.947 150.11 180.762 152.557 180.762Z" fill="white"/>
<path d="M152.557 181.003C149.937 181.003 147.884 175.192 147.884 167.772C147.884 160.352 149.937 154.541 152.557 154.541C155.178 154.541 157.23 160.352 157.23 167.772C157.23 175.192 155.178 181.003 152.557 181.003ZM152.557 155.026C150.287 155.026 148.369 160.864 148.369 167.773C148.369 174.682 150.287 180.52 152.557 180.52C154.827 180.52 156.745 174.682 156.745 167.773C156.745 160.864 154.826 155.026 152.557 155.026Z" fill="black"/>
<path d="M72.7731 158.245L103.356 158.704L103.473 174.049H105.844C105.801 172.051 105.77 170.143 105.77 168.783C105.77 160.601 109.601 153.967 114.328 153.967C117.415 153.967 120.119 156.797 121.624 161.038C127.588 161.331 136.722 161.185 145.559 160.903C158.918 160.475 171.596 159.737 171.596 159.737C171.764 152.61 164.653 149.669 164.653 149.669C164.653 149.669 163.963 143.856 162.954 142.846C161.943 141.835 145.838 136.121 145.838 136.121L138.456 117.418C137.687 115.575 136.613 113.868 135.253 112.396C131.923 108.793 125.517 104.369 113.922 103.82C112.145 103.736 90.0099 101.964 78.9511 101.462C75.8199 101.32 73.3692 101.63 72.7742 101.68V158.242L72.7731 158.245Z" fill="white"/>
<path d="M168.679 152.457L168.2 152.842C167.358 153.52 166.828 154.511 166.732 155.589L166.622 156.839C166.551 157.627 167.201 158.293 167.99 158.244L171.491 158.028C171.14 155.617 169.958 153.783 168.679 152.458V152.457Z" fill="white"/>
<path d="M167.909 158.488C167.496 158.488 167.1 158.321 166.809 158.023C166.496 157.703 166.339 157.263 166.379 156.816L166.49 155.566C166.59 154.429 167.158 153.368 168.047 152.651L168.525 152.266C168.622 152.187 168.764 152.196 168.852 152.287C170.452 153.946 171.42 155.864 171.73 157.99C171.739 158.057 171.721 158.125 171.678 158.178C171.635 158.231 171.572 158.263 171.505 158.267L168.005 158.483C167.973 158.485 167.941 158.487 167.909 158.487V158.488ZM168.656 152.785L168.352 153.029C167.565 153.662 167.062 154.602 166.973 155.608L166.863 156.858C166.836 157.163 166.943 157.465 167.157 157.685C167.371 157.904 167.664 158.019 167.975 158.001L171.209 157.801C170.888 155.948 170.03 154.263 168.657 152.786L168.656 152.785Z" fill="black"/>
<path d="M138.231 143.735L111.438 136.123L105.332 116.667C104.567 114.23 103.299 111.973 101.564 110.097C97.5793 105.785 89.1876 100.296 72.7731 101.683V158.245L103.23 158.571L103.473 173.849L105.843 174.191C105.8 172.194 105.77 170.143 105.77 168.784C105.77 160.602 109.601 153.968 114.328 153.968C117.415 153.968 120.119 156.798 121.624 161.039C127.588 161.332 136.722 161.186 145.559 160.904C146.418 160.877 148.127 160.817 148.127 160.817L142.323 147.328C141.569 145.575 140.066 144.257 138.231 143.735Z" fill="white"/>
<path d="M139.68 144.592C139.639 144.592 139.597 144.581 139.559 144.559C139.122 144.305 138.653 144.107 138.166 143.969L111.373 136.357C111.294 136.334 111.233 136.275 111.209 136.197L105.102 116.741C104.337 114.303 103.053 112.062 101.388 110.262C98.7609 107.421 95.3365 105.242 91.2077 103.785C91.0811 103.741 91.0151 103.603 91.0595 103.476C91.1038 103.35 91.2423 103.284 91.3689 103.328C95.5723 104.81 99.0628 107.032 101.744 109.932C103.457 111.785 104.778 114.089 105.564 116.595L111.632 135.926L138.299 143.502C138.825 143.652 139.331 143.867 139.803 144.14C139.919 144.207 139.959 144.355 139.891 144.471C139.845 144.549 139.764 144.592 139.681 144.592H139.68Z" fill="black"/>
<path d="M105.843 174.434C105.843 174.434 105.834 174.434 105.829 174.434L103.459 174.291C103.331 174.283 103.231 174.178 103.23 174.051L103.116 158.526C103.116 158.481 103.127 158.438 103.149 158.4C103.82 157.263 109.955 147.25 118.582 145.862C122.948 145.159 127.366 145.703 131.715 147.479C137.396 149.797 142.981 154.232 148.315 160.662C148.373 160.734 148.387 160.832 148.35 160.917C148.312 161.001 148.229 161.056 148.137 161.059C147.286 161.089 146.43 161.118 145.57 161.145C134.831 161.488 126.772 161.533 121.614 161.28C121.516 161.275 121.43 161.212 121.398 161.119C119.861 156.792 117.22 154.21 114.33 154.21C109.745 154.21 106.014 160.747 106.014 168.781C106.014 170.066 106.041 172.086 106.088 174.185C106.089 174.253 106.062 174.318 106.013 174.364C105.968 174.408 105.907 174.433 105.846 174.433L105.843 174.434ZM103.714 173.82L105.596 173.933C105.553 171.927 105.529 170.017 105.529 168.783C105.529 160.48 109.477 153.725 114.329 153.725C117.398 153.725 120.183 156.368 121.798 160.804C126.949 161.049 134.939 161 145.553 160.661C146.246 160.639 146.936 160.616 147.625 160.592C138.327 149.538 128.584 144.745 118.66 146.341C110.38 147.673 104.413 157.23 103.603 158.589L103.715 173.82H103.714Z" fill="black"/>
<path d="M106.656 136.89H95.5842C95.45 136.89 95.3418 136.781 95.3418 136.647V123.179C95.3418 123.045 95.45 122.937 95.5842 122.937H103.699C104.442 122.937 105.098 123.437 105.293 124.155C105.92 126.463 107.334 131.941 108.121 134.999C108.239 135.456 108.14 135.931 107.852 136.303C107.563 136.675 107.127 136.89 106.655 136.89H106.656ZM95.8265 136.405H106.656C106.976 136.405 107.273 136.26 107.47 136.007C107.665 135.754 107.732 135.431 107.652 135.121C106.866 132.063 105.452 126.587 104.825 124.282C104.688 123.776 104.225 123.422 103.699 123.422H95.8265V136.406V136.405Z" fill="black"/>
<path d="M164.625 151.97C164.753 150.351 164.653 148.722 164.317 147.134C163.95 145.394 163.369 143.466 162.711 142.848C162.253 142.42 161.966 142.267 160.833 141.782H145.128C143.935 141.782 142.814 142.356 142.116 143.323C141.171 144.634 140.886 146.309 141.345 147.859L143.058 153.644C143.357 154.657 144.288 155.352 145.345 155.352H161.894C163.284 155.352 164.44 154.284 164.55 152.898L164.623 151.97H164.625Z" fill="white"/>
<path d="M161.895 155.593H145.346C144.191 155.593 143.155 154.82 142.827 153.712L141.114 147.926C140.638 146.317 140.94 144.542 141.922 143.18C142.663 142.152 143.863 141.539 145.13 141.539H160.835C160.868 141.539 160.9 141.545 160.931 141.558C162.047 142.036 162.384 142.207 162.878 142.67C163.689 143.429 164.277 145.76 164.556 147.083C164.894 148.684 164.999 150.334 164.868 151.988L164.794 152.915C164.675 154.416 163.403 155.592 161.897 155.592L161.895 155.593ZM145.127 142.023C144.016 142.023 142.964 142.562 142.313 143.463C141.419 144.704 141.144 146.321 141.578 147.788L143.29 153.573C143.558 154.477 144.403 155.108 145.345 155.108H161.894C163.149 155.108 164.209 154.127 164.308 152.877L164.381 151.949C164.509 150.341 164.407 148.738 164.079 147.182C163.631 145.059 163.058 143.505 162.544 143.023C162.127 142.634 161.891 142.498 160.782 142.022H145.126L145.127 142.023Z" fill="black"/>
<path d="M95.4003 122.309H97.6648C98.4839 122.309 99.1482 122.973 99.1482 123.792V130.263C99.1482 130.921 98.6137 131.456 97.9559 131.456H95.1968C94.6829 131.456 94.2664 131.038 94.2664 130.525V123.444C94.2664 122.817 94.7749 122.309 95.4013 122.309H95.4003Z" fill="black"/>
<path d="M95.4003 132.326H97.6648C98.4839 132.326 99.1482 132.99 99.1482 133.809V136.029C99.1482 136.687 98.6137 137.222 97.9559 137.222H95.1968C94.6829 137.222 94.2664 136.804 94.2664 136.291V133.461C94.2664 132.834 94.7749 132.326 95.4013 132.326H95.4003Z" fill="black"/>
<path d="M128.454 176.009L166.662 174.216C168.719 174.12 170.391 172.524 170.585 170.474L171.596 159.738L121.624 161.039L124.043 172.594C124.476 174.662 126.346 176.108 128.455 176.01L128.454 176.009Z" fill="white"/>
<path d="M128.247 176.257C126.098 176.257 124.25 174.768 123.805 172.644L121.386 161.089C121.371 161.018 121.388 160.945 121.433 160.888C121.478 160.832 121.545 160.799 121.617 160.796L171.589 159.496C171.656 159.493 171.725 159.522 171.773 159.573C171.821 159.624 171.843 159.692 171.838 159.761L170.827 170.496C170.624 172.654 168.839 174.357 166.675 174.458L128.467 176.251C128.394 176.254 128.321 176.257 128.249 176.257H128.247ZM128.442 175.768L166.65 173.975C168.575 173.884 170.162 172.37 170.343 170.451L171.327 159.988L121.919 161.274L124.278 172.544C124.689 174.506 126.441 175.86 128.441 175.768H128.442Z" fill="black"/>
<path d="M141.245 135.861C141.23 135.861 141.214 135.861 141.199 135.861L115.129 135.098C114.077 135.066 113.17 134.368 112.874 133.357L109.636 122.328C109.504 121.881 109.595 121.414 109.883 121.049C110.172 120.683 110.602 120.49 111.071 120.511L136.21 121.063C137.283 121.086 138.221 121.751 138.598 122.756L142.7 133.691C142.903 134.177 142.846 134.736 142.543 135.179C142.248 135.609 141.767 135.861 141.249 135.861H141.245ZM111 120.994C110.707 120.994 110.443 121.122 110.263 121.349C110.073 121.591 110.013 121.898 110.1 122.191L113.338 133.22C113.575 134.028 114.3 134.587 115.142 134.612L141.212 135.375C141.585 135.393 141.929 135.209 142.139 134.904C142.349 134.599 142.389 134.212 142.245 133.87L138.14 122.926C137.833 122.107 137.07 121.566 136.196 121.546L111.051 120.994C111.034 120.994 111.015 120.993 110.998 120.993L111 120.994Z" fill="black"/>
<path d="M121.333 130.73H112.284C112.177 130.73 112.082 130.659 112.052 130.556L109.636 122.328C109.505 121.88 109.595 121.414 109.883 121.048C110.172 120.683 110.608 120.488 111.071 120.511L136.21 121.062C137.283 121.086 138.221 121.751 138.598 122.756L139.665 125.6C139.693 125.675 139.682 125.758 139.637 125.823C139.591 125.888 139.516 125.927 139.437 125.927H132.907C130.788 125.927 128.796 126.752 127.299 128.25C125.696 129.852 123.582 130.728 121.334 130.728L121.333 130.73ZM112.466 130.245H121.333C123.451 130.245 125.443 129.419 126.941 127.922C128.543 126.319 130.657 125.443 132.906 125.443H139.087L138.143 122.927C137.836 122.108 137.073 121.567 136.199 121.547L111.054 120.995C110.74 120.98 110.455 121.108 110.265 121.349C110.075 121.59 110.015 121.897 110.102 122.191L112.467 130.244L112.466 130.245Z" fill="black"/>
<path d="M141.245 135.861C141.23 135.861 141.214 135.861 141.199 135.861L115.129 135.098C114.077 135.066 113.17 134.368 112.874 133.357L109.636 122.328C109.504 121.881 109.595 121.414 109.883 121.049C110.172 120.683 110.602 120.49 111.071 120.511L136.21 121.063C137.283 121.086 138.221 121.751 138.598 122.756L142.7 133.691C142.903 134.177 142.846 134.736 142.543 135.179C142.248 135.609 141.767 135.861 141.249 135.861H141.245ZM111 120.994C110.707 120.994 110.443 121.122 110.263 121.349C110.073 121.591 110.013 121.898 110.1 122.191L113.338 133.22C113.575 134.028 114.3 134.587 115.142 134.612L141.212 135.375C141.585 135.393 141.929 135.209 142.139 134.904C142.349 134.599 142.389 134.212 142.245 133.87L138.14 122.926C137.833 122.107 137.07 121.566 136.196 121.546L111.051 120.994C111.034 120.994 111.015 120.993 110.998 120.993L111 120.994Z" fill="black"/>
<path d="M141.87 157.758L137.606 155.022C135.78 153.852 133.659 153.229 131.49 153.229H130.447C128.952 153.229 127.739 154.441 127.739 155.938V155.994C127.739 157.629 129.065 158.954 130.7 158.954H141.519C142.167 158.954 142.415 158.109 141.87 157.759V157.758Z" fill="white"/>
<path d="M141.519 159.195H130.699C128.934 159.195 127.497 157.758 127.497 155.993V155.936C127.497 154.31 128.82 152.986 130.446 152.986H131.489C133.708 152.986 135.868 153.619 137.735 154.817L142 157.552C142.341 157.771 142.487 158.164 142.374 158.554C142.26 158.943 141.924 159.194 141.518 159.194L141.519 159.195ZM130.447 153.472C129.088 153.472 127.983 154.577 127.983 155.936V155.993C127.983 157.491 129.202 158.711 130.701 158.711H141.52C141.745 158.711 141.87 158.559 141.911 158.418C141.952 158.277 141.929 158.083 141.74 157.962L137.476 155.227C135.686 154.079 133.618 153.472 131.491 153.472H130.448H130.447Z" fill="black"/>
<path d="M105.846 174.291H103.474C103.341 174.291 103.233 174.184 103.232 174.051L103.117 158.943L72.771 158.488C72.6379 158.486 72.5319 158.377 72.5319 158.245V101.683C72.5319 101.558 72.6282 101.453 72.7537 101.442C72.8272 101.436 72.9289 101.426 73.0577 101.413C73.999 101.319 76.2051 101.097 78.9631 101.223C86.9361 101.585 100.88 102.623 108.372 103.181C111.315 103.401 113.442 103.559 113.936 103.581C125.602 104.133 132.066 108.592 135.433 112.235C136.792 113.705 137.886 115.419 138.681 117.328L146.026 135.932C148.079 136.669 161.91 141.656 162.889 142.679C164.501 144.366 164.837 148.638 164.89 149.51C165.903 149.981 171.998 153.1 171.84 159.744C171.837 159.871 171.737 159.973 171.612 159.98C171.485 159.987 158.78 160.723 145.57 161.145C134.832 161.488 126.772 161.534 121.614 161.28C121.516 161.275 121.43 161.212 121.398 161.119C119.861 156.792 117.22 154.21 114.33 154.21C109.745 154.21 106.014 160.747 106.014 168.782C106.014 169.991 106.039 171.761 106.089 174.042C106.09 174.107 106.065 174.17 106.02 174.216C105.974 174.263 105.912 174.289 105.847 174.289L105.846 174.291ZM103.714 173.806H105.598C105.551 171.641 105.528 169.951 105.528 168.783C105.528 160.48 109.476 153.725 114.328 153.725C117.397 153.725 120.182 156.368 121.797 160.804C126.948 161.049 134.938 161 145.552 160.662C157.789 160.27 169.592 159.611 171.355 159.51C171.366 152.789 164.628 149.923 164.56 149.895C164.472 149.859 164.415 149.776 164.41 149.682C164.408 149.632 164.172 144.727 162.536 143.016C161.841 142.289 152.12 138.633 145.756 136.352C145.69 136.328 145.638 136.277 145.612 136.212L138.23 117.509C137.457 115.657 136.395 113.992 135.075 112.563C131.768 108.987 125.413 104.609 113.911 104.065C113.411 104.041 111.281 103.883 108.334 103.663C100.845 103.106 86.9058 102.068 78.9404 101.706C76.2181 101.583 74.0369 101.801 73.1053 101.894C73.0739 101.898 73.0447 101.9 73.0166 101.903V158.006L103.36 158.462C103.492 158.464 103.598 158.571 103.599 158.702L103.714 173.806Z" fill="black"/>
<path d="M145.54 145.653C145.408 145.653 145.3 145.547 145.297 145.415C145.295 145.281 145.401 145.171 145.535 145.169L159.952 144.926H159.956C160.088 144.926 160.196 145.032 160.198 145.164C160.2 145.298 160.093 145.409 159.96 145.411L145.544 145.653H145.54Z" fill="black"/>
<path d="M145.54 148.808C145.408 148.808 145.3 148.702 145.297 148.569C145.295 148.435 145.402 148.325 145.537 148.322L161.406 148.08H161.409C161.541 148.08 161.649 148.186 161.651 148.319C161.653 148.453 161.546 148.564 161.412 148.566L145.543 148.808H145.54Z" fill="black"/>
<path d="M148.687 151.963C148.555 151.963 148.448 151.858 148.445 151.726C148.442 151.592 148.549 151.482 148.682 151.479L159.95 151.236H159.956C160.088 151.236 160.195 151.341 160.198 151.473C160.201 151.607 160.094 151.718 159.961 151.721L148.693 151.963H148.687Z" fill="black"/>
<path d="M87.7248 153.472H78.8343C78.7001 153.472 78.5919 153.364 78.5919 153.229V143.253C78.5919 143.118 78.7001 143.01 78.8343 143.01H87.7248C87.859 143.01 87.9672 143.118 87.9672 143.253V153.229C87.9672 153.364 87.859 153.472 87.7248 153.472ZM79.0766 152.987H87.4824V143.496H79.0766V152.987Z" fill="black"/>
</g>
<defs>
<clipPath id="clip0_0_3772">
<rect width="199.061" height="198" fill="white"/>
</clipPath>
</defs>
</svg>
